<svg xmlns="http://www.w3.org/2000/svg" width="1280" height="454" viewBox="0 0 1280 454" fill="none">
<path opacity="0.88" d="M412.157 230.269C332.927 58.7582 106.375 5.29353 3.00264 0H-4V454H1323V172.418C1287.65 212.876 1145.83 281.087 861.326 230.269C505.692 166.746 511.194 444.657 412.157 230.269Z" fill="url(#paint0_linear_2329_374)"/>
<path d="M398.401 271.331C355.598 329.913 212.98 324.458 166.633 237.591C144.611 196.315 145.192 138.284 172.61 92.7638C198.468 49.8332 246.277 21.2173 290.068 26.6636C384.146 38.3628 446.415 205.617 398.401 271.331Z" fill="url(#paint1_linear_2329_374)"/>
<g clip-path="url(#clip0_2329_374)">
<path opacity="0.1" d="M119.908 279.479H425.095C450.39 258.336 437.373 194.715 416.244 181.818C393.501 167.935 429.615 119.923 394.58 104.338C371.704 94.1637 335.322 105.254 340.216 78.0303C347.003 40.2801 267.686 30.609 209.25 40.7836C146.075 51.7854 203.767 105.874 134.292 116.773C98.5668 122.377 105.471 170.321 108.802 180.228C111.703 188.857 130.898 202.544 104.222 221.393C65.1051 249.03 118.986 278.97 119.908 279.479Z" fill="#9BC1F9"/>
<path d="M390.993 118C390.993 118 385.998 128.898 382.636 133.501C379.273 138.105 376.071 142.506 373.388 155.283C370.705 168.06 371.165 169.343 370.432 172.644C369.698 175.944 364.919 189.314 364.892 191.766C364.864 194.217 355.236 208.174 352.769 214.706C350.302 221.238 345.934 230.57 346.179 235.322L347.276 235.042C347.276 235.042 348.171 223.965 355.783 212.77C363.394 201.575 362.306 199.462 370.949 193.71C379.594 187.959 385.176 172.072 385.176 172.072C385.176 172.072 393.969 154.816 393.559 145.845C393.149 136.875 395.485 128.786 390.993 118Z" fill="#79AAFF"/>
<path d="M379.293 101.238C379.293 101.238 379.002 108.397 376.698 112.65C374.393 116.902 372.408 119.485 371.99 124.086C371.572 128.688 370.125 140.549 363.698 146.34C357.271 152.13 356.451 169.482 351.56 174.731C346.669 179.98 346.03 183.753 346.933 192.755C347.836 201.758 350.905 214.234 343.809 230.519L342.205 226.468C342.205 226.468 347.281 213.071 346.053 205.226C344.824 197.381 340.548 185.528 342.113 179.843C343.678 174.158 337.858 173.048 341.363 164.449C344.867 155.851 343.428 152.864 348.199 145.429C348.199 145.429 348.688 145.081 349.943 138.791C351.197 132.501 361.31 120.973 365.971 117.039C370.629 113.106 377.345 106.801 379.293 101.238Z" fill="#79AAFF"/>
<path d="M360.312 136.684C360.312 136.684 354.73 146.257 354.651 152.42C354.572 158.581 355.238 163.593 352.415 172.032C349.591 180.47 355.195 185.805 353.581 190.464C351.966 195.123 351.84 200.638 351.89 204.821C351.939 209.003 345.498 222.847 344.517 229.856C343.536 236.865 344.789 236.889 344.789 236.889C344.789 236.889 345.857 227.635 347.339 224.575C348.821 221.515 353.327 210.966 354.381 206.884C355.434 202.803 358.287 200.183 360.748 193.27C363.21 186.358 366.71 180.535 366.442 170.727C366.176 160.916 370.115 150.563 360.312 136.684Z" fill="#84B0FF"/>
<path d="M348.495 230.464C348.495 230.464 351.097 218.314 362.072 217.101C373.047 215.887 379.493 218.062 387.246 209.184C394.999 200.307 399.502 186.221 401.978 183.796C401.978 183.796 398.083 181.789 391.606 187.855C385.13 193.921 380.582 198.522 376.833 202.055C373.083 205.587 370.039 203.283 366.08 205.613C362.764 207.565 358.473 213.204 356.583 216.158C355.97 217.118 355.242 217.997 354.406 218.771C353.646 219.474 352.74 220.335 352.159 220.97C350.997 222.239 347.646 230.507 347.646 230.507L348.495 230.464Z" fill="#84B0FF"/>
<path d="M344.628 228.32C344.628 228.32 348.495 213.461 345.905 206.191C343.315 198.919 335.205 193.539 335.531 188.971C335.856 184.403 341.064 172.058 336.818 162.867C336.818 162.867 335.205 171.065 333.614 172.89C332.022 174.713 321.103 182.069 323.039 191.781C324.975 201.494 335.591 203.765 338.207 206.624C340.821 209.484 344.351 209.48 344.373 211.381C344.396 213.283 345.085 220.196 343.912 227.018L344.628 228.32Z" fill="#84B0FF"/>
<path d="M348.857 218.376L354.291 202.693C354.291 202.693 357.483 190.081 359.334 179.562C361.184 169.044 360.312 136.682 360.312 136.682C360.312 136.682 354.731 146.255 354.652 152.418C354.573 158.579 355.239 163.591 352.415 172.03C349.592 180.468 355.196 185.803 353.581 190.462C351.966 195.121 351.84 200.636 351.89 204.819C351.94 209.001 345.497 222.845 344.517 229.854C343.98 233.694 344.114 235.434 344.344 236.226C343.471 230.096 348.857 218.376 348.857 218.376Z" fill="#4A83E7"/>
<path d="M375.62 209.035C370.773 210.004 366.44 209.674 360.686 213.965C354.931 218.256 351.548 222.839 351.548 222.839C351.548 222.839 348.962 227.47 347.892 229.912C347.738 230.285 347.648 230.508 347.648 230.508L348.497 230.465C348.497 230.465 351.099 218.315 362.074 217.102C373.049 215.888 379.494 218.063 387.248 209.185C395.001 200.308 399.503 186.222 401.98 183.797C401.98 183.797 393.733 190.224 388.638 195.913C383.542 201.601 380.467 208.064 375.62 209.035Z" fill="#4A83E7"/>
<path d="M333.614 172.888C332.022 174.712 321.103 182.067 323.039 191.779C324.975 201.492 335.591 203.763 338.207 206.622C340.821 209.482 344.351 209.478 344.373 211.38C344.396 213.281 345.085 220.194 343.912 227.016L344.226 227.585C344.798 224.923 345.594 220.869 345.854 217.791C346.276 212.791 345.467 210.722 343.864 206.671C342.26 202.62 332.294 194.371 329.798 190.034C327.301 185.697 334.613 178.447 336.237 174.946C337.86 171.446 336.822 162.865 336.822 162.865C336.822 162.865 335.205 171.065 333.614 172.888Z" fill="#4A83E7"/>
<path d="M359.52 221.142L361.226 217.011C362.55 213.972 365.936 212.522 368.791 213.77C375.985 216.915 379.112 225.674 375.777 233.329L373.338 238.927C372.27 241.379 372.641 244.077 374.082 245.979C375.39 247.707 375.604 250.109 374.697 252.191L373.412 255.142C372.019 258.338 369.311 260.704 366.099 261.68C364.221 262.25 362.562 263.663 361.684 265.677L359.863 269.855C357.85 274.475 352.7 276.681 348.36 274.783L345.884 273.699C341.543 271.801 339.657 266.517 341.669 261.897C344.924 256.374 344.664 252.252 343.51 249.455C341.815 245.344 341.834 240.613 343.669 236.403L343.926 235.812C345.862 231.368 349.601 228.05 354.054 226.63C356.021 226.004 358.07 224.472 359.52 221.142Z" fill="#6D8BC1"/>
<path d="M328.804 279.479C332.294 274.943 351.437 250.649 363.918 246.6C377.695 242.132 364.71 259.88 364.71 259.88C364.71 259.88 389.15 233.102 398.119 235.516C406.34 237.729 398.119 254.327 398.119 254.327C398.119 254.327 407.379 245.136 418.608 245.136C429.537 245.136 410.973 277.733 409.972 279.479H328.804Z" fill="#98B6EB"/>
<path d="M402.461 226.922C392.475 242.548 385.187 259.908 381.021 278.349L380.336 278.165C384.486 260.109 391.725 242.781 401.695 227.172C404.012 223.544 406.513 219.241 410.851 217.826C410.935 217.799 410.966 217.927 410.887 217.956C406.923 219.452 404.628 223.531 402.461 226.922Z" fill="#516B99"/>
<path d="M383.428 278.997C394.586 263.792 408.153 249.739 424.284 237.519C424.445 237.397 424.662 237.679 424.499 237.804C409.2 249.587 395.665 263.501 384.276 279.226L383.428 278.997Z" fill="#516B99"/>
<path d="M403.374 217.232C403.631 217.611 404.615 218.599 404.904 219.897C405.293 221.129 404.986 222.67 404.952 222.616C404.879 222.647 406.091 221.62 406.469 219.986C406.96 218.419 406.617 216.244 406.006 215.524C404.952 213.896 403.111 213.731 402.753 214.52C402.375 215.303 402.857 216.37 403.374 217.232Z" fill="#516B99"/>
<path d="M405.763 231.18C405.39 230.916 404.423 229.91 403.133 229.594C401.913 229.181 400.369 229.457 400.421 229.492C400.389 229.566 401.438 228.371 403.076 228.023C404.649 227.563 406.812 227.95 407.519 228.575C409.123 229.663 409.252 231.51 408.457 231.853C407.667 232.218 406.612 231.716 405.763 231.18Z" fill="#516B99"/>
<path d="M402.157 237.292C401.785 237.028 400.818 236.022 399.528 235.707C398.307 235.293 396.763 235.57 396.816 235.605C396.784 235.679 397.833 234.484 399.47 234.136C401.043 233.675 403.206 234.062 403.914 234.688C405.518 235.775 405.647 237.623 404.852 237.965C404.063 238.33 403.007 237.828 402.157 237.292Z" fill="#516B99"/>
<path d="M415.017 251.473C414.645 251.209 413.679 250.203 412.388 249.887C411.168 249.474 409.624 249.75 409.676 249.785C409.644 249.859 410.693 248.664 412.331 248.316C413.904 247.856 416.067 248.243 416.774 248.868C418.378 249.956 418.507 251.803 417.712 252.146C416.922 252.512 415.867 252.009 415.017 251.473Z" fill="#516B99"/>
<path d="M421.588 245.673C421.215 245.409 420.248 244.403 418.959 244.088C417.738 243.674 416.194 243.951 416.246 243.986C416.214 244.059 417.263 242.864 418.901 242.517C420.474 242.056 422.637 242.443 423.345 243.068C424.949 244.156 425.077 246.004 424.283 246.346C423.492 246.711 422.437 246.208 421.588 245.673Z" fill="#516B99"/>
<path d="M398.328 224.15C398.642 224.483 399.769 225.303 400.259 226.54C400.837 227.694 400.777 229.265 400.735 229.217C400.667 229.259 401.703 228.053 401.819 226.38C402.056 224.755 401.376 222.662 400.66 222.047C399.363 220.605 397.519 220.734 397.29 221.569C397.039 222.403 397.682 223.38 398.328 224.15Z" fill="#516B99"/>
<path d="M393.027 231.081C393.474 231.319 395.032 231.749 395.816 232.917C396.703 233.957 396.816 235.735 396.757 235.7C396.673 235.777 397.867 233.984 397.817 232.066C397.926 230.15 396.791 228.107 395.79 227.729C393.937 226.679 391.565 227.615 391.371 228.647C391.147 229.688 392.097 230.501 393.027 231.081Z" fill="#516B99"/>
<path d="M387.448 241.583C387.928 241.741 389.536 241.902 390.504 242.923C391.554 243.798 391.964 245.533 391.899 245.507C391.83 245.597 392.706 243.629 392.334 241.747C392.121 239.839 390.659 238.018 389.608 237.814C387.605 237.092 385.424 238.414 385.406 239.464C385.36 240.525 386.435 241.168 387.448 241.583Z" fill="#516B99"/>
<path d="M403.959 248.898C404.309 249.117 405.553 249.554 406.123 250.551C406.785 251.447 406.777 252.9 406.731 252.868C406.658 252.926 407.731 251.536 407.798 249.972C407.997 248.42 407.19 246.693 406.397 246.329C404.948 245.369 402.966 245.996 402.749 246.823C402.508 247.656 403.236 248.373 403.959 248.898Z" fill="#516B99"/>
<path d="M412.555 219.69C412.345 219.517 411.818 218.881 411.068 218.638C410.364 218.34 409.439 218.436 409.468 218.458C409.446 218.499 410.118 217.839 411.103 217.706C412.055 217.503 413.317 217.827 413.707 218.227C414.609 218.941 414.603 220.039 414.118 220.207C413.636 220.387 413.034 220.043 412.555 219.69Z" fill="#516B99"/>
<path d="M410.552 215.228C410.562 215.499 410.742 216.307 410.477 217.05C410.283 217.791 409.642 218.466 409.642 218.428C409.595 218.42 410.528 218.29 411.234 217.591C411.975 216.96 412.491 215.761 412.412 215.206C412.399 214.055 411.526 213.388 411.098 213.671C410.662 213.944 410.566 214.631 410.552 215.228Z" fill="#516B99"/>
<path d="M426.317 239.766C426.108 239.593 425.58 238.957 424.831 238.714C424.126 238.416 423.202 238.512 423.231 238.534C423.208 238.575 423.882 237.915 424.866 237.782C425.817 237.579 427.08 237.903 427.47 238.303C428.371 239.017 428.366 240.116 427.881 240.283C427.399 240.465 426.797 240.121 426.317 239.766Z" fill="#516B99"/>
<path d="M423.903 235.266C423.934 235.536 424.182 236.325 423.978 237.088C423.846 237.842 423.261 238.569 423.259 238.531C423.212 238.527 424.131 238.32 424.777 237.566C425.464 236.877 425.88 235.639 425.756 235.093C425.648 233.946 424.726 233.354 424.321 233.671C423.907 233.978 423.867 234.671 423.903 235.266Z" fill="#516B99"/>
<path d="M422.223 264.349C412.026 265.469 402.53 269.979 393.387 274.376C387.221 277.342 387.532 278.187 386.276 278.629C386.073 278.7 385.869 278.478 385.968 278.282C386.452 277.323 387.718 276.675 388.599 276.123C389.625 275.481 390.696 274.913 391.784 274.384C394.112 273.253 396.498 272.233 398.87 271.201C403.695 269.1 408.599 267.125 413.697 265.786C416.493 265.053 419.336 264.524 422.215 264.265C422.27 264.261 422.275 264.343 422.223 264.349Z" fill="#516B99"/>
<path d="M413.031 261.181C413.098 261.6 413.534 262.818 413.264 264.02C413.105 265.205 412.241 266.376 412.235 266.318C412.161 266.314 413.582 265.933 414.543 264.712C415.57 263.593 416.139 261.635 415.911 260.79C415.668 259.009 414.19 258.143 413.581 258.664C412.955 259.171 412.937 260.255 413.031 261.181Z" fill="#516B99"/>
<path d="M404.05 264.405C404.117 264.824 404.552 266.042 404.283 267.244C404.123 268.429 403.259 269.6 403.254 269.542C403.18 269.538 404.6 269.157 405.561 267.936C406.589 266.817 407.157 264.859 406.929 264.013C406.687 262.231 405.209 261.365 404.599 261.886C403.972 262.394 403.956 263.479 404.05 264.405Z" fill="#516B99"/>
<path d="M394.923 268.481C394.99 268.9 395.425 270.118 395.156 271.32C394.996 272.505 394.132 273.676 394.127 273.618C394.053 273.614 395.474 273.233 396.434 272.013C397.462 270.893 398.03 268.935 397.802 268.089C397.56 266.308 396.082 265.442 395.472 265.963C394.845 266.47 394.828 267.555 394.923 268.481Z" fill="#516B99"/>
<path d="M415.714 269.592C415.529 269.245 415.172 268.106 414.305 267.37C413.528 266.586 412.239 266.206 412.267 266.253C412.215 266.297 413.475 265.784 414.861 266.145C416.243 266.395 417.752 267.52 418.055 268.271C418.868 269.718 418.261 271.183 417.521 271.141C416.776 271.117 416.16 270.326 415.714 269.592Z" fill="#516B99"/>
<path d="M406.37 272.905C406.185 272.559 405.829 271.419 404.961 270.683C404.183 269.899 402.894 269.519 402.922 269.566C402.87 269.61 404.13 269.098 405.517 269.459C406.898 269.708 408.407 270.834 408.71 271.584C409.523 273.033 408.916 274.496 408.177 274.455C407.434 274.431 406.817 273.64 406.37 272.905Z" fill="#516B99"/>
<path d="M422.829 266.18C422.667 265.987 422.293 265.318 421.651 264.972C421.059 264.582 420.2 264.514 420.224 264.539C420.198 264.574 420.921 264.086 421.839 264.129C422.74 264.103 423.836 264.609 424.125 265.04C424.827 265.842 424.64 266.842 424.169 266.913C423.698 266.997 423.207 266.583 422.829 266.18Z" fill="#516B99"/>
<path d="M421.751 261.778C421.714 262.027 421.745 262.794 421.379 263.426C421.077 264.068 420.38 264.577 420.387 264.543C420.346 264.528 421.218 264.566 421.978 264.046C422.759 263.596 423.428 262.589 423.449 262.071C423.629 261.02 422.947 260.267 422.508 260.452C422.066 260.626 421.864 261.237 421.751 261.778Z" fill="#516B99"/>
<path d="M159.135 201.884C147.154 191.179 140.992 175.807 137.934 164.794C134.614 152.841 134.13 143.3 134.126 143.204L133.475 143.164C133.479 143.259 133.965 152.87 137.306 164.904C140.392 176.024 146.618 191.556 158.747 202.393L159.135 201.884Z" fill="#B3CDFB"/>
<path d="M135.491 140.437C136.082 143.189 135.588 145.79 134.328 147.667C132.354 146.21 130.801 143.878 130.21 141.126C129.619 138.373 130.114 135.774 131.373 133.896C133.348 135.351 134.9 137.684 135.491 140.437Z" fill="#B3CDFB"/>
<path d="M131.815 148.275C133.88 150.199 135.086 152.728 135.321 155.162C133.055 155.265 130.561 154.344 128.497 152.419C126.434 150.495 125.226 147.966 124.993 145.532C127.258 145.429 129.752 146.351 131.815 148.275Z" fill="#B3CDFB"/>
<path d="M130.848 156.51C133.413 157.317 135.517 159.107 136.763 161.28C134.902 162.478 132.406 162.823 129.842 162.016C127.277 161.209 125.173 159.42 123.927 157.246C125.788 156.048 128.282 155.703 130.848 156.51Z" fill="#B3CDFB"/>
<path d="M134.799 166.416C136.83 167.058 138.456 168.701 139.376 170.776C137.835 172.073 135.818 172.564 133.786 171.923C131.754 171.281 130.129 169.637 129.208 167.563C130.749 166.266 132.766 165.774 134.799 166.416Z" fill="#B3CDFB"/>
<path d="M138.268 152.277C139.866 150.665 141.985 149.976 144.035 150.198C144.149 152.371 143.4 154.576 141.801 156.189C140.203 157.801 138.084 158.49 136.034 158.268C135.92 156.095 136.669 153.89 138.268 152.277Z" fill="#B3CDFB"/>
<path d="M140.122 159.378C141.721 157.765 143.839 157.077 145.89 157.298C146.003 159.472 145.254 161.677 143.656 163.289C142.057 164.902 139.938 165.59 137.888 165.369C137.774 163.194 138.522 160.991 140.122 159.378Z" fill="#B3CDFB"/>
<path d="M151.915 216.401C140.85 214.784 131.382 208.217 125.386 202.992C118.878 197.319 114.944 191.959 114.905 191.905L114.511 192.132C114.55 192.186 118.513 197.586 125.063 203.298C131.116 208.576 140.683 215.21 151.885 216.845L151.915 216.401Z" fill="#4A83E7"/>
<path d="M114.638 189.773C116.035 191.147 116.743 192.848 116.731 194.423C115.025 194.335 113.229 193.576 111.832 192.203C110.434 190.83 109.726 189.129 109.738 187.554C111.444 187.641 113.24 188.4 114.638 189.773Z" fill="#4A83E7"/>
<path d="M115.503 195.743C117.441 196.068 119.109 197.073 120.177 198.399C118.899 199.33 117.098 199.753 115.16 199.428C113.223 199.103 111.554 198.098 110.486 196.773C111.763 195.841 113.566 195.417 115.503 195.743Z" fill="#4A83E7"/>
<path d="M118.094 200.901C119.894 200.384 121.803 200.615 123.359 201.4C122.736 202.813 121.417 203.971 119.617 204.489C117.818 205.006 115.908 204.775 114.353 203.99C114.976 202.578 116.294 201.419 118.094 200.901Z" fill="#4A83E7"/>
<path d="M124.184 205.141C125.611 204.733 127.184 205.063 128.514 205.916C128.114 207.262 127.131 208.323 125.704 208.731C124.277 209.139 122.703 208.809 121.374 207.956C121.773 206.61 122.757 205.549 124.184 205.141Z" fill="#4A83E7"/>
<path d="M120.787 195.589C121.099 194.036 122.066 192.821 123.342 192.162C124.241 193.383 124.65 194.951 124.338 196.503C124.025 198.055 123.058 199.27 121.781 199.929C120.883 198.71 120.474 197.141 120.787 195.589Z" fill="#4A83E7"/>
<path d="M124.583 199.003C124.896 197.451 125.863 196.235 127.14 195.576C128.039 196.797 128.448 198.365 128.136 199.917C127.824 201.469 126.856 202.684 125.579 203.343C124.68 202.123 124.271 200.555 124.583 199.003Z" fill="#4A83E7"/>
<path d="M158.578 249.583C145.815 254.438 131.765 251.873 122.227 248.867C111.872 245.604 104.447 241.129 104.374 241.085L104.091 241.626C104.165 241.672 111.645 246.18 122.067 249.467C131.699 252.504 145.893 255.093 158.815 250.179L158.578 249.583Z" fill="#516B99"/>
<path d="M102.801 238.487C105.118 239.387 106.899 241.148 107.836 243.198C105.966 244.155 103.595 244.299 101.278 243.398C98.9607 242.496 97.1798 240.737 96.2432 238.687C98.1125 237.729 100.484 237.586 102.801 238.487Z" fill="#516B99"/>
<path d="M107.323 245.678C109.582 244.883 111.967 245.137 113.905 246.183C113.105 248.193 111.44 249.872 109.18 250.667C106.921 251.462 104.535 251.208 102.598 250.162C103.399 248.154 105.063 246.474 107.323 245.678Z" fill="#516B99"/>
<path d="M113.194 250.737C114.799 248.937 116.973 248.038 119.105 248.077C119.293 250.299 118.588 252.629 116.981 254.43C115.376 256.231 113.202 257.13 111.07 257.089C110.884 254.869 111.589 252.538 113.194 250.737Z" fill="#516B99"/>
<path d="M121.41 253.349C123.015 251.547 125.189 250.649 127.321 250.689C127.508 252.911 126.804 255.24 125.197 257.041C123.592 258.843 121.418 259.741 119.286 259.701C119.1 257.48 119.805 255.15 121.41 253.349Z" fill="#516B99"/>
<path d="M113.681 244.91C112.267 243.067 111.637 240.844 111.787 238.829C113.649 239.047 115.551 240.13 116.964 241.974C118.378 243.817 119.007 246.039 118.857 248.055C116.996 247.837 115.093 246.753 113.681 244.91Z" fill="#516B99"/>
<path d="M122.215 247.586C120.776 245.764 120.111 243.548 120.228 241.526C122.088 241.712 124.004 242.763 125.445 244.585C126.884 246.407 127.548 248.622 127.432 250.644C125.571 250.46 123.654 249.409 122.215 247.586Z" fill="#516B99"/>
<path d="M132.207 254.064C132.585 253.104 133.334 252.436 134.213 252.161C134.635 253.049 134.707 254.103 134.331 255.063C133.953 256.023 133.204 256.69 132.325 256.965C131.902 256.078 131.83 255.024 132.207 254.064Z" fill="#516B99"/>
<path d="M185.97 278.542C185.97 278.542 202.231 214.104 196.839 207.628C189.387 198.679 183.239 228.364 182.636 225.843C176.939 202.032 175.422 171.566 157.045 168.34C146.6 166.508 159.459 190.995 158.684 197.618C157.911 204.242 139.086 182.252 127.647 170.732C116.207 159.212 110.299 166.505 117.527 180.991C124.516 194.999 147.127 210.307 142.466 212.123C137.805 213.94 109.511 195.85 106.045 203.583C101.797 213.064 144.24 225.967 140.244 228.098C136.247 230.228 115.962 223.214 116.516 230.464C117.071 237.714 144.339 237.444 143.874 240.633C143.12 245.797 125.083 234.109 124.291 241.254C123.48 248.562 148.019 247.228 147.594 252.929C147.35 256.205 142.084 251.264 141.308 255.801C139.539 266.148 171.887 278.75 171.887 278.75L185.97 278.542Z" fill="#4A83E7"/>
<path d="M198.37 278.935C198.37 278.935 182.894 255.16 175.447 250.672C167.513 245.889 173.554 260.209 173.554 260.209C173.554 260.209 157.337 240.876 152.83 244.803C148.322 248.731 152.413 253.28 152.413 253.28C152.413 253.28 137.855 248.958 135.24 254.312C131.22 262.538 155.186 269.36 155.186 269.36C155.186 269.36 144.897 269.251 146.791 274.806C149.645 283.183 198.37 278.935 198.37 278.935Z" fill="#6D8BC1"/>
<path d="M135.239 254.312C137.856 248.957 152.413 253.281 152.413 253.281C152.413 253.281 148.322 248.732 152.83 244.803C157.338 240.875 170.309 252.634 170.309 252.634C170.309 252.634 168.949 242.937 178.718 251.479C185.694 257.58 198.37 278.935 198.37 278.935L135.239 254.312Z" fill="#98B6EB"/>
<path d="M179.584 219.242L180.278 218.767C167.678 199.646 163.832 176.947 162.824 161.27C161.731 144.258 163.65 131.613 163.67 131.488L162.809 131.237C162.789 131.364 160.856 144.093 161.953 161.205C162.967 177.017 166.85 199.918 179.584 219.242Z" fill="#8CA6D5"/>
<path d="M166.15 128.511C166.178 132.352 164.847 135.527 162.725 137.433C160.569 134.686 159.19 130.977 159.162 127.136C159.135 123.294 160.464 120.119 162.587 118.214C164.743 120.961 166.123 124.669 166.15 128.511Z" fill="#8CA6D5"/>
<path d="M159.325 137.144C161.473 140.54 162.355 144.353 162.007 147.625C159.059 146.784 156.09 144.511 153.944 141.116C151.796 137.72 150.914 133.907 151.262 130.635C154.21 131.474 157.177 133.747 159.325 137.144Z" fill="#8CA6D5"/>
<path d="M155.883 147.458C158.974 149.613 161.208 152.85 162.233 156.22C159.514 156.98 156.208 156.357 153.117 154.202C150.026 152.047 147.792 148.81 146.767 145.44C149.486 144.68 152.791 145.303 155.883 147.458Z" fill="#8CA6D5"/>
<path d="M159.915 165.466C161.263 166.272 162.286 167.565 162.813 168.954C161.706 169.368 160.314 169.215 158.966 168.409C157.618 167.604 156.594 166.311 156.067 164.921C157.174 164.507 158.565 164.659 159.915 165.466Z" fill="#8CA6D5"/>
<path d="M161.009 172.136C162.357 172.942 163.381 174.235 163.908 175.624C162.801 176.038 161.409 175.885 160.061 175.079C158.713 174.274 157.689 172.981 157.162 171.591C158.269 171.179 159.661 171.33 161.009 172.136Z" fill="#8CA6D5"/>
<path d="M166.575 145.136C169.066 143.722 171.98 143.737 174.563 144.906C174.13 147.789 172.579 150.339 170.088 151.753C167.596 153.166 164.683 153.152 162.1 151.982C162.532 149.1 164.084 146.55 166.575 145.136Z" fill="#8CA6D5"/>
<path d="M167.072 155.184C169.563 153.77 172.477 153.785 175.06 154.954C174.627 157.837 173.076 160.387 170.585 161.8C168.093 163.214 165.18 163.2 162.597 162.03C163.03 159.149 164.581 156.598 167.072 155.184Z" fill="#8CA6D5"/>
<path d="M166.577 169.567C168.199 168.646 170.095 168.656 171.777 169.418C171.495 171.293 170.485 172.953 168.863 173.874C167.242 174.795 165.346 174.784 163.664 174.023C163.945 172.147 164.956 170.488 166.577 169.567Z" fill="#8CA6D5"/>
<path d="M344.373 226.265C345.837 226.503 345.75 226.742 345.939 226.767C346.162 226.797 348.804 225.467 348.804 225.467C348.804 225.467 356.621 221.602 357.035 221.378L362.676 214.266L367.023 216.274C367.023 216.274 360.678 223.835 360.277 224.168C359.875 224.501 348.669 228.439 347.695 228.817C347.695 228.817 346.712 229.717 346.076 230.261C345.439 230.804 344.59 231.019 344.387 231.143C344.358 231.162 343.656 231.532 342.666 231.748C341.812 231.935 342.523 231.354 342.523 231.354C342.523 231.354 344.034 230.715 343.96 230.599C343.902 230.51 343.1 230.909 342.158 231.125C341.915 231.18 341.677 231.235 341.455 231.282C340.877 231.407 340.623 231.076 341.204 230.845C341.409 230.763 341.753 230.637 342.013 230.583C342.293 230.524 342.529 230.378 342.755 230.29C343.206 230.118 343.537 229.999 343.519 229.984C343.496 229.964 343.559 229.865 343.301 229.914C342.988 229.975 342.36 230.257 341.894 230.309C341.63 230.339 341.082 230.437 341.082 230.437C341.082 230.437 340.111 230.529 340.105 230.394C340.09 230.096 340.688 229.929 341.053 229.937C341.284 229.819 341.864 229.733 341.864 229.733C341.864 229.733 342.988 229.289 342.924 229.122C342.899 229.055 342.217 229.158 341.494 229.208C340.731 229.26 340.177 229.26 340.137 229.113C340.073 228.878 340.68 228.788 340.68 228.788C340.68 228.788 341.216 228.71 341.391 228.67C341.598 228.623 342.201 228.433 342.201 228.433C342.201 228.433 344.27 227.672 344.195 227.519C344.119 227.366 343.778 227.046 343.632 227.046C343.486 227.048 343.226 227.193 343.08 227.194C342.934 227.195 342.62 227.167 342.599 226.983C342.577 226.799 343.386 226.418 343.386 226.418C343.386 226.418 343.951 226.196 344.373 226.265Z" fill="#F8A492"/>
<path d="M358.75 218.672C358.75 218.672 360.157 219.953 360.743 220.375C361.229 220.725 363.601 221.869 363.601 221.869C363.601 221.869 365.961 218.249 366.992 216.434C368.244 214.232 369.111 210.956 368.815 210.867C367.984 210.617 366.842 210.466 365.788 210.95C362.136 212.63 358.75 218.672 358.75 218.672Z" fill="#355389"/>
<path d="M345.741 228.156C345.115 228.256 344.474 228.136 344.197 227.562C344.134 228.244 345.165 228.582 345.741 228.156Z" fill="#FE875E"/>
<path d="M170.809 202.765C170.897 200.657 170.588 198.575 169.65 196.613C168.844 194.924 166.848 193.967 165.029 193.964C159.25 193.956 158.516 201.639 154.838 204.602C153.713 205.507 152.458 206.245 151.394 207.221C147.466 210.826 149.235 217.502 152.841 220.663C155.343 222.857 159.276 224.103 162.361 222.388C163.97 221.492 165.192 220.005 166.063 218.375C167.299 216.061 168.096 213.391 168.974 210.926C169.91 208.299 170.694 205.567 170.809 202.765Z" fill="#13375B"/>
<path d="M171.754 212.973C169.949 207.486 167.566 207.572 167.566 207.572L169.492 219.253C170.607 218.949 172.058 218.268 173.172 217.954C172.802 216.219 172.198 214.323 171.754 212.973Z" fill="#204078"/>
<path d="M180.876 231.683L174.277 226.64C174.277 226.64 173.614 221.935 172.724 217.76C171.611 218.075 170.606 218.949 169.492 219.255L171.17 228.606L179.818 233.075L182.261 236.221L182.817 232.992L180.876 231.683Z" fill="#F48C7F"/>
<path d="M241.021 223.806C243.07 223.806 244.993 224.347 246.654 225.294C246.865 225.413 247.092 225.523 247.335 225.623C252.406 227.709 257.953 223.845 257.953 218.352V191.342H230.997C225.515 191.342 221.659 185.783 223.741 180.703C223.84 180.46 223.95 180.231 224.069 180.02C225.014 178.354 225.554 176.429 225.554 174.376C225.554 167.871 220.141 162.632 213.581 162.936C207.645 163.212 202.865 168.098 202.699 174.05C202.64 176.167 203.154 178.158 204.099 179.879C204.217 180.094 204.324 180.327 204.423 180.574C206.488 185.738 202.57 191.343 197.018 191.343H170.293V252.889C170.293 267.407 182.04 279.177 196.529 279.177H257.955V252.257C257.955 246.737 252.388 242.849 247.287 244.929C247.043 245.028 246.814 245.137 246.603 245.255C244.786 246.277 242.661 246.816 240.402 246.696C234.582 246.387 229.88 241.648 229.605 235.815C229.294 229.236 234.526 223.806 241.021 223.806Z" fill="#4A83E7"/>
<path d="M299.448 208.822C299.543 206.772 300.173 204.872 301.194 203.253C301.323 203.049 301.444 202.825 301.553 202.587C303.87 197.61 300.276 191.877 294.801 191.62L267.872 190.359L266.614 217.34C266.358 222.826 260.636 226.427 255.668 224.106C255.431 223.994 255.207 223.875 255.004 223.746C253.388 222.723 251.493 222.093 249.445 221.996C242.959 221.693 237.484 226.866 237.481 233.445C237.479 239.399 242.126 244.412 248.052 244.855C250.159 245.014 252.168 244.591 253.929 243.726C254.149 243.619 254.385 243.521 254.636 243.433C259.88 241.607 265.287 245.791 265.027 251.347L263.779 278.095L325.138 280.97C339.611 281.648 351.894 270.441 352.571 255.939L355.44 194.46L328.6 193.203C323.098 192.945 318.962 198.335 320.796 203.539C320.883 203.787 320.981 204.022 321.09 204.238C322.024 206.105 322.462 208.257 322.237 210.513C321.658 216.324 316.713 220.808 310.885 220.811C304.314 220.812 299.144 215.323 299.448 208.822Z" fill="#204078"/>
<path d="M224.414 166.339C224.517 168.39 224.075 170.34 223.215 172.051C223.106 172.267 223.009 172.501 222.921 172.749C221.096 177.928 225.226 183.286 230.702 183.01L257.625 181.654L256.272 154.677C255.997 149.192 261.344 145.053 266.512 146.881C266.76 146.969 266.993 147.067 267.209 147.176C268.916 148.037 270.863 148.481 272.91 148.377C279.394 148.051 284.344 142.37 283.712 135.821C283.139 129.894 278.029 125.356 272.088 125.489C269.975 125.536 268.016 126.152 266.348 127.183C266.14 127.312 265.913 127.432 265.672 127.543C260.63 129.87 254.843 126.23 254.565 120.674L253.222 93.9297L191.874 97.0205C177.403 97.7496 166.261 110.095 166.989 124.595L170.074 186.063L196.908 184.711C202.408 184.434 206.005 178.669 203.676 173.668C203.565 173.429 203.445 173.204 203.316 173C202.205 171.233 201.561 169.133 201.568 166.867C201.583 161.028 206.071 156.084 211.872 155.516C218.412 154.877 224.087 159.838 224.414 166.339Z" fill="url(#paint2_linear_2329_374)"/>
<path d="M279.519 151.451C277.471 151.451 275.548 150.91 273.886 149.963C273.676 149.844 273.448 149.734 273.205 149.634C268.135 147.548 262.587 151.412 262.587 156.905V183.915H289.544C295.026 183.915 298.883 189.474 296.8 194.554C296.701 194.797 296.591 195.026 296.472 195.236C295.527 196.903 294.987 198.828 294.987 200.881C294.987 207.386 300.401 212.625 306.96 212.32C312.897 212.045 317.677 207.159 317.843 201.207C317.902 199.09 317.386 197.099 316.442 195.377C316.325 195.163 316.217 194.93 316.118 194.683C314.052 189.519 317.971 183.914 323.523 183.914H350.249V122.369C350.249 107.851 338.502 96.0811 324.012 96.0811H262.587V123.001C262.587 128.521 268.153 132.409 273.255 130.33C273.499 130.23 273.728 130.121 273.938 130.003C275.755 128.982 277.881 128.442 280.14 128.563C285.96 128.871 290.662 133.61 290.936 139.444C291.246 146.021 286.016 151.451 279.519 151.451Z" fill="#95BBFF"/>
<path d="M152.747 270.635C152.747 270.635 152.339 273.47 151.64 274.386C151.405 274.694 150.975 275.082 150.694 275.638C150.256 276.501 150.498 277.788 150.821 278.496C150.987 278.86 150.809 278.859 151.188 278.975C152.308 279.322 153.5 278.738 153.977 277.661C154.243 277.059 154.477 276.256 154.524 275.244C154.643 272.669 155.44 271.36 155.44 271.36L152.747 270.635Z" fill="#F7A491"/>
<path d="M165 271.932C165 271.932 165.252 275.13 165.047 276.168C164.937 276.724 164.329 277.87 164.609 278.394C164.888 278.917 165.207 279.049 165.207 279.049L172.439 279.166C172.833 279.173 172.573 278.917 172.255 278.683C171.735 278.299 171.316 278.045 169.654 277.238C169.546 277.185 169.152 276.933 169.01 276.846C168.649 276.624 168.287 276.276 167.975 275.929C167.455 275.347 167.411 272.532 167.411 272.532L165 271.932Z" fill="#F7A491"/>
<path d="M170.652 229.428C170.652 229.428 171.563 234.62 170.964 238.024C170.365 241.427 167.496 272.976 167.496 272.976L164.307 273.157C164.307 273.157 163.638 259.979 163.757 258.146C163.877 256.314 164.824 253.247 164.824 253.247L164.506 242.606L168.532 228.628L170.652 229.428Z" fill="#355389"/>
<path d="M161.279 228.336C161.279 228.336 158.767 232.131 158.168 235.273C157.571 238.415 158.608 248.07 157.457 252.188C156.834 254.417 154.474 257.858 154.115 260.738C153.756 263.618 152.349 271.162 152.349 271.162L155.537 271.798L162.946 252.957L168.757 235.928L170.246 227.158L161.279 228.336Z" fill="#466EB6"/>
<path d="M163.311 206.737C163.311 206.737 159.986 206.524 158.671 207.964C157.355 209.403 161.59 220.796 161.828 222.627C162.067 224.46 160.609 229.332 160.609 229.332C160.609 229.332 168.42 230.911 170.653 229.428C170.653 229.428 170.893 216.249 170.653 214.94C170.415 213.631 168.421 208.307 167.943 207.784C167.463 207.26 163.311 206.737 163.311 206.737Z" fill="#204078"/>
<path d="M164.419 202.275C164.419 202.275 164.401 202.373 164.37 202.541C164.222 203.344 163.651 206.008 163.265 206.739C162.799 207.624 164.861 210.446 166.845 210.101C167.436 209.999 166.346 207.509 166.399 207.244C166.5 206.739 166.635 206.051 166.774 205.344C166.854 204.946 166.933 204.541 167.008 204.163C167.219 203.083 167.394 202.201 167.394 202.201L164.419 202.275Z" fill="#F7A491"/>
<path d="M164.37 202.539C164.401 202.371 164.418 202.273 164.418 202.273L167.392 202.199C167.392 202.199 167.219 203.081 167.006 204.161C166.932 204.538 166.853 204.94 166.774 205.337C166.314 205.269 165.834 205.046 165.353 204.621C164.829 204.161 164.485 203.606 164.277 203.016C164.316 202.826 164.347 202.664 164.37 202.539Z" fill="#4A83E7"/>
<path d="M166.421 195.486C166.421 195.486 165.019 195.324 164.14 196.465C163.261 197.607 162.315 201.135 164.496 203.054C166.679 204.972 168.835 202.8 169.156 200.497C169.476 198.195 169.599 195.403 166.421 195.486Z" fill="#F7A491"/>
<path d="M169.802 200.463C169.542 200.972 169.103 201.253 168.825 201.092C168.546 200.93 168.531 200.388 168.791 199.879C169.051 199.37 169.489 199.088 169.768 199.249C170.047 199.412 170.061 199.954 169.802 200.463Z" fill="#F7A491"/>
<path d="M166.577 195.109C166.577 195.109 164.705 198.465 163.365 198.62C162.025 198.774 161.85 200.559 161.85 200.559C161.85 200.559 162.328 196.45 163.655 195.658C164.98 194.864 166.577 195.109 166.577 195.109Z" fill="#13375B"/>
<path d="M154.194 277.093C152.456 277.411 151.301 276.391 150.7 275.627C150.257 276.493 150.043 277.785 150.367 278.495C150.653 279.122 151.489 279.103 152.148 279.127C152.844 279.153 153.382 278.765 153.728 278.157C153.887 277.873 154.055 277.519 154.194 277.093Z" fill="#4A83E7"/>
<path d="M169.01 276.846C167.097 277.339 165.682 277.003 164.892 276.684C164.688 277.264 164.417 277.993 164.561 278.413C164.736 278.927 164.987 279.044 165.207 279.049C166.954 279.095 171.607 279.158 172.939 279.176C173.125 279.178 173.227 278.959 173.107 278.816C172.778 278.42 169.152 276.933 169.01 276.846Z" fill="#4A83E7"/>
<path d="M163.716 199.463C163.824 200.06 163.606 200.606 163.227 200.684C162.847 200.762 162.452 200.343 162.342 199.747C162.234 199.151 162.452 198.604 162.831 198.526C163.211 198.447 163.606 198.867 163.716 199.463Z" fill="#F7A491"/>
<path d="M165.903 201.526L167.595 201.603C167.595 201.603 167.526 202.245 166.782 202.233C165.874 202.218 165.903 201.526 165.903 201.526Z" fill="white"/>
<path d="M310.084 66.4395C310.295 66.4475 310.872 66.6422 311.715 68.2386C312.792 70.2795 314.367 76.4423 314.367 76.4423L309.666 78.1958L309.062 76.9095L308.067 67.0061C308.069 67.0061 310.027 66.4368 310.084 66.4395Z" fill="#DD513A"/>
<path d="M303.87 65.5508C305.215 65.5522 308.54 65.9456 310.084 66.4397C310.084 66.4397 311.218 76.2048 309.063 83.6257C308.581 85.2866 309.462 90.5122 309.462 90.5122L295.534 90.3282C295.534 90.3282 297.184 77.6965 296.562 75.657C295.94 73.6162 295.925 66.5068 295.925 66.5068C295.925 66.5068 296.021 66.492 299.054 65.967C300.471 65.72 302.435 65.5481 303.87 65.5508Z" fill="#4A83E7"/>
<path d="M302.247 108.637C302.247 108.637 302.556 112.2 303.122 113.187C303.689 114.174 303.093 115.851 303.062 116.082C303.033 116.311 301.869 116.64 300.02 116.443C298.171 116.246 298.202 115.819 298.351 115.127C298.499 114.437 299.484 113.548 299.543 112.89C299.603 112.232 298.976 109.864 298.976 109.864L302.247 108.637Z" fill="#F7A491"/>
<path d="M307.891 87.5705C307.891 87.5705 317.506 87.0361 319.652 88.3385C321.799 89.6409 318.128 96.0359 318.128 96.0359C318.128 96.0359 311.437 95.7271 298.333 96.4844C295.229 96.6643 294.963 88.3774 295.543 87.6913C296.123 87.0052 307.891 87.5705 307.891 87.5705Z" fill="#E0973F"/>
<path d="M299.792 116.719C297.888 116.517 298.123 115.58 298.278 114.868C298.374 114.422 298.919 113.897 299.245 113.4C299.415 113.536 299.693 113.776 300.518 114.021C301.377 114.274 302.554 113.772 303.303 113.457C303.571 114.453 303.583 115.725 303.557 115.918C303.526 116.156 301.695 116.924 299.792 116.719Z" fill="#DD513A"/>
<path d="M300.842 94.4622C301.227 97.3744 303.128 111.874 303.128 111.874L298.715 112.422C298.715 112.422 293.288 93.4968 293.567 90.6034C293.846 87.7086 295.877 87.4656 295.877 87.4656C295.877 87.4656 299.825 86.7527 300.842 94.4622Z" fill="#204078"/>
<path d="M295.774 67.5901C297.076 67.1 297.713 78.8577 297.889 83.6966C300.195 83.9195 304.215 83.6979 305.216 83.6227C305.686 83.5878 306.772 83.1891 307.241 83.1273C307.72 83.0642 308.156 83.032 308.39 83.0723C308.477 83.087 310.88 84.0725 311.086 84.2887C311.341 84.5572 312.031 85.2326 311.915 85.5239C311.798 85.8166 310.589 84.7103 310.589 84.7103L309.998 84.3773C310.734 85.097 312.138 86.0462 311.936 86.3913C311.739 86.7283 310.473 85.7656 309.571 85.1091C310.345 85.8099 311.306 87.0626 311.085 87.2587C310.885 87.4346 309.792 85.9831 308.623 85.5656C308.191 85.4112 307.758 85.8395 307.417 85.8918C307.167 85.9294 306.781 86.0113 306.534 85.9415L305.268 85.5817C304.837 85.6206 304.826 85.8757 304.39 85.9697C303.885 86.0771 303.056 86.1913 302.412 86.3483C298.706 87.256 297.469 87.6776 296.334 87.6762C292.896 87.6749 292.697 68.7474 295.774 67.5901Z" fill="#F7A491"/>
<path d="M293.303 78.628C293.059 73.6709 293.095 67.5618 295.868 66.5199C296.963 66.109 298.891 68.5808 298.544 78.7287C297.065 78.8508 294.891 78.9502 293.303 78.628Z" fill="#DD513A"/>
<path d="M315.152 111.685C315.152 111.685 314.768 112.921 315.457 113.74C316.147 114.558 319.012 115.361 319.387 115.804C319.763 116.247 319.734 116.624 319.734 116.624L311.692 116.403L311.779 113.97L312.149 112.222L315.152 111.685Z" fill="#F7A491"/>
<path d="M315.957 114.147C315.957 114.147 313.891 114.985 312.893 114.488C311.894 113.993 311.925 113.854 311.636 114.04C311.346 114.225 311.243 116.506 311.243 116.506L320.286 116.772C320.915 116.757 321.233 116.293 320.721 115.895C320.37 115.623 319.965 115.44 319.735 115.309C319.029 114.903 315.957 114.147 315.957 114.147Z" fill="#DD513A"/>
<path d="M314.848 89.8545C315.47 88.544 316.884 86.8375 319.371 87.866C321.743 88.8461 322.379 91.2549 321.631 93.7213C320.884 96.1878 315.956 110.689 315.785 112.682L311.851 112.708C311.851 112.708 312.565 101.227 312.74 98.4515C312.908 95.7796 313.772 92.1222 314.848 89.8545Z" fill="#204078"/>
<path d="M321.234 76.499H308.085C307.736 76.499 307.424 76.7098 307.291 77.0334L303.242 86.9624H295.992C295.79 86.9624 295.625 87.1275 295.625 87.3316C295.625 87.5357 295.79 87.7008 295.992 87.7008H316.626C317.193 87.7008 317.707 87.3665 317.94 86.8455L322.018 77.7141C322.27 77.1435 321.856 76.499 321.234 76.499Z" fill="black"/>
<path d="M314.154 82.28C314.065 82.7257 313.678 83.0238 313.289 82.9459C312.901 82.8681 312.658 82.4424 312.747 81.9967C312.835 81.5509 313.222 81.2528 313.611 81.3307C314 81.4086 314.242 81.8342 314.154 82.28Z" fill="white"/>
<path d="M306.995 53.6239C306.599 53.4896 306.209 53.3392 305.832 53.1566C305.406 52.9512 304.854 52.7095 304.505 52.6558C303.771 52.5417 302.512 52.6182 301.815 53.3741C300.948 54.3167 299.407 53.5447 299.716 58.4816C300.067 64.0711 303.169 63.4575 303.245 63.3622C303.32 63.2682 306.01 59.7867 306.01 59.7867C306.01 59.7867 306.951 61.849 306.951 61.7725C306.952 61.7013 311.756 55.2297 306.995 53.6239Z" fill="#0E2E35"/>
<path d="M304.641 63.7767L304.909 65.7732C304.909 65.7732 305.51 68.6506 304.738 69.2051C303.966 69.7596 301.456 65.6913 301.456 65.6913L301.721 60.6309L304.641 63.7767Z" fill="#F7A491"/>
<path d="M301.635 62.2716C302.273 63.9982 303.791 65.0589 304.868 65.4698L304.642 63.7767L301.721 60.6309L301.635 62.2716Z" fill="#4A83E7"/>
<path d="M304.482 55.1248C306.117 54.8603 307.585 56.1774 307.543 57.8181C307.526 58.5311 307.467 59.4213 307.319 60.3799C306.964 62.6853 305.394 64.7154 304.357 64.5341C303.319 64.3529 300.706 62.3644 301.167 59.0829C301.45 57.0569 302.766 55.4014 304.482 55.1248Z" fill="#F7A491"/>
<path d="M301.887 59.4738C301.8 59.9813 301.394 60.3331 300.983 60.2619C300.57 60.1894 300.308 59.7208 300.395 59.2133C300.482 58.7058 300.888 58.354 301.299 58.4252C301.712 58.4977 301.974 58.9676 301.887 59.4738Z" fill="#F7A491"/>
<path d="M301.299 58.4257C301.299 58.4257 302.555 58.7385 303.02 57.9289C303.486 57.1206 305.15 55.3752 307.267 56.0988C309.385 56.8225 305.405 54.34 305.235 54.34C305.066 54.34 303.033 54.3252 303.033 54.3252C303.033 54.3252 301.466 55.6168 301.41 55.7578C301.354 55.9001 300.902 57.4469 300.902 57.4469L301.299 58.4257Z" fill="#0E2E35"/>
<path d="M303.594 61.8008L305.878 62.2385C305.878 62.2385 305.659 63.1005 304.65 62.9367C303.42 62.738 303.594 61.8008 303.594 61.8008Z" fill="white"/>
<path d="M264.966 221.103C265.053 221.405 265.104 221.504 265.214 221.707C265.929 223.013 267.591 224.877 267.591 224.877L268.876 221.975C268.876 221.975 268.667 221.064 268.302 219.763C267.063 220.086 265.881 220.274 264.966 221.103Z" fill="#F8A492"/>
<path d="M272.335 218.587C272.335 218.587 265.166 221.681 264.934 221.622C264.785 221.584 261.994 216.902 261.963 212.501C261.95 210.468 264.056 208.022 266.408 208.505C267.591 208.748 267.574 209.079 269.325 211.628C271.078 214.178 272.335 218.587 272.335 218.587Z" fill="#13375B"/>
<path d="M278.454 274.043C278.454 274.043 278.284 276.864 278.283 276.869C278.22 277.228 277.975 278.113 277.975 278.437C277.975 279.661 283.772 277.4 282.472 276.857C282.354 276.808 281.737 276.437 281.7 276.021C281.641 275.379 281.489 274.082 281.489 274.082L278.454 274.043Z" fill="#F7A491"/>
<path d="M282.458 276.846C282.458 276.846 281.097 277.221 280.4 277.313C279.703 277.407 278.784 276.619 278.291 276.833C277.748 277.066 277.77 279.174 277.77 279.174C277.77 279.174 285.067 279.775 287.12 279.154C287.932 278.907 285.24 277.718 282.458 276.846Z" fill="#DD513A"/>
<path d="M266.597 274.043C266.597 274.043 266.427 276.864 266.425 276.869C266.362 277.228 266.117 278.113 266.117 278.437C266.117 279.661 271.914 277.4 270.614 276.857C270.496 276.808 269.698 276.16 269.659 275.744C269.6 275.102 269.631 274.082 269.631 274.082L266.597 274.043Z" fill="#F7A491"/>
<path d="M270.6 276.846C270.6 276.846 269.238 277.221 268.542 277.313C267.845 277.407 266.925 276.619 266.432 276.833C265.89 277.066 265.868 279.174 265.868 279.174C265.868 279.174 273.199 279.874 275.262 279.154C276.063 278.874 273.383 277.718 270.6 276.846Z" fill="#DD513A"/>
<path d="M268.368 222.667L273.474 215.501C273.495 215.438 273.542 215.311 273.613 215.115C273.87 214.403 274.405 212.923 274.871 211.452L274.877 211.436C275.023 210.921 275.334 210.023 275.634 209.156C275.967 208.19 276.382 206.993 276.396 206.789C276.383 206.754 276.359 206.691 276.328 206.608C276.14 206.12 275.887 204.961 275.799 204.457C275.742 204.136 275.685 203.356 276.065 203.356C276.664 203.356 276.379 204.134 276.655 204.622C276.757 204.297 276.962 203.651 277.07 202.998L277.171 201.475C277.19 201.359 277.068 200.519 277.488 200.519H277.508C277.886 200.547 277.877 201.44 278.034 202.951C278.083 202.777 278.133 202.567 278.17 202.375C278.166 202.272 278.241 201.818 278.298 201.578C278.221 201.156 278.266 200.493 278.713 200.555C278.937 200.586 278.92 201.513 278.92 201.513C278.917 201.641 278.903 202.621 278.911 202.814C278.957 202.486 279.137 201.082 279.488 201.082C279.778 201.082 279.803 201.46 279.796 201.759C279.792 201.936 279.61 203.455 279.599 203.632C279.736 203.401 279.899 202.063 280.034 202.063C280.603 202.063 280.398 203.967 280.189 204.463C280.168 204.514 280.148 204.614 280.124 204.729C280.053 205.069 279.934 205.637 279.638 206.146C279.281 206.757 278.79 207.729 278.715 207.878C278.66 208.181 278.489 209.273 278.274 210.646C278.181 211.234 278.081 211.877 277.976 212.545L277.971 212.543C277.952 212.688 277.845 213.148 277.441 214.87C276.889 217.228 276.832 217.33 276.806 217.373C276.566 217.799 271.062 225.289 270.827 225.607L270.689 225.795L268.368 222.667Z" fill="#F7A491"/>
<path d="M277.863 205.954C277.863 205.954 277.449 204.891 276.711 204.89C276.711 204.89 277.124 204.741 277.476 205.022C277.831 205.301 277.863 205.954 277.863 205.954Z" fill="#4A83E7"/>
<path d="M267.134 203.902L266.478 208.067C266.478 208.067 268.982 210.083 270.441 209.657C271.666 209.3 270.826 207.695 270.826 207.695C270.826 207.695 270.173 205.472 270.373 204.307C270.574 203.141 267.134 203.902 267.134 203.902Z" fill="#F7A491"/>
<path d="M267.607 205.161C268.235 205.457 269.475 205.863 270.442 205.961C270.349 205.378 270.297 204.762 270.375 204.307C270.467 203.77 269.784 203.642 269.022 203.661C268.026 203.747 267.136 203.903 267.136 203.903L267.01 204.703C267.199 204.903 267.397 205.063 267.607 205.161Z" fill="#FE875E"/>
<path d="M263.974 199.098C263.871 199.098 264.965 203.75 266.656 204.55C268.348 205.351 270.872 204.933 271.345 203.68C271.869 202.295 269.958 197.548 267.578 196.946C265.199 196.343 263.974 199.098 263.974 199.098Z" fill="#F7A491"/>
<path d="M265.932 194.823C264.581 195.605 263.961 196.762 263.752 197.237C263.118 197.54 262.35 198.191 261.982 199.95C261.529 202.11 263.139 203.776 264.847 204.277C266.554 204.778 266.818 205.91 266.818 205.91L267.012 204.692C267.012 204.692 266.633 203.631 266.061 203.101C265.49 202.57 266.331 201.796 266.405 201.165C266.463 200.679 266.105 199.735 266.183 198.937C266.183 198.937 267.131 197.497 268.067 197.141C269.66 196.534 267.666 193.822 265.932 194.823Z" fill="#13375B"/>
<path d="M266.652 201.974C266.873 202.512 266.783 203.046 266.45 203.167C266.117 203.288 265.668 202.949 265.447 202.412C265.226 201.875 265.316 201.341 265.65 201.221C265.982 201.099 266.431 201.437 266.652 201.974Z" fill="#F7A491"/>
<path d="M272.954 222.781L282.802 221.173C282.802 221.173 281.682 218.347 281.281 218.347C280.88 218.347 273.834 221.428 273.834 221.428L273.274 222.556L272.954 222.781Z" fill="#F8A492"/>
<path d="M267.908 229.547C267.908 229.547 266.926 234.306 267.327 237.915C267.727 241.523 267.758 254.341 267.758 254.341L266.23 274.849L269.855 274.928C269.855 274.928 274.154 254.43 274.074 254.956C273.993 255.482 275.514 240.524 275.514 240.524L270.39 229.098L267.908 229.547Z" fill="#184655"/>
<path d="M268.869 229.322C268.869 229.322 268.229 233.606 269.03 235.486C269.83 237.366 275.898 255.804 275.978 257.307C276.059 258.811 278.075 275.427 278.075 275.427L282.29 275.309L283.201 256.834L281.291 233.614L279.438 227.744L268.869 229.322Z" fill="#13375B"/>
<path d="M266.478 208.066C266.478 208.066 267.517 208.749 268.486 208.67C269.455 208.591 270.826 207.695 270.826 207.695L270.636 207.048C270.636 207.048 268.128 206.682 268.064 206.722C268.001 206.761 266.478 208.066 266.478 208.066Z" fill="#F7A491"/>
<path d="M277.556 218.207C277.556 218.207 281.281 221.729 282.963 221.127C284.644 220.526 285.34 218.47 281.237 215.463C277.565 212.772 277.556 218.207 277.556 218.207Z" fill="#F8A492"/>
<path d="M280.079 222.556C279.526 219.539 275.515 210.153 275.195 208.425C275.039 207.584 272.875 207.565 270.815 207.676C268.639 207.791 266.476 208.068 266.476 208.068C266.476 208.068 264.55 208.384 263.703 209.181C262.854 209.977 262.629 212.177 263.849 216.356C264.811 219.653 266.003 221.465 266.593 223.868C266.712 224.674 266.816 225.468 266.951 226.398C267.168 229.989 266.948 234.735 266.948 234.735C266.948 234.735 277.437 236.916 281.36 233.608C281.36 233.606 280.647 225.647 280.079 222.556Z" fill="#355389"/>
<path d="M282.753 216.071C282.753 216.071 278.638 219.475 278.398 219.475C278.244 219.475 272.525 215.26 271.205 211.798C270.475 209.883 272.006 207.741 273.754 207.748C274.965 207.753 275.504 208.066 277.907 210.095C280.309 212.124 282.753 216.071 282.753 216.071Z" fill="#466EB6"/>
<path d="M210.355 64.1262C211.029 62.5003 211.715 60.8703 213.465 60.0472C214.881 59.3813 216.361 59.631 217.619 60.5803C221.185 63.2669 218.077 66.2261 222.136 71.3202C223.397 72.9032 224.923 74.1814 225.679 76.0356C226.737 78.6323 225.477 79.8783 223.459 81.1216C213.799 87.0709 208.735 74.8554 208.917 72.0613C209.051 69.9829 209.921 65.1735 210.355 64.1262Z" fill="#13375B"/>
<path d="M200.328 95.7881C200.736 95.7237 201.725 95.0134 202.074 94.949C202.345 94.8993 202.931 94.8107 203.18 94.7731C203.485 93.6305 205.037 87.3979 205.211 85.5705C205.4 83.5914 206.797 75.0293 206.797 75.0293L210.413 75.6885C210.413 75.6885 208.911 82.2756 208.496 85.4685C208.139 88.2115 205.135 94.3797 204.753 95.0309C204.753 95.047 204.753 95.0618 204.752 95.0779C204.694 96.0459 204.228 95.7237 204.228 95.7237L203.472 95.917C203.472 95.917 200.796 96.1748 200.62 96.2393C200.445 96.3037 199.921 95.8526 200.328 95.7881Z" fill="#F7A491"/>
<path d="M209.948 70.0254C207.391 70.8941 205.938 77.8585 205.938 77.8585C205.938 77.8585 209.95 78.9809 210.977 78.3915C210.977 78.3915 212.144 73.2102 212.563 73.3914L209.948 70.0254Z" fill="#6A97CE"/>
<path d="M190.171 107.821C189.389 109.889 188.983 111.88 188.947 112.12C188.929 112.236 189.093 112.799 189.077 112.918C187.506 115.065 185.249 115.534 183.314 115.67C184.301 114.706 185.748 113.792 185.818 113.487C185.929 113.001 186.524 110.836 186.817 107.836C188.021 108.395 188.838 107.952 190.171 107.821Z" fill="#F7A491"/>
<path d="M212.423 84.6924L215.879 94.4428C215.879 94.4428 210.326 95.49 208.25 95.8714C206.175 96.2527 194.575 96.7602 194.282 96.967C194.063 97.12 191.667 104.885 190.598 109.166C189.384 109.434 187.306 109.113 186.2 108.731C186.798 102.605 188.955 92.9001 189.647 91.8434C190.77 90.1234 212.423 84.6924 212.423 84.6924Z" fill="#2C5FB9"/>
<path d="M198.924 112.097C198.542 114.274 198.515 116.307 198.525 116.55C198.529 116.667 198.794 117.188 198.802 117.31C197.66 119.714 195.531 120.598 193.656 121.097C194.444 119.965 195.696 118.794 195.706 118.481C195.724 117.983 195.905 115.745 195.631 112.741C196.919 113.062 197.639 112.475 198.924 112.097Z" fill="#F7A491"/>
<path d="M216.457 85.1992L217.797 87.4925C219.838 90.9847 218.273 95.4773 214.509 96.9408C214.488 96.9488 214.468 96.9569 214.448 96.9636C212.481 97.7276 201.182 100.405 200.933 100.663C200.746 100.855 199.846 108.931 199.595 113.337C198.452 113.829 196.351 113.903 195.193 113.735C194.635 107.606 194.939 97.6671 195.42 96.499C196.202 94.5992 216.457 85.1992 216.457 85.1992Z" fill="#4A83E7"/>
<path d="M198.352 116.617C198.652 116.284 199.758 118.117 200.034 118.508C200.345 118.947 200.256 119.279 200.219 119.348C200.121 119.53 194.297 122.963 192.877 123.207C192.743 123.23 192.509 123.145 192.452 123.093C191.897 122.6 194.451 118.966 195.6 118.488C196.341 118.179 196.999 118.114 198.352 116.617Z" fill="#13375B"/>
<path d="M188.76 112.186C189.118 111.915 189.86 113.922 190.059 114.359C190.281 114.849 190.132 115.158 190.083 115.218C189.953 115.378 183.59 117.656 182.148 117.629C182.012 117.627 181.8 117.499 181.752 117.437C181.299 116.849 184.488 113.758 185.705 113.505C186.491 113.342 187.151 113.404 188.76 112.186Z" fill="#13375B"/>
<path d="M212.374 70.005C212.308 70.005 212.213 69.9821 212.116 69.9513C211.642 69.8667 210.604 69.7418 209.795 70.0828C208.813 70.4977 207.291 74.3793 207.381 78.3617C207.417 78.9712 207.454 79.5163 207.485 79.8963C207.733 82.9052 208.595 88.5511 208.642 88.5806C209.814 89.3366 216.886 86.4055 217.371 85.7624C217.857 85.1193 218.144 77.2983 218.38 76.9076L218.845 70.1057C218.023 69.8626 213.631 69.9956 212.374 70.005Z" fill="#9BC1F9"/>
<path d="M215.241 67.4994C215.241 67.4994 214.785 69.8585 214.876 70.7903C214.967 71.7207 214.529 74.7202 212.563 74.731C210.597 74.7404 212.189 70.9178 212.376 70.0048C212.561 69.0931 212.605 66.2695 212.605 66.2695L215.241 67.4994Z" fill="#F7A491"/>
<path d="M212.562 67.686C212.593 66.914 212.603 66.2695 212.603 66.2695L215.24 67.5007C215.24 67.5007 215.147 67.9828 215.054 68.5977C213.898 68.8286 213.062 68.4017 212.562 67.686Z" fill="#4A83E7"/>
<path d="M216.203 60.9875C216.203 60.9875 217.219 61.5528 217.59 62.7759C217.961 64.0004 217.539 67.1584 214.914 67.921C212.289 68.6836 211.153 66.1823 211.693 64.226C212.234 62.2711 213.409 59.7952 216.203 60.9875Z" fill="#F7A491"/>
<path d="M211.366 63.4691C211.417 63.9941 211.707 64.3955 212.012 64.366C212.318 64.3365 212.523 63.8853 212.472 63.3603C212.421 62.8354 212.132 62.4339 211.826 62.4634C211.521 62.4943 211.314 62.9441 211.366 63.4691Z" fill="#F7A491"/>
<path d="M215.896 60.8281C215.896 60.8281 216.371 64.3513 217.509 64.9877C218.645 65.6241 218.17 67.187 218.17 67.187C218.17 67.187 219.201 63.5577 218.302 62.3923C217.403 61.2256 215.896 60.8281 215.896 60.8281Z" fill="#13375B"/>
<path d="M216.835 65.4936C216.527 65.9528 216.528 66.4939 216.837 66.7033C217.147 66.9128 217.648 66.7087 217.956 66.2495C218.265 65.7903 218.263 65.2492 217.954 65.0398C217.644 64.8317 217.143 65.0344 216.835 65.4936Z" fill="#F7A491"/>
<path d="M213.011 65.6904L214.86 66.1563C214.86 66.1563 214.637 66.8599 213.819 66.6786C212.82 66.4584 213.011 65.6904 213.011 65.6904Z" fill="white"/>
<path d="M222.195 95.4942C222.284 95.4902 230.17 95.0928 230.17 95.0928C230.17 95.0928 226.897 97.4491 226.83 97.4491C226.763 97.4491 224.224 96.4448 224.113 96.4448C224.002 96.4448 222.195 95.4942 222.195 95.4942Z" fill="#50BFA5"/>
<path d="M381.852 274.158C381.852 274.158 382.007 276.929 382.008 276.935C382.066 277.287 382.291 278.157 382.291 278.476C382.291 279.678 376.97 277.456 378.162 276.924C378.271 276.876 378.837 276.512 378.871 276.102C378.926 275.473 379.064 274.197 379.064 274.197L381.852 274.158Z" fill="#F7A491"/>
<path d="M378.112 276.936C378.112 276.936 379.361 277.304 380.002 277.395C380.642 277.487 381.485 276.713 381.938 276.923C382.436 277.152 382.416 279.224 382.416 279.224C382.416 279.224 375.718 279.814 373.833 279.204C373.087 278.961 375.558 277.792 378.112 276.936Z" fill="#204078"/>
<path d="M390.713 274.015C390.713 274.015 390.869 276.786 390.869 276.791C390.927 277.143 391.153 278.013 391.153 278.333C391.153 279.534 385.832 277.312 387.025 276.781C387.132 276.732 387.866 276.096 387.901 275.686C387.956 275.057 387.927 274.054 387.927 274.054L390.713 274.015Z" fill="#F7A491"/>
<path d="M387.038 276.768C387.038 276.768 388.287 277.136 388.927 277.227C389.566 277.319 390.41 276.545 390.863 276.755C391.362 276.984 391.382 279.056 391.382 279.056C391.382 279.056 384.73 279.33 382.759 279.036C381.983 278.921 384.484 277.625 387.038 276.768Z" fill="#204078"/>
<path d="M389.133 229.994C389.133 229.994 390.035 234.669 389.668 238.214C389.301 241.759 389.271 254.351 389.271 254.351L390.966 274.493L387.346 274.577C387.346 274.577 383.401 254.439 383.473 254.956C383.547 255.473 382.15 240.776 382.15 240.776L386.854 229.55L389.133 229.994Z" fill="#355389"/>
<path d="M387.872 226.975C387.872 226.975 391.958 231.286 390.439 235.995C389.829 237.886 384.135 255.957 384.061 257.434C383.988 258.911 382.136 275.236 382.136 275.236L378.267 275.12L377.43 256.968L378.535 232.512L380.884 228.387L387.872 226.975Z" fill="#466EB6"/>
<path d="M363.07 212.942C364.407 211.446 367.319 209.318 367.319 209.318C367.319 209.318 369.053 207.833 369.761 207.588C370.802 207.229 372.584 206.27 375.163 210.185C377.008 212.987 388.65 227.495 390.562 227.983L378.081 233.966C377.739 231.109 371.571 225.71 370.683 224.703C368.7 222.453 361.804 214.358 363.07 212.942Z" fill="#4A83E7"/>
<path d="M363.652 206.864L367.54 209.145C367.54 209.145 367.65 212.471 366.378 213.335C365.311 214.06 364.501 212.319 364.501 212.319C364.501 212.319 363.055 210.312 361.957 209.687C360.858 209.061 363.652 206.864 363.652 206.864Z" fill="#F7A491"/>
<path d="M364.305 208.328C364.159 209.022 363.819 210.025 363.296 210.851C362.867 210.386 362.386 209.931 361.957 209.687C361.45 209.398 361.772 208.775 362.266 208.187C362.965 207.459 363.652 206.864 363.652 206.864L364.4 207.302C364.448 207.587 364.353 208.097 364.305 208.328Z" fill="#4A83E7"/>
<path d="M361.627 201.148C361.693 201.068 364.889 205.053 364.495 206.923C364.101 208.793 362.169 210.498 360.826 210.03C359.341 209.512 356.58 204.819 357.57 202.54C358.56 200.262 361.627 201.148 361.627 201.148Z" fill="#F7A491"/>
<path d="M358.128 199.891C359.522 199.115 361.795 198.892 363.492 199.783C365.58 200.878 366.056 203.633 365.402 205.314C364.748 206.995 365.497 207.946 365.497 207.946L364.39 207.297C364.39 207.297 363.743 206.285 363.659 205.48C363.574 204.673 362.4 204.816 361.827 204.45C361.386 204.168 360.822 203.253 360.109 202.778C360.109 202.778 358.311 202.557 357.427 203.055C355.919 203.902 356.133 201.003 358.128 199.891Z" fill="#13375B"/>
<path d="M362.725 205.122C362.714 205.72 362.997 206.21 363.355 206.215C363.713 206.221 364.011 205.741 364.022 205.144C364.033 204.546 363.75 204.056 363.392 204.051C363.033 204.044 362.734 204.523 362.725 205.122Z" fill="#F7A491"/>
<path d="M359.451 208.295L361.144 207.027C361.144 207.027 361.591 207.712 360.864 208.292C359.975 208.998 359.451 208.295 359.451 208.295Z" fill="white"/>
<path d="M355.202 233.513C355.625 232.893 355.81 231.997 356.397 231.314C356.594 231.084 356.908 230.827 357.264 230.569C360.084 228.916 367.427 224.656 367.712 224.325C368.052 223.933 373.063 215.59 373.063 215.59L368.562 214.568L364.163 222.352C363.796 222.644 356.813 227.815 356.813 227.815C356.813 227.815 355.424 228.903 354.665 229.411C354.281 229.636 353.909 229.781 353.583 229.895C353.173 230.037 352.393 230.428 352.235 230.566C352.052 230.727 351.684 231.074 351.466 231.284C351.248 231.495 350.984 231.734 350.88 231.859C350.819 231.936 350.626 232.04 350.484 232.112C350.272 232.218 350.3 232.53 350.527 232.595C350.741 232.655 351.029 232.521 351.209 232.436C351.714 232.199 352.332 231.556 352.365 231.635C352.397 231.714 351.77 233.09 351.709 233.253C351.647 233.415 350.927 235.02 350.89 235.377C350.852 235.734 351.068 235.817 351.228 235.686C351.366 235.573 352.523 233.431 352.523 233.431C352.523 233.431 352.672 233.159 352.73 233.315C352.787 233.47 351.739 235.419 351.638 235.738C351.536 236.058 351.616 236.319 351.912 236.208C352.271 236.072 353.262 233.924 353.262 233.924C353.262 233.924 353.39 233.657 353.479 233.75C353.567 233.842 352.648 235.484 352.637 235.674C352.626 235.863 352.798 236.05 353.046 235.891C353.338 235.704 354.206 233.78 354.206 233.78C354.206 233.78 354.314 233.653 354.347 233.743C354.381 233.833 353.697 235.288 353.748 235.5C353.791 235.679 353.952 235.643 353.952 235.643C354.308 235.641 354.777 234.134 355.202 233.513Z" fill="#F8A492"/>
<path d="M371.828 219.998C371.828 219.998 370.362 219.531 369.422 219.1C368.792 218.811 366.045 217.441 366.045 217.441C366.045 217.441 367.23 212.436 368.03 210.635C370.968 204.03 374.306 208.585 374.759 209.647C375.774 212.021 371.828 219.998 371.828 219.998Z" fill="#355389"/>
<path d="M269.435 202.702L270.83 201.657C270.83 201.657 271.198 202.222 270.598 202.699C269.866 203.282 269.435 202.702 269.435 202.702Z" fill="white"/>
<path d="M230.35 95.0851C230.317 95.0005 230.243 94.9991 230.168 94.9964C229.436 94.9736 228.705 94.9414 227.98 94.8326C227.859 94.8152 227.74 94.787 227.629 94.7427C227.426 94.6621 227.228 94.6635 227.023 94.7199C226.913 94.7507 226.801 94.7561 226.687 94.7561C226.318 94.7548 225.269 94.3963 224.729 94.3023C224.606 94.2808 224.508 94.1868 224.477 94.066C223.946 91.9634 222.809 87.2453 222.661 85.6945C222.472 83.7114 221.106 74.7666 221.106 74.7666L217.447 75.7884C217.447 75.7884 218.953 82.3902 219.369 85.5911C219.69 88.0629 222.156 93.3087 222.929 94.8165C223.307 95.939 224.154 95.9699 224.351 95.994C224.464 96.0075 224.567 96.0639 224.641 96.1498C224.775 96.3055 224.927 96.4411 225.101 96.5526C225.231 96.6345 225.331 96.7419 225.416 96.8668C225.572 97.0937 225.711 97.3313 225.848 97.5703C225.939 97.7287 226.034 97.7784 226.169 97.7408C226.314 97.7006 226.384 97.5931 226.381 97.4159C226.377 97.1541 226.294 96.9178 226.163 96.6936C226.04 96.4841 226.049 96.3633 226.192 96.1699C226.274 96.0598 226.36 95.9524 226.467 95.8638C226.577 95.7738 226.692 95.7067 226.841 95.7268C227.103 95.7926 227.369 95.8463 227.638 95.8759L227.859 95.9215C227.867 95.9229 227.98 95.947 227.98 95.947C227.999 95.9524 228.387 95.994 228.521 95.9954C228.628 95.9954 228.801 96.0021 228.949 96.0101C229.083 96.0169 229.364 95.947 229.373 95.947C229.503 95.9444 229.619 95.8974 229.715 95.8101C229.755 95.7738 229.793 95.7349 229.773 95.6731C229.754 95.6181 229.711 95.5939 229.654 95.5832C229.565 95.5671 229.111 95.512 229.116 95.4932C229.252 95.4932 229.674 95.4838 229.809 95.4798C229.991 95.4744 230.148 95.41 230.274 95.2744C230.326 95.2233 230.383 95.1696 230.35 95.0851Z" fill="#F7A491"/>
<path d="M218.89 70.0928C220.695 69.7638 222.185 77.8574 222.185 77.8574C222.185 77.8574 218.173 78.9798 217.145 78.3904C217.145 78.3904 215.978 73.2091 215.56 73.3903L218.89 70.0928Z" fill="#9BC1F9"/>
<path d="M175.232 215.577C175.352 215.234 173.687 214.957 173.598 214.611C173.509 214.263 175.7 214.236 175.778 213.931C175.923 213.37 173.377 213.813 173.426 213.55C173.476 213.287 176.079 212.7 175.798 212.25C175.517 211.799 173.162 213.14 173.091 212.836C173.02 212.529 175.392 211.786 175.35 211.116C175.328 210.757 171.456 212.903 171.007 212.708C170.558 212.513 171.49 210.83 171.133 210.579C170.776 210.329 169.75 214.001 169.503 214.125C169.256 214.247 164.026 217.238 162.165 217.713C161.938 217.089 161.45 216.246 161.251 215.655C160.207 216.4 159.431 216.774 158.354 217.452C159.135 219.412 160.246 221.559 160.79 221.805C162.446 222.555 168.851 217.231 170.131 216.32C171.411 215.408 172.144 215.704 173.008 215.416C173.874 215.129 175.113 215.92 175.232 215.577Z" fill="#F7A491"/>
<path d="M158.131 218.393C158.131 218.393 156.697 212.049 156.946 210.209C157.195 208.368 159.378 206.653 160.891 207.29C162.404 207.926 163.09 216.784 163.09 216.784L158.131 218.393Z" fill="#204078"/>
</g>
<path d="M1012.4 271.331C969.598 329.913 826.98 324.458 780.633 237.591C758.611 196.315 759.192 138.284 786.61 92.7638C812.468 49.8332 860.277 21.2173 904.068 26.6636C998.146 38.3628 1060.41 205.617 1012.4 271.331Z" fill="url(#paint3_linear_2329_374)" fill-opacity="0.33"/>
<path d="M736.435 115.238H1011.18" stroke="#4A83E7" stroke-width="1.9678" stroke-miterlimit="10"/>
<path d="M1007.59 267.054H740.022C738.041 267.054 736.435 265.449 736.435 263.471V100.833C736.435 98.8548 738.041 97.25 740.022 97.25H1007.59C1009.57 97.25 1011.18 98.8548 1011.18 100.833V263.471C1011.18 265.449 1009.57 267.054 1007.59 267.054Z" stroke="#4A83E7" stroke-width="1.9678" stroke-miterlimit="10"/>
<path d="M754.541 106.429C754.541 107.814 753.419 108.94 752.027 108.94C750.641 108.94 749.513 107.814 749.513 106.429C749.513 105.044 750.635 103.917 752.027 103.917C753.419 103.917 754.541 105.044 754.541 106.429Z" fill="#FFB1A5"/>
<path d="M764.307 106.429C764.307 107.814 763.179 108.94 761.793 108.94C760.406 108.94 759.278 107.814 759.278 106.429C759.278 105.044 760.406 103.917 761.793 103.917C763.185 103.917 764.307 105.044 764.307 106.429Z" fill="#EAD254"/>
<path d="M774.077 106.429C774.077 107.814 772.95 108.94 771.563 108.94C770.177 108.94 769.049 107.814 769.049 106.429C769.049 105.044 770.171 103.917 771.563 103.917C772.955 103.917 774.077 105.044 774.077 106.429Z" fill="#5C96CC"/>
<path d="M1046.87 175.836H982.298C980.476 175.836 979.002 174.363 979.002 172.544V112.891C979.002 111.072 980.476 109.599 982.298 109.599H1046.87C1048.69 109.599 1050.16 111.072 1050.16 112.891V172.544C1050.16 174.363 1048.69 175.836 1046.87 175.836Z" fill="#EDEDED"/>
<path d="M1046.87 175.836H982.298C980.476 175.836 979.002 174.363 979.002 172.544V112.891C979.002 111.072 980.476 109.599 982.298 109.599H1046.87C1048.69 109.599 1050.16 111.072 1050.16 112.891V172.544C1050.16 174.363 1048.69 175.836 1046.87 175.836Z" stroke="#4A83E7" stroke-miterlimit="10"/>
<path d="M997.907 158.606H1031.47C1033.3 158.606 1034.78 157.122 1034.78 155.298V127.823C1034.78 125.993 1033.29 124.515 1031.47 124.515H997.907C996.075 124.515 994.595 125.999 994.595 127.823V155.298C994.595 157.122 996.08 158.606 997.907 158.606Z" fill="#617DE1"/>
<path d="M1023.85 147.229H1008.14H1005.31V134.803H1023.85V137.908V147.229Z" stroke="white" stroke-miterlimit="10" stroke-linecap="round" stroke-linejoin="round"/>
<path d="M1005.31 134.803L1014.58 142.101L1023.85 134.803" stroke="white" stroke-miterlimit="10" stroke-linecap="round" stroke-linejoin="round"/>
<path d="M762.717 225.791H701.142C699.403 225.791 698 224.384 698 222.653V169.023C698 167.286 699.408 165.885 701.142 165.885H762.723C764.461 165.885 765.864 167.292 765.864 169.023V222.653C765.864 224.384 764.456 225.791 762.717 225.791Z" fill="#EDEDED"/>
<path d="M762.717 225.791H701.142C699.403 225.791 698 224.384 698 222.653V169.023C698 167.286 699.408 165.885 701.142 165.885H762.723C764.461 165.885 765.864 167.292 765.864 169.023V222.653C765.864 224.384 764.456 225.791 762.717 225.791Z" stroke="url(#paint4_linear_2329_374)" stroke-width="1.9678" stroke-miterlimit="10"/>
<path d="M747.737 214.249H715.805C713.785 214.249 712.151 212.616 712.151 210.599V179.789C712.151 177.772 713.785 176.14 715.805 176.14H747.742C749.761 176.14 751.396 177.772 751.396 179.789V210.599C751.39 212.616 749.756 214.249 747.737 214.249Z" fill="#4A83E7"/>
<path d="M724.166 187.713C719.859 192.016 719.859 199.084 724.166 203.387C728.474 207.691 735.55 207.691 739.858 203.387C744.165 199.084 744.165 192.016 739.858 187.713C735.544 183.41 728.474 183.41 724.166 187.713ZM739.83 189.307H736.292C735.94 188.197 735.484 187.086 734.917 185.976C736.876 186.57 738.581 187.751 739.83 189.307ZM727.935 194.902C727.935 193.467 728.106 192.038 728.463 190.604H735.561C735.913 192.038 736.083 193.467 736.089 194.902H727.935ZM736.039 196.199C735.94 197.633 735.682 199.062 735.275 200.497H728.738C728.331 199.062 728.073 197.633 727.974 196.199H736.039ZM732.012 185.547C732.546 185.547 733.068 185.591 733.58 185.668C734.262 186.883 734.79 188.092 735.187 189.307H728.832C729.228 188.092 729.762 186.883 730.438 185.668C730.95 185.591 731.478 185.547 732.012 185.547ZM729.102 185.976C728.54 187.086 728.084 188.197 727.726 189.307H724.188C725.437 187.751 727.143 186.57 729.102 185.976ZM723.308 190.604H727.357C727 192.038 726.818 193.467 726.791 194.902H722.021C722.12 193.346 722.576 191.884 723.308 190.604ZM723.308 200.491C722.576 199.21 722.12 197.749 722.021 196.193H726.807C726.879 197.628 727.104 199.057 727.484 200.491H723.308ZM724.188 201.788H727.869C728.238 202.909 728.694 204.036 729.239 205.157C727.22 204.58 725.465 203.382 724.188 201.788ZM732.012 205.547C731.566 205.547 731.132 205.52 730.703 205.465C730.092 204.239 729.569 203.014 729.151 201.794H734.878C734.46 203.019 733.938 204.245 733.327 205.465C732.892 205.52 732.452 205.547 732.012 205.547ZM734.785 205.157C735.33 204.036 735.786 202.909 736.155 201.788H739.836C738.554 203.382 736.799 204.58 734.785 205.157ZM740.71 200.491H736.534C736.914 199.057 737.14 197.628 737.211 196.193H741.998C741.899 197.754 741.442 199.21 740.71 200.491ZM741.998 194.902H737.228C737.2 193.467 737.013 192.038 736.661 190.604H740.71C741.442 191.884 741.899 193.346 741.998 194.902Z" fill="white"/>
<path d="M759.048 81.581H703.26C702.11 81.581 701.175 80.6467 701.175 79.498C701.175 78.3494 702.11 77.415 703.26 77.415H759.048C760.198 77.415 761.133 78.3494 761.133 79.498C761.139 80.6467 760.203 81.581 759.048 81.581Z" fill="#617DE1"/>
<path d="M1049.14 217.706H1022.06C1020.91 217.706 1019.97 216.772 1019.97 215.623C1019.97 214.474 1020.91 213.54 1022.06 213.54H1049.14C1050.29 213.54 1051.22 214.474 1051.22 215.623C1051.23 216.772 1050.29 217.706 1049.14 217.706Z" fill="#4A83E7"/>
<path d="M1030.17 241.822H1026.87C1026 241.822 1025.29 241.119 1025.29 240.25V237.145C1025.29 236.277 1026 235.573 1026.87 235.573H1030.17C1031.04 235.573 1031.75 236.277 1031.75 237.145V240.25C1031.75 241.119 1031.04 241.822 1030.17 241.822Z" fill="#617DE1"/>
<path d="M716.552 256.266H713.245C712.376 256.266 711.672 255.562 711.672 254.694V251.588C711.672 250.72 712.376 250.017 713.245 250.017H716.552C717.421 250.017 718.125 250.72 718.125 251.588V254.694C718.125 255.562 717.421 256.266 716.552 256.266Z" fill="#00FFFF"/>
<path d="M969.781 79.4263H914.719C913.806 79.4263 913.063 78.6844 913.063 77.772V64.3398C913.063 63.4275 913.806 62.6855 914.719 62.6855H969.781C970.695 62.6855 971.437 63.4275 971.437 64.3398V77.772C971.437 78.6844 970.7 79.4263 969.781 79.4263Z" fill="#4A83E7"/>
<path d="M921.014 68.6494H960.175" stroke="white" stroke-width="1.1803" stroke-miterlimit="10"/>
<path d="M921.014 72.666H936.963" stroke="white" stroke-width="1.1803" stroke-miterlimit="10"/>
<path d="M919.418 77.5303V84.054L927.632 77.5303H919.418Z" fill="#4A83E7"/>
<path d="M834.503 80.4205H807.847C805.255 80.4205 803.159 78.3265 803.159 75.7379V50.984C803.159 49.0219 804.749 47.4336 806.713 47.4336H834.503C836.467 47.4336 838.057 49.0219 838.057 50.984V76.8701C838.057 78.8321 836.467 80.4205 834.503 80.4205Z" fill="#4A83E7"/>
<path d="M828.748 66.3678L826.762 64.3837C826.41 63.9935 825.948 63.7792 825.486 63.7792C825.024 63.7792 824.561 63.9935 824.209 64.3453L823.076 65.4774C823.004 65.4445 822.933 65.406 822.861 65.373C822.718 65.3016 822.614 65.2686 822.504 65.1971C821.442 64.5211 820.479 63.6363 819.56 62.5041C819.137 61.971 818.818 61.4764 818.636 61.0532C818.922 60.8058 819.17 60.5201 819.417 60.2727C819.522 60.1683 819.632 60.0584 819.736 59.954C820.127 59.5638 820.342 59.1021 820.342 58.6404C820.342 58.1788 820.127 57.7171 819.736 57.3269L818.741 56.3321C818.636 56.2277 818.526 56.1178 818.421 55.9804C818.207 55.766 817.959 55.5187 817.745 55.3044C817.393 54.9526 816.93 54.7383 816.468 54.7383C816.006 54.7383 815.583 54.9142 815.192 55.3044L813.948 56.5465C813.486 57.0081 813.206 57.6072 813.134 58.2832C813.063 59.3439 813.349 60.3387 813.596 60.9762C814.163 62.6085 815.049 64.0595 816.364 65.6203C817.959 67.5 819.841 68.9894 822.042 70.0501C822.856 70.4403 823.995 70.902 825.233 71.0064C825.304 71.0064 825.376 71.0064 825.48 71.0064C826.333 71.0064 827.043 70.6876 827.609 70.0831C827.609 70.0831 827.609 70.0831 827.642 70.0501C827.818 69.8357 828.033 69.6269 828.281 69.4126C828.424 69.2697 828.6 69.0938 828.743 68.9509C829.491 68.176 829.491 67.1097 828.748 66.3678ZM827.928 68.2089C827.785 68.3518 827.642 68.4947 827.505 68.6321C827.257 68.8465 827.043 69.0938 826.795 69.3411C826.438 69.6983 826.052 69.8742 825.519 69.8742C825.447 69.8742 825.414 69.8742 825.343 69.8742C824.281 69.8028 823.285 69.3796 822.575 69.0223C820.551 68.0276 818.779 66.6481 817.288 64.8729C816.083 63.4219 815.263 62.0369 814.697 60.586C814.339 59.7341 814.202 59.0636 814.273 58.3876C814.306 57.9974 814.449 57.6457 814.768 57.3599L815.973 56.1562C816.078 56.0518 816.259 55.9089 816.468 55.9089C816.683 55.9089 816.82 56.0133 816.963 56.1562C817.178 56.3706 817.387 56.5794 817.602 56.7938C817.706 56.8982 817.816 57.0411 817.954 57.151L818.95 58.1458C819.054 58.2502 819.197 58.4646 819.197 58.6404C819.197 58.8548 819.054 59.0306 818.95 59.1351C818.845 59.2395 818.735 59.3494 818.63 59.4538C818.311 59.7726 818.025 60.0584 817.745 60.3387C817.745 60.3387 817.745 60.3387 817.712 60.3717C817.36 60.7234 817.426 61.0477 817.497 61.2565V61.2895C817.745 61.927 818.135 62.4931 818.669 63.2021C819.665 64.4442 820.727 65.4005 821.899 66.1424C822.042 66.2469 822.218 66.3183 822.361 66.3898C822.504 66.4612 822.608 66.4942 822.713 66.5656L822.746 66.5986C823.098 66.7745 823.456 66.703 823.742 66.4227L824.985 65.1806C825.09 65.0762 825.271 64.9333 825.48 64.9333C825.656 64.9333 825.832 65.0762 825.942 65.1806L827.928 67.1647C828.248 67.5 828.248 67.8572 827.928 68.2089Z" fill="white"/>
<mask id="mask0_2329_374" style="mask-type:luminance" maskUnits="userSpaceOnUse" x="761" y="83" width="254" height="184">
<path d="M1014.42 83.7695H761.743V266.61H1014.42V83.7695Z" fill="white"/>
</mask>
<g mask="url(#mask0_2329_374)">
<path d="M950.45 205.323L930.369 202.652L930.528 204.642L913.357 206.928C913.357 206.928 902.288 234.666 912.042 295.666H926.011L931.04 233.809H932.823L937.692 295.666H951.661C961.41 234.666 950.45 205.323 950.45 205.323Z" fill="#AECCFF"/>
<path d="M924.646 233.81H939.221" stroke="#282828" stroke-miterlimit="10" stroke-linecap="round" stroke-linejoin="round"/>
<path d="M962.175 176.062C960.458 173.325 950.808 173.418 950.297 173.358C947.689 173.05 951.969 193.792 957.399 211.923C958.439 215.397 962.268 217.21 965.614 215.792C965.652 215.776 965.685 215.759 965.724 215.748C968.37 214.627 969.872 211.824 969.344 209.005C966.758 195.32 964.161 179.228 962.175 176.062Z" fill="#FFB1A5"/>
<path d="M964.475 183.559L952.156 188.335L951.001 182.499L963.76 179.316L964.475 183.559Z" fill="#F3978E"/>
<path d="M966.802 195.244C966.802 195.244 960.965 203.076 961.245 202.713C961.526 202.35 965.823 190.056 965.823 190.056L966.802 195.244Z" fill="#F3978E"/>
<path d="M975.149 184.72L958.418 206.374C956.223 209.215 956.922 213.326 959.937 215.283C962.946 217.234 966.984 216.206 968.695 213.057L982.62 187.391L975.149 184.72Z" fill="#FFB1A5"/>
<path d="M979.486 190.282C975.86 189.111 973.868 185.225 975.04 181.604C976.212 177.982 980.102 175.992 983.727 177.163C987.353 178.333 989.345 182.219 988.173 185.841C987.001 189.463 983.111 191.452 979.486 190.282Z" fill="#FFB1A5"/>
<path d="M986.638 179.576C986.638 179.576 988.526 177.619 985.175 176.245C981.824 174.871 977.682 175.184 975.035 181.604L986.638 179.576Z" fill="#FFB1A5"/>
<path d="M990.108 165.89L997.112 168.924C997.503 169.094 997.646 169.556 997.431 169.957L988.216 187.154C988.001 187.555 987.511 187.742 987.121 187.572L980.117 184.538C979.726 184.368 979.583 183.906 979.798 183.505L989.013 166.308C989.228 165.907 989.718 165.72 990.108 165.89Z" fill="#372F5F"/>
<path d="M989.436 165.582L996.44 168.616C996.831 168.787 996.974 169.248 996.759 169.649L987.544 186.846C987.329 187.248 986.84 187.434 986.449 187.264L979.445 184.23C979.055 184.06 978.912 183.598 979.126 183.197L988.342 166C988.556 165.604 989.046 165.418 989.436 165.582Z" fill="#261B43"/>
<path d="M988.65 167.336L994.801 170.001L987.291 184.016L981.135 181.351L988.65 167.336Z" fill="#E6E6E6"/>
<path d="M994.801 170.001L981.135 181.351L988.65 167.336L994.801 170.001Z" fill="white"/>
<path d="M983.165 175.673C983.165 175.673 984.728 175.975 986.131 176.772C986.753 177.124 987.066 177.838 986.896 178.531C986.742 179.163 986.208 179.63 985.564 179.712L981.922 180.169C981.922 180.169 980.024 183.439 977.537 183.807L979.815 178.064L983.165 175.673Z" fill="#FFB1A5"/>
<path d="M936.649 148.793C936.247 148.793 962.48 152.42 966.804 182.291L953.193 184.374L950.447 206.929H912.474L904.937 165.259C904.937 165.259 913.349 153.217 928.968 148.793H936.649Z" fill="#4A83E7"/>
<path d="M953.192 184.374L954.375 171.332" stroke="#282828" stroke-miterlimit="10" stroke-linecap="round" stroke-linejoin="round"/>
<path d="M939.14 149.215V138.839H926.964V149.336C926.343 149.523 925.303 149.897 923.696 150.661L933.192 156.311L942.897 150.661C942.897 150.666 941.357 149.77 939.14 149.215Z" fill="#FFB1A5"/>
<path d="M926.854 140.108C926.854 140.108 929.038 145.906 934.875 145.406C940.239 144.944 939.387 136.909 939.387 136.909L926.854 140.108Z" fill="#282828"/>
<path d="M921.546 132.398C919.637 134.129 915.373 127.567 917.216 125.726C919.059 123.884 920.467 126.775 920.467 126.775L921.293 128.732L921.914 131.381L922.063 132.073L921.546 132.398Z" fill="#F3978E"/>
<path d="M918.108 128.051C918.108 128.051 919.555 127.403 920.837 129.491" stroke="#282828" stroke-miterlimit="10" stroke-linecap="round" stroke-linejoin="round"/>
<path d="M944.109 132.2C945.864 134.085 950.672 127.908 948.989 125.918C947.305 123.929 945.66 126.688 945.66 126.688L944.675 128.567L943.833 131.156L943.63 131.837L944.109 132.2Z" fill="#F3978E"/>
<path d="M947.901 128.155C947.901 128.155 946.515 127.386 945.062 129.364" stroke="#282828" stroke-miterlimit="10" stroke-linecap="round" stroke-linejoin="round"/>
<path d="M918.2 119.471C918.2 128.149 924.824 132.266 933 132.266C941.176 132.266 947.8 128.149 947.8 119.471C947.8 110.793 941.176 104.885 933 104.885C924.824 104.885 918.2 110.793 918.2 119.471Z" fill="#282828"/>
<path d="M920.209 120.075C920.209 125.407 920.962 130.001 921.716 133.266C922.453 136.459 924.527 138.696 927.454 140.493L927.988 140.823C931.086 142.724 935.091 142.768 938.238 140.938C941.412 139.092 943.635 136.651 944.317 133.222C945.561 126.984 945.698 120.081 945.698 120.081C945.698 120.081 946.881 106.627 933.138 106.891C919.389 107.143 920.209 120.075 920.209 120.075Z" fill="#FFB1A5"/>
<path d="M932.119 127.753V129.616C932.119 129.726 932.141 129.83 932.18 129.929C932.334 130.309 932.774 130.49 933.17 130.386L934.023 130.16" stroke="#282828" stroke-miterlimit="10" stroke-linecap="round" stroke-linejoin="round"/>
<path d="M929.934 120.531L923.101 122.13C923.101 122.13 923.409 120.393 926.204 119.761C929.004 119.135 929.934 120.531 929.934 120.531Z" fill="#282828"/>
<path d="M935.996 120.531L942.593 122.13C942.593 122.13 942.296 120.393 939.594 119.761C936.893 119.135 935.996 120.531 935.996 120.531Z" fill="#282828"/>
<path d="M927.336 126.693C927.971 126.693 928.486 126.179 928.486 125.544C928.486 124.91 927.971 124.396 927.336 124.396C926.701 124.396 926.187 124.91 926.187 125.544C926.187 126.179 926.701 126.693 927.336 126.693Z" fill="#282828"/>
<path d="M939.414 125.544C939.414 126.176 938.897 126.693 938.264 126.693C937.626 126.693 937.114 126.176 937.114 125.544C937.114 124.912 937.631 124.396 938.264 124.396C938.897 124.401 939.414 124.912 939.414 125.544Z" fill="#282828"/>
<path d="M928.492 132.551H937.378C937.372 132.551 933.438 137.332 928.492 132.551Z" fill="white"/>
<path d="M930.314 129.453C932.226 127.543 932.226 124.446 930.314 122.535C928.402 120.625 925.301 120.625 923.389 122.535C921.477 124.446 921.477 127.543 923.389 129.453C925.301 131.363 928.402 131.363 930.314 129.453Z" stroke="#617DE1" stroke-miterlimit="10"/>
<path d="M942.351 129.451C944.263 127.541 944.263 124.444 942.351 122.533C940.439 120.623 937.338 120.623 935.426 122.533C933.514 124.444 933.514 127.541 935.426 129.451C937.338 131.361 940.439 131.361 942.351 129.451Z" stroke="#617DE1" stroke-miterlimit="10"/>
<path d="M931.754 125.994C931.754 125.994 932.915 124.911 933.993 125.994" stroke="#617DE1" stroke-miterlimit="10"/>
<path d="M921.955 125.994L920.409 125.95" stroke="#617DE1" stroke-miterlimit="10"/>
<path d="M943.786 125.994L945.338 125.95" stroke="#617DE1" stroke-miterlimit="10"/>
<path d="M945.521 124.533C945.521 124.533 940.024 117.114 941.29 109.59C941.29 109.59 945.367 111.64 946.434 116.932C947.496 122.231 945.521 124.533 945.521 124.533Z" fill="#282828"/>
<path d="M920.202 125.038C920.202 125.038 926.584 116.607 925.319 109.089C925.319 109.089 920.89 111.644 919.828 116.937C918.766 122.23 920.202 125.038 920.202 125.038Z" fill="#282828"/>
<path d="M945.06 112.558C945.06 112.558 938.001 120.274 918.695 118.955C918.695 118.955 921.65 107.628 931.008 106.424C931.008 106.419 941.814 105.133 945.06 112.558Z" fill="#282828"/>
<path d="M953.68 105.01C954.491 99.9881 951.074 95.2595 946.046 94.4485C941.019 93.6376 936.285 97.0515 935.474 102.074C934.662 107.096 938.079 111.824 943.107 112.635C948.134 113.446 952.868 110.032 953.68 105.01Z" fill="#282828"/>
<path d="M832.029 205.302L814.858 203.016L815.018 201.021L794.936 203.692C794.936 203.692 783.977 233.035 793.731 294.035H807.7L812.569 232.177H814.352L819.38 294.035H833.349C843.099 233.04 832.029 205.302 832.029 205.302Z" fill="#282828"/>
<path d="M830.659 121.85C828.337 119.119 826.472 115.931 824.893 111.463C823.193 106.665 817.636 108.616 817.636 108.616C817.636 108.616 813.004 102.664 806.033 104.736C799.062 106.808 796.641 111.765 796.498 117.657C796.355 123.549 791.717 124.466 788.147 131.281C781.841 143.312 792.454 153.447 811.782 150.633L811.81 150.446C813.713 151.023 816.046 151.276 818.89 151.105C842.108 149.726 839.869 132.672 830.659 121.85Z" fill="#282828"/>
<path d="M823.053 130.77C824.962 132.501 829.226 125.939 827.383 124.098C825.54 122.257 824.132 125.147 824.132 125.147L823.306 127.104L822.685 129.753L822.536 130.446L823.053 130.77Z" fill="#F3978E"/>
<path d="M826.499 126.422C826.499 126.422 825.052 125.774 823.771 127.862" stroke="#282828" stroke-miterlimit="10" stroke-linecap="round" stroke-linejoin="round"/>
<path d="M800.493 130.572C798.738 132.457 793.929 126.28 795.613 124.29C797.296 122.301 798.941 125.06 798.941 125.06L799.926 126.939L800.768 129.528L800.971 130.21L800.493 130.572Z" fill="#F3978E"/>
<path d="M796.697 126.527C796.697 126.527 798.084 125.758 799.536 127.736" stroke="#282828" stroke-miterlimit="10" stroke-linecap="round" stroke-linejoin="round"/>
<path d="M826.407 117.843C826.407 126.521 819.783 130.638 811.607 130.638C803.432 130.638 796.808 126.521 796.808 117.843C796.808 109.165 803.432 103.257 811.607 103.257C819.783 103.257 826.407 109.165 826.407 117.843Z" fill="#282828"/>
<path d="M817.636 137.212H805.461V152.958H817.636V137.212Z" fill="#FFB1A5"/>
<path d="M803.688 136.233C803.688 136.233 807.078 142.988 811.248 144.043C812.359 144.323 813.553 144.23 814.626 143.851C816.194 143.296 818.186 140.96 818.521 138.371L818.681 136.893C818.675 136.893 811.253 140.927 803.688 136.233Z" fill="#282828"/>
<path d="M824.391 118.448C824.391 123.78 823.637 128.374 822.884 131.639C822.146 134.832 820.072 137.069 817.145 138.866L816.612 139.196C813.514 141.097 809.509 141.141 806.362 139.311C803.187 137.465 800.965 135.024 800.282 131.595C799.039 125.357 798.901 118.454 798.901 118.454C798.901 118.454 797.719 105 811.462 105.264C825.205 105.527 824.391 118.448 824.391 118.448Z" fill="#FFB1A5"/>
<path d="M810.688 126.852V127.956C810.688 128.066 810.71 128.171 810.748 128.27C810.902 128.649 811.342 128.83 811.738 128.726L812.591 128.5" stroke="#282828" stroke-miterlimit="10" stroke-linecap="round" stroke-linejoin="round"/>
<path d="M813.554 119.564L820.866 121.295C820.866 121.295 820.535 119.416 817.542 118.734C814.55 118.053 813.554 119.564 813.554 119.564Z" fill="#282828"/>
<path d="M809.714 119.564L802.309 121.295C802.309 121.295 802.644 119.416 805.676 118.734C808.702 118.047 809.714 119.564 809.714 119.564Z" fill="#282828"/>
<path d="M807.061 124.098C807.061 124.73 806.544 125.241 805.912 125.241C805.273 125.241 804.762 124.73 804.762 124.098C804.762 123.466 805.279 122.955 805.912 122.955C806.544 122.95 807.061 123.466 807.061 124.098Z" fill="#282828"/>
<path d="M817.982 124.098C817.982 124.73 817.465 125.241 816.832 125.241C816.194 125.241 815.683 124.73 815.683 124.098C815.683 123.466 816.2 122.955 816.832 122.955C817.465 122.95 817.982 123.466 817.982 124.098Z" fill="#282828"/>
<path d="M806.296 130.64H816.408C816.408 130.64 815.693 133.415 811.11 133.415C807.616 133.415 806.296 130.64 806.296 130.64Z" fill="white"/>
<path d="M799.079 122.905C799.079 122.905 804.576 115.486 803.31 107.962C803.31 107.962 799.233 110.012 798.166 115.305C797.104 120.603 799.079 122.905 799.079 122.905Z" fill="#282828"/>
<path d="M824.405 122.664C824.405 122.664 818.023 114.986 819.288 107.468C819.288 107.468 823.717 110.023 824.779 115.316C825.841 120.603 824.405 122.664 824.405 122.664Z" fill="#282828"/>
<path d="M799.54 110.93C799.54 110.93 805.845 119.399 825.156 118.074C825.156 118.074 822.95 106 813.592 104.796C813.592 104.796 802.786 103.504 799.54 110.93Z" fill="#282828"/>
<path d="M781.942 242.549C781.662 242.988 798.013 171.486 793.16 172.563C792.715 172.662 784.214 173.448 782.955 176.014C779.29 183.456 776.666 242.005 776.666 242.005L781.942 242.549Z" fill="#FFB1A5"/>
<path d="M776.66 242.005C776.66 242.005 774.025 254.217 783.989 255.553C784.643 255.641 785.281 255.256 785.496 254.63L785.524 254.547C785.76 253.855 785.413 253.118 784.748 252.821C783.125 252.096 780.605 250.26 781.854 246.1C781.854 246.1 783.295 245.924 784.088 248.606C784.291 249.299 785.067 249.645 785.711 249.321C786.151 249.101 786.398 248.628 786.338 248.139C786.101 246.259 785.155 241.736 781.524 240.521L776.66 242.005Z" fill="#FFB1A5"/>
<path d="M780.011 193.2C780.011 193.2 789.43 206.451 789.479 206.198C789.529 205.94 792.775 187.589 792.775 187.589L781.342 182.643L780.011 193.2Z" fill="#F3978E"/>
<path d="M806.188 150.369C806.589 150.369 782.904 150.793 778.574 180.663L792.186 182.746L794.931 205.302H832.904L840.442 163.631C840.442 163.631 835.083 154.601 819.463 150.183L806.188 150.369Z" fill="#5C96CC"/>
<path d="M794.61 153.98C794.61 153.98 797.955 158.421 811.671 158.421C825.261 158.421 828.732 153.749 828.732 153.749C828.732 153.749 820.722 149.281 811.429 147.83C811.429 147.83 803.133 149.308 794.61 153.98Z" fill="#FFB1A5"/>
<path d="M841.211 248.622L841.244 308.204H870.75L873.017 248.622H841.211Z" fill="#005683"/>
<path d="M905.275 248.622L905.241 308.204H875.735L873.469 248.622H905.275Z" fill="#005683"/>
<path d="M889.158 248.622H858.65V269.32H889.158V248.622Z" fill="#005683"/>
<path d="M923.915 196.63C925.747 216.817 923.816 231.529 924.35 268.677L906.739 269.413L904.114 199.878L923.915 196.63Z" fill="#FFB1A5"/>
<path d="M906.287 212.381C906.287 212.381 917.192 211.386 924.647 206.473L924.449 202.147L906.276 204.621L906.287 212.381Z" fill="#F3978E"/>
<path d="M888.792 150.145C888.792 150.145 923.431 158.845 929.709 202.769C929.709 202.769 912.758 210.111 895.768 206.951L899.592 192.26L888.792 150.145Z" fill="#617DE1"/>
<path d="M785.329 168.407L811.122 198.833L803.227 221.037C803.227 221.037 783.624 193.81 774.815 172.766L785.329 168.407Z" fill="#FFB1A5"/>
<path d="M786.179 169.507C786.179 169.507 777.123 174.618 774.818 172.771C770.791 169.54 767.468 157.712 767.468 157.712C767.468 157.712 784.402 151.337 784.243 151.584C784.083 151.831 786.179 169.507 786.179 169.507Z" fill="#FFB1A5"/>
<path d="M786.18 169.507C786.02 168.595 789.536 158.773 790.746 155.086C791.038 154.195 790.422 153.223 789.459 153.036C788.832 152.915 787.836 152.992 787.363 153.893L783.115 161.148L786.18 169.507Z" fill="#FFB1A5"/>
<path d="M785.867 158.883L782.951 144.39C782.781 143.429 781.807 142.764 780.838 142.945C780.002 143.104 779.447 143.846 779.546 144.687L780.816 155.481L785.867 158.883Z" fill="#FFB1A5"/>
<path d="M780.067 153.541L776.106 143.192C775.776 142.285 774.758 141.785 773.855 142.087C773.074 142.351 772.634 143.137 772.821 143.945L775.759 155.904L780.067 153.541Z" fill="#FFB1A5"/>
<path d="M775.815 156.591L770.803 146.423C770.341 145.478 769.196 145.044 768.261 145.45C767.381 145.835 766.99 146.83 767.364 147.742L771.359 157.344L775.815 156.591Z" fill="#FFB1A5"/>
<path d="M767.468 157.712L763.534 151.48C763.21 150.749 763.507 149.924 764.222 149.6C764.904 149.287 765.746 149.534 766.186 150.172L771.358 157.338L767.468 157.712Z" fill="#FFB1A5"/>
<path d="M785.071 157.795C785.071 157.795 779.167 157.174 778.557 165.038" stroke="#282828" stroke-miterlimit="10" stroke-linecap="round" stroke-linejoin="round"/>
<path d="M797.992 210.655C797.992 210.655 802.845 227.423 812.511 225.197C822.178 222.966 837.242 202.345 837.242 202.345L833.869 167.132L806.74 200.487L797.992 210.655Z" fill="#FFB1A5"/>
<path d="M815.159 190.121C815.159 190.121 824.32 203.922 832.132 208.791L837.249 202.344L817.519 187.099L815.159 190.121Z" fill="#F3978E"/>
<path d="M855.232 149.386C855.232 149.386 828.339 155.442 814.007 186.665C814.007 186.665 822.667 199.696 836.548 205.489L845.84 194.118L855.232 149.386Z" fill="#617DE1"/>
<path d="M855.234 149.287C844.731 154.668 838.123 161.807 838.123 161.807L840.197 253.073H906.4L906.186 162.28C906.186 162.28 897.839 154.124 888.794 150.144C881.114 146.77 862.699 145.462 855.234 149.287Z" fill="#617DE1"/>
<path d="M886.554 193.76C881.47 193.76 877.344 189.643 877.344 184.56V175.359H895.758V184.56C895.764 189.643 891.643 193.76 886.554 193.76Z" stroke="#282828" stroke-miterlimit="10" stroke-linecap="round" stroke-linejoin="round"/>
<path d="M906.29 207.292L907.148 177.438" stroke="#282828" stroke-miterlimit="10" stroke-linecap="round" stroke-linejoin="round"/>
<path d="M839.14 202.317L837.71 176.437" stroke="#282828" stroke-miterlimit="10" stroke-linecap="round" stroke-linejoin="round"/>
<path d="M856.008 115.954L853.246 102.318C853.092 101.208 852.658 99.4933 853.186 97.883C854.061 95.2174 857.274 90.1007 862.764 92.442L863.953 97.839C863.953 97.839 858.253 98.9877 855.964 106.44L856.008 115.954Z" fill="#282828"/>
<path d="M862.362 95.2568C862.263 97.0485 860.679 104.891 855.111 107.744C855.111 107.744 850.236 97.3013 862.362 95.2568Z" fill="#282828"/>
<path d="M881.888 146.776V123.616H860.519V146.776L854.159 149.673C854.159 149.673 855.65 159.269 871.429 159.483C887.208 159.697 888.793 150.145 888.793 150.145L881.888 146.776Z" fill="#FFB1A5"/>
<path d="M862.763 92.4422C862.763 92.4422 866.685 82.1043 878.778 87.6003C886.101 90.9253 888.148 95.3826 889.023 98.5428C889.314 99.5925 889.43 101.247 889.347 102.231L886.42 115.954L874.999 96.9654L863.946 97.8393L862.763 92.4422Z" fill="#282828"/>
<path d="M886.425 115.953C886.425 115.953 887.866 113.661 890.837 114.788C893.808 115.915 892.466 123.125 888.009 124.043C888.009 124.043 886.414 124.39 885.159 123.296C885.154 123.301 886.249 117.976 886.425 115.953Z" fill="#F3978E"/>
<path d="M890.247 117.332C890.247 117.332 887.76 116.502 885.988 120.162" stroke="#282828" stroke-miterlimit="10" stroke-linecap="round" stroke-linejoin="round"/>
<path d="M856.008 115.954C856.008 115.954 854.566 113.662 851.595 114.789C848.624 115.916 849.967 123.126 854.423 124.044C854.423 124.044 856.019 124.391 857.273 123.297C857.273 123.302 856.178 117.977 856.008 115.954Z" fill="#F3978E"/>
<path d="M852.186 117.334C852.186 117.334 854.672 116.504 856.444 120.164" stroke="#282828" stroke-miterlimit="10" stroke-linecap="round" stroke-linejoin="round"/>
<path d="M886.724 109.111C886.724 113.459 886.301 122.549 883.621 127.946C881.113 133.013 876.959 135.739 871.512 135.904C866.065 136.069 862.01 133.97 858.759 127.391C855.507 120.812 855.661 109.188 855.661 109.188C855.661 109.188 855.661 93.6621 871.022 93.6621C887.203 93.6676 886.724 109.111 886.724 109.111Z" fill="#FFB1A5"/>
<path d="M860.677 130.634C860.677 130.634 862.465 139.708 870.371 140.746C879.465 141.945 881.886 130.865 881.886 130.865C881.886 130.865 877.87 135.893 871.51 135.904C864.423 135.915 860.677 130.634 860.677 130.634Z" fill="#282828"/>
<path d="M870.099 115.559V119.153C870.099 119.307 870.126 119.455 870.181 119.593C870.396 120.126 871.006 120.379 871.562 120.23L872.756 119.911" stroke="#282828" stroke-miterlimit="10" stroke-linecap="round" stroke-linejoin="round"/>
<path d="M865.563 113.843C865.563 114.613 864.936 115.239 864.166 115.239C863.396 115.239 862.769 114.613 862.769 113.843C862.769 113.074 863.396 112.447 864.166 112.447C864.936 112.447 865.563 113.068 865.563 113.843Z" fill="#282828"/>
<path d="M878.675 113.843C878.675 114.613 878.048 115.239 877.277 115.239C876.507 115.239 875.88 114.613 875.88 113.843C875.88 113.074 876.507 112.447 877.277 112.447C878.048 112.447 878.675 113.068 878.675 113.843Z" fill="#282828"/>
<path d="M873.694 106.891L883.097 109.315C883.097 109.315 882.668 106.683 878.822 105.721C874.976 104.77 873.694 106.891 873.694 106.891Z" fill="#282828"/>
<path d="M867.853 106.891L858.45 109.315C858.45 109.315 858.879 106.683 862.725 105.721C866.571 104.77 867.853 106.891 867.853 106.891Z" fill="#282828"/>
<path d="M865.982 122.774C865.982 122.774 867.369 123.835 871.017 123.835C874.334 123.835 876.403 122.774 876.403 122.774" stroke="#282828" stroke-miterlimit="10" stroke-linecap="round" stroke-linejoin="round"/>
<path d="M863.789 120.187C867.07 120.187 869.731 117.529 869.731 114.251C869.731 110.973 867.07 108.315 863.789 108.315C860.507 108.315 857.847 110.973 857.847 114.251C857.847 117.529 860.507 120.187 863.789 120.187Z" stroke="white" stroke-miterlimit="10"/>
<path d="M878.382 120.187C881.664 120.187 884.324 117.529 884.324 114.251C884.324 110.973 881.664 108.315 878.382 108.315C875.101 108.315 872.44 110.973 872.44 114.251C872.44 117.529 875.101 120.187 878.382 120.187Z" stroke="white" stroke-miterlimit="10"/>
<path d="M869.729 114.251C869.729 114.251 871.138 112.937 872.442 114.251" stroke="white" stroke-miterlimit="10"/>
<path d="M857.845 114.251L855.854 114.201" stroke="white" stroke-miterlimit="10"/>
<path d="M884.326 114.251L886.554 114.213" stroke="white" stroke-miterlimit="10"/>
<path d="M860.677 95.6085C860.677 95.6085 863.532 103.71 876.406 103.457C885.154 103.286 887.245 109.612 887.245 109.612C887.245 109.612 885.721 95.4711 885.319 95.6085C884.918 95.7404 872.005 92.168 872.005 92.168L860.677 95.6085Z" fill="#282828"/>
</g>
<defs>
<linearGradient id="paint0_linear_2329_374" x1="17" y1="252" x2="1312.5" y2="252" gradientUnits="userSpaceOnUse">
<stop stop-color="#BFCBFF"/>
<stop offset="1" stop-color="#C5E1FF"/>
</linearGradient>
<linearGradient id="paint1_linear_2329_374" x1="387.583" y1="376.73" x2="251.703" y2="89.7465" gradientUnits="userSpaceOnUse">
<stop stop-color="#BEB9E3"/>
<stop offset="1" stop-color="#C3D6F7"/>
</linearGradient>
<linearGradient id="paint2_linear_2329_374" x1="225.361" y1="93.9297" x2="225.361" y2="186.063" gradientUnits="userSpaceOnUse">
<stop stop-color="#C2ADFF"/>
<stop offset="1" stop-color="#89B2F4"/>
</linearGradient>
<linearGradient id="paint3_linear_2329_374" x1="1001.58" y1="376.73" x2="865.703" y2="89.7465" gradientUnits="userSpaceOnUse">
<stop stop-color="#A773FF"/>
<stop offset="1" stop-color="#4A83E7"/>
</linearGradient>
<linearGradient id="paint4_linear_2329_374" x1="731.932" y1="165.885" x2="731.932" y2="225.791" gradientUnits="userSpaceOnUse">
<stop stop-color="#C7DAFC"/>
<stop offset="1" stop-color="#4A83E7" stop-opacity="0"/>
</linearGradient>
<clipPath id="clip0_2329_374">
<rect width="349" height="244" fill="white" transform="translate(90 37)"/>
</clipPath>
</defs>
</svg>