<svg width="81" height="90" viewBox="0 0 81 90" fill="none" xmlns="http://www.w3.org/2000/svg">
<g clip-path="url(#clip0_1544_4347)">
<path d="M74.6391 80.1705H21.3494C19.1235 80.1705 17.0286 78.8807 16.243 76.8169C15.3265 74.7532 15.8502 72.4314 17.4214 70.8836L70.7111 18.2575C72.2823 16.7097 74.6391 16.1937 76.734 17.0966C78.8289 17.9995 80.1382 19.9343 80.1382 22.1271V74.7532C80.2692 77.7198 77.7814 80.1705 74.6391 80.1705ZM34.8355 69.2068H69.1399V35.4126L34.8355 69.2068Z" fill="#B6D0FF"/>
<path d="M45.1796 86.4903C43.8702 86.4903 42.5609 85.7164 42.1681 84.4265L24.3612 38.2497L6.68528 83.1367C6.03061 84.8135 4.19755 85.5874 2.49542 84.9425C0.793295 84.2975 0.00769797 82.4917 0.662362 80.8149L21.4807 28.0599C22.0044 26.77 23.1828 25.9961 24.4921 25.9961C25.8015 25.9961 27.1108 26.77 27.5036 28.0599L48.3219 82.1048C48.9766 83.7816 48.0601 85.5874 46.3579 86.2323C45.9651 86.3613 45.5723 86.4903 45.1796 86.4903Z" fill="#305087"/>
<path d="M24.3616 33.9928C18.3387 33.9928 13.3633 29.0914 13.3633 23.158C13.3633 17.2247 18.2078 12.3232 24.3616 12.3232C30.3846 12.3232 35.36 17.2247 35.36 23.158C35.36 29.0914 30.3846 33.9928 24.3616 33.9928ZM24.3616 18.9015C21.8739 18.9015 19.9099 20.8363 19.9099 23.287C19.9099 25.7377 21.8739 27.6725 24.3616 27.6725C26.8494 27.6725 28.8134 25.7377 28.8134 23.287C28.8134 20.8363 26.8494 18.9015 24.3616 18.9015Z" fill="#305087"/>
<path d="M24.3616 35.9277C27.471 35.9277 29.9917 33.4445 29.9917 30.3813C29.9917 27.3182 27.471 24.835 24.3616 24.835C21.2521 24.835 18.7314 27.3182 18.7314 30.3813C18.7314 33.4445 21.2521 35.9277 24.3616 35.9277Z" fill="#4A83E7"/>
<path d="M24.4921 18.128C22.659 18.128 21.2188 16.7092 21.2188 14.9034V3.68167C21.2188 1.87587 22.659 0.457031 24.4921 0.457031C26.3251 0.457031 27.7654 1.87587 27.7654 3.68167V14.9034C27.7654 16.7092 26.3251 18.128 24.4921 18.128Z" fill="#305087"/>
<path d="M1.57885 89.4573C1.44792 89.4573 1.31699 89.4573 1.05512 89.3283C0.400457 89.0703 0.00765871 88.2964 0.269525 87.6515L3.28098 79.9123C3.54285 79.2674 4.32844 78.8805 4.98311 79.1384C5.63777 79.3964 6.03057 80.1703 5.76871 80.8152L2.75725 88.5544C2.62632 89.1993 2.10259 89.4573 1.57885 89.4573Z" fill="#305087"/>
<path d="M47.2748 89.4572C46.7511 89.4572 46.2273 89.1992 46.0964 88.6833L43.085 80.9441C42.8231 80.2992 43.2159 79.5253 43.8705 79.2673C44.5252 79.0094 45.3108 79.3963 45.5727 80.0412L48.5841 87.7804C48.846 88.4253 48.4532 89.1992 47.7985 89.4572C47.5367 89.4572 47.4057 89.4572 47.2748 89.4572Z" fill="#305087"/>
<path d="M7.07836 79.6543C10.1878 79.6543 12.7085 77.1711 12.7085 74.1079C12.7085 71.0447 10.1878 68.5615 7.07836 68.5615C3.96893 68.5615 1.44824 71.0447 1.44824 74.1079C1.44824 77.1711 3.96893 79.6543 7.07836 79.6543Z" fill="#4A83E7"/>
<path d="M43.2155 58.7584H5.11402C4.32842 58.7584 3.80469 58.2425 3.80469 57.4686C3.80469 56.6947 4.32842 56.1787 5.11402 56.1787H43.2155C44.0011 56.1787 44.5248 56.6947 44.5248 57.4686C44.5248 58.2425 44.0011 58.7584 43.2155 58.7584Z" fill="#305087"/>
<path d="M7.07772 76.8168C8.59627 76.8168 9.82731 75.6041 9.82731 74.1081C9.82731 72.6121 8.59627 71.3994 7.07772 71.3994C5.55916 71.3994 4.32812 72.6121 4.32812 74.1081C4.32812 75.6041 5.55916 76.8168 7.07772 76.8168Z" fill="#305087"/>
<path d="M42.4299 79.6543C45.5393 79.6543 48.06 77.1711 48.06 74.1079C48.06 71.0447 45.5393 68.5615 42.4299 68.5615C39.3205 68.5615 36.7998 71.0447 36.7998 74.1079C36.7998 77.1711 39.3205 79.6543 42.4299 79.6543Z" fill="#4A83E7"/>
<path d="M42.4303 76.8168C43.9488 76.8168 45.1798 75.6041 45.1798 74.1081C45.1798 72.6121 43.9488 71.3994 42.4303 71.3994C40.9117 71.3994 39.6807 72.6121 39.6807 74.1081C39.6807 75.6041 40.9117 76.8168 42.4303 76.8168Z" fill="#305087"/>
<path d="M24.3612 61.8544C23.4447 61.8544 22.79 61.0805 22.79 60.3066V53.9863C22.79 53.0834 23.5756 52.4385 24.3612 52.4385C25.2778 52.4385 25.9324 53.2124 25.9324 53.9863V60.3066C26.0634 61.2095 25.2778 61.8544 24.3612 61.8544Z" fill="#4A83E7"/>
<path d="M3.54324 60.4352C2.36485 60.4352 1.31738 59.4033 1.31738 58.2425V56.8236C1.31738 55.6627 2.36485 54.6309 3.54324 54.6309C4.72164 54.6309 5.7691 55.6627 5.7691 56.8236V58.2425C5.7691 59.4033 4.85257 60.4352 3.54324 60.4352Z" fill="#4A83E7"/>
<path d="M44.6555 60.4352C43.4772 60.4352 42.4297 59.4033 42.4297 58.2425V56.8236C42.4297 55.6627 43.4772 54.6309 44.6555 54.6309C45.8339 54.6309 46.8814 55.6627 46.8814 56.8236V58.2425C46.8814 59.4033 45.8339 60.4352 44.6555 60.4352Z" fill="#4A83E7"/>
</g>
<defs>
<clipPath id="clip0_1544_4347">
<rect width="80" height="89" fill="white" transform="translate(0.269531 0.457031)"/>
</clipPath>
</defs>
</svg>
