<svg width="52" height="53" viewBox="0 0 52 53" fill="none" xmlns="http://www.w3.org/2000/svg">
<g clip-path="url(#clip0_2325_83)">
<path d="M15.3969 17.9707H42.3699V40.3818C42.3699 41.7132 41.3112 42.7926 40.007 42.7926H37.3053V49.6179C37.3053 51.3512 35.9495 52.7559 34.2757 52.7559C32.5977 52.7559 31.2438 51.3512 31.2438 49.6179V42.7926H26.5252V49.6179C26.5252 51.3512 25.1666 52.7559 23.493 52.7559C21.8197 52.7559 20.4612 51.3512 20.4612 49.6179V42.7926H17.7619C16.4574 42.7926 15.3968 41.7132 15.3968 40.3818L15.3969 17.9707ZM10.1111 17.7878C8.42031 17.7878 7.05078 19.2059 7.05078 20.9566V33.3408C7.05078 35.0894 8.42031 36.51 10.1111 36.51C11.8021 36.51 13.1714 35.0894 13.1714 33.3408V20.9566C13.1714 19.2059 11.8021 17.7878 10.1111 17.7878ZM42.37 15.7124H15.3969C15.7297 11.7943 18.2225 8.42265 21.8109 6.47041L19.2464 2.63094C18.9005 2.11318 19.031 1.40671 19.5398 1.05419C20.048 0.701663 20.7395 0.835726 21.087 1.35309L23.8822 5.54071C25.4319 4.9943 27.1141 4.68058 28.8834 4.68058C30.6547 4.68058 32.337 4.9943 33.8866 5.54142L36.6818 1.35461C37.025 0.835827 37.7187 0.701765 38.2269 1.05429C38.7357 1.40681 38.8662 2.11328 38.5204 2.63105L35.9579 6.47051C39.5462 8.42153 42.0373 11.7932 42.37 15.7124ZM24.6863 10.3886C24.6863 9.54837 24.019 8.86688 23.1953 8.86688C22.3694 8.86688 21.7021 9.54837 21.7021 10.3886C21.7021 11.2284 22.3716 11.9096 23.1953 11.9096C24.0189 11.9096 24.6863 11.2284 24.6863 10.3886ZM36.2537 10.3886C36.2537 9.54837 35.5841 8.86688 34.7605 8.86688C33.9347 8.86688 33.2694 9.54837 33.2694 10.3886C33.2694 11.2284 33.9347 11.9096 34.7605 11.9096C35.5842 11.9096 36.2537 11.2284 36.2537 10.3886ZM47.6577 17.7835C45.9688 17.7835 44.5953 19.2037 44.5953 20.9544V33.343C44.5953 35.0938 45.9688 36.5144 47.6577 36.5144C49.3489 36.5144 50.7158 35.0939 50.7158 33.343V20.9544C50.7159 19.2037 49.3489 17.7835 47.6577 17.7835Z" fill="white"/>
</g>
<defs>
<clipPath id="clip0_2325_83">
<rect width="51" height="52" fill="white" transform="translate(0.433594 0.806641)"/>
</clipPath>
</defs>
</svg>
