<svg width="30" height="28" viewBox="0 0 30 28" fill="none" xmlns="http://www.w3.org/2000/svg">
<path fill-rule="evenodd" clip-rule="evenodd" d="M1.67206 0.232422H28.3165C28.6698 0.232422 29.0087 0.37473 29.2585 0.62804C29.5083 0.88135 29.6487 1.22491 29.6487 1.58315V16.4411V17.1383V20.4933C29.6487 20.8515 29.5083 21.1951 29.2585 21.4484C29.0087 21.7017 28.6698 21.844 28.3165 21.844H18.9909V24.5455H22.9876C23.3409 24.5455 23.6798 24.6878 23.9296 24.9411C24.1795 25.1944 24.3198 25.5379 24.3198 25.8962C24.3198 26.2544 24.1795 26.598 23.9296 26.8513C23.6798 27.1046 23.3409 27.2469 22.9876 27.2469H7.00095C6.64762 27.2469 6.30877 27.1046 6.05893 26.8513C5.80909 26.598 5.66873 26.2544 5.66873 25.8962C5.66873 25.5379 5.80909 25.1944 6.05893 24.9411C6.30877 24.6878 6.64762 24.5455 7.00095 24.5455H10.9976V21.844H1.67206C1.31874 21.844 0.979882 21.7017 0.730042 21.4484C0.480202 21.1951 0.339844 20.8515 0.339844 20.4933V17.1383V16.4411V1.58315C0.339844 1.22491 0.480202 0.88135 0.730042 0.62804C0.979882 0.37473 1.31874 0.232422 1.67206 0.232422ZM13.6621 24.5455H16.3265V21.844H13.6621V24.5455ZM12.6679 8.63546L7.67378 10.9864V11.8936L12.6689 14.2469V13.1289L8.89118 11.4515V11.4305L12.6679 9.75347V8.63546ZM13.4391 14.6679L15.6656 7.01953H16.7163L14.4898 14.6679H13.4391ZM17.3203 14.2459L22.3145 11.925V10.9564L17.3203 8.63546V9.75209L21.1805 11.4305V11.4505L17.3203 13.1279V14.2459Z" fill="#4A83E7"/>
</svg>
