<svg width="39" height="39" viewBox="0 0 39 39" fill="none" xmlns="http://www.w3.org/2000/svg">
<path d="M0.429688 19.5434C0.431475 16.8811 0.99417 14.2481 2.08209 11.8115L11.2664 36.5991C8.01824 35.0471 5.27901 32.624 3.36245 29.6076C1.44589 26.5911 0.429495 23.1033 0.429688 19.5434ZM32.6131 18.5959C32.4067 20.6897 31.9222 22.7477 31.172 24.717L29.2507 31.0276L22.2952 10.7124L24.4856 10.485C24.6763 10.4451 24.846 10.3385 24.9632 10.1848C25.0804 10.0311 25.1372 9.84076 25.1232 9.64896C25.1091 9.45715 25.0251 9.27685 24.8867 9.14139C24.7483 9.00593 24.5649 8.92447 24.3703 8.91207C24.3703 8.91207 21.2576 9.15843 19.2402 9.15843L14.1869 8.91207C13.9911 8.92087 13.8053 8.99961 13.6641 9.13361C13.5229 9.26761 13.436 9.4477 13.4195 9.64029C13.403 9.83287 13.4582 10.0248 13.5746 10.1802C13.6911 10.3356 13.8609 10.444 14.0524 10.485L16.0891 10.7124L19.0865 18.7475L14.8786 31.1792L7.8655 10.7124L10.0367 10.485C10.2269 10.4558 10.4003 10.3605 10.5255 10.2162C10.6507 10.072 10.7195 9.8884 10.7195 9.69853C10.7195 9.50865 10.6507 9.32503 10.5255 9.18082C10.4003 9.0366 10.2269 8.94128 10.0367 8.91207C10.0367 8.91207 6.92401 9.15843 4.90654 9.15843H3.58078C5.1061 6.86299 7.11874 4.92171 9.47949 3.46884C11.8402 2.01597 14.4928 1.08618 17.2537 0.743773C20.0146 0.401362 22.8179 0.654502 25.4699 1.48569C28.1218 2.31687 30.5591 3.70626 32.6131 5.55778H32.3633C31.485 5.58259 30.6524 5.94937 30.0475 6.57793C29.4426 7.20649 29.1147 8.04569 29.1354 8.91207C29.3487 10.5425 30.0135 12.0834 31.0568 13.3655C32.0842 14.9228 32.6376 16.738 32.6515 18.5959M20.0087 21.1922L25.9266 37.1487L26.0611 37.414C22.26 38.7422 18.1299 38.8484 14.2638 37.7172L20.0279 21.1922M36.5135 10.4471C38.9097 14.7882 39.4914 19.8809 38.1346 24.639C36.7777 29.3971 33.5898 33.4441 29.2507 35.9169L35.1301 19.1834C36.0656 17.0449 36.5681 14.7466 36.6096 12.418L36.4751 10.5229" fill="#4A83E7"/>
</svg>
