<svg width="100" height="123" viewBox="0 0 100 123" fill="none" xmlns="http://www.w3.org/2000/svg">
<path d="M34.6157 25.7964C33.7786 25.7964 33.0811 26.4905 33.0811 27.3234C33.0811 28.1563 33.7786 28.8504 34.6157 28.8504C35.4528 28.8504 36.1504 28.1563 36.1504 27.3234C36.1504 26.4627 35.4528 25.7964 34.6157 25.7964Z" fill="#4A83E7"/>
<path d="M41.8529 28.7298C42.6347 28.4041 43.0031 27.5094 42.6758 26.7315C42.3484 25.9536 41.4493 25.587 40.6675 25.9127C39.8857 26.2384 39.5173 27.1331 39.8446 27.911C40.172 28.6889 41.0711 29.0555 41.8529 28.7298Z" fill="#4A83E7"/>
<path d="M47.8979 25.7964C47.0608 25.7964 46.3633 26.4905 46.3633 27.3234C46.3633 28.1563 47.0608 28.8504 47.8979 28.8504C48.735 28.8504 49.4326 28.1563 49.4326 27.3234C49.4326 26.4627 48.735 25.7964 47.8979 25.7964Z" fill="#4A83E7"/>
<path d="M77.4749 68.22C76.5541 68.1645 75.6054 68.4143 74.7683 68.4976C74.3219 67.6647 73.987 66.804 73.429 66.0822C73.0104 65.4991 72.3966 65.1104 71.7548 64.8605V9.30446C71.7548 4.27915 67.681 0.225586 62.6306 0.225586H29.4543C24.4039 0.225586 20.3301 4.27915 20.3301 9.30446V80.7139C20.3301 85.7392 24.4039 89.7927 29.4543 89.7927H46.9493C48.2049 92.4303 50.3534 94.3461 52.1671 96.5117C53.3669 97.9554 54.7062 99.2603 55.1527 101.204C55.2922 101.87 55.7386 102.287 56.2409 102.398H56.2688C56.4083 102.425 56.5478 102.425 56.6873 102.398H74.7962C75.438 102.425 75.8007 101.981 76.0518 101.37C76.4425 100.399 76.861 99.3714 77.5028 98.5384C80.0977 95.1512 81.8277 91.4308 81.9951 87.1551C82.1904 82.3797 82.1904 77.6043 82.0788 72.8288C81.9672 70.0524 80.1256 68.3866 77.4749 68.22ZM22.8692 9.30446C22.8692 5.69512 25.8269 2.75212 29.4543 2.75212H34.0024C34.0024 2.83542 34.0024 2.91871 34.0024 3.002V4.19586C34.0024 5.61183 35.1743 6.77793 36.5974 6.77793H55.5433C56.9664 6.77793 58.1383 5.61183 58.1383 4.19586V2.97424C58.1383 2.89094 58.1383 2.80765 58.1383 2.72436H62.6864C66.3138 2.72436 69.2715 5.66736 69.2715 9.2767V64.5829C68.5739 64.6662 67.9042 64.8605 67.3741 65.1382C66.8997 65.388 66.6207 65.4158 66.258 64.9438C65.5046 64.0276 64.4722 63.4723 63.3003 63.4168C62.2679 63.389 61.2634 63.5556 60.1473 63.6389V62.7505C60.1473 61.3345 60.1473 59.9185 60.1473 58.5025C62.4632 57.3642 64.0815 55.0042 64.0815 52.2556V36.2635V32.2932V27.5733C64.0815 23.7418 60.9564 20.6322 57.1059 20.6322H35.7882C31.9376 20.6322 28.8125 23.7418 28.8125 27.5733V32.3209V36.2912V52.2834C28.8125 56.1148 31.9376 59.2244 35.7882 59.2244H50.186C50.186 64.7772 50.186 70.3301 50.186 75.8829C50.186 76.6881 49.9907 77.1323 49.2094 77.4932C48.2049 77.9374 47.4236 78.576 46.8098 79.3534H22.8134V9.30446H22.8692ZM52.6693 48.202C50.7161 49.2571 50.186 51.034 50.186 53.0885C50.186 54.3101 50.186 55.504 50.186 56.7256H35.7882C33.3327 56.7256 31.3517 54.7544 31.3517 52.3111V36.319H61.4866V52.3111C61.4866 53.5883 60.9564 54.7266 60.0915 55.5318C60.0915 54.5045 60.0915 53.4772 60.1194 52.45C60.1473 48.5074 55.9898 46.3974 52.6693 48.202ZM61.4866 32.3209H31.3517V27.5733C31.3517 25.13 33.3327 23.1588 35.7882 23.1588H57.0501C59.5055 23.1588 61.4866 25.1578 61.4866 27.5733V32.3209ZM45.582 85.6559H41.871C40.8944 85.6559 40.0852 84.8507 40.0852 83.879C40.0852 83.3792 40.2805 82.935 40.6154 82.6296C40.9502 82.2964 41.3966 82.1021 41.871 82.1021H45.6379C45.3867 83.2959 45.3867 84.4898 45.582 85.6559ZM79.5397 85.1284C79.4839 88.8487 78.591 92.3193 76.4146 95.4288C75.6891 96.4561 74.8799 97.4556 74.266 98.5662C74.0986 98.8716 73.9591 99.177 73.8754 99.5379H57.357C57.1896 99.0382 56.9664 98.5662 56.6594 98.1775C55.1527 96.1507 53.5343 94.1795 51.8602 92.2915C51.1626 91.4864 50.4929 90.6812 49.9349 89.8205C49.5721 89.2652 49.2373 88.6822 48.9583 88.0714C48.8467 87.8215 48.7351 87.5716 48.6513 87.294C48.456 86.7664 48.3165 86.2389 48.2049 85.6836C48.177 85.5171 48.1491 85.3505 48.1212 85.1839C47.9538 84.0456 47.9817 82.9905 48.2886 82.1021C48.7071 80.8527 49.7116 79.9087 51.5532 79.3812C51.5811 79.3812 51.5811 79.3812 51.609 79.3534C52.4461 79.1313 52.8368 78.5482 52.8368 77.6598C52.8089 75.5497 52.8089 73.4119 52.8089 71.3018C52.8089 67.276 52.8089 63.278 52.8089 59.2522C52.8089 58.4192 52.8089 57.5586 52.8089 56.7256C52.8089 55.3374 52.8089 53.9492 52.8089 52.561C52.8089 51.2283 53.7017 50.2566 54.9853 50.1455C56.3246 50.0622 57.3012 50.8119 57.4407 52.2278C57.5802 53.5883 57.5523 54.9487 57.5523 56.3092V56.6701C57.5523 57.503 57.5523 58.3637 57.5523 59.1966C57.5523 62.9448 57.5523 66.693 57.5802 70.4411C57.5802 71.4129 58.0546 71.9404 58.78 71.9681C59.5334 71.9959 60.0636 71.3573 60.0915 70.4134C60.1194 69.6637 60.0357 68.8863 60.1473 68.1367C60.2868 66.7207 61.3471 65.86 62.6585 65.9433C63.9699 66.0266 64.8907 67.0261 64.8907 68.4421C64.8907 69.2195 64.8628 70.0247 64.9186 70.8298C64.9744 71.5795 65.4767 71.9681 66.1742 71.9959C66.8718 72.0237 67.3183 71.6072 67.4299 70.9409C67.5136 70.4411 67.4857 69.9414 67.4857 69.4416C67.5415 68.2478 68.1274 67.4981 69.1877 67.276C69.3273 67.2482 69.4947 67.2205 69.69 67.1927C70.6108 67.1094 71.3363 67.4704 71.7269 68.1922C71.8664 68.4421 71.9501 68.7197 72.0059 69.0529C72.1733 70.3023 72.2012 71.5795 72.257 72.8288C72.3129 73.9116 72.6198 74.3836 73.4569 74.4114C74.3498 74.4392 74.6288 74.0505 74.7962 72.9399C74.8799 72.3846 75.0194 71.6628 75.3821 71.3296C76.7494 70.108 78.9537 70.8576 79.3722 72.6345C79.4839 73.0509 79.5397 73.4952 79.5397 73.9394C79.5676 77.6598 79.6234 81.408 79.5397 85.1284Z" fill="#4A83E7"/>
<path d="M75.912 21.5485C77.7536 19.9937 78.7581 19.6605 81.1856 19.8548C79.6231 18.0224 79.2883 17.0229 79.4836 14.6074C77.642 16.1622 76.6375 16.4954 74.21 16.301C75.7725 18.1335 76.1073 19.133 75.912 21.5485Z" fill="#4773BF"/>
<path d="M14.6935 50.6177C12.852 52.1725 11.8475 52.5056 9.41992 52.3113C10.9825 54.1437 11.3173 55.1432 11.122 57.5587C12.9636 56.0039 13.9681 55.6707 16.3956 55.8651C14.8331 54.0327 14.4982 53.0054 14.6935 50.6177Z" fill="#164598"/>
<path d="M34.6157 25.7964C33.7786 25.7964 33.0811 26.4905 33.0811 27.3234C33.0811 28.1563 33.7786 28.8504 34.6157 28.8504C35.4528 28.8504 36.1504 28.1563 36.1504 27.3234C36.1504 26.4627 35.4528 25.7964 34.6157 25.7964Z" fill="#4A83E7"/>
<path d="M41.8529 28.7298C42.6347 28.4041 43.0031 27.5094 42.6758 26.7315C42.3484 25.9536 41.4493 25.587 40.6675 25.9127C39.8857 26.2384 39.5173 27.1331 39.8446 27.911C40.172 28.6889 41.0711 29.0555 41.8529 28.7298Z" fill="#4A83E7"/>
<path d="M47.8979 25.7964C47.0608 25.7964 46.3633 26.4905 46.3633 27.3234C46.3633 28.1563 47.0608 28.8504 47.8979 28.8504C48.735 28.8504 49.4326 28.1563 49.4326 27.3234C49.4326 26.4627 48.735 25.7964 47.8979 25.7964Z" fill="#4A83E7"/>
<path fill-rule="evenodd" clip-rule="evenodd" d="M53.7721 10.239C69.0107 11.9946 83.6038 18.702 92.9326 30.8786C101.304 41.805 99.8696 56.2776 99.5865 70.0391C99.3123 83.3681 100.961 98.3772 91.354 107.621C81.8305 116.785 66.8859 112.48 53.7721 114.124C37.0811 116.216 17.6337 129.958 5.41629 118.395C-6.76195 106.869 7.36414 86.8059 7.19209 70.0391C7.01632 52.9092 -6.11337 34.1955 4.41365 20.6807C15.1566 6.88869 36.4046 8.23817 53.7721 10.239Z" fill="white"/>
<path d="M75.6515 43.2061L76.1974 44.9233C76.2847 45.2396 76.6122 45.4204 76.9179 45.3074L78.1844 44.8781C78.4464 45.3752 78.7739 45.8497 79.1451 46.2564L78.3372 47.4087C78.1625 47.6799 78.2062 48.0414 78.4682 48.2448L79.8657 49.3067C80.1277 49.4875 80.4771 49.4423 80.6736 49.1711L81.4597 48.0414C81.9619 48.2899 82.4859 48.4707 83.01 48.5837V50.0072C83.01 50.3235 83.272 50.5946 83.5777 50.5946H85.3245C85.6302 50.5946 85.8923 50.3235 85.8923 50.0072V48.6289C86.4381 48.5159 86.9622 48.3577 87.4644 48.1092L88.2723 49.2615C88.447 49.5327 88.8182 49.5779 89.0802 49.3971L90.4995 48.3351C90.7615 48.1544 90.8052 47.7703 90.6305 47.4991L89.8445 46.3694C90.2157 45.9627 90.5432 45.4882 90.827 45.0137L92.1372 45.443C92.4429 45.5334 92.7704 45.3752 92.8577 45.0589L93.4036 43.3417C93.491 43.0254 93.3381 42.6864 93.0324 42.596L91.7441 42.1667C91.7878 41.8504 91.8096 41.5567 91.8096 41.2404C91.8096 40.9692 91.7878 40.7207 91.766 40.4721L93.0761 40.0428C93.3818 39.9525 93.5346 39.6135 93.4473 39.2972L92.8796 37.58C92.7922 37.2637 92.4647 37.1055 92.159 37.1959L90.8925 37.6252C90.6305 37.1281 90.303 36.6536 89.9318 36.2469L90.7397 35.0946C90.9144 34.8234 90.8707 34.4619 90.6087 34.2586L89.2112 33.1966C88.9492 33.0158 88.5998 33.061 88.4033 33.3322L87.6172 34.4619C87.115 34.2134 86.591 34.0326 86.0669 33.9196V32.4962C86.0669 32.1798 85.8049 31.9087 85.4992 31.9087H83.7524C83.4467 31.9087 83.1847 32.1798 83.1847 32.4962V33.8744C82.617 33.9874 82.0929 34.1682 81.6125 34.3941L80.8046 33.2418C80.6299 32.9706 80.2587 32.9255 79.9967 33.1062L78.5992 34.1682C78.3372 34.3489 78.2936 34.733 78.4682 35.0042L79.2543 36.1339C78.8831 36.5406 78.5556 37.0151 78.2717 37.5122L76.9616 37.0829C76.6559 36.9925 76.3284 37.1507 76.241 37.467L75.6951 39.1842C75.6078 39.5006 75.7607 39.8395 76.0663 39.9299L77.3328 40.3592C77.2891 40.6755 77.2673 40.9692 77.2673 41.2855C77.2673 41.5567 77.2891 41.8052 77.311 42.0538L76.0008 42.4831C75.717 42.5735 75.5641 42.9124 75.6515 43.2061ZM87.7701 41.263C87.7701 43.1157 86.329 44.607 84.5385 44.607C82.748 44.607 81.3068 43.1157 81.3068 41.263C81.3068 39.4102 82.748 37.9189 84.5385 37.9189C86.329 37.9189 87.7701 39.4102 87.7701 41.263Z" fill="#478AFF"/>
<path d="M77.4748 68.22C76.5541 68.1645 75.6054 68.4144 74.7683 68.4976C74.3219 67.6647 73.987 66.804 73.429 66.0822C73.0104 65.4991 72.3966 65.1104 71.7548 64.8605V9.30446C71.7548 4.27915 67.681 0.225586 62.6306 0.225586H29.4543C24.4039 0.225586 20.3301 4.27915 20.3301 9.30446V80.7139C20.3301 85.7392 24.4039 89.7927 29.4543 89.7927H46.9493C48.2049 92.4303 50.3534 94.3461 52.1671 96.5117C53.3669 97.9554 54.7062 99.2603 55.1527 101.204C55.2922 101.87 55.7386 102.287 56.2409 102.398H56.2688C56.4083 102.425 56.5478 102.425 56.6873 102.398H74.7962C75.438 102.425 75.8007 101.981 76.0518 101.37C76.4425 100.399 76.861 99.3714 77.5028 98.5385C80.0977 95.1512 81.8277 91.4308 81.9951 87.1552C82.1904 82.3797 82.1904 77.6043 82.0788 72.8289C81.9672 70.0524 80.1256 68.3866 77.4748 68.22ZM22.8692 9.30446C22.8692 5.69512 25.8269 2.75212 29.4543 2.75212H34.0024C34.0024 2.83542 34.0024 2.91871 34.0024 3.002V4.19586C34.0024 5.61183 35.1743 6.77793 36.5974 6.77793H55.5433C56.9664 6.77793 58.1383 5.61183 58.1383 4.19586V2.97424C58.1383 2.89094 58.1383 2.80765 58.1383 2.72436H62.6864C66.3138 2.72436 69.2715 5.66736 69.2715 9.2767V64.5829C68.5739 64.6662 67.9042 64.8605 67.3741 65.1382C66.8997 65.3881 66.6207 65.4158 66.258 64.9438C65.5046 64.0276 64.4722 63.4723 63.3003 63.4168C62.2679 63.389 61.2634 63.5556 60.1473 63.6389V62.7505C60.1473 61.3345 60.1473 59.9185 60.1473 58.5025C62.4632 57.3642 64.0815 55.0043 64.0815 52.2556V36.2635V32.2932V27.5733C64.0815 23.7418 60.9564 20.6322 57.1059 20.6322H35.7882C31.9376 20.6322 28.8125 23.7418 28.8125 27.5733V32.3209V36.2912V52.2834C28.8125 56.1148 31.9376 59.2244 35.7882 59.2244H50.186C50.186 64.7772 50.186 70.3301 50.186 75.8829C50.186 76.6881 49.9907 77.1323 49.2094 77.4932C48.2049 77.9375 47.4236 78.576 46.8098 79.3534H22.8134V9.30446H22.8692ZM52.6693 48.202C50.7161 49.2571 50.186 51.034 50.186 53.0885C50.186 54.3102 50.186 55.504 50.186 56.7256H35.7882C33.3327 56.7256 31.3517 54.7544 31.3517 52.3111V36.319H61.4866V52.3111C61.4866 53.5883 60.9564 54.7266 60.0915 55.5318C60.0915 54.5045 60.0915 53.4772 60.1194 52.45C60.1473 48.5074 55.9898 46.3974 52.6693 48.202ZM61.4866 32.3209H31.3517V27.5733C31.3517 25.13 33.3327 23.1588 35.7882 23.1588H57.0501C59.5055 23.1588 61.4866 25.1578 61.4866 27.5733V32.3209ZM45.582 85.6559H41.871C40.8944 85.6559 40.0852 84.8507 40.0852 83.879C40.0852 83.3792 40.2805 82.935 40.6154 82.6296C40.9502 82.2964 41.3966 82.1021 41.871 82.1021H45.6379C45.3867 83.2959 45.3867 84.4898 45.582 85.6559ZM79.5397 85.1284C79.4839 88.8488 78.591 92.3193 76.4146 95.4289C75.6891 96.4561 74.8799 97.4556 74.266 98.5662C74.0986 98.8716 73.9591 99.177 73.8754 99.538H57.357C57.1896 99.0382 56.9664 98.5662 56.6594 98.1775C55.1527 96.1507 53.5343 94.1795 51.8602 92.2915C51.1626 91.4864 50.4929 90.6812 49.9349 89.8205C49.5721 89.2652 49.2373 88.6822 48.9583 88.0714C48.8467 87.8215 48.7351 87.5716 48.6513 87.294C48.456 86.7665 48.3165 86.2389 48.2049 85.6836C48.177 85.5171 48.1491 85.3505 48.1212 85.1839C47.9538 84.0456 47.9817 82.9905 48.2886 82.1021C48.7071 80.8527 49.7116 79.9087 51.5532 79.3812C51.5811 79.3812 51.5811 79.3812 51.609 79.3534C52.4461 79.1313 52.8368 78.5483 52.8368 77.6598C52.8089 75.5497 52.8089 73.4119 52.8089 71.3018C52.8089 67.276 52.8089 63.278 52.8089 59.2522C52.8089 58.4193 52.8089 57.5586 52.8089 56.7256C52.8089 55.3374 52.8089 53.9492 52.8089 52.561C52.8089 51.2283 53.7017 50.2566 54.9853 50.1455C56.3246 50.0622 57.3012 50.8119 57.4407 52.2278C57.5802 53.5883 57.5523 54.9487 57.5523 56.3092V56.6701C57.5523 57.503 57.5523 58.3637 57.5523 59.1966C57.5523 62.9448 57.5523 66.693 57.5802 70.4411C57.5802 71.4129 58.0546 71.9404 58.78 71.9682C59.5334 71.9959 60.0636 71.3574 60.0915 70.4134C60.1194 69.6637 60.0357 68.8863 60.1473 68.1367C60.2868 66.7207 61.3471 65.86 62.6585 65.9433C63.9699 66.0266 64.8907 67.0261 64.8907 68.4421C64.8907 69.2195 64.8628 70.0247 64.9186 70.8298C64.9744 71.5795 65.4767 71.9682 66.1742 71.9959C66.8718 72.0237 67.3183 71.6072 67.4299 70.9409C67.5136 70.4411 67.4857 69.9414 67.4857 69.4416C67.5415 68.2478 68.1274 67.4981 69.1877 67.276C69.3273 67.2483 69.4947 67.2205 69.69 67.1927C70.6108 67.1094 71.3363 67.4704 71.7269 68.1922C71.8664 68.4421 71.9501 68.7197 72.0059 69.0529C72.1733 70.3023 72.2012 71.5795 72.257 72.8289C72.3129 73.9117 72.6198 74.3837 73.4569 74.4114C74.3497 74.4392 74.6288 74.0505 74.7962 72.9399C74.8799 72.3846 75.0194 71.6628 75.3821 71.3296C76.7494 70.108 78.9537 70.8576 79.3722 72.6345C79.4838 73.051 79.5397 73.4952 79.5397 73.9394C79.5676 77.6598 79.6234 81.408 79.5397 85.1284Z" fill="#305087"/>
<path d="M75.912 21.5485C77.7536 19.9937 78.7581 19.6605 81.1856 19.8548C79.6231 18.0224 79.2883 17.0229 79.4836 14.6074C77.642 16.1622 76.6375 16.4954 74.21 16.301C75.7725 18.1335 76.1073 19.133 75.912 21.5485Z" fill="#4773BF"/>
<path d="M14.6935 50.6177C12.852 52.1725 11.8475 52.5056 9.41992 52.3113C10.9825 54.1437 11.3173 55.1432 11.122 57.5587C12.9636 56.0039 13.9681 55.6707 16.3956 55.8651C14.8331 54.0327 14.4982 53.0054 14.6935 50.6177Z" fill="#164598"/>
</svg>
