<svg width="45" height="45" viewBox="0 0 45 45" fill="none" xmlns="http://www.w3.org/2000/svg">
<path fill-rule="evenodd" clip-rule="evenodd" d="M3.27261 3.45474C0.050781 6.67656 0.0507812 11.862 0.0507812 22.2329C0.0507812 32.6037 0.050781 37.7893 3.27261 41.011C6.49443 44.2329 11.6799 44.2329 22.0508 44.2329C32.4216 44.2329 37.6072 44.2329 40.8289 41.011C44.0508 37.7893 44.0508 32.6037 44.0508 22.2329C44.0508 11.862 44.0508 6.67656 40.8289 3.45474C37.6072 0.23291 32.4216 0.23291 22.0508 0.23291C11.6799 0.23291 6.49443 0.23291 3.27261 3.45474Z" fill="white"/>
<path fill-rule="evenodd" clip-rule="evenodd" d="M10.6113 16.1111C10.6113 15.604 11.0266 15.1929 11.5389 15.1929H32.5638C33.076 15.1929 33.4913 15.604 33.4913 16.1111C33.4913 16.6183 33.076 17.0294 32.5638 17.0294H11.5389C11.0266 17.0294 10.6113 16.6183 10.6113 16.1111ZM10.6113 22.2329C10.6113 21.7257 11.0266 21.3146 11.5389 21.3146H21.433C21.9452 21.3146 22.3605 21.7257 22.3605 22.2329C22.3605 22.74 21.9452 23.1511 21.433 23.1511H11.5389C11.0266 23.1511 10.6113 22.74 10.6113 22.2329ZM25.7241 21.5836C26.0864 21.225 26.6736 21.225 27.0358 21.5836L29.4719 23.9951L31.9079 21.5836C32.2702 21.225 32.8574 21.225 33.2196 21.5836C33.5819 21.9422 33.5819 22.5235 33.2196 22.8821L30.7837 25.2937L33.2196 27.7053C33.5819 28.0639 33.5819 28.6453 33.2196 29.0039C32.8574 29.3625 32.2702 29.3625 31.9079 29.0039L29.4719 26.5924L27.0358 29.0039C26.6736 29.3625 26.0864 29.3625 25.7241 29.0039C25.3619 28.6453 25.3619 28.0639 25.7241 27.7053L28.16 25.2937L25.7241 22.8821C25.3619 22.5235 25.3619 21.9422 25.7241 21.5836ZM10.6113 28.3546C10.6113 27.8475 11.0266 27.4363 11.5389 27.4363H21.433C21.9452 27.4363 22.3605 27.8475 22.3605 28.3546C22.3605 28.8617 21.9452 29.2729 21.433 29.2729H11.5389C11.0266 29.2729 10.6113 28.8617 10.6113 28.3546Z" fill="#8B8787"/>
</svg>
