<svg width="100" height="131" viewBox="0 0 100 131" fill="none" xmlns="http://www.w3.org/2000/svg">
<path fill-rule="evenodd" clip-rule="evenodd" d="M53.7721 17.6955C69.0107 19.4511 83.6038 26.1585 92.9326 38.3351C101.304 49.2616 99.8696 63.7341 99.5865 77.4957C99.3123 90.8246 100.961 105.834 91.354 115.078C81.8305 124.242 66.8859 119.936 53.7721 121.58C37.0811 123.673 17.6337 137.414 5.41629 125.851C-6.76195 114.326 7.36414 94.2624 7.19209 77.4957C7.01632 60.3657 -6.11337 41.652 4.41365 28.1373C15.1566 14.3452 36.4046 15.6947 53.7721 17.6955Z" fill="white"/>
<g clip-path="url(#clip0_2327_546)">
<path d="M65.6392 5.48219C66.0784 5.48219 66.4162 5.14703 66.4162 4.71131C66.4162 4.2756 66.0784 3.94043 65.6392 3.94043C65.2001 3.94043 64.8623 4.2756 64.8623 4.71131C64.8623 5.14703 65.2339 5.48219 65.6392 5.48219Z" fill="#305087"/>
<path d="M72.192 42.5513V88.5026H20.4078V9.57106H72.2258V43.0958C72.9014 42.8276 73.881 42.3919 75.0633 41.8892V10.476C75.0633 4.87874 70.503 0.354004 64.8618 0.354004H27.7718C22.1306 0.354004 17.5703 4.87874 17.5703 10.476V88.5026V90.0108C17.5703 90.9157 17.7054 91.7872 17.9081 92.6251C17.9419 92.7256 17.9757 92.8597 18.0094 92.9603C18.0094 92.9938 18.0432 93.0273 18.0432 93.0608C18.077 93.1614 18.1108 93.2954 18.1446 93.396C18.1783 93.463 18.1783 93.53 18.2121 93.5971C18.2459 93.6976 18.3135 93.8317 18.3472 93.9322C18.4148 94.0663 18.4486 94.2004 18.5161 94.3009C18.5499 94.368 18.5499 94.4015 18.5837 94.4685C18.6175 94.569 18.6513 94.6361 18.7188 94.7031C18.7864 94.8037 18.8202 94.9042 18.8877 95.0048C18.9891 95.1723 19.0904 95.3064 19.1917 95.474C19.1917 95.5075 19.2255 95.5075 19.2255 95.5075C19.2255 95.5075 19.2255 95.541 19.2593 95.541C19.3269 95.6416 19.4282 95.7756 19.4958 95.8762C19.5633 95.9767 19.6647 96.1108 19.766 96.2114C19.7998 96.2449 19.7998 96.2784 19.8335 96.2784C19.9349 96.379 20.0024 96.513 20.1038 96.6136C20.2051 96.7141 20.3065 96.8482 20.4078 96.9487V97.2504H20.7118C20.8132 97.3509 20.9483 97.4515 21.0496 97.552C21.151 97.6526 21.2861 97.7531 21.3874 97.8202C21.4212 97.8537 21.455 97.8537 21.455 97.8872C21.5563 97.9877 21.6914 98.0548 21.7928 98.1553C21.8941 98.2224 22.0292 98.3229 22.1306 98.3899C22.1306 98.3899 22.1643 98.3899 22.1643 98.4235C22.1643 98.4235 22.1981 98.457 22.2319 98.457C22.4008 98.5575 22.5359 98.6581 22.7048 98.7586C22.8062 98.8257 22.9075 98.8592 23.0088 98.9262C23.0764 98.9597 23.1777 99.0268 23.2453 99.0603C23.3129 99.0938 23.3466 99.1273 23.4142 99.1273C23.5493 99.1943 23.6844 99.2279 23.7858 99.2949C23.8871 99.3619 24.0222 99.3954 24.1236 99.429C24.1911 99.4625 24.2587 99.4625 24.3262 99.496C24.4276 99.5295 24.5627 99.563 24.664 99.5965C24.6978 99.5965 24.7316 99.6301 24.7654 99.6301C24.8667 99.6636 25.0018 99.6971 25.1032 99.7306C25.9477 99.9652 26.8259 100.066 27.738 100.066H64.828C65.7401 100.066 66.6184 99.9317 67.4629 99.7306C67.5642 99.6971 67.6993 99.6636 67.8007 99.6301C67.8344 99.6301 67.8682 99.5965 67.902 99.5965C68.0033 99.563 68.1385 99.5295 68.2398 99.496C68.3074 99.4625 68.3749 99.4625 68.4425 99.429C68.5438 99.3954 68.6789 99.3284 68.7803 99.2949C68.9154 99.2279 69.0505 99.1943 69.1518 99.1273C69.2194 99.0938 69.2532 99.0938 69.3207 99.0603C69.4221 99.0268 69.4896 98.9932 69.5572 98.9262C69.6585 98.8592 69.7599 98.8257 69.8612 98.7586C70.0301 98.6581 70.1652 98.5575 70.3341 98.457C70.3679 98.457 70.3679 98.4235 70.3679 98.4235C70.3679 98.4235 70.4017 98.4235 70.4017 98.3899C70.503 98.3229 70.6381 98.2224 70.7395 98.1553C70.8408 98.0883 70.9759 97.9877 71.0773 97.8872C71.1111 97.8537 71.1448 97.8537 71.1448 97.8202C71.2462 97.7196 71.3813 97.6526 71.4826 97.552C71.584 97.4515 71.7191 97.3509 71.8204 97.2504H72.1245V96.9487C72.2258 96.8482 72.3271 96.7141 72.4285 96.6136C72.5298 96.4795 72.6311 96.379 72.7325 96.2449C72.9014 96.0103 73.1041 95.7757 73.2392 95.541C73.3067 95.474 73.3405 95.3734 73.4081 95.3064C73.5432 95.0718 73.6783 94.8707 73.7797 94.6361C73.8472 94.5355 73.881 94.435 73.9148 94.3344C74.0161 94.0998 74.1175 93.8652 74.2188 93.6641C74.2526 93.5636 74.2864 93.4965 74.3201 93.396C74.3877 93.2619 74.4215 93.1278 74.4552 92.9603C74.489 92.8597 74.5228 92.7592 74.5566 92.6586V92.6251C74.5904 92.5245 74.6242 92.3905 74.6579 92.2899C74.6579 92.2564 74.6917 92.1894 74.6917 92.1559C74.7255 92.0553 74.7255 91.9548 74.7593 91.8542C74.793 91.7201 74.793 91.5861 74.8268 91.452C74.8606 91.2844 74.8606 91.1504 74.8944 90.9828C74.9282 90.6476 74.9619 90.3124 74.9619 89.9438V88.5026V39.736C74.0837 40.7415 72.7663 42.0151 72.192 42.5513ZM65.6388 3.53808C66.3144 3.53808 66.8548 4.07434 66.8548 4.74467C66.8548 5.415 66.3144 5.95127 65.6388 5.95127C64.9632 5.95127 64.4227 5.415 64.4227 4.74467C64.4227 4.07434 64.997 3.53808 65.6388 3.53808ZM41.3174 4.40951H52.6336V5.07984H41.3174V4.40951ZM40.2365 92.1223C40.608 91.7537 41.1147 91.5526 41.6552 91.5526H51.6878C52.8025 91.5526 53.6808 92.4575 53.6808 93.53C53.6808 94.0663 53.4443 94.5691 53.1065 94.9377C52.7349 95.3064 52.2282 95.541 51.6878 95.541H41.6552C40.5405 95.541 39.6622 94.6361 39.6622 93.5636C39.6622 92.9938 39.8649 92.491 40.2365 92.1223Z" fill="#305087"/>
<path d="M78.6287 72.9151H41.4708C39.9187 72.9151 38.458 72.01 37.9102 70.5619C37.2711 69.1137 37.6363 67.4845 38.7318 66.3984L75.8898 29.4701C76.9854 28.384 78.6287 28.0219 80.0895 28.6555C81.5502 29.2891 82.4632 30.6467 82.4632 32.1854V69.1137C82.5545 71.1954 80.8198 72.9151 78.6287 72.9151ZM50.8744 65.2217H74.7942V41.508L50.8744 65.2217Z" fill="#B6D0FF"/>
<path d="M58.087 77.3498C57.174 77.3498 56.261 76.8067 55.9871 75.9016L43.5707 43.4989L31.2456 74.9965C30.7891 76.1732 29.511 76.7162 28.3241 76.2637C27.1372 75.8111 26.5895 74.544 27.0459 73.3673L41.5622 36.3486C41.9274 35.4435 42.749 34.9004 43.662 34.9004C44.575 34.9004 45.488 35.4435 45.7619 36.3486L60.2781 74.2724C60.7346 75.4491 60.0955 76.7162 58.9086 77.1688C58.6348 77.2593 58.3609 77.3498 58.087 77.3498Z" fill="#305087"/>
<path d="M43.5703 40.5124C39.3707 40.5124 35.9014 37.073 35.9014 32.9095C35.9014 28.746 39.2794 25.3066 43.5703 25.3066C47.77 25.3066 51.2393 28.746 51.2393 32.9095C51.2393 37.073 47.77 40.5124 43.5703 40.5124ZM43.5703 29.9227C41.8357 29.9227 40.4662 31.2803 40.4662 33C40.4662 34.7197 41.8357 36.0774 43.5703 36.0774C45.305 36.0774 46.6744 34.7197 46.6744 33C46.6744 31.2803 45.305 29.9227 43.5703 29.9227Z" fill="#305087"/>
<path d="M43.5703 41.8698C45.7385 41.8698 47.4961 40.1274 47.4961 37.9779C47.4961 35.8284 45.7385 34.0859 43.5703 34.0859C41.4022 34.0859 39.6445 35.8284 39.6445 37.9779C39.6445 40.1274 41.4022 41.8698 43.5703 41.8698Z" fill="#4A83E7"/>
<path d="M43.6623 29.3794C42.3842 29.3794 41.3799 28.3838 41.3799 27.1167V19.2423C41.3799 17.9751 42.3842 16.9795 43.6623 16.9795C44.9405 16.9795 45.9447 17.9751 45.9447 19.2423V27.1167C45.9447 28.3838 44.9405 29.3794 43.6623 29.3794Z" fill="#305087"/>
<path d="M27.685 79.4318C27.5937 79.4318 27.5024 79.4318 27.3198 79.3413C26.8633 79.1603 26.5894 78.6172 26.772 78.1647L28.8719 72.734C29.0545 72.2815 29.6022 72.01 30.0587 72.191C30.5152 72.372 30.7891 72.9151 30.6065 73.3676L28.5067 78.7982C28.4154 79.2508 28.0502 79.4318 27.685 79.4318Z" fill="#305087"/>
<path d="M59.5471 79.4316C59.1819 79.4316 58.8167 79.2506 58.7254 78.8886L56.6256 73.4579C56.443 73.0054 56.7168 72.4623 57.1733 72.2813C57.6298 72.1003 58.1776 72.3718 58.3602 72.8244L60.46 78.255C60.6426 78.7076 60.3687 79.2506 59.9123 79.4316C59.7297 79.4316 59.6384 79.4316 59.5471 79.4316Z" fill="#305087"/>
<path d="M31.5195 72.5529C33.6877 72.5529 35.4453 70.8105 35.4453 68.661C35.4453 66.5115 33.6877 64.769 31.5195 64.769C29.3514 64.769 27.5938 66.5115 27.5938 68.661C27.5938 70.8105 29.3514 72.5529 31.5195 72.5529Z" fill="#4A83E7"/>
<path d="M56.7177 57.8903H30.1503C29.6025 57.8903 29.2373 57.5282 29.2373 56.9852C29.2373 56.4421 29.6025 56.0801 30.1503 56.0801H56.7177C57.2655 56.0801 57.6307 56.4421 57.6307 56.9852C57.6307 57.5282 57.2655 57.8903 56.7177 57.8903Z" fill="#305087"/>
<path d="M31.5198 70.5617C32.5786 70.5617 33.437 69.7107 33.437 68.661C33.437 67.6112 32.5786 66.7603 31.5198 66.7603C30.4609 66.7603 29.6025 67.6112 29.6025 68.661C29.6025 69.7107 30.4609 70.5617 31.5198 70.5617Z" fill="#305087"/>
<path d="M56.1699 72.5529C58.3381 72.5529 60.0957 70.8105 60.0957 68.661C60.0957 66.5115 58.3381 64.769 56.1699 64.769C54.0018 64.769 52.2441 66.5115 52.2441 68.661C52.2441 70.8105 54.0018 72.5529 56.1699 72.5529Z" fill="#4A83E7"/>
<path d="M56.1702 70.5617C57.229 70.5617 58.0874 69.7107 58.0874 68.661C58.0874 67.6112 57.229 66.7603 56.1702 66.7603C55.1113 66.7603 54.2529 67.6112 54.2529 68.661C54.2529 69.7107 55.1113 70.5617 56.1702 70.5617Z" fill="#305087"/>
<path d="M43.5702 60.0623C42.9311 60.0623 42.4746 59.5193 42.4746 58.9762V54.5412C42.4746 53.9076 43.0224 53.4551 43.5702 53.4551C44.2093 53.4551 44.6657 53.9981 44.6657 54.5412V58.9762C44.757 59.6098 44.2093 60.0623 43.5702 60.0623Z" fill="#4A83E7"/>
<path d="M29.054 59.0666C28.2323 59.0666 27.502 58.3425 27.502 57.5279V56.5323C27.502 55.7177 28.2323 54.9937 29.054 54.9937C29.8757 54.9937 30.6061 55.7177 30.6061 56.5323V57.5279C30.6061 58.3425 29.967 59.0666 29.054 59.0666Z" fill="#4A83E7"/>
<path d="M57.722 59.0666C56.9003 59.0666 56.1699 58.3425 56.1699 57.5279V56.5323C56.1699 55.7177 56.9003 54.9937 57.722 54.9937C58.5436 54.9937 59.274 55.7177 59.274 56.5323V57.5279C59.274 58.3425 58.5436 59.0666 57.722 59.0666Z" fill="#4A83E7"/>
</g>
<defs>
<clipPath id="clip0_2327_546">
<rect width="66.8162" height="99.7788" fill="white" transform="translate(17.5703 0.354004)"/>
</clipPath>
</defs>
</svg>
