<svg width="101" height="144" viewBox="0 0 101 144" fill="none" xmlns="http://www.w3.org/2000/svg">
<path fill-rule="evenodd" clip-rule="evenodd" d="M54.3443 30.572C69.5829 32.3276 84.176 39.035 93.5049 51.2116C101.876 62.138 100.442 76.6106 100.159 90.3721C99.8846 103.701 101.533 118.71 91.9263 127.954C82.4028 137.118 67.4582 132.813 54.3443 134.457C37.6534 136.549 18.206 150.291 5.98856 138.728C-6.18968 127.202 7.9364 107.139 7.76436 90.3721C7.58859 73.2422 -5.5411 54.5285 4.98591 41.0137C15.7289 27.2217 36.9769 28.5712 54.3443 30.572Z" fill="white"/>
<g clip-path="url(#clip0_2327_547)">
<path d="M37.983 85.833H32.6705C31.5894 85.833 30.7246 86.6951 30.7246 87.7726V93.653C30.7246 94.7306 31.5894 95.5926 32.6705 95.5926H37.983C39.0641 95.5926 39.9289 94.7306 39.9289 93.653V87.7726C39.9289 86.6951 39.0641 85.833 37.983 85.833Z" fill="#4A83E7"/>
<path d="M53.4879 85.833H48.1754C47.0943 85.833 46.2295 86.6951 46.2295 87.7726V93.653C46.2295 94.7306 47.0943 95.5926 48.1754 95.5926H53.4879C54.569 95.5926 55.4338 94.7306 55.4338 93.653V87.7726C55.4338 86.6951 54.569 85.833 53.4879 85.833Z" fill="#305087"/>
<path d="M63.6802 95.5619H69.0237C70.1047 95.5619 70.9696 94.6998 70.9696 93.6223V87.7419C70.9696 86.6643 70.1047 85.8022 69.0237 85.8022H63.6802C62.5992 85.8022 61.7344 86.6643 61.7344 87.7419V93.6223C61.7344 94.6998 62.5992 95.5619 63.6802 95.5619Z" fill="#4A83E7"/>
<path d="M46.5691 59.6329L45.9822 59.048C46.4455 58.4014 46.7544 57.6933 46.9397 56.8929H47.8663C48.2988 56.8929 48.6694 56.5234 48.6694 56.0924V55.2611C48.6694 54.8301 48.2988 54.4606 47.8663 54.4606H47.0324C46.9088 53.6602 46.6 52.9213 46.1984 52.2747L46.8471 51.6282C47.1559 51.3203 47.1559 50.7969 46.8471 50.4891L46.2602 49.9041C45.9513 49.5962 45.4263 49.5962 45.1174 49.9041L44.5306 50.4891C43.8819 50.0272 43.1715 49.6886 42.3685 49.5346V48.611C42.3685 48.18 41.9978 47.8105 41.5654 47.8105H40.7315C40.299 47.8105 39.9284 48.18 39.9284 48.611V49.4423C39.1253 49.5654 38.3841 49.8733 37.7354 50.2735L37.0868 49.627C36.7779 49.3191 36.2529 49.3191 35.944 49.627L35.3571 50.212C35.0483 50.5198 35.0483 51.0432 35.3571 51.3511L35.944 51.9361C35.4807 52.5826 35.1409 53.2907 34.9865 54.0912H34.0599C33.6275 54.0912 33.2568 54.4606 33.2568 54.8917V55.7229C33.2568 56.154 33.6275 56.5234 34.0599 56.5234H34.8938C35.0174 57.3239 35.3263 58.0628 35.7278 58.7093L35.0792 59.3559C34.7703 59.6637 34.7703 60.1871 35.0792 60.495L35.666 61.0799C35.9749 61.3878 36.5 61.3878 36.8088 61.0799L37.3957 60.495C38.0443 60.9568 38.7547 61.2647 39.5578 61.4494V62.373C39.5578 62.804 39.9284 63.1735 40.3608 63.1735H41.1639C41.5963 63.1735 41.9669 62.804 41.9669 62.373V61.5418C42.77 61.4186 43.5113 61.1107 44.1599 60.7105L44.8085 61.357C45.1174 61.6649 45.6425 61.6649 45.9513 61.357L46.5382 60.7721C46.878 60.4642 46.878 59.9408 46.5691 59.6329ZM36.8397 55.4766C36.8397 53.2291 38.662 51.3819 40.9477 51.3819C43.2024 51.3819 45.0556 53.1984 45.0556 55.4766C45.0556 57.7241 43.2333 59.5714 40.9477 59.5714C38.662 59.5714 36.8397 57.7241 36.8397 55.4766Z" fill="#4A83E7"/>
<path d="M91.3552 64.9591H79.5564V23.5192C79.5564 17.9466 75.0469 13.4517 69.4564 13.4517H32.7319C27.1413 13.4517 22.6318 17.9774 22.6318 23.5192V102.705C22.6318 108.277 27.1413 112.772 32.7319 112.772H69.4564C75.0469 112.772 79.5564 108.277 79.5564 102.705V75.3345H91.3552C94.2277 75.3345 96.5751 72.9946 96.5751 70.1314C96.5751 67.2682 94.2277 64.9591 91.3552 64.9591ZM64.638 72.5636V67.7608H76.7766H79.5873H91.3861C92.7142 67.7608 93.7952 68.8383 93.7952 70.1622C93.7952 71.4861 92.7142 72.5636 91.3861 72.5636H79.5873H76.7766H64.638ZM44.4998 106.214C44.4998 105.66 44.716 105.168 45.0866 104.829C45.4573 104.459 45.9514 104.244 46.4765 104.244H56.4221C57.5031 104.244 58.3989 105.137 58.3989 106.214C58.3989 106.769 58.1827 107.261 57.812 107.6C57.4414 107.969 56.9472 108.185 56.4221 108.185H46.4765C45.3955 108.185 44.4998 107.292 44.4998 106.214ZM76.7457 101.196H25.4425V23.5192C25.4425 19.5168 28.7166 16.2533 32.7319 16.2533H37.7664C37.7664 16.3457 37.7664 16.438 37.7664 16.5304V17.8543C37.7664 19.4244 39.0637 20.7175 40.6389 20.7175H61.6111C63.1863 20.7175 64.4836 19.4244 64.4836 17.8543V16.5304C64.4836 16.438 64.4836 16.3457 64.4836 16.2533H69.5181C73.5334 16.2533 76.8074 19.5168 76.8074 23.5192V64.9283H58.1827C55.3102 64.9283 52.9628 67.2682 52.9628 70.1314C52.9628 72.9946 55.3102 75.3345 58.1827 75.3345H76.8074V101.196H76.7457Z" fill="#305087"/>
<path d="M32.8866 15.9147L33.6588 18.2546C33.7823 18.6856 34.2456 18.9011 34.678 18.778L36.4695 18.193C36.8401 18.8703 37.3034 19.5169 37.8285 20.071L36.6857 21.6412C36.4386 22.0107 36.5004 22.5033 36.871 22.7803L38.8478 24.2274C39.2184 24.4737 39.7126 24.4121 39.9906 24.0426L41.1025 22.5033C41.8129 22.8419 42.5542 23.0882 43.2955 23.2422V25.1818C43.2955 25.6128 43.6661 25.9822 44.0985 25.9822H46.5695C47.0019 25.9822 47.3726 25.6128 47.3726 25.1818V23.3037C48.1447 23.1498 48.886 22.9343 49.5964 22.5956L50.7392 24.1658C50.9863 24.5352 51.5114 24.5968 51.882 24.3505L53.8897 22.9035C54.2603 22.6572 54.3221 22.1338 54.075 21.7644L52.9631 20.225C53.4882 19.6708 53.9515 19.0243 54.353 18.3777L56.2062 18.9627C56.6386 19.0858 57.1019 18.8703 57.2255 18.4393L57.9976 16.0995C58.1212 15.6684 57.905 15.2066 57.4726 15.0835L55.6502 14.4985C55.712 14.0675 55.7429 13.6672 55.7429 13.2362C55.7429 12.8668 55.712 12.5281 55.6811 12.1895L57.5343 11.6045C57.9668 11.4813 58.183 11.0195 58.0594 10.5885L57.2872 8.24865C57.1637 7.81763 56.7004 7.60212 56.268 7.72527L54.4765 8.31023C54.1059 7.6329 53.6426 6.98637 53.1175 6.43219L54.2603 4.86203C54.5074 4.49258 54.4456 3.99998 54.075 3.72289L52.0982 2.27588C51.7276 2.02958 51.2334 2.09116 50.9554 2.46061L49.8435 3.99998C49.1331 3.66132 48.3918 3.41502 47.6505 3.26108V1.32147C47.6505 0.890446 47.2799 0.520996 46.8475 0.520996H44.3765C43.9441 0.520996 43.5735 0.890446 43.5735 1.32147V3.19951C42.8013 3.35344 42.06 3.56896 41.3496 3.87683L40.2068 2.30667C39.9597 1.93722 39.4346 1.87565 39.064 2.12195L37.0254 3.59974C36.6548 3.84604 36.593 4.36943 36.8401 4.73888L37.952 6.27825C37.427 6.83243 36.9637 7.47897 36.5621 8.15629L34.7089 7.57133C34.2765 7.44818 33.8132 7.66369 33.6897 8.09472L32.9175 10.4346C32.7939 10.8656 33.0101 11.3274 33.4426 11.4506L35.234 12.0355C35.1722 12.4665 35.1413 12.8668 35.1413 13.2978C35.1413 13.6672 35.1722 14.0059 35.2031 14.3446L33.3499 14.9295C32.9793 15.0527 32.7322 15.5145 32.8866 15.9147ZM49.9979 13.267C49.9979 15.7916 47.9594 17.8236 45.4267 17.8236C42.894 17.8236 40.8554 15.7916 40.8554 13.267C40.8554 10.7424 42.894 8.71047 45.4267 8.71047C47.9594 8.71047 49.9979 10.7424 49.9979 13.267Z" fill="#4A83E7"/>
</g>
<defs>
<clipPath id="clip0_2327_547">
<rect width="73.9432" height="112.251" fill="white" transform="translate(22.6318 0.520996)"/>
</clipPath>
</defs>
</svg>
