<svg width="88" height="79" viewBox="0 0 88 79" fill="none" xmlns="http://www.w3.org/2000/svg">
<g clip-path="url(#clip0_1544_4382)">
<path d="M81.8864 66.2117H6.2738C3.08531 66.2117 0.580078 63.6808 0.580078 60.4595V6.2737C0.580078 3.05246 3.08531 0.521484 6.2738 0.521484H81.8864C85.0748 0.521484 87.5801 3.05246 87.5801 6.2737V60.4595C87.5801 63.6808 85.0748 66.2117 81.8864 66.2117Z" fill="#AED5FF"/>
<path d="M62.0719 66.2119H28.0234V73.6898H62.0719V66.2119Z" fill="#D9E9FF"/>
<path d="M69.7022 78.5213H22.2166C20.8501 78.5213 19.8252 77.3709 19.8252 76.1054C19.8252 74.7248 20.9639 73.6895 22.2166 73.6895H69.7022C71.0687 73.6895 72.0935 74.8399 72.0935 76.1054C72.0935 77.4859 70.9548 78.5213 69.7022 78.5213Z" fill="#AED5FF"/>
<path d="M44.9912 62.2999C46.4377 62.2999 47.6103 61.1152 47.6103 59.6538C47.6103 58.1925 46.4377 57.0078 44.9912 57.0078C43.5447 57.0078 42.3721 58.1925 42.3721 59.6538C42.3721 61.1152 43.5447 62.2999 44.9912 62.2999Z" fill="#D9E9FF"/>
<path d="M87.6944 7.30957H24.4941V52.2919H87.6944V7.30957Z" fill="#1A204F"/>
<path d="M24.4937 7.30957H0.580078V52.2919H24.4937V7.30957Z" fill="#4A83E7"/>
<path d="M36.6783 20.3091H31.2124C30.643 20.3091 30.1875 19.8489 30.1875 19.2737C30.1875 18.6985 30.643 18.2383 31.2124 18.2383H36.6783C37.2477 18.2383 37.7032 18.6985 37.7032 19.2737C37.7032 19.7339 37.2477 20.3091 36.6783 20.3091Z" fill="white"/>
<path d="M47.2683 20.3091H40.0942C39.5248 20.3091 39.0693 19.8489 39.0693 19.2737C39.0693 18.6985 39.5248 18.2383 40.0942 18.2383H47.2683C47.8377 18.2383 48.2932 18.6985 48.2932 19.2737C48.407 19.7339 47.9515 20.3091 47.2683 20.3091Z" fill="#4A83E7"/>
<path d="M63.8938 20.3091H51.3676C50.7983 20.3091 50.3428 19.8489 50.3428 19.2737C50.3428 18.6985 50.7983 18.2383 51.3676 18.2383H63.8938C64.4632 18.2383 64.9187 18.6985 64.9187 19.2737C64.9187 19.7339 64.4632 20.3091 63.8938 20.3091Z" fill="#4A83E7"/>
<path d="M75.282 20.3091H68.1079C67.5385 20.3091 67.083 19.8489 67.083 19.2737C67.083 18.6985 67.5385 18.2383 68.1079 18.2383H75.282C75.8513 18.2383 76.3068 18.6985 76.3068 19.2737C76.4207 19.7339 75.9652 20.3091 75.282 20.3091Z" fill="#4A83E7"/>
<path d="M55.0122 25.3711H66.5135C67.0829 25.3711 67.5383 25.8313 67.5383 26.4065C67.5383 26.9817 67.0829 27.4419 66.5135 27.4419H55.0122C54.4428 27.4419 53.9873 26.9817 53.9873 26.4065C53.9873 25.8313 54.4428 25.3711 55.0122 25.3711Z" fill="#4A83E7"/>
<path d="M42.4857 25.3711H50.9124C51.4817 25.3711 51.9372 25.8313 51.9372 26.4065C51.9372 26.9817 51.4817 27.4419 50.9124 27.4419H42.4857C41.9163 27.4419 41.4608 26.9817 41.4608 26.4065C41.3469 25.8313 41.8024 25.3711 42.4857 25.3711Z" fill="white"/>
<path d="M31.2124 25.3711H38.3865C38.9558 25.3711 39.4113 25.8313 39.4113 26.4065C39.4113 26.9817 38.9558 27.4419 38.3865 27.4419H31.2124C30.643 27.4419 30.1875 26.9817 30.1875 26.4065C30.1875 25.8313 30.643 25.3711 31.2124 25.3711Z" fill="#4A83E7"/>
<path d="M47.3825 34.6899H31.2124C30.643 34.6899 30.1875 34.2298 30.1875 33.6545C30.1875 33.0793 30.643 32.6191 31.2124 32.6191H47.3825C47.9519 32.6191 48.4074 33.0793 48.4074 33.6545C48.5213 34.2298 47.9519 34.6899 47.3825 34.6899Z" fill="white"/>
<path d="M54.7839 34.6899H51.3676C50.7983 34.6899 50.3428 34.2298 50.3428 33.6545C50.3428 33.0793 50.7983 32.6191 51.3676 32.6191H54.7839C55.3532 32.6191 55.8087 33.0793 55.8087 33.6545C55.8087 34.2298 55.3532 34.6899 54.7839 34.6899Z" fill="#4A83E7"/>
<path d="M64.1217 34.6899H58.6557C58.0864 34.6899 57.6309 34.2298 57.6309 33.6545C57.6309 33.0793 58.0864 32.6191 58.6557 32.6191H64.1217C64.6911 32.6191 65.1466 33.0793 65.1466 33.6545C65.1466 34.2298 64.6911 34.6899 64.1217 34.6899Z" fill="white"/>
<path d="M69.9292 46.999H75.3951C75.9645 46.999 76.42 47.4592 76.42 48.0344C76.42 48.6096 75.9645 49.0698 75.3951 49.0698H69.9292C69.3598 49.0698 68.9043 48.6096 68.9043 48.0344C68.7904 47.5742 69.3598 46.999 69.9292 46.999Z" fill="white"/>
<path d="M63.894 46.999H66.3992C66.9686 46.999 67.4241 47.4592 67.4241 48.0344C67.4241 48.6096 66.9686 49.0698 66.3992 49.0698H63.894C63.3246 49.0698 62.8691 48.6096 62.8691 48.0344C62.8691 47.5742 63.3246 46.999 63.894 46.999Z" fill="#4A83E7"/>
<path d="M51.8236 46.999H60.3641C60.9335 46.999 61.389 47.4592 61.389 48.0344C61.389 48.6096 60.9335 49.0698 60.3641 49.0698H51.8236C51.2542 49.0698 50.7987 48.6096 50.7987 48.0344C50.6848 47.5742 51.1403 46.999 51.8236 46.999Z" fill="#4A83E7"/>
<path d="M31.2124 46.999H47.838C48.4074 46.999 48.8629 47.4592 48.8629 48.0344C48.8629 48.6096 48.4074 49.0698 47.838 49.0698H31.2124C30.643 49.0698 30.1875 48.6096 30.1875 48.0344C30.1875 47.5742 30.643 46.999 31.2124 46.999Z" fill="white"/>
<path d="M33.7176 41.937H31.2124C30.643 41.937 30.1875 41.4768 30.1875 40.9016C30.1875 40.3264 30.643 39.8662 31.2124 39.8662H33.7176C34.287 39.8662 34.7425 40.3264 34.7425 40.9016C34.8563 41.4768 34.287 41.937 33.7176 41.937Z" fill="white"/>
<path d="M54.7839 41.937H51.3676C50.7983 41.937 50.3428 41.4768 50.3428 40.9016C50.3428 40.3264 50.7983 39.8662 51.3676 39.8662H54.7839C55.3532 39.8662 55.8087 40.3264 55.8087 40.9016C55.8087 41.4768 55.3532 41.937 54.7839 41.937Z" fill="#4A83E7"/>
<path d="M64.1217 41.937H58.6557C58.0864 41.937 57.6309 41.4768 57.6309 40.9016C57.6309 40.3264 58.0864 39.8662 58.6557 39.8662H64.1217C64.6911 39.8662 65.1466 40.3264 65.1466 40.9016C65.1466 41.4768 64.6911 41.937 64.1217 41.937Z" fill="white"/>
<path d="M75.282 41.937H68.1079C67.5385 41.937 67.083 41.4768 67.083 40.9016C67.083 40.3264 67.5385 39.8662 68.1079 39.8662H75.282C75.8513 39.8662 76.3068 40.3264 76.3068 40.9016C76.4207 41.4768 75.9652 41.937 75.282 41.937Z" fill="#4A83E7"/>
<path d="M47.3825 41.937H43.9663C43.3969 41.937 42.9414 41.4768 42.9414 40.9016C42.9414 40.3264 43.3969 39.8662 43.9663 39.8662H47.3825C47.9519 39.8662 48.4074 40.3264 48.4074 40.9016C48.5212 41.4768 48.0657 41.937 47.3825 41.937Z" fill="#4A83E7"/>
<path d="M40.6638 41.937H37.2475C36.6782 41.937 36.2227 41.4768 36.2227 40.9016C36.2227 40.3264 36.6782 39.8662 37.2475 39.8662H40.6638C41.2331 39.8662 41.6886 40.3264 41.6886 40.9016C41.8025 41.4768 41.347 41.937 40.6638 41.937Z" fill="#4A83E7"/>
<path d="M8.20934 19.159C8.20934 19.8493 7.63997 20.4245 6.95672 20.4245C6.27347 20.4245 5.7041 19.8493 5.7041 19.159C5.7041 18.4688 6.27347 17.8936 6.95672 17.8936C7.63997 17.8936 8.20934 18.4688 8.20934 19.159Z" fill="white"/>
<path d="M16.4082 20.3091H11.0561C10.4867 20.3091 10.0312 19.8489 10.0312 19.2737C10.0312 18.6985 10.4867 18.2383 11.0561 18.2383H16.5221C17.0915 18.2383 17.547 18.6985 17.547 19.2737C17.547 19.7339 16.9776 20.3091 16.4082 20.3091Z" fill="white"/>
<path d="M8.20934 26.4061C8.20934 27.0964 7.63997 27.6716 6.95672 27.6716C6.27347 27.6716 5.7041 27.0964 5.7041 26.4061C5.7041 25.7158 6.27347 25.1406 6.95672 25.1406C7.63997 25.1406 8.20934 25.7158 8.20934 26.4061Z" fill="white"/>
<path d="M16.4082 27.4419H11.0561C10.4867 27.4419 10.0312 26.9817 10.0312 26.4065C10.0312 25.8313 10.4867 25.3711 11.0561 25.3711H16.5221C17.0915 25.3711 17.547 25.8313 17.547 26.4065C17.547 26.9817 16.9776 27.4419 16.4082 27.4419Z" fill="white"/>
<path d="M8.20934 33.6542C8.20934 34.3444 7.63997 34.9196 6.95672 34.9196C6.27347 34.9196 5.7041 34.3444 5.7041 33.6542C5.7041 32.9639 6.27347 32.3887 6.95672 32.3887C7.63997 32.3887 8.20934 32.9639 8.20934 33.6542Z" fill="white"/>
<path d="M16.4082 34.6899H11.0561C10.4867 34.6899 10.0312 34.2298 10.0312 33.6545C10.0312 33.0793 10.4867 32.6191 11.0561 32.6191H16.5221C17.0915 32.6191 17.547 33.0793 17.547 33.6545C17.547 34.2298 16.9776 34.6899 16.4082 34.6899Z" fill="white"/>
<path d="M8.20934 40.9022C8.20934 41.5925 7.63997 42.1677 6.95672 42.1677C6.27347 42.1677 5.7041 41.5925 5.7041 40.9022C5.7041 40.2119 6.27347 39.6367 6.95672 39.6367C7.63997 39.6367 8.20934 40.2119 8.20934 40.9022Z" fill="white"/>
<path d="M16.4082 41.938H11.0561C10.4867 41.938 10.0312 41.4778 10.0312 40.9026C10.0312 40.3274 10.4867 39.8672 11.0561 39.8672H16.5221C17.0915 39.8672 17.547 40.3274 17.547 40.9026C17.547 41.4778 16.9776 41.938 16.4082 41.938Z" fill="white"/>
<path d="M8.20993 48.1503C8.20993 48.8405 7.64056 49.4157 6.95731 49.4157C6.27407 49.4157 5.59082 48.8405 5.59082 48.1503C5.59082 47.46 6.16019 46.8848 6.84344 46.8848C7.52668 46.8848 8.20993 47.3449 8.20993 48.1503Z" fill="white"/>
<path d="M16.4092 49.186H11.0571C10.4877 49.186 10.0322 48.7259 10.0322 48.1506C10.0322 47.5754 10.4877 47.1152 11.0571 47.1152H16.5231C17.0924 47.1152 17.5479 47.5754 17.5479 48.1506C17.5479 48.7259 16.9786 49.186 16.4092 49.186Z" fill="white"/>
<path d="M8.20934 12.8309C8.20934 13.5212 7.63997 14.0964 6.95672 14.0964C6.27347 14.0964 5.7041 13.5212 5.7041 12.8309C5.7041 12.1407 6.27347 11.5654 6.95672 11.5654C7.63997 11.5654 8.20934 12.1407 8.20934 12.8309Z" fill="white"/>
<path d="M16.4082 13.981H11.0561C10.4867 13.981 10.0312 13.5208 10.0312 12.9456C10.0312 12.3703 10.4867 11.9102 11.0561 11.9102H16.5221C17.0915 11.9102 17.547 12.3703 17.547 12.9456C17.547 13.5208 16.9776 13.981 16.4082 13.981Z" fill="white"/>
<path d="M36.4508 14.2114H30.9848C30.4155 14.2114 29.96 13.7512 29.96 13.176C29.96 12.6008 30.4155 12.1406 30.9848 12.1406H36.4508C37.0202 12.1406 37.4757 12.6008 37.4757 13.176C37.4757 13.6362 37.0202 14.2114 36.4508 14.2114Z" fill="white"/>
<path d="M63.8942 14.2114H39.8667C39.2973 14.2114 38.8418 13.7512 38.8418 13.176C38.8418 12.6008 39.2973 12.1406 39.8667 12.1406H63.8942C64.4635 12.1406 64.919 12.6008 64.919 13.176C64.919 13.6362 64.4635 14.2114 63.8942 14.2114Z" fill="white"/>
<path d="M75.0544 14.2114H67.8803C67.311 14.2114 66.8555 13.7512 66.8555 13.176C66.8555 12.6008 67.311 12.1406 67.8803 12.1406H75.0544C75.6238 12.1406 76.0793 12.6008 76.0793 13.176C76.1932 13.6362 75.7377 14.2114 75.0544 14.2114Z" fill="#4A83E7"/>
</g>
<defs>
<clipPath id="clip0_1544_4382">
<rect width="87" height="78" fill="white" transform="translate(0.580078 0.521484)"/>
</clipPath>
</defs>
</svg>
