<svg width="80" height="101" viewBox="0 0 80 101" fill="none" xmlns="http://www.w3.org/2000/svg">
<g clip-path="url(#clip0_1544_4316)">
<path d="M65.8165 47.912C65.8165 33.9364 54.0476 22.6745 39.8439 23.6243C27.6692 24.4384 17.9295 34.4792 17.3884 46.5551C16.9826 54.0178 19.9586 60.8021 24.9637 65.4154C29.563 69.7573 32.2685 75.7275 32.2685 81.969V88.3462H50.9363V82.6474C50.9363 76.1345 53.7771 69.893 58.5117 65.4154C62.9757 60.9378 65.8165 54.6962 65.8165 47.912Z" fill="#4A83E7"/>
<path d="M9.81289 47.5047H1.967C1.15535 47.5047 0.614258 46.962 0.614258 46.1479C0.614258 45.3338 1.15535 44.791 1.967 44.791H9.81289C10.6245 44.791 11.1656 45.3338 11.1656 46.1479C11.1656 46.8263 10.4893 47.5047 9.81289 47.5047Z" fill="#4A83E7"/>
<path d="M78.2611 47.5047H70.4152C69.6036 47.5047 69.0625 46.962 69.0625 46.1479C69.0625 45.3338 69.6036 44.791 70.4152 44.791H78.2611C79.0728 44.791 79.6139 45.3338 79.6139 46.1479C79.6139 46.8263 78.9375 47.5047 78.2611 47.5047Z" fill="#4A83E7"/>
<path d="M39.7082 84.8179C39.1671 84.8179 38.626 84.4108 38.3555 83.8681C38.0849 83.054 31.1859 62.0228 28.4805 53.8817C28.3452 53.4746 28.3452 53.0675 28.6157 52.7962L31.9976 46.826C32.2681 46.419 32.6739 46.1476 33.0798 46.1476C33.4856 46.1476 34.0267 46.419 34.2972 46.6903L37.2733 51.0323L40.3846 46.6903C40.6551 46.2833 41.0609 46.0119 41.4668 46.1476C41.8726 46.1476 42.2784 46.419 42.5489 46.826L45.2544 51.1679L48.2305 46.826C48.501 46.419 48.9068 46.2833 49.4479 46.2833C49.8537 46.2833 50.3948 46.5547 50.5301 46.9617L53.912 52.9319C54.0472 53.2032 54.1825 53.6103 54.0472 54.0173C50.2596 67.0431 48.2305 74.0988 47.1483 77.8979C45.6603 82.9183 45.6602 82.9183 45.3897 83.8681L42.8195 83.1897C43.09 82.1042 43.09 82.1042 44.5781 77.0838C45.6602 73.2846 47.6894 66.3647 51.3418 53.746L49.3126 49.9468L46.3366 54.153C46.0661 54.5601 45.6602 54.6958 45.2544 54.6958C44.8486 54.6958 44.4428 54.4244 44.1722 54.0173L41.4668 49.6754L38.4907 54.0173C38.2202 54.4244 37.8144 54.6958 37.4085 54.5601C37.0027 54.5601 36.5969 54.2887 36.3263 54.0173L33.4856 49.8111L31.4565 53.3389C34.5678 62.5655 41.0609 82.5112 41.1962 82.9183C41.3315 83.5967 40.9257 84.4108 40.2493 84.5465C39.9787 84.8179 39.8435 84.8179 39.7082 84.8179Z" fill="white"/>
<path d="M41.0607 11.1409C40.2491 11.1409 39.708 10.5982 39.708 9.78404V1.50724C39.708 0.693131 40.2491 0.150391 41.0607 0.150391C41.8724 0.150391 42.4135 0.693131 42.4135 1.50724V9.78404C42.4135 10.5982 41.8724 11.1409 41.0607 11.1409Z" fill="#4A83E7"/>
<path d="M17.6588 25.6595C17.253 25.6595 16.9824 25.5238 16.7119 25.2524L10.8951 19.418C10.354 18.8752 10.354 18.0611 10.8951 17.5184C11.4362 16.9756 12.2478 16.9756 12.7889 17.5184L18.6057 23.3528C19.1468 23.8956 19.1468 24.7097 18.6057 25.2524C18.3351 25.5238 17.9293 25.6595 17.6588 25.6595Z" fill="#4A83E7"/>
<path d="M68.9273 74.642C68.5215 74.642 68.2509 74.5063 67.9804 74.235L62.4341 68.6719C61.893 68.1291 61.893 67.315 62.4341 66.7723C62.9752 66.2295 63.7869 66.2295 64.328 66.7723L69.8742 72.3354C70.4153 72.8781 70.4153 73.6922 69.8742 74.235C69.6037 74.5063 69.1978 74.642 68.9273 74.642Z" fill="#4A83E7"/>
<path d="M65.0051 25.6595C64.5993 25.6595 64.3287 25.5238 64.0582 25.2524C63.5171 24.7097 63.5171 23.8956 64.0582 23.3528L69.8749 17.5184C70.416 16.9756 71.2277 16.9756 71.7688 17.5184C72.3099 18.0611 72.3099 18.8752 71.7688 19.418L65.952 25.2524C65.6815 25.5238 65.2756 25.6595 65.0051 25.6595Z" fill="#4A83E7"/>
<path d="M13.8713 74.642C13.4655 74.642 13.1949 74.5063 12.9244 74.235C12.3833 73.6922 12.3833 72.8781 12.9244 72.3354L18.4706 66.7723C19.0117 66.2295 19.8233 66.2295 20.3644 66.7723C20.9055 67.315 20.9055 68.1291 20.3644 68.6719L14.8182 74.235C14.5477 74.5063 14.1418 74.642 13.8713 74.642Z" fill="#4A83E7"/>
<path d="M47.8251 93.7728C47.8251 97.3006 44.9843 100.014 41.6025 100.014C38.2206 100.014 35.3799 97.1649 35.3799 93.7728C35.3799 90.245 38.2206 87.5312 41.6025 87.5312C44.9843 87.5312 47.8251 90.3806 47.8251 93.7728Z" fill="#1A204F"/>
<path d="M49.7186 95.4013H33.3505C31.9977 95.4013 30.7803 94.1801 30.7803 92.8233V83.8681C30.7803 82.5112 31.9977 81.29 31.9977 81.29H48.5012C51.2066 81.29 52.2888 82.5112 52.2888 83.8681V92.8233C52.2888 94.3158 51.2066 95.4013 49.7186 95.4013Z" fill="#C7D3E0"/>
<path d="M48.9067 89.703H34.0266C33.2149 89.703 32.6738 89.1602 32.6738 88.3461C32.6738 87.532 33.2149 86.9893 34.0266 86.9893H48.9067C49.7183 86.9893 50.2594 87.532 50.2594 88.3461C50.2594 89.0245 49.5831 89.703 48.9067 89.703Z" fill="#7A8799"/>
</g>
<defs>
<clipPath id="clip0_1544_4316">
<rect width="79" height="100" fill="white" transform="translate(0.614258 0.150391)"/>
</clipPath>
</defs>
</svg>
