<svg width="36" height="36" viewBox="0 0 36 36" fill="none" xmlns="http://www.w3.org/2000/svg">
<path d="M24.4799 35.5671C25.693 35.5671 26.6765 34.5837 26.6765 33.3705C26.6765 32.1573 25.693 31.1738 24.4799 31.1738C23.2667 31.1738 22.2832 32.1573 22.2832 33.3705C22.2832 34.5837 23.2667 35.5671 24.4799 35.5671Z" fill="#4A83E7"/>
<path d="M15.6928 35.5671C16.9059 35.5671 17.8894 34.5837 17.8894 33.3705C17.8894 32.1573 16.9059 31.1738 15.6928 31.1738C14.4796 31.1738 13.4961 32.1573 13.4961 33.3705C13.4961 34.5837 14.4796 35.5671 15.6928 35.5671Z" fill="#4A83E7"/>
<path d="M35.0489 12.3158C34.6348 11.743 33.972 11.4042 33.2663 11.4042H10.7379L9.0668 2.22491C8.87789 1.18039 7.96847 0.420898 6.90639 0.420898H2.51307C1.29886 0.420898 0.316406 1.40335 0.316406 2.61756C0.316406 3.83176 1.29886 4.81422 2.51307 4.81422H5.07218L9.13929 27.1735C9.32821 28.218 10.2376 28.9775 11.2997 28.9775H28.873C29.8192 28.9775 30.6578 28.3723 30.956 27.4761L35.3493 14.2961C35.5745 13.6267 35.4608 12.8886 35.0489 12.3158Z" fill="#4A83E7"/>
</svg>
