<svg width="60" height="60" viewBox="0 0 344 344" fill="none" xmlns="http://www.w3.org/2000/svg">
<g clip-path="url(#clip0_219_1444)">
<rect width="344" height="344" rx="172" fill="#FAD5CE"/>
<g clip-path="url(#clip1_219_1444)">
<path d="M142.213 77.9931C142.213 77.9931 122.163 64.8355 142.213 44.1597C162.262 23.4837 217.724 44.7862 193.752 77.9931H142.213Z" fill="#401C1A"/>
<path d="M237.592 284.502C237.592 284.502 255.006 290.32 262.108 304.939C269.209 319.557 273.623 375.474 273.623 375.474C273.623 375.474 267.956 396.832 232.451 388.477C232.451 388.477 207.229 285.786 237.592 284.502Z" fill="#507C8F"/>
<path d="M232.452 388.477C232.452 388.477 214.003 313.354 227.669 290.814C228.984 290.905 230.363 291.143 231.826 291.573C268.44 302.342 248.307 370.948 241.921 390.03C238.971 389.772 235.819 389.271 232.452 388.477Z" fill="#6091A8"/>
<path d="M107.031 284.502C107.031 284.502 89.6171 290.32 82.5159 304.939C75.4146 319.557 71 375.474 71 375.474C71 375.474 76.6677 396.832 112.171 388.477C112.171 388.477 137.395 285.786 107.031 284.502Z" fill="#507C8F"/>
<path d="M112.172 388.477C112.172 388.477 130.621 313.354 116.955 290.814C115.64 290.905 114.262 291.143 112.798 291.573C76.1841 302.342 96.3162 370.948 102.703 390.03C105.653 389.772 108.804 389.271 112.172 388.477Z" fill="#6091A8"/>
<path d="M224.21 450.513C230.82 388.637 240.495 294.227 238.975 285.308C238.975 285.308 199.54 268.597 192.703 264.422L172.544 268.494L152.384 264.422C145.547 268.597 106.114 285.308 106.114 285.308C104.594 294.227 114.269 388.637 120.879 450.513H224.21Z" fill="#507C8F"/>
<path d="M188.815 227.666L173.091 234.245L157.366 227.666C157.366 227.666 156.127 258.993 152.429 266.198C152.429 266.198 162.868 281.235 173.091 281.862C183.312 281.235 193.752 266.198 193.752 266.198C190.055 258.993 188.815 227.666 188.815 227.666Z" fill="#DB9874"/>
<path d="M156.163 245.545C159.842 249.561 171.272 259.63 191.345 256.651C189.493 244.811 188.814 227.666 188.814 227.666L173.09 234.245L157.365 227.666C157.365 227.666 157.023 236.301 156.163 245.545Z" fill="#9D5F42"/>
<path d="M119.846 174.515C121.238 182.951 118.193 190.477 113.039 191.329C107.887 192.179 102.582 186.033 101.19 177.594C99.7974 169.161 102.845 161.632 107.996 160.78C113.149 159.93 118.453 166.079 119.846 174.515Z" fill="#D4885F"/>
<path d="M104.262 173.134C104.262 173.134 104.515 175.527 105.848 175.717C105.848 175.717 104.559 170.873 108.907 169.431C108.907 169.431 106.081 171.393 107.239 178.599C107.239 178.599 107.047 175.126 111.266 173.728C111.266 173.728 105.284 179.76 111.126 182.857C111.126 182.857 111.263 186.598 107.577 184.195C107.577 184.195 113.352 191.18 113.892 181.735C113.892 181.735 107.383 180.533 112.689 177.57L114.316 176.779C114.316 176.779 114.733 166.102 108.681 166.894C102.629 167.688 105.014 176.092 104.262 173.134Z" fill="#B0654F"/>
<path d="M104.37 174.53C104.166 173.603 104.135 172.631 104.277 171.68C104.34 171.203 104.457 170.729 104.628 170.274C104.792 169.818 105.007 169.368 105.295 168.97C105.426 168.759 105.581 168.566 105.756 168.392C105.924 168.211 106.086 168.02 106.287 167.877C106.658 167.543 107.086 167.296 107.517 167.053C107.969 166.856 108.406 166.635 108.9 166.515C109.366 166.389 109.948 166.33 110.455 166.444C111.532 166.635 112.366 167.432 112.894 168.267C113.446 169.112 113.796 170.036 114.079 170.966C114.356 171.898 114.55 172.846 114.697 173.798C114.77 174.273 114.83 174.75 114.879 175.23C114.93 175.7 114.957 176.204 114.979 176.65L114.995 176.982L114.701 177.096C114.018 177.362 113.325 177.686 112.689 178.055C112.068 178.421 111.416 178.867 111.127 179.388C110.986 179.65 110.99 179.84 111.143 180.064C111.296 180.287 111.588 180.485 111.891 180.654C112.525 180.977 113.25 181.193 113.971 181.396L114.265 181.478L114.242 181.753C114.161 182.751 113.985 183.711 113.642 184.654C113.466 185.121 113.244 185.581 112.917 185.989C112.594 186.394 112.112 186.731 111.567 186.804C111.296 186.845 111.029 186.81 110.775 186.755C110.527 186.682 110.287 186.595 110.068 186.474C109.627 186.239 109.23 185.947 108.87 185.621C108.141 184.977 107.52 184.238 106.943 183.472C107.598 184.171 108.276 184.853 109.025 185.43C109.398 185.722 109.8 185.972 110.218 186.157C110.634 186.343 111.088 186.444 111.496 186.359C112.336 186.204 112.826 185.315 113.094 184.461C113.371 183.59 113.5 182.64 113.534 181.726L113.805 182.083C113.04 181.912 112.28 181.696 111.537 181.333C111.172 181.132 110.793 180.913 110.496 180.508C110.341 180.319 110.25 180.038 110.228 179.765C110.23 179.492 110.293 179.221 110.413 179.016C110.887 178.184 111.592 177.763 112.261 177.334C112.948 176.923 113.645 176.582 114.39 176.282L114.112 176.727L114.005 175.312C113.965 174.846 113.912 174.382 113.85 173.92C113.721 172.997 113.546 172.081 113.297 171.192C113.043 170.308 112.723 169.436 112.246 168.684C111.778 167.93 111.119 167.318 110.311 167.125C109.894 167.023 109.502 167.035 109.052 167.13C108.619 167.214 108.19 167.407 107.77 167.566C107.366 167.772 106.962 167.98 106.612 168.272C106.419 168.395 106.266 168.56 106.104 168.719C105.935 168.872 105.786 169.043 105.657 169.231C105.369 169.581 105.136 169.982 104.95 170.403C104.757 170.822 104.612 171.267 104.517 171.723C104.319 172.634 104.266 173.588 104.37 174.53Z" fill="#9F5B3D"/>
<path d="M106.99 177.438C106.99 177.438 106.831 176.689 106.785 175.538C106.762 174.963 106.772 174.289 106.867 173.568C106.95 172.847 107.149 172.085 107.457 171.35C107.634 170.998 107.817 170.634 108.056 170.317C108.311 170.01 108.544 169.683 108.865 169.461C109.015 169.338 109.163 169.219 109.308 169.101C109.472 169.016 109.634 168.932 109.791 168.849C109.95 168.769 110.104 168.69 110.254 168.614C110.413 168.569 110.568 168.525 110.715 168.482C111.011 168.409 111.286 168.3 111.53 168.282C111.776 168.259 111.991 168.24 112.168 168.223C112.524 168.191 112.727 168.174 112.727 168.174L112.697 169.221C112.697 169.221 112.519 169.224 112.209 169.226C112.054 169.226 111.863 169.226 111.647 169.226C111.427 169.223 111.2 169.303 110.939 169.339C110.808 169.364 110.673 169.388 110.533 169.416C110.402 169.47 110.269 169.525 110.132 169.582C109.992 169.639 109.848 169.698 109.702 169.756C109.571 169.845 109.44 169.937 109.305 170.028C109.011 170.19 108.793 170.458 108.544 170.705C108.31 170.964 108.119 171.276 107.929 171.585C107.59 172.231 107.335 172.936 107.196 173.626C107.043 174.313 106.976 174.973 106.95 175.541C106.896 176.677 106.99 177.438 106.99 177.438Z" fill="#9F5B3D"/>
<path d="M225.245 174.515C223.853 182.951 226.899 190.477 232.052 191.329C237.204 192.179 242.509 186.033 243.9 177.594C245.293 169.161 242.245 161.632 237.095 160.78C231.943 159.93 226.639 166.079 225.245 174.515Z" fill="#D4885F"/>
<path d="M240.828 173.134C240.828 173.134 240.575 175.527 239.242 175.717C239.242 175.717 240.53 170.873 236.183 169.431C236.183 169.431 239.009 171.393 237.852 178.599C237.852 178.599 238.044 175.126 233.825 173.728C233.825 173.728 239.806 179.76 233.965 182.857C233.965 182.857 233.828 186.598 237.514 184.195C237.514 184.195 231.74 191.18 231.201 181.735C231.201 181.735 237.708 180.533 232.402 177.57L230.775 176.779C230.775 176.779 230.359 166.102 236.41 166.894C242.462 167.688 240.078 176.092 240.828 173.134Z" fill="#B0654F"/>
<path d="M240.72 174.53C240.824 173.588 240.773 172.634 240.574 171.723C240.481 171.268 240.334 170.822 240.14 170.403C239.955 169.984 239.721 169.583 239.433 169.231C239.304 169.043 239.155 168.872 238.986 168.719C238.826 168.56 238.671 168.394 238.48 168.272C238.13 167.981 237.725 167.773 237.322 167.566C236.901 167.407 236.472 167.216 236.039 167.13C235.589 167.035 235.198 167.023 234.779 167.125C233.971 167.318 233.311 167.931 232.845 168.684C232.366 169.436 232.046 170.308 231.793 171.192C231.543 172.081 231.37 172.996 231.241 173.92C231.178 174.382 231.127 174.846 231.084 175.312L230.977 176.727L230.699 176.282C231.442 176.582 232.14 176.923 232.827 177.334C233.496 177.763 234.2 178.184 234.675 179.016C234.793 179.221 234.858 179.492 234.86 179.765C234.837 180.037 234.747 180.317 234.591 180.508C234.294 180.913 233.916 181.132 233.551 181.333C232.809 181.696 232.049 181.912 231.283 182.083L231.554 181.726C231.586 182.639 231.716 183.588 231.992 184.461C232.262 185.315 232.751 186.204 233.591 186.359C233.999 186.443 234.454 186.343 234.87 186.157C235.288 185.972 235.69 185.721 236.062 185.43C236.812 184.853 237.488 184.171 238.145 183.472C237.567 184.236 236.947 184.977 236.218 185.621C235.857 185.947 235.46 186.237 235.02 186.473C234.799 186.595 234.561 186.682 234.313 186.755C234.059 186.81 233.792 186.845 233.521 186.804C232.975 186.73 232.492 186.394 232.17 185.989C231.843 185.581 231.622 185.121 231.446 184.654C231.103 183.711 230.927 182.751 230.846 181.753L230.823 181.478L231.117 181.396C231.838 181.193 232.563 180.977 233.197 180.654C233.5 180.485 233.792 180.287 233.945 180.064C234.099 179.84 234.101 179.65 233.962 179.388C233.672 178.867 233.02 178.422 232.398 178.055C231.762 177.686 231.07 177.362 230.387 177.096L230.093 176.982L230.109 176.65C230.13 176.205 230.157 175.7 230.209 175.23C230.258 174.75 230.32 174.273 230.391 173.798C230.538 172.846 230.732 171.898 231.009 170.966C231.292 170.036 231.64 169.112 232.194 168.267C232.722 167.432 233.556 166.635 234.631 166.444C235.14 166.33 235.72 166.389 236.188 166.515C236.68 166.635 237.118 166.855 237.57 167.053C238.002 167.296 238.43 167.544 238.799 167.877C239.002 168.021 239.164 168.212 239.332 168.392C239.508 168.566 239.661 168.759 239.793 168.97C240.081 169.368 240.295 169.818 240.46 170.274C240.631 170.729 240.748 171.203 240.81 171.68C240.956 172.631 240.923 173.603 240.72 174.53Z" fill="#9F5B3D"/>
<path d="M238.103 177.437C238.103 177.437 238.197 176.677 238.144 175.538C238.118 174.971 238.051 174.309 237.898 173.624C237.759 172.934 237.505 172.229 237.165 171.583C236.976 171.275 236.784 170.963 236.55 170.703C236.301 170.456 236.083 170.188 235.789 170.026C235.654 169.935 235.521 169.843 235.392 169.755C235.246 169.696 235.103 169.637 234.962 169.58C234.824 169.523 234.69 169.468 234.561 169.414C234.421 169.387 234.286 169.362 234.155 169.337C233.893 169.301 233.667 169.221 233.447 169.224C233.231 169.224 233.04 169.224 232.885 169.224C232.575 169.222 232.397 169.219 232.397 169.219L232.367 168.172C232.367 168.172 232.57 168.189 232.926 168.221C233.103 168.238 233.318 168.257 233.564 168.28C233.809 168.3 234.083 168.407 234.38 168.48C234.528 168.523 234.682 168.567 234.841 168.612C234.99 168.688 235.145 168.766 235.304 168.847C235.461 168.93 235.623 169.014 235.788 169.099C235.933 169.217 236.081 169.336 236.232 169.459C236.552 169.681 236.784 170.008 237.04 170.315C237.279 170.632 237.462 170.996 237.639 171.348C237.947 172.083 238.146 172.843 238.229 173.566C238.326 174.287 238.334 174.961 238.312 175.536C238.26 176.689 238.103 177.437 238.103 177.437Z" fill="#9F5B3D"/>
<path d="M228.843 168.367C228.843 178.338 227.564 189.836 224.123 200.968C216.407 225.922 188.393 249.042 173.09 249.042C157.563 249.042 129.29 225.246 121.725 199.881C118.508 189.091 117.336 178.016 117.336 168.369C117.336 136.047 123.027 93.748 173.09 93.748C223.15 93.7468 228.843 136.046 228.843 168.367Z" fill="#EFAC85"/>
<path d="M176.271 239.937C160.744 239.937 132.472 216.138 124.907 190.773C121.689 179.983 120.518 168.908 120.518 159.262C120.518 147.646 121.267 134.751 124.531 122.984C118.53 136.899 117.336 153.66 117.336 168.368C117.336 178.015 118.508 189.09 121.725 199.881C129.29 225.245 157.563 249.042 173.09 249.042C188.393 249.042 216.407 225.921 224.123 200.967C224.418 200.012 224.675 199.053 224.94 198.094C214.963 220.531 190.291 239.937 176.271 239.937Z" fill="#CF875E"/>
<path d="M155.036 206.771C155.036 206.771 167.959 202.781 190.671 206.384C190.671 206.384 174.048 239.435 155.036 206.771Z" fill="#E74F78"/>
<path d="M230.543 155.086C230.543 155.086 213.792 121.446 224.506 123.982C220.684 115.125 214.875 107.369 206.139 101.925C194.036 100.038 177.108 97.4444 159.719 94.7891C140.621 97.9606 128.434 105.181 122.001 118.091C138.104 128.632 198.795 112.453 230.543 155.086Z" fill="#CF875E"/>
<path d="M128.62 148.037C128.62 148.037 135.303 142.088 141.742 143.554C148.181 145.02 158.193 145.007 161.128 141.743C161.128 141.743 139.315 132.993 128.62 148.037Z" fill="#612F28"/>
<path d="M215.64 148.037C215.64 148.037 208.958 142.088 202.518 143.554C196.08 145.02 186.068 145.007 183.133 141.743C183.133 141.743 204.945 132.993 215.64 148.037Z" fill="#612F28"/>
<path d="M165.353 193.841C165.382 193.833 165.244 193.524 165.296 192.901C165.321 192.59 165.375 192.213 165.533 191.807C165.668 191.391 165.896 190.95 166.203 190.505C166.51 190.061 166.892 189.61 167.368 189.213C167.833 188.802 168.377 188.428 168.981 188.119C169.59 187.826 170.238 187.534 170.941 187.388C171.635 187.209 172.364 187.148 173.091 187.115C173.515 187.143 173.745 187.138 174.15 187.194C174.529 187.243 174.902 187.297 175.243 187.387C175.946 187.529 176.595 187.824 177.203 188.116C177.807 188.427 178.35 188.798 178.815 189.21C179.291 189.609 179.675 190.06 179.982 190.502C180.289 190.947 180.517 191.391 180.652 191.807C180.809 192.21 180.864 192.592 180.888 192.896C180.939 193.51 180.801 193.843 180.83 193.841C180.811 193.846 180.776 193.496 180.528 192.986C180.413 192.73 180.246 192.436 180.02 192.131C179.804 191.821 179.502 191.515 179.174 191.199C178.83 190.893 178.432 190.598 177.988 190.324C177.548 190.045 177.042 189.827 176.526 189.606C175.998 189.403 175.436 189.256 174.861 189.141C174.569 189.073 174.289 189.046 174.013 189.016C173.764 188.977 173.331 188.99 173.094 188.975C171.903 188.967 170.715 189.208 169.662 189.604C169.145 189.826 168.638 190.042 168.198 190.323C167.754 190.598 167.355 190.891 167.012 191.197C166.683 191.512 166.381 191.821 166.165 192.13C165.939 192.432 165.772 192.733 165.658 192.981C165.407 193.482 165.372 193.856 165.353 193.841Z" fill="#B46741"/>
<path d="M166.312 225.256C166.312 225.256 173.203 228.545 180.095 225.256C180.095 225.256 174.125 235.951 166.312 225.256Z" fill="#B3724F"/>
<path d="M165.353 194.806C165.353 194.806 172.871 199.109 180.827 194.806C180.827 194.806 178.84 189.642 173.174 189.809C173.174 189.809 166.916 189.344 165.353 194.806Z" fill="#CF875E"/>
<path d="M157.539 171.282C157.539 176.356 155.266 180.47 152.462 180.47C149.659 180.47 147.386 176.356 147.386 171.282C147.386 166.206 149.658 162.092 152.462 162.092C155.266 162.092 157.539 166.206 157.539 171.282Z" fill="#23181A"/>
<path d="M198.794 171.282C198.794 176.356 196.521 180.47 193.718 180.47C190.915 180.47 188.641 176.356 188.641 171.282C188.641 166.206 190.914 162.092 193.718 162.092C196.521 162.092 198.794 166.206 198.794 171.282Z" fill="#23181A"/>
<path d="M156.732 206.771C156.732 206.771 169.58 214.092 189.676 206.771C189.676 206.771 173.808 230.03 156.732 206.771Z" fill="white"/>
<path d="M156.732 206.771C156.932 207.041 157.13 207.3 157.328 207.557C161.845 210.898 172.911 216.784 188.934 207.758C189.565 206.987 189.676 206.771 189.676 206.771C169.58 214.092 156.732 206.771 156.732 206.771Z" fill="#C5D1DD"/>
<path d="M161.228 211.897C160.334 210.518 159.598 209.043 159.054 207.802C157.536 207.229 156.732 206.771 156.732 206.771C158.244 208.83 159.746 210.519 161.228 211.897Z" fill="#23181A"/>
<path d="M185.003 211.875C187.941 209.313 189.676 206.771 189.676 206.771C188.981 207.023 188.297 207.258 187.621 207.476C186.974 208.781 186.081 210.402 185.003 211.875Z" fill="#23181A"/>
<path d="M117.336 171.395C117.336 171.395 84.9949 111.827 120.182 81.1261C120.182 81.1261 128.703 72.3545 149.239 73.6076C149.239 73.6076 263.761 50.4255 228.843 168.368C228.843 168.368 230.541 116.839 187.337 116.213C187.337 116.213 164.447 124.358 144.87 116.213C125.295 108.067 116.895 131.342 117.336 171.395Z" fill="#612F28"/>
<path d="M222.626 266.323C222.626 266.323 213.6 252.771 201.789 234.051C197.364 238.077 192.74 241.487 188.288 244.027C189.571 255.492 192.445 267.925 198.794 272.635C211.758 282.246 219.506 324.787 199.656 346.748C199.656 346.748 252.733 335.037 222.626 266.323Z" fill="#612F28"/>
<path d="M228.13 160.907C227.026 160.149 223.842 159.472 221.998 159.13C220.473 156.702 216.101 156.057 216.101 156.057C210.462 154.177 190.412 154.49 184.926 156.057C180.641 157.281 178.757 160.026 178.136 161.172C174.152 159.556 170.261 160.42 168.146 161.162C167.139 159.855 165.287 158.124 162.128 157.221C156.643 155.654 136.594 155.341 130.955 157.221C130.955 157.221 128.24 157.624 126.342 158.982C124.857 159.237 120.678 160.015 119.379 160.906C117.789 162 119.352 166.856 119.352 166.856L124.6 168.479C124.917 175.371 126.383 185.251 132.679 188.816C132.679 188.816 138.843 192.835 152.04 191.366C166.146 189.798 169.175 168.184 169.175 168.184V167.56C173.196 164.959 176.355 166.662 178.088 168.199C178.957 172.716 182.896 188.853 195.017 190.202C208.215 191.668 214.379 187.65 214.379 187.65C220.278 184.309 221.936 175.42 222.384 168.643L228.158 166.856C228.158 166.856 229.72 162.002 228.13 160.907ZM165.811 169.033C165.811 169.033 163.238 187.39 151.257 188.722C140.047 189.968 134.812 186.556 134.812 186.556C127.228 182.26 127.893 167.169 127.893 163.844C127.893 160.517 133.348 159.719 133.348 159.719C138.137 158.124 155.167 158.39 159.826 159.719C164.485 161.051 165.809 164.509 165.809 164.509L165.811 169.033ZM212.244 185.392C212.244 185.392 207.008 188.804 195.798 187.558C183.817 186.226 181.245 167.869 181.245 167.869V163.346C181.245 163.346 182.571 159.885 187.228 158.556C191.887 157.224 208.917 156.961 213.706 158.556C213.706 158.556 219.161 159.355 219.161 162.681C219.162 166.005 219.827 181.094 212.244 185.392Z" fill="#EE2738"/>
<path d="M116.436 84.7871C110.853 90.8621 107.448 97.8054 105.6 105.062C147.487 107.876 169.62 91.9284 169.62 91.9284C145.46 92.3319 127.809 88.5238 116.436 84.7871Z" fill="#7D4640"/>
<path d="M223.141 90.7266C212.292 93.3067 197.981 95.3179 180.095 95.0171C180.095 95.0171 198.241 108.082 232.749 108.473C230.595 101.275 227.265 95.4382 223.141 90.7266Z" fill="#7D4640"/>
</g>
</g>
<defs>
<clipPath id="clip0_219_1444">
<rect width="344" height="344" rx="172" fill="white"/>
</clipPath>
<clipPath id="clip1_219_1444">
<rect width="203" height="414.772" fill="white" transform="translate(71 36)"/>
</clipPath>
</defs>
</svg>
