<svg width="60" height="60" viewBox="0 0 344 344" fill="none" xmlns="http://www.w3.org/2000/svg">
<g clip-path="url(#clip0_219_1445)">
<rect width="344" height="344" rx="172" fill="#FAD5CE"/>
<path d="M258.567 133.683C258.567 176.022 220.08 210.344 172.603 210.344C125.125 210.344 86.6377 176.022 86.6377 133.683C86.6377 91.347 107.752 42 173.705 42C244.074 42 258.567 91.347 258.567 133.683Z" fill="#23181A"/>
<path d="M173.703 50.4161C241.075 50.4161 257.228 95.6489 258.481 136.659C258.522 135.67 258.565 134.681 258.565 133.683C258.565 91.3471 244.072 42 173.701 42C107.748 42 86.6338 91.3471 86.6338 133.683C86.6338 134.857 86.6745 136.023 86.7326 137.182C88.334 96.0342 110.289 50.4161 173.703 50.4161Z" fill="#46332F"/>
<path d="M275.548 446.282C278.825 391.753 282.407 328.252 282.407 328.252L251.826 354.21C252.408 363.965 253.712 406.555 254.86 446.281H275.548V446.282Z" fill="#9D6D54"/>
<path opacity="0.7" d="M261.368 446.281L262.745 394.11C268.108 393.647 273.838 391.115 278.976 388.069C280.041 369.712 280.972 353.457 281.594 342.547L256.072 350.601L251.823 354.209C252.405 363.964 253.709 406.554 254.857 446.28H261.368V446.281Z" fill="#7F513B"/>
<path d="M279.403 446.282C281.938 388.772 284.593 308.402 280.15 299.26C273.154 284.855 252.925 276.115 252.925 276.115C232.721 276.971 238.123 379.673 243.761 446.282H279.403Z" fill="#6091A8"/>
<path opacity="0.6" d="M262.01 446.282C265.578 386.418 266.81 306.271 248.729 297.612C246.233 296.418 243.846 296.264 241.562 296.944C235.701 330.574 239.669 397.933 243.761 446.282H262.01Z" fill="#507C8F"/>
<path d="M87.5486 446.281C88.697 406.554 90.0009 363.965 90.5824 354.21L60 328.252C60 328.252 63.5808 391.753 66.8591 446.282H87.5486V446.281Z" fill="#9D6D54"/>
<path opacity="0.7" d="M79.6608 394.109L81.0375 446.28H87.5484C88.6967 406.553 90.0006 363.964 90.5822 354.209L86.3334 350.601L60.8135 342.547C61.4333 353.457 62.3643 369.711 63.4299 388.069C68.5678 391.115 74.297 393.646 79.6608 394.109Z" fill="#7F513B"/>
<path d="M98.6732 446.282C104.348 379.717 109.94 275.754 89.6126 274.895C89.6126 274.895 69.3835 283.632 62.3849 298.036C57.9139 307.244 60.639 388.695 63.1875 446.281H98.6732V446.282Z" fill="#6091A8"/>
<path opacity="0.6" d="M98.6735 446.281C102.8 397.852 106.885 329.635 100.976 295.722C98.692 295.042 96.3052 295.194 93.8086 296.39C75.6058 305.106 76.9776 386.291 80.5979 446.281H98.6735Z" fill="#507C8F"/>
<path d="M235.352 446.282C243.684 385.813 257.112 284.77 255.106 275.597C255.106 275.597 205.25 259.128 196.607 255.014L171.12 259.029L145.631 255.014C136.988 259.128 87.1343 275.597 87.1343 275.597C85.1278 284.771 98.5532 385.814 106.885 446.282H235.352Z" fill="#6091A8"/>
<path d="M157.979 446.284H192.001C192.382 388.23 194.123 298.039 200.973 256.835C199.082 256.099 197.582 255.477 196.608 255.014L171.121 259.029L145.632 255.014C144.574 255.517 142.89 256.21 140.756 257.035L142.333 256.765C142.333 256.765 155.575 354.388 157.979 446.284Z" fill="#F6F7D3"/>
<path d="M193.976 218.795L171.659 225.277L149.342 218.795C149.342 218.795 147.582 249.664 142.334 256.764C142.334 256.764 157.151 271.581 171.659 272.198C186.168 271.581 200.985 256.764 200.985 256.764C195.737 249.664 193.976 218.795 193.976 218.795Z" fill="#8E5F48"/>
<path d="M147.634 236.412C152.856 240.372 169.078 250.291 197.568 247.356C194.94 235.691 193.975 218.795 193.975 218.795L171.658 225.277L149.341 218.795C149.341 218.795 148.854 227.304 147.634 236.412Z" fill="#784A35"/>
<path d="M221.795 160.938C221.048 170.973 225.408 179.479 231.536 179.937C237.667 180.392 243.242 172.63 243.99 162.595C244.737 152.56 240.375 144.054 234.247 143.593C228.116 143.138 222.542 150.903 221.795 160.938Z" fill="#9D6D54"/>
<path opacity="0.7" d="M239.92 157.684C239.92 157.684 239.872 160.517 238.328 160.877C238.328 160.877 239.332 155.065 234.083 153.83C234.083 153.83 237.602 155.837 237.001 164.403C237.001 164.403 236.861 160.313 231.768 159.117C231.768 159.117 239.412 165.562 232.889 169.806C232.889 169.806 233.121 174.205 237.191 171.002C237.191 171.002 231.152 179.795 229.532 168.781C229.532 168.781 237.034 166.69 230.504 163.771L228.515 163.014C228.515 163.014 226.906 150.538 234.083 150.833C241.261 151.128 239.348 161.231 239.92 157.684Z" fill="#7F513B"/>
<path d="M239.937 159.331C239.96 158.217 239.8 157.103 239.471 156.057C239.315 155.531 239.097 155.025 238.827 154.554C238.565 154.081 238.249 153.637 237.874 153.255C237.703 153.048 237.511 152.864 237.296 152.703C237.09 152.533 236.892 152.354 236.654 152.229C236.214 151.925 235.717 151.725 235.223 151.525C234.713 151.383 234.189 151.204 233.672 151.151C233.135 151.086 232.675 151.112 232.196 151.277C231.268 151.587 230.559 152.374 230.091 153.308C229.609 154.239 229.327 155.294 229.122 156.357C228.922 157.425 228.813 158.518 228.76 159.614C228.735 160.162 228.722 160.713 228.724 161.261L228.746 162.932L228.375 162.441C229.276 162.716 230.131 163.041 230.979 163.451C231.401 163.656 231.817 163.884 232.218 164.158C232.616 164.437 233.015 164.753 233.324 165.23C233.483 165.457 233.587 165.768 233.617 166.086C233.62 166.409 233.542 166.746 233.382 166.986C233.075 167.492 232.654 167.788 232.248 168.062C231.417 168.566 230.548 168.901 229.669 169.18L229.949 168.732C230.082 169.8 230.333 170.9 230.75 171.894C230.96 172.388 231.221 172.863 231.56 173.251C231.736 173.435 231.921 173.61 232.137 173.726C232.344 173.86 232.583 173.918 232.824 173.95C233.067 173.973 233.317 173.942 233.569 173.884C233.816 173.805 234.063 173.71 234.3 173.577C234.771 173.315 235.215 172.98 235.621 172.6C236.439 171.845 237.161 170.974 237.858 170.086C237.26 171.043 236.611 171.977 235.824 172.806C235.436 173.226 235.002 173.61 234.51 173.932C234.264 174.097 233.994 174.225 233.71 174.337C233.419 174.428 233.11 174.498 232.788 174.478C232.47 174.455 232.144 174.383 231.868 174.226C231.58 174.084 231.339 173.879 231.118 173.665C230.694 173.221 230.385 172.705 230.129 172.175C229.628 171.106 229.323 169.999 229.123 168.839L229.069 168.518L229.403 168.39C230.228 168.076 231.054 167.748 231.764 167.302C232.101 167.072 232.423 166.808 232.579 166.53C232.675 166.393 232.675 166.265 232.686 166.14C232.661 166.014 232.635 165.877 232.528 165.737C232.133 165.157 231.322 164.703 230.555 164.338C229.77 163.972 228.925 163.665 228.097 163.425L227.74 163.322L227.724 162.933C227.702 162.41 227.681 161.815 227.693 161.258C227.701 160.692 227.722 160.127 227.756 159.56C227.829 158.429 227.956 157.298 228.183 156.177C228.418 155.058 228.73 153.937 229.29 152.889C229.572 152.37 229.901 151.858 230.352 151.43C230.791 150.998 231.354 150.668 231.955 150.494C232.541 150.308 233.227 150.315 233.787 150.415C234.377 150.504 234.913 150.717 235.462 150.901C235.996 151.14 236.52 151.386 236.991 151.738C237.243 151.886 237.454 152.091 237.669 152.286C237.893 152.472 238.095 152.681 238.27 152.914C238.459 153.134 238.637 153.363 238.776 153.617C238.929 153.862 239.08 154.106 239.189 154.373C239.438 154.889 239.625 155.431 239.747 155.985C240.014 157.081 240.078 158.221 239.937 159.331Z" fill="#76402B"/>
<path d="M237.172 163.015C237.172 163.015 237.2 162.112 237.022 160.784C236.931 160.123 236.784 159.355 236.533 158.565C236.407 158.171 236.27 157.767 236.08 157.381C235.926 156.978 235.676 156.621 235.46 156.25C235.206 155.907 234.949 155.562 234.648 155.283C234.329 155.017 234.045 154.728 233.686 154.569C233.517 154.475 233.352 154.383 233.192 154.291C233.013 154.237 232.84 154.184 232.668 154.132C232.502 154.079 232.337 154.028 232.181 153.979C232.014 153.963 231.851 153.949 231.695 153.934C231.384 153.917 231.11 153.848 230.853 153.876C230.598 153.899 230.375 153.917 230.193 153.934C229.83 153.963 229.621 153.98 229.621 153.98L229.477 152.755C229.477 152.755 229.715 152.755 230.137 152.754C230.345 152.755 230.599 152.755 230.889 152.756C231.178 152.753 231.511 152.851 231.867 152.907C232.045 152.94 232.23 152.976 232.42 153.012C232.603 153.086 232.794 153.161 232.989 153.24C233.181 153.319 233.38 153.402 233.581 153.484C233.762 153.607 233.95 153.732 234.139 153.86C234.538 154.086 234.844 154.446 235.176 154.778C235.49 155.123 235.743 155.531 235.986 155.927C236.186 156.35 236.417 156.757 236.543 157.193C236.709 157.618 236.815 158.047 236.909 158.466C237.096 159.301 237.179 160.09 237.212 160.766C237.279 162.12 237.172 163.015 237.172 163.015Z" fill="#76402B"/>
<path d="M121.748 160.938C122.495 170.973 118.135 179.479 112.005 179.937C105.877 180.392 100.301 172.63 99.5535 162.595C98.804 152.56 103.166 144.054 109.295 143.593C115.425 143.138 121.001 150.903 121.748 160.938Z" fill="#9D6D54"/>
<path opacity="0.7" d="M103.622 157.684C103.622 157.684 103.668 160.517 105.211 160.877C105.211 160.877 104.207 155.065 109.456 153.83C109.456 153.83 105.937 155.837 106.541 164.403C106.541 164.403 106.678 160.313 111.771 159.117C111.771 159.117 104.127 165.562 110.65 169.806C110.65 169.806 110.418 174.205 106.351 171.002C106.351 171.002 112.388 179.795 114.01 168.781C114.01 168.781 106.505 166.69 113.036 163.771L115.028 163.014C115.028 163.014 116.634 150.538 109.456 150.833C102.28 151.128 104.194 161.231 103.622 157.684Z" fill="#7F513B"/>
<path d="M103.605 159.33C103.464 158.221 103.527 157.08 103.794 155.979C103.918 155.426 104.104 154.882 104.352 154.366C104.461 154.1 104.613 153.855 104.765 153.611C104.904 153.356 105.082 153.127 105.271 152.908C105.447 152.675 105.647 152.466 105.873 152.28C106.088 152.083 106.298 151.88 106.55 151.731C107.019 151.379 107.548 151.134 108.079 150.894C108.629 150.711 109.165 150.499 109.755 150.409C110.315 150.31 111.003 150.302 111.585 150.488C112.188 150.662 112.749 150.992 113.189 151.424C113.64 151.851 113.97 152.364 114.252 152.882C114.812 153.93 115.124 155.052 115.359 156.17C115.586 157.291 115.713 158.423 115.786 159.554C115.821 160.12 115.842 160.686 115.849 161.251C115.861 161.808 115.839 162.405 115.818 162.927L115.802 163.316L115.445 163.418C114.617 163.659 113.772 163.965 112.987 164.332C112.22 164.696 111.41 165.151 111.014 165.731C110.908 165.87 110.882 166.009 110.856 166.133C110.867 166.259 110.867 166.387 110.963 166.524C111.119 166.801 111.441 167.066 111.778 167.295C112.488 167.741 113.314 168.07 114.139 168.383L114.473 168.512L114.419 168.833C114.219 169.992 113.914 171.1 113.413 172.169C113.157 172.699 112.849 173.215 112.424 173.658C112.202 173.873 111.962 174.078 111.674 174.22C111.396 174.377 111.072 174.45 110.754 174.472C110.432 174.492 110.123 174.421 109.832 174.331C109.548 174.219 109.278 174.09 109.032 173.926C108.54 173.604 108.106 173.22 107.718 172.8C106.932 171.97 106.283 171.037 105.686 170.08C106.382 170.968 107.103 171.838 107.922 172.594C108.328 172.974 108.773 173.309 109.243 173.57C109.479 173.704 109.727 173.799 109.974 173.878C110.226 173.936 110.477 173.965 110.721 173.943C110.961 173.912 111.2 173.854 111.408 173.72C111.624 173.604 111.809 173.43 111.984 173.244C112.324 172.858 112.584 172.383 112.794 171.887C113.212 170.893 113.462 169.794 113.596 168.725L113.876 169.173C112.997 168.893 112.127 168.56 111.296 168.056C110.89 167.782 110.469 167.485 110.163 166.979C110.001 166.741 109.925 166.403 109.927 166.079C109.958 165.761 110.062 165.45 110.221 165.224C110.53 164.746 110.927 164.43 111.326 164.152C111.727 163.876 112.144 163.649 112.566 163.444C113.415 163.034 114.269 162.708 115.17 162.434L114.798 162.926L114.82 161.255C114.823 160.707 114.809 160.156 114.785 159.608C114.732 158.511 114.623 157.42 114.423 156.351C114.217 155.29 113.934 154.233 113.452 153.302C112.984 152.368 112.274 151.582 111.348 151.271C110.868 151.105 110.407 151.081 109.872 151.145C109.354 151.197 108.831 151.377 108.322 151.519C107.828 151.719 107.33 151.919 106.89 152.223C106.651 152.348 106.453 152.527 106.248 152.696C106.033 152.857 105.84 153.04 105.668 153.248C105.294 153.63 104.978 154.075 104.716 154.548C104.445 155.018 104.229 155.525 104.071 156.051C103.742 157.101 103.582 158.214 103.605 159.33Z" fill="#76402B"/>
<path d="M106.368 163.015C106.368 163.015 106.261 162.12 106.327 160.768C106.361 160.092 106.444 159.301 106.631 158.467C106.725 158.049 106.831 157.618 106.997 157.195C107.124 156.758 107.354 156.35 107.555 155.929C107.798 155.534 108.051 155.127 108.365 154.78C108.696 154.446 109.003 154.087 109.402 153.862C109.591 153.734 109.779 153.609 109.96 153.486C110.161 153.404 110.359 153.321 110.553 153.242C110.748 153.163 110.939 153.088 111.122 153.014C111.312 152.978 111.499 152.942 111.675 152.909C112.031 152.853 112.363 152.755 112.653 152.758C112.943 152.757 113.198 152.757 113.405 152.756C113.827 152.757 114.066 152.757 114.066 152.757L113.921 153.982C113.921 153.982 113.713 153.965 113.35 153.936C113.167 153.919 112.945 153.9 112.689 153.878C112.432 153.85 112.158 153.919 111.847 153.936C111.69 153.951 111.528 153.965 111.362 153.981C111.204 154.03 111.041 154.081 110.874 154.134C110.703 154.186 110.531 154.239 110.352 154.293C110.19 154.383 110.026 154.477 109.858 154.571C109.498 154.73 109.214 155.019 108.896 155.285C108.594 155.565 108.336 155.909 108.082 156.251C107.866 156.623 107.617 156.98 107.462 157.382C107.272 157.769 107.134 158.173 107.009 158.567C106.757 159.356 106.61 160.124 106.52 160.785C106.34 162.114 106.368 163.015 106.368 163.015Z" fill="#76402B"/>
<path d="M229.323 160.362C229.323 170.187 229.315 181.518 225.672 192.488C217.506 217.075 187.486 239.857 171.659 239.857C155.6 239.857 125.302 216.409 117.294 191.415C113.888 180.783 113.995 169.87 113.995 160.362C113.995 128.517 119.882 86.834 171.659 86.834C223.435 86.834 229.323 128.517 229.323 160.362Z" fill="#9D6D54"/>
<path opacity="0.7" d="M125.085 108.844C140.954 119.229 166.831 130.455 195.382 118.368C195.382 118.368 211.764 114.13 222.322 116.632C222.322 116.629 222.322 116.629 222.322 116.627C221.868 115.582 221.386 114.553 220.877 113.54C220.821 113.431 220.766 113.325 220.71 113.217C220.237 112.29 219.738 111.379 219.212 110.484C219.147 110.373 219.083 110.262 219.017 110.151C218.463 109.225 217.884 108.316 217.271 107.426C217.238 107.38 217.206 107.332 217.175 107.284C213.828 102.463 209.586 98.2377 204.227 94.8977C204.225 94.8952 204.225 94.8952 204.225 94.8952C192.297 93.0381 175.619 90.4797 158.484 87.8633C158.481 87.8658 158.479 87.8657 158.479 87.8657C158.274 87.8991 158.091 87.9361 157.89 87.9695C141.88 90.7761 131.618 98.5995 125.085 108.844Z" fill="#7F513B"/>
<path opacity="0.7" d="M176.444 234.668C160.384 234.668 130.087 211.22 122.078 186.226C118.673 175.593 118.779 164.681 118.779 155.174C118.779 137.711 122.932 114.099 133.907 100.461C119.321 114.142 113.995 140.56 113.995 160.364C113.995 169.87 113.888 180.783 117.294 191.417C125.302 216.41 155.6 239.858 171.659 239.858C182.582 239.858 200.255 229.011 212.849 214.209C200.852 226.285 186.041 234.668 176.444 234.668Z" fill="#7F513B"/>
<path d="M127.84 140.33C127.84 140.33 134.424 134.47 140.769 135.915C147.114 137.357 156.978 137.347 159.869 134.128C159.869 134.128 138.376 125.506 127.84 140.33Z" fill="#23181A"/>
<path d="M213.586 140.33C213.586 140.33 207.002 134.47 200.657 135.915C194.311 137.357 184.448 137.347 181.557 134.128C181.557 134.128 203.05 125.506 213.586 140.33Z" fill="#23181A"/>
<path d="M161.386 185.964C161.386 185.964 161.372 185.853 161.343 185.644C161.309 185.435 161.266 185.135 161.31 184.715C161.343 184.302 161.415 183.803 161.625 183.264C161.804 182.713 162.109 182.125 162.515 181.535C162.924 180.948 163.431 180.347 164.063 179.82C164.68 179.274 165.401 178.777 166.203 178.366C167.011 177.976 167.875 177.596 168.802 177.392C169.724 177.143 170.693 177.07 171.658 177.035C172.22 177.068 172.528 177.057 173.065 177.128C173.567 177.186 174.065 177.269 174.516 177.39C175.447 177.59 176.31 177.974 177.117 178.364C177.919 178.775 178.642 179.268 179.258 179.817C179.891 180.344 180.401 180.943 180.807 181.533C181.213 182.125 181.517 182.71 181.697 183.262C181.906 183.798 181.977 184.307 182.009 184.709C182.051 185.115 182.012 185.433 181.976 185.644C181.948 185.853 181.933 185.964 181.933 185.964C181.933 185.964 181.902 185.855 181.843 185.653C181.798 185.451 181.687 185.168 181.533 184.829C181.381 184.491 181.159 184.099 180.857 183.694C180.571 183.284 180.17 182.877 179.734 182.457C179.278 182.052 178.748 181.659 178.161 181.298C177.575 180.926 176.904 180.637 176.218 180.344C175.52 180.078 174.774 179.873 174.007 179.733C173.617 179.644 173.248 179.617 172.882 179.571C172.552 179.516 171.977 179.529 171.662 179.506C170.085 179.523 168.504 179.805 167.105 180.342C166.419 180.634 165.745 180.923 165.162 181.295C164.573 181.658 164.044 182.05 163.588 182.456C163.151 182.874 162.751 183.282 162.464 183.694C162.163 184.095 161.941 184.494 161.792 184.823C161.638 185.15 161.524 185.448 161.482 185.654C161.417 185.855 161.386 185.964 161.386 185.964Z" fill="#6A3F2F"/>
<path d="M148.161 195.893C148.161 195.893 166.576 206.388 195.383 195.893C195.383 195.893 172.639 229.231 148.161 195.893Z" fill="white"/>
<path d="M148.161 195.893C148.445 196.28 148.728 196.649 149.012 197.019C155.487 201.806 171.349 210.247 194.318 197.308C195.22 196.201 195.381 195.893 195.381 195.893C166.576 206.388 148.161 195.893 148.161 195.893Z" fill="#C5D1DD"/>
<path d="M164.979 216.42C164.979 216.42 171.77 219.661 178.561 216.42C178.561 216.42 172.678 226.959 164.979 216.42Z" fill="#7F513B"/>
<path opacity="0.7" d="M161.387 187.248C161.387 187.248 171.368 192.958 181.932 187.248C181.932 187.248 179.293 180.391 171.771 180.611C171.771 180.611 163.462 179.993 161.387 187.248Z" fill="#7F513B"/>
<path d="M154.605 203.238C153.322 201.265 152.268 199.146 151.49 197.368C149.312 196.548 148.162 195.893 148.162 195.893C150.327 198.845 152.48 201.264 154.605 203.238Z" fill="#23181A"/>
<path d="M188.685 203.207C192.895 199.534 195.382 195.893 195.382 195.893C194.385 196.254 193.406 196.588 192.437 196.9C191.511 198.774 190.23 201.095 188.685 203.207Z" fill="#23181A"/>
<path d="M156.336 163.235C156.336 168.235 154.096 172.288 151.334 172.288C148.57 172.288 146.329 168.235 146.329 163.235C146.329 158.233 148.569 154.18 151.334 154.18C154.094 154.18 156.336 158.233 156.336 163.235Z" fill="#23181A"/>
<path d="M196.989 163.235C196.989 168.235 194.749 172.288 191.984 172.288C189.224 172.288 186.982 168.235 186.982 163.235C186.982 158.233 189.222 154.18 191.984 154.18C194.748 154.18 196.989 158.233 196.989 163.235Z" fill="#23181A"/>
<path d="M172.603 82.3379C128.921 82.3379 111.825 115.507 114.579 144.903C116.495 144.817 122.762 142.969 127.841 123.608C127.841 123.608 129.751 108.893 132.307 102.6C132.307 102.6 173.254 123.687 208.237 102.6C208.237 102.6 216.88 116.311 216.88 123.608C216.88 130.734 219.851 155.266 228.893 146.993C232.891 116.911 217.36 82.3379 172.603 82.3379Z" fill="#23181A"/>
</g>
<defs>
<clipPath id="clip0_219_1445">
<rect width="344" height="344" rx="172" fill="white"/>
</clipPath>
</defs>
</svg>
