<svg width="31" height="28" viewBox="0 0 31 28" fill="none" xmlns="http://www.w3.org/2000/svg">
<path d="M29.1474 0.705078H2.13295C1.77472 0.705078 1.43115 0.847386 1.17784 1.1007C0.924534 1.35401 0.782227 1.69757 0.782227 2.0558V14.2123H30.4982V2.0558C30.4982 1.69757 30.3558 1.35401 30.1025 1.1007C29.8492 0.847386 29.5057 0.705078 29.1474 0.705078ZM0.782227 16.9138V20.9659C0.782227 21.3242 0.924534 21.6677 1.17784 21.921C1.43115 22.1744 1.77472 22.3167 2.13295 22.3167H11.588V25.0181H7.53585C7.17761 25.0181 6.83405 25.1604 6.58074 25.4137C6.32743 25.667 6.18512 26.0106 6.18512 26.3688C6.18512 26.7271 6.32743 27.0706 6.58074 27.3239C6.83405 27.5773 7.17761 27.7196 7.53585 27.7196H23.7445C24.1028 27.7196 24.4463 27.5773 24.6996 27.3239C24.9529 27.0706 25.0953 26.7271 25.0953 26.3688C25.0953 26.0106 24.9529 25.667 24.6996 25.4137C24.4463 25.1604 24.1028 25.0181 23.7445 25.0181H19.6924V22.3167H29.1474C29.5057 22.3167 29.8492 22.1744 30.1025 21.921C30.3558 21.6677 30.4982 21.3242 30.4982 20.9659V16.9138H0.782227ZM16.9909 25.0181H14.2895V22.3167H16.9909V25.0181Z" fill="#4A83E7"/>
</svg>
