<svg width="162" height="331" viewBox="0 0 162 331" fill="none" xmlns="http://www.w3.org/2000/svg">
<path d="M56.83 33.5117C56.83 33.5117 40.83 23.0116 56.83 6.51165C72.83 -9.98835 117.09 7.01165 97.96 33.5117H56.83Z" fill="#401C1A"/>
<path d="M152.131 330.793C154.282 295.037 156.644 253.148 156.644 253.148L136.651 270.121C137.033 276.537 137.895 304.685 138.649 330.793H152.131Z" fill="#EFAC85"/>
<path d="M142.879 330.793L143.792 296.207C147.299 295.904 151.044 294.248 154.403 292.256C155.1 280.256 155.708 269.629 156.114 262.496L139.43 267.762L136.652 270.121C137.034 276.537 137.896 304.685 138.65 330.793H142.879Z" fill="#CF875E"/>
<path d="M132.946 198.313C132.946 198.313 146.843 202.956 152.51 214.622C158.177 226.288 161.7 270.911 161.7 270.911C161.7 270.911 157.177 287.956 128.843 281.288C128.843 281.288 108.715 199.338 132.946 198.313Z" fill="#507C8F"/>
<path d="M128.844 281.287C128.844 281.287 114.121 221.336 125.027 203.349C126.076 203.421 127.177 203.611 128.344 203.954C157.563 212.548 141.497 267.298 136.4 282.526C134.046 282.32 131.531 281.92 128.844 281.287Z" fill="#6091A8"/>
<path d="M22.94 330.793C23.694 304.686 24.555 276.537 24.938 270.121L4.94501 253.148C4.94501 253.148 7.30699 295.037 9.45799 330.793H22.94Z" fill="#EFAC85"/>
<path d="M17.797 296.207L18.71 330.793H22.94C23.694 304.686 24.555 276.537 24.938 270.121L22.16 267.762L5.476 262.496C5.882 269.629 6.49 280.256 7.187 292.256C10.545 294.248 14.29 295.904 17.797 296.207Z" fill="#CF875E"/>
<path d="M28.754 198.313C28.754 198.313 14.857 202.956 9.19 214.622C3.523 226.288 0 270.911 0 270.911C0 270.911 4.523 287.956 32.856 281.288C32.856 281.288 52.985 199.338 28.754 198.313Z" fill="#507C8F"/>
<path d="M32.856 281.287C32.856 281.287 47.579 221.336 36.673 203.349C35.624 203.421 34.524 203.611 33.356 203.954C4.13701 212.548 20.203 267.298 25.3 282.526C27.654 282.32 30.169 281.92 32.856 281.287Z" fill="#6091A8"/>
<path d="M122.266 330.793C127.541 281.414 135.262 206.072 134.049 198.955C134.049 198.955 102.579 185.619 97.123 182.287L81.035 185.537L64.947 182.287C59.491 185.619 28.022 198.955 28.022 198.955C26.809 206.072 34.53 281.414 39.805 330.793H122.266Z" fill="#507C8F"/>
<path d="M94.019 152.955L81.471 158.205L68.922 152.955C68.922 152.955 67.933 177.955 64.982 183.705C64.982 183.705 73.313 195.705 81.471 196.205C89.628 195.705 97.959 183.705 97.959 183.705C95.009 177.955 94.019 152.955 94.019 152.955Z" fill="#DB9874"/>
<path d="M67.963 167.223C70.899 170.428 80.02 178.463 96.039 176.086C94.561 166.637 94.019 152.955 94.019 152.955L81.471 158.205L68.922 152.955C68.922 152.955 68.649 159.846 67.963 167.223Z" fill="#9D5F42"/>
<path d="M38.98 110.539C40.091 117.271 37.661 123.277 33.548 123.957C29.437 124.635 25.203 119.731 24.092 112.996C22.981 106.266 25.413 100.258 29.524 99.5777C33.636 98.8997 37.869 103.807 38.98 110.539Z" fill="#D4885F"/>
<path d="M26.544 109.438C26.544 109.438 26.746 111.348 27.81 111.499C27.81 111.499 26.781 107.634 30.251 106.483C30.251 106.483 27.996 108.049 28.92 113.799C28.92 113.799 28.767 111.028 32.134 109.912C32.134 109.912 27.36 114.726 32.022 117.197C32.022 117.197 32.131 120.183 29.19 118.265C29.19 118.265 33.798 123.839 34.229 116.302C34.229 116.302 29.035 115.343 33.269 112.978L34.568 112.347C34.568 112.347 34.9 103.826 30.071 104.458C25.241 105.092 27.144 111.799 26.544 109.438Z" fill="#B0654F"/>
<path d="M26.631 110.551C26.468 109.811 26.443 109.036 26.557 108.277C26.607 107.896 26.7 107.518 26.837 107.155C26.968 106.791 27.139 106.432 27.369 106.114C27.474 105.946 27.597 105.792 27.737 105.653C27.871 105.508 28 105.356 28.161 105.242C28.457 104.975 28.798 104.778 29.142 104.584C29.503 104.427 29.852 104.251 30.246 104.155C30.618 104.054 31.082 104.007 31.487 104.098C32.346 104.251 33.012 104.887 33.433 105.553C33.874 106.227 34.153 106.965 34.379 107.707C34.6 108.451 34.755 109.207 34.872 109.967C34.93 110.346 34.978 110.727 35.017 111.11C35.058 111.485 35.08 111.887 35.097 112.243L35.11 112.508L34.875 112.599C34.33 112.811 33.777 113.07 33.27 113.364C32.774 113.656 32.254 114.012 32.023 114.428C31.911 114.637 31.914 114.789 32.036 114.967C32.158 115.145 32.391 115.303 32.633 115.438C33.139 115.696 33.717 115.868 34.293 116.03L34.527 116.096L34.509 116.315C34.444 117.112 34.304 117.878 34.03 118.63C33.89 119.003 33.713 119.37 33.452 119.696C33.194 120.019 32.809 120.288 32.374 120.346C32.158 120.379 31.945 120.351 31.742 120.307C31.544 120.249 31.353 120.179 31.178 120.083C30.826 119.895 30.509 119.662 30.222 119.402C29.64 118.888 29.145 118.298 28.684 117.687C29.207 118.245 29.748 118.789 30.346 119.25C30.643 119.483 30.964 119.682 31.298 119.83C31.63 119.978 31.992 120.059 32.318 119.991C32.988 119.867 33.379 119.158 33.593 118.476C33.814 117.781 33.917 117.023 33.944 116.294L34.16 116.579C33.55 116.442 32.943 116.27 32.35 115.98C32.059 115.82 31.757 115.645 31.52 115.322C31.396 115.171 31.323 114.947 31.306 114.729C31.307 114.511 31.358 114.295 31.453 114.131C31.832 113.467 32.394 113.131 32.928 112.789C33.476 112.461 34.033 112.189 34.627 111.949L34.405 112.304L34.32 111.175C34.288 110.803 34.246 110.433 34.196 110.064C34.093 109.328 33.954 108.597 33.755 107.887C33.552 107.182 33.297 106.486 32.916 105.886C32.543 105.284 32.017 104.796 31.372 104.642C31.039 104.56 30.726 104.57 30.367 104.646C30.022 104.713 29.679 104.867 29.344 104.994C29.022 105.158 28.699 105.324 28.42 105.557C28.266 105.655 28.144 105.787 28.015 105.914C27.88 106.036 27.761 106.172 27.658 106.322C27.428 106.602 27.242 106.922 27.094 107.258C26.94 107.592 26.824 107.947 26.748 108.311C26.59 109.038 26.548 109.799 26.631 110.551Z" fill="#9F5B3D"/>
<path d="M28.721 112.871C28.721 112.871 28.594 112.273 28.557 111.355C28.539 110.896 28.547 110.358 28.623 109.783C28.689 109.207 28.848 108.599 29.094 108.013C29.235 107.732 29.381 107.441 29.572 107.188C29.775 106.943 29.961 106.682 30.217 106.505C30.337 106.407 30.455 106.312 30.571 106.218C30.702 106.15 30.831 106.083 30.956 106.017C31.083 105.953 31.206 105.89 31.326 105.829C31.453 105.793 31.576 105.758 31.694 105.724C31.93 105.666 32.149 105.579 32.344 105.564C32.54 105.546 32.712 105.531 32.853 105.517C33.137 105.492 33.299 105.478 33.299 105.478L33.275 106.314C33.275 106.314 33.133 106.316 32.886 106.318C32.762 106.318 32.61 106.318 32.437 106.318C32.262 106.315 32.081 106.379 31.872 106.408C31.768 106.428 31.66 106.447 31.548 106.469C31.444 106.512 31.338 106.556 31.228 106.602C31.117 106.647 31.002 106.694 30.885 106.741C30.781 106.812 30.676 106.885 30.568 106.958C30.334 107.087 30.16 107.301 29.961 107.498C29.774 107.705 29.622 107.954 29.47 108.2C29.2 108.716 28.996 109.278 28.885 109.829C28.763 110.377 28.71 110.904 28.689 111.357C28.646 112.264 28.721 112.871 28.721 112.871Z" fill="#9F5B3D"/>
<path d="M123.092 110.539C121.981 117.271 124.412 123.277 128.524 123.957C132.635 124.635 136.869 119.731 137.979 112.996C139.091 106.266 136.658 100.258 132.548 99.5777C128.437 98.8997 124.204 103.807 123.092 110.539Z" fill="#D4885F"/>
<path d="M135.528 109.438C135.528 109.438 135.326 111.348 134.262 111.499C134.262 111.499 135.29 107.634 131.821 106.483C131.821 106.483 134.076 108.049 133.153 113.799C133.153 113.799 133.306 111.028 129.939 109.912C129.939 109.912 134.712 114.726 130.051 117.197C130.051 117.197 129.942 120.183 132.883 118.265C132.883 118.265 128.275 123.839 127.845 116.302C127.845 116.302 133.038 115.343 128.804 112.978L127.505 112.347C127.505 112.347 127.173 103.826 132.002 104.458C136.832 105.092 134.929 111.799 135.528 109.438Z" fill="#B0654F"/>
<path d="M135.442 110.551C135.525 109.799 135.484 109.038 135.325 108.311C135.251 107.948 135.134 107.592 134.979 107.258C134.831 106.923 134.645 106.603 134.415 106.322C134.312 106.172 134.193 106.036 134.058 105.914C133.93 105.787 133.807 105.654 133.654 105.557C133.375 105.325 133.052 105.159 132.73 104.994C132.394 104.867 132.052 104.714 131.706 104.646C131.347 104.57 131.035 104.56 130.701 104.642C130.056 104.796 129.529 105.285 129.157 105.886C128.775 106.486 128.52 107.182 128.318 107.887C128.118 108.597 127.98 109.327 127.877 110.064C127.827 110.433 127.786 110.803 127.752 111.175L127.667 112.304L127.445 111.949C128.038 112.189 128.595 112.461 129.143 112.789C129.677 113.131 130.239 113.467 130.618 114.131C130.712 114.295 130.764 114.511 130.765 114.729C130.747 114.946 130.675 115.169 130.551 115.322C130.314 115.645 130.012 115.82 129.721 115.98C129.129 116.27 128.522 116.442 127.911 116.579L128.127 116.294C128.153 117.022 128.256 117.78 128.477 118.476C128.692 119.158 129.082 119.867 129.753 119.991C130.078 120.058 130.441 119.978 130.773 119.83C131.107 119.682 131.428 119.482 131.725 119.25C132.323 118.789 132.863 118.245 133.387 117.687C132.926 118.297 132.431 118.888 131.849 119.402C131.561 119.662 131.244 119.894 130.893 120.082C130.717 120.179 130.527 120.249 130.329 120.307C130.126 120.351 129.913 120.379 129.697 120.346C129.261 120.287 128.876 120.019 128.619 119.696C128.358 119.37 128.181 119.003 128.041 118.63C127.767 117.878 127.627 117.112 127.562 116.315L127.544 116.096L127.778 116.03C128.354 115.868 128.932 115.696 129.438 115.438C129.68 115.303 129.913 115.145 130.035 114.967C130.158 114.789 130.16 114.637 130.049 114.428C129.817 114.012 129.297 113.657 128.801 113.364C128.293 113.07 127.741 112.811 127.196 112.599L126.961 112.508L126.974 112.243C126.991 111.888 127.012 111.485 127.054 111.11C127.093 110.727 127.142 110.346 127.199 109.967C127.316 109.207 127.471 108.451 127.692 107.707C127.918 106.965 128.196 106.227 128.638 105.553C129.059 104.887 129.725 104.251 130.583 104.098C130.989 104.007 131.452 104.054 131.825 104.155C132.218 104.251 132.567 104.426 132.928 104.584C133.273 104.778 133.614 104.976 133.909 105.242C134.071 105.357 134.2 105.509 134.334 105.653C134.475 105.792 134.597 105.946 134.702 106.114C134.932 106.432 135.103 106.791 135.234 107.155C135.371 107.518 135.464 107.896 135.514 108.277C135.63 109.036 135.604 109.811 135.442 110.551Z" fill="#9F5B3D"/>
<path d="M133.352 112.871C133.352 112.871 133.427 112.264 133.385 111.355C133.364 110.903 133.311 110.375 133.189 109.828C133.078 109.277 132.875 108.715 132.604 108.199C132.453 107.953 132.3 107.704 132.113 107.497C131.914 107.3 131.74 107.086 131.506 106.957C131.398 106.884 131.292 106.811 131.189 106.74C131.072 106.693 130.958 106.646 130.846 106.601C130.736 106.555 130.629 106.511 130.526 106.468C130.414 106.447 130.306 106.427 130.202 106.407C129.993 106.378 129.812 106.314 129.637 106.317C129.464 106.317 129.312 106.317 129.188 106.317C128.941 106.315 128.799 106.313 128.799 106.313L128.775 105.477C128.775 105.477 128.937 105.491 129.221 105.516C129.362 105.53 129.534 105.545 129.73 105.563C129.926 105.579 130.144 105.665 130.381 105.723C130.499 105.757 130.622 105.792 130.749 105.828C130.868 105.889 130.992 105.951 131.119 106.016C131.244 106.082 131.373 106.149 131.505 106.217C131.621 106.311 131.739 106.406 131.859 106.504C132.115 106.681 132.3 106.942 132.504 107.187C132.695 107.44 132.841 107.731 132.982 108.012C133.228 108.598 133.387 109.205 133.453 109.782C133.53 110.357 133.537 110.895 133.519 111.354C133.478 112.274 133.352 112.871 133.352 112.871Z" fill="#9F5B3D"/>
<path d="M125.964 105.633C125.964 113.59 124.943 122.766 122.197 131.649C116.04 151.563 93.684 170.014 81.471 170.014C69.08 170.014 46.518 151.024 40.481 130.782C37.913 122.171 36.978 113.333 36.978 105.634C36.978 79.8407 41.52 46.0846 81.471 46.0846C121.421 46.0836 125.964 79.8396 125.964 105.633Z" fill="#EFAC85"/>
<path d="M84.01 162.748C71.619 162.748 49.057 143.756 43.02 123.514C40.452 114.903 39.517 106.065 39.517 98.3676C39.517 89.0976 40.115 78.8066 42.72 69.4166C37.931 80.5206 36.978 93.8967 36.978 105.634C36.978 113.333 37.913 122.171 40.481 130.782C46.518 151.024 69.08 170.014 81.471 170.014C93.684 170.014 116.04 151.563 122.197 131.649C122.433 130.887 122.638 130.122 122.849 129.356C114.887 147.262 95.198 162.748 84.01 162.748Z" fill="#CF875E"/>
<path d="M67.063 136.281C67.063 136.281 77.376 133.097 95.501 135.972C95.501 135.972 82.235 162.348 67.063 136.281Z" fill="#E74F78"/>
<path d="M127.32 95.0347C127.32 95.0347 113.952 68.1886 122.502 70.2126C119.452 63.1446 114.816 56.9546 107.845 52.6106C98.186 51.1046 84.677 49.0346 70.8 46.9156C55.559 49.4466 45.834 55.2086 40.7 65.5116C53.551 73.9236 101.984 61.0117 127.32 95.0347Z" fill="#CF875E"/>
<path d="M45.982 89.4096C45.982 89.4096 51.315 84.6616 56.454 85.8316C61.592 87.0016 69.582 86.9916 71.924 84.3866C71.924 84.3866 54.517 77.4036 45.982 89.4096Z" fill="#612F28"/>
<path d="M115.427 89.4096C115.427 89.4096 110.094 84.6616 104.955 85.8316C99.817 87.0016 91.827 86.9916 89.485 84.3866C89.485 84.3866 106.892 77.4036 115.427 89.4096Z" fill="#612F28"/>
<path d="M75.296 125.961C75.319 125.955 75.209 125.708 75.25 125.211C75.27 124.963 75.313 124.662 75.439 124.338C75.547 124.006 75.729 123.654 75.974 123.299C76.219 122.945 76.524 122.585 76.904 122.268C77.275 121.94 77.709 121.642 78.191 121.395C78.677 121.161 79.194 120.928 79.755 120.812C80.309 120.669 80.891 120.62 81.471 120.594C81.809 120.616 81.993 120.612 82.316 120.657C82.618 120.696 82.916 120.739 83.188 120.811C83.749 120.924 84.267 121.16 84.752 121.393C85.234 121.641 85.668 121.937 86.039 122.266C86.419 122.584 86.725 122.944 86.97 123.297C87.215 123.652 87.397 124.006 87.505 124.338C87.63 124.66 87.674 124.965 87.693 125.207C87.734 125.697 87.624 125.963 87.647 125.961C87.632 125.965 87.604 125.686 87.406 125.279C87.314 125.075 87.181 124.84 87 124.597C86.828 124.349 86.587 124.105 86.325 123.853C86.051 123.609 85.733 123.373 85.379 123.155C85.028 122.932 84.624 122.758 84.212 122.582C83.791 122.42 83.342 122.302 82.883 122.211C82.65 122.156 82.427 122.135 82.207 122.111C82.008 122.08 81.662 122.09 81.473 122.078C80.523 122.072 79.575 122.264 78.734 122.58C78.322 122.757 77.917 122.93 77.566 123.154C77.212 123.373 76.893 123.607 76.62 123.851C76.357 124.103 76.116 124.349 75.944 124.596C75.763 124.837 75.63 125.077 75.539 125.275C75.339 125.675 75.311 125.973 75.296 125.961Z" fill="#B46741"/>
<path d="M76.062 151.031C76.062 151.031 81.562 153.656 87.062 151.031C87.062 151.031 82.297 159.566 76.062 151.031Z" fill="#B3724F"/>
<path d="M75.296 126.732C75.296 126.732 81.296 130.166 87.645 126.732C87.645 126.732 86.059 122.611 81.538 122.744C81.538 122.744 76.544 122.373 75.296 126.732Z" fill="#CF875E"/>
<path d="M69.061 107.959C69.061 112.008 67.247 115.291 65.009 115.291C62.772 115.291 60.958 112.008 60.958 107.959C60.958 103.908 62.771 100.625 65.009 100.625C67.247 100.625 69.061 103.908 69.061 107.959Z" fill="#23181A"/>
<path d="M101.984 107.959C101.984 112.008 100.17 115.291 97.933 115.291C95.696 115.291 93.881 112.008 93.881 107.959C93.881 103.908 95.695 100.625 97.933 100.625C100.17 100.625 101.984 103.908 101.984 107.959Z" fill="#23181A"/>
<path d="M68.417 136.281C68.417 136.281 78.67 142.123 94.707 136.281C94.707 136.281 82.044 154.842 68.417 136.281Z" fill="white"/>
<path d="M68.417 136.281C68.576 136.496 68.734 136.703 68.892 136.908C72.497 139.574 81.328 144.271 94.115 137.068C94.618 136.453 94.707 136.281 94.707 136.281C78.67 142.123 68.417 136.281 68.417 136.281Z" fill="#C5D1DD"/>
<path d="M72.005 140.371C71.291 139.271 70.704 138.094 70.27 137.103C69.058 136.646 68.417 136.281 68.417 136.281C69.623 137.924 70.822 139.272 72.005 140.371Z" fill="#23181A"/>
<path d="M90.978 140.354C93.323 138.309 94.707 136.281 94.707 136.281C94.153 136.482 93.607 136.669 93.067 136.843C92.551 137.885 91.838 139.178 90.978 140.354Z" fill="#23181A"/>
<path d="M122.266 330.793C123.987 314.686 125.967 295.824 127.814 277.459C85.989 294.674 52.252 286.092 34.354 278.41C36.173 296.476 38.115 314.964 39.806 330.793H122.266Z" fill="#6091A8"/>
<path d="M36.978 108.049C36.978 108.049 11.169 60.5116 39.249 36.0116C39.249 36.0116 46.049 29.0116 62.438 30.0116C62.438 30.0116 153.83 11.5116 125.964 105.633C125.964 105.633 127.319 64.5116 92.841 64.0116C92.841 64.0116 74.574 70.5116 58.951 64.0116C43.33 57.5116 36.626 76.0856 36.978 108.049Z" fill="#612F28"/>
<path d="M121.003 183.805C121.003 183.805 113.8 172.99 104.374 158.051C100.843 161.264 97.153 163.985 93.6 166.012C94.624 175.162 96.917 185.084 101.984 188.842C112.33 196.512 118.513 230.461 102.672 247.987C102.672 247.987 145.029 238.641 121.003 183.805Z" fill="#612F28"/>
<path d="M125.395 99.6796C124.514 99.0746 121.973 98.5346 120.501 98.2616C119.284 96.3236 115.795 95.8087 115.795 95.8087C111.295 94.3087 95.295 94.5587 90.917 95.8087C87.497 96.7857 85.994 98.9766 85.498 99.8906C82.319 98.6016 79.214 99.2906 77.526 99.8826C76.722 98.8396 75.244 97.4586 72.723 96.7376C68.346 95.4876 52.346 95.2376 47.846 96.7376C47.846 96.7376 45.68 97.0596 44.165 98.1436C42.98 98.3466 39.645 98.9676 38.608 99.6786C37.339 100.552 38.587 104.427 38.587 104.427L42.775 105.722C43.028 111.222 44.198 119.107 49.222 121.952C49.222 121.952 54.141 125.159 64.673 123.987C75.93 122.735 78.347 105.487 78.347 105.487V104.989C81.556 102.913 84.077 104.272 85.46 105.499C86.153 109.103 89.297 121.981 98.97 123.058C109.502 124.228 114.421 121.021 114.421 121.021C119.129 118.355 120.452 111.261 120.809 105.853L125.417 104.427C125.417 104.427 126.664 100.553 125.395 99.6796ZM75.662 106.164C75.662 106.164 73.609 120.814 64.048 121.877C55.102 122.871 50.924 120.148 50.924 120.148C44.872 116.72 45.403 104.677 45.403 102.023C45.403 99.3686 49.756 98.7316 49.756 98.7316C53.578 97.4586 67.168 97.6706 70.886 98.7316C74.604 99.7946 75.661 102.554 75.661 102.554V106.164H75.662ZM112.717 119.219C112.717 119.219 108.539 121.942 99.593 120.948C90.032 119.885 87.979 105.235 87.979 105.235V101.626C87.979 101.626 89.037 98.8636 92.754 97.8036C96.472 96.7407 110.062 96.5307 113.884 97.8036C113.884 97.8036 118.237 98.4407 118.237 101.095C118.238 103.748 118.769 115.789 112.717 119.219Z" fill="#EE2738"/>
<path d="M36.259 38.9336C31.803 43.7816 29.086 49.3226 27.611 55.1136C61.038 57.3596 78.701 44.6326 78.701 44.6326C59.421 44.9546 45.335 41.9156 36.259 38.9336Z" fill="#7D4640"/>
<path d="M121.413 43.6736C112.755 45.7326 101.335 47.3376 87.061 47.0976C87.061 47.0976 101.542 57.5236 129.081 57.8356C127.362 52.0916 124.704 47.4336 121.413 43.6736Z" fill="#7D4640"/>
</svg>
