<svg width="40" height="47" viewBox="0 0 40 47" fill="none" xmlns="http://www.w3.org/2000/svg">
<path d="M19.08 11.5916C18.5904 8.92234 19.8525 6.17536 21.3725 4.32413C23.0476 2.28153 25.9223 0.715109 28.379 0.542969C28.794 3.34151 27.6519 6.06818 26.1486 7.99686C24.5359 10.0688 21.7631 11.6756 19.08 11.5916ZM33.4901 21.2637C34.2502 19.1429 35.7562 17.2347 38.0925 15.9472C35.7316 13.0011 32.4168 11.2906 29.2887 11.2906C25.15 11.2906 23.4002 13.2624 20.5255 13.2624C17.5643 13.2624 15.3177 11.2906 11.7329 11.2906C8.21755 11.2906 4.47565 13.4332 2.10252 17.0925C1.22995 18.4451 0.638871 20.1254 0.316512 21.997C-0.577973 27.2474 0.758184 34.0861 4.74392 40.1584C6.68185 43.1049 9.26495 46.4238 12.6395 46.4528C15.6456 46.4821 16.4984 44.5308 20.5678 44.5107C24.6433 44.4875 25.4157 46.473 28.4177 46.4443C31.7932 46.4158 34.5186 42.7428 36.4565 39.7967C37.8364 37.6825 38.3582 36.6146 39.4312 34.2243C33.9753 32.1668 31.7314 26.1548 33.4901 21.2637Z" fill="white"/>
</svg>
