<svg width="181" height="328" viewBox="0 0 181 328" fill="none" xmlns="http://www.w3.org/2000/svg">
<path d="M160.815 74.252C160.815 108.541 129.645 136.338 91.1942 136.338C52.7432 136.338 21.5732 108.541 21.5732 74.252C21.5732 39.965 38.6732 0 92.0872 0C149.077 0 160.815 39.965 160.815 74.252Z" fill="#23181A"/>
<path d="M92.0858 6.81698C146.649 6.81698 159.731 43.45 160.746 76.663C160.779 75.862 160.814 75.061 160.814 74.253C160.814 39.966 149.076 0.000976562 92.0848 0.000976562C38.6708 0.000976562 21.5708 39.966 21.5708 74.253C21.5708 75.204 21.6038 76.148 21.6508 77.087C22.9478 43.762 40.7288 6.81698 92.0858 6.81698Z" fill="#46332F"/>
<path d="M174.567 327.418C177.221 283.256 180.122 231.828 180.122 231.828L155.355 252.851C155.826 260.751 156.882 295.244 157.812 327.417H174.567V327.418Z" fill="#9D6D54"/>
<path opacity="0.7" d="M163.084 327.418L164.199 285.166C168.543 284.791 173.183 282.74 177.344 280.273C178.207 265.406 178.961 252.242 179.465 243.406L158.795 249.929L155.354 252.851C155.825 260.751 156.881 295.244 157.811 327.417H163.084V327.418Z" fill="#7F513B"/>
<path d="M177.69 327.418C179.743 280.842 181.893 215.752 178.295 208.348C172.629 196.682 156.246 189.604 156.246 189.604C139.883 190.297 144.258 273.473 148.824 327.418H177.69Z" fill="#6091A8"/>
<path opacity="0.6" d="M163.604 327.418C166.493 278.936 167.491 214.027 152.848 207.014C150.826 206.047 148.893 205.922 147.043 206.473C142.297 233.709 145.51 288.262 148.824 327.418H163.604Z" fill="#507C8F"/>
<path d="M22.311 327.418C23.241 295.244 24.297 260.752 24.768 252.852L0 231.829C0 231.829 2.9 283.257 5.555 327.419H22.311V327.418Z" fill="#9D6D54"/>
<path opacity="0.7" d="M15.9222 285.166L17.0372 327.418H22.3102C23.2402 295.244 24.2962 260.752 24.7672 252.852L21.3262 249.93L0.658203 243.407C1.1602 252.243 1.91421 265.407 2.77721 280.274C6.93821 282.741 11.5782 284.791 15.9222 285.166Z" fill="#7F513B"/>
<path d="M31.321 327.418C35.917 273.508 40.446 189.311 23.983 188.615C23.983 188.615 7.59999 195.691 1.93199 207.357C-1.68901 214.814 0.517996 280.779 2.582 327.417H31.321V327.418Z" fill="#6091A8"/>
<path opacity="0.6" d="M31.3212 327.418C34.6632 288.197 37.9712 232.949 33.1862 205.484C31.3362 204.933 29.4032 205.056 27.3812 206.025C12.6392 213.084 13.7502 278.834 16.6822 327.418H31.3212Z" fill="#507C8F"/>
<path d="M142.014 327.418C148.762 278.445 159.637 196.613 158.012 189.184C158.012 189.184 117.635 175.846 110.635 172.514L89.9938 175.766L69.3509 172.514C62.3509 175.846 21.9759 189.184 21.9759 189.184C20.3509 196.614 31.2238 278.446 37.9718 327.418H142.014Z" fill="#6091A8"/>
<path opacity="0.6" d="M142.014 327.418C142.84 321.432 143.727 314.951 144.645 308.178C71.3458 328.022 31.9688 282.928 31.9648 282.924C34.0508 298.742 36.1598 314.264 37.9728 327.418H142.014Z" fill="#507C8F"/>
<path d="M79.3518 327.418H106.905C107.214 280.402 108.624 207.358 114.171 173.988C112.64 173.392 111.425 172.888 110.636 172.513L89.9948 175.765L69.3518 172.513C68.4948 172.921 67.1308 173.482 65.4028 174.15L66.6798 173.931C66.6798 173.931 77.4048 252.994 79.3518 327.418Z" fill="#F6F7D3"/>
<path d="M108.504 143.182L90.4302 148.432L72.3562 143.182C72.3562 143.182 70.9302 168.182 66.6802 173.932C66.6802 173.932 78.6802 185.932 90.4302 186.432C102.18 185.932 114.18 173.932 114.18 173.932C109.93 168.182 108.504 143.182 108.504 143.182Z" fill="#8E5F48"/>
<path d="M70.9731 157.449C75.2021 160.656 88.3401 168.689 111.414 166.312C109.285 156.865 108.504 143.181 108.504 143.181L90.4301 148.431L72.3561 143.181C72.3561 143.181 71.9611 150.072 70.9731 157.449Z" fill="#784A35"/>
<path d="M131.034 96.3242C130.429 104.451 133.96 111.34 138.923 111.711C143.888 112.08 148.403 105.793 149.009 97.6662C149.614 89.5392 146.081 82.6502 141.118 82.2772C136.153 81.9082 131.639 88.1972 131.034 96.3242Z" fill="#9D6D54"/>
<path opacity="0.7" d="M145.713 93.6918C145.713 93.6918 145.674 95.9868 144.424 96.2778C144.424 96.2778 145.237 91.5708 140.986 90.5708C140.986 90.5708 143.836 92.1958 143.349 99.1338C143.349 99.1338 143.236 95.8208 139.111 94.8528C139.111 94.8528 145.302 100.072 140.019 103.509C140.019 103.509 140.207 107.072 143.503 104.478C143.503 104.478 138.612 111.599 137.3 102.679C137.3 102.679 143.376 100.986 138.087 98.6218L136.476 98.0088C136.476 98.0088 135.173 87.9048 140.986 88.1438C146.799 88.3828 145.25 96.5648 145.713 93.6918Z" fill="#7F513B"/>
<path d="M145.727 95.024C145.746 94.121 145.616 93.219 145.35 92.372C145.223 91.946 145.047 91.536 144.828 91.155C144.616 90.772 144.36 90.412 144.056 90.103C143.918 89.935 143.762 89.786 143.588 89.656C143.421 89.518 143.261 89.373 143.068 89.272C142.712 89.026 142.309 88.864 141.909 88.702C141.496 88.587 141.072 88.442 140.653 88.399C140.218 88.346 139.846 88.367 139.458 88.501C138.706 88.752 138.132 89.389 137.753 90.146C137.363 90.9 137.134 91.754 136.968 92.615C136.806 93.48 136.718 94.365 136.675 95.253C136.655 95.697 136.644 96.143 136.646 96.587L136.664 97.94L136.363 97.542C137.093 97.765 137.785 98.028 138.472 98.36C138.814 98.526 139.151 98.711 139.476 98.933C139.798 99.159 140.121 99.415 140.371 99.801C140.5 99.985 140.584 100.237 140.609 100.494C140.611 100.756 140.548 101.029 140.418 101.223C140.17 101.633 139.829 101.873 139.5 102.095C138.827 102.503 138.123 102.774 137.411 103L137.638 102.637C137.746 103.502 137.949 104.393 138.287 105.198C138.457 105.598 138.668 105.983 138.943 106.297C139.085 106.446 139.235 106.588 139.41 106.682C139.578 106.79 139.771 106.837 139.966 106.863C140.163 106.882 140.366 106.857 140.57 106.81C140.77 106.746 140.97 106.669 141.162 106.561C141.543 106.349 141.903 106.078 142.232 105.77C142.894 105.158 143.479 104.453 144.043 103.734C143.559 104.509 143.033 105.265 142.396 105.937C142.082 106.277 141.73 106.588 141.332 106.849C141.133 106.982 140.914 107.086 140.684 107.177C140.448 107.25 140.198 107.307 139.937 107.291C139.68 107.272 139.416 107.214 139.192 107.087C138.959 106.972 138.764 106.806 138.585 106.632C138.241 106.273 137.991 105.855 137.784 105.426C137.378 104.56 137.131 103.663 136.969 102.724L136.925 102.464L137.196 102.36C137.864 102.106 138.533 101.84 139.108 101.479C139.381 101.293 139.642 101.079 139.768 100.854C139.846 100.743 139.846 100.639 139.855 100.538C139.834 100.436 139.813 100.325 139.727 100.212C139.407 99.742 138.75 99.374 138.129 99.079C137.493 98.782 136.809 98.534 136.138 98.339L135.849 98.256L135.836 97.941C135.818 97.517 135.801 97.035 135.811 96.584C135.817 96.126 135.834 95.668 135.862 95.209C135.921 94.293 136.024 93.377 136.208 92.469C136.398 91.563 136.651 90.655 137.104 89.806C137.333 89.386 137.599 88.971 137.964 88.625C138.32 88.275 138.776 88.008 139.263 87.867C139.737 87.716 140.293 87.722 140.746 87.803C141.224 87.875 141.658 88.047 142.103 88.196C142.535 88.39 142.96 88.589 143.341 88.874C143.545 88.994 143.716 89.16 143.89 89.318C144.072 89.469 144.235 89.638 144.377 89.827C144.53 90.005 144.674 90.19 144.787 90.396C144.911 90.594 145.033 90.792 145.121 91.008C145.323 91.426 145.474 91.865 145.573 92.314C145.789 93.201 145.841 94.125 145.727 95.024Z" fill="#76402B"/>
<path d="M143.487 98.0082C143.487 98.0082 143.51 97.2772 143.366 96.2012C143.292 95.6662 143.173 95.0442 142.97 94.4042C142.868 94.0852 142.757 93.7582 142.603 93.4452C142.478 93.1192 142.276 92.8302 142.101 92.5292C141.895 92.2522 141.687 91.9722 141.443 91.7462C141.185 91.5312 140.955 91.2972 140.664 91.1682C140.527 91.0922 140.394 91.0172 140.264 90.9432C140.119 90.8992 139.979 90.8562 139.84 90.8142C139.705 90.7712 139.572 90.7302 139.445 90.6902C139.31 90.6772 139.178 90.6662 139.052 90.6542C138.8 90.6402 138.578 90.5842 138.37 90.6072C138.163 90.6252 137.983 90.6402 137.835 90.6542C137.541 90.6772 137.372 90.6912 137.372 90.6912L137.255 89.6992C137.255 89.6992 137.448 89.6992 137.79 89.6982C137.958 89.6992 138.164 89.6992 138.399 89.7002C138.633 89.6972 138.903 89.7772 139.191 89.8222C139.335 89.8492 139.485 89.8782 139.639 89.9072C139.787 89.9672 139.942 90.0282 140.1 90.0922C140.255 90.1562 140.416 90.2232 140.579 90.2892C140.726 90.3892 140.878 90.4902 141.031 90.5942C141.354 90.7772 141.602 91.0682 141.871 91.3372C142.125 91.6172 142.33 91.9472 142.527 92.2682C142.689 92.6102 142.876 92.9402 142.978 93.2932C143.112 93.6372 143.198 93.9852 143.274 94.3242C143.426 95.0002 143.493 95.6392 143.52 96.1872C143.574 97.2832 143.487 98.0082 143.487 98.0082Z" fill="#76402B"/>
<path d="M50.0082 96.3242C50.6132 104.451 47.0822 111.34 42.1172 111.711C37.1542 112.08 32.6382 105.793 32.0332 97.6662C31.4262 89.5392 34.9592 82.6502 39.9222 82.2772C44.8872 81.9082 49.4032 88.1972 50.0082 96.3242Z" fill="#9D6D54"/>
<path opacity="0.7" d="M35.3281 93.6918C35.3281 93.6918 35.3651 95.9868 36.6151 96.2778C36.6151 96.2778 35.8021 91.5708 40.0531 90.5708C40.0531 90.5708 37.2031 92.1958 37.6921 99.1338C37.6921 99.1338 37.8031 95.8208 41.9281 94.8528C41.9281 94.8528 35.7371 100.072 41.0201 103.509C41.0201 103.509 40.8321 107.072 37.5381 104.478C37.5381 104.478 42.4271 111.599 43.7411 102.679C43.7411 102.679 37.6631 100.986 42.9521 98.6218L44.5651 98.0088C44.5651 98.0088 45.8661 87.9048 40.0531 88.1438C34.2411 88.3828 35.7911 96.5648 35.3281 93.6918Z" fill="#7F513B"/>
<path d="M35.3154 95.0241C35.2014 94.1261 35.2524 93.2021 35.4684 92.3101C35.5684 91.8621 35.7194 91.4221 35.9204 91.0041C36.0084 90.7881 36.1314 90.5901 36.2544 90.3921C36.3674 90.1861 36.5114 90.0001 36.6644 89.8231C36.8074 89.6341 36.9694 89.4651 37.1524 89.3141C37.3264 89.1551 37.4964 88.9901 37.7004 88.8701C38.0804 88.5851 38.5084 88.3861 38.9384 88.1921C39.3844 88.0441 39.8184 87.8721 40.2964 87.7991C40.7494 87.7191 41.3064 87.7121 41.7784 87.8631C42.2664 88.0041 42.7204 88.2711 43.0774 88.6211C43.4424 88.9671 43.7094 89.3821 43.9384 89.8021C44.3914 90.6511 44.6444 91.5591 44.8344 92.4651C45.0184 93.3731 45.1214 94.2891 45.1804 95.2051C45.2084 95.6641 45.2254 96.1221 45.2314 96.5801C45.2414 97.0311 45.2234 97.5141 45.2064 97.9371L45.1934 98.2521L44.9044 98.3351C44.2334 98.5301 43.5494 98.7781 42.9134 99.0751C42.2924 99.3701 41.6364 99.7381 41.3154 100.208C41.2294 100.321 41.2084 100.433 41.1874 100.534C41.1964 100.636 41.1964 100.739 41.2744 100.85C41.4004 101.075 41.6614 101.289 41.9344 101.475C42.5094 101.836 43.1784 102.102 43.8464 102.356L44.1174 102.46L44.0734 102.72C43.9114 103.659 43.6644 104.556 43.2584 105.422C43.0514 105.851 42.8014 106.269 42.4574 106.628C42.2774 106.802 42.0834 106.968 41.8504 107.083C41.6254 107.21 41.3624 107.269 41.1054 107.287C40.8444 107.303 40.5944 107.246 40.3584 107.173C40.1284 107.082 39.9094 106.978 39.7104 106.845C39.3124 106.584 38.9604 106.273 38.6464 105.933C38.0094 105.261 37.4844 104.505 37.0004 103.73C37.5644 104.449 38.1484 105.154 38.8114 105.766C39.1404 106.074 39.5004 106.345 39.8814 106.557C40.0724 106.665 40.2734 106.742 40.4734 106.806C40.6774 106.853 40.8804 106.877 41.0784 106.859C41.2724 106.834 41.4664 106.787 41.6344 106.678C41.8094 106.584 41.9594 106.443 42.1014 106.293C42.3764 105.98 42.5874 105.595 42.7574 105.194C43.0954 104.389 43.2984 103.499 43.4064 102.633L43.6334 102.996C42.9214 102.769 42.2174 102.499 41.5444 102.091C41.2154 101.869 40.8744 101.629 40.6264 101.219C40.4954 101.026 40.4334 100.752 40.4354 100.49C40.4604 100.232 40.5444 99.9801 40.6734 99.7971C40.9234 99.4101 41.2454 99.1541 41.5684 98.9291C41.8934 98.7061 42.2304 98.5221 42.5724 98.3561C43.2604 98.0241 43.9514 97.7601 44.6814 97.5381L44.3804 97.9361L44.3984 96.5831C44.4004 96.1391 44.3894 95.6931 44.3694 95.2491C44.3264 94.3611 44.2384 93.4771 44.0764 92.6111C43.9094 91.7521 43.6804 90.8961 43.2904 90.1421C42.9114 89.3861 42.3364 88.7491 41.5864 88.4971C41.1974 88.3631 40.8244 88.3431 40.3904 88.3951C39.9714 88.4371 39.5474 88.5831 39.1354 88.6981C38.7354 88.8601 38.3324 89.0221 37.9754 89.2681C37.7824 89.3691 37.6214 89.5141 37.4554 89.6511C37.2814 89.7821 37.1254 89.9301 36.9864 90.0981C36.6834 90.4081 36.4274 90.7681 36.2154 91.1511C35.9954 91.5321 35.8204 91.9421 35.6924 92.3681C35.4264 93.2191 35.2964 94.1201 35.3154 95.0241Z" fill="#76402B"/>
<path d="M37.5531 98.0082C37.5531 98.0082 37.4661 97.2832 37.5201 96.1882C37.5471 95.6402 37.6141 95.0002 37.7661 94.3242C37.8421 93.9862 37.9281 93.6372 38.0621 93.2942C38.1651 92.9402 38.3511 92.6102 38.5141 92.2692C38.7111 91.9492 38.9161 91.6192 39.1701 91.3382C39.4381 91.0682 39.6871 90.7772 40.0101 90.5952C40.1631 90.4912 40.3151 90.3902 40.4621 90.2902C40.6251 90.2242 40.7851 90.1572 40.9421 90.0932C41.1001 90.0292 41.2551 89.9682 41.4031 89.9082C41.5571 89.8792 41.7081 89.8502 41.8511 89.8232C42.1391 89.7782 42.4081 89.6982 42.6431 89.7012C42.8781 89.7002 43.0841 89.7002 43.2521 89.6992C43.5941 89.7002 43.7871 89.7002 43.7871 89.7002L43.6701 90.6922C43.6701 90.6922 43.5011 90.6782 43.2071 90.6552C43.0591 90.6412 42.8791 90.6262 42.6721 90.6082C42.4641 90.5852 42.2421 90.6412 41.9901 90.6552C41.8631 90.6672 41.7321 90.6782 41.5971 90.6912C41.4691 90.7312 41.3371 90.7722 41.2021 90.8152C41.0641 90.8572 40.9241 90.9002 40.7791 90.9442C40.6481 91.0172 40.5151 91.0932 40.3791 91.1692C40.0881 91.2982 39.8581 91.5322 39.6001 91.7472C39.3561 91.9742 39.1471 92.2532 38.9411 92.5302C38.7661 92.8312 38.5641 93.1202 38.4391 93.4462C38.2851 93.7592 38.1731 94.0862 38.0721 94.4052C37.8681 95.0442 37.7491 95.6662 37.6761 96.2022C37.5301 97.2782 37.5531 98.0082 37.5531 98.0082Z" fill="#76402B"/>
<path d="M137.131 95.86C137.131 103.817 137.125 112.993 134.174 121.878C127.561 141.79 103.248 160.241 90.4303 160.241C77.4243 160.241 52.8873 141.251 46.4013 121.009C43.6433 112.398 43.7293 103.56 43.7293 95.86C43.7293 70.069 48.4973 36.311 90.4303 36.311C132.363 36.311 137.131 70.069 137.131 95.86Z" fill="#9D6D54"/>
<path opacity="0.7" d="M52.7114 54.1351C65.5634 62.5451 86.5204 71.6371 109.643 61.8481C109.643 61.8481 122.911 58.4161 131.461 60.4421C131.461 60.4401 131.461 60.4401 131.461 60.4381C131.094 59.5921 130.703 58.7581 130.291 57.9381C130.246 57.8501 130.201 57.7641 130.156 57.6761C129.773 56.9261 129.369 56.1881 128.943 55.4631C128.89 55.3731 128.838 55.2831 128.785 55.1931C128.336 54.4431 127.867 53.7071 127.371 52.9861C127.344 52.9491 127.318 52.9101 127.293 52.8711C124.582 48.9671 121.147 45.5451 116.807 42.8401C116.805 42.8381 116.805 42.8381 116.805 42.8381C107.145 41.3341 93.6374 39.2621 79.7604 37.1431C79.7584 37.1451 79.7564 37.1451 79.7564 37.1451C79.5904 37.1721 79.4424 37.2021 79.2794 37.2291C66.3134 39.5021 58.0024 45.8381 52.7114 54.1351Z" fill="#7F513B"/>
<path opacity="0.7" d="M94.3053 156.037C81.2993 156.037 56.7623 137.047 50.2763 116.805C47.5183 108.194 47.6043 99.3562 47.6043 91.6572C47.6043 77.5142 50.9673 58.3912 59.8563 47.3462C48.0433 58.4262 43.7293 79.8212 43.7293 95.8602C43.7293 103.559 43.6433 112.397 46.4013 121.009C52.8873 141.251 77.4243 160.241 90.4303 160.241C99.2763 160.241 113.59 151.456 123.789 139.468C114.073 149.248 102.078 156.037 94.3053 156.037Z" fill="#7F513B"/>
<path d="M54.9424 79.6369C54.9424 79.6369 60.2744 74.8909 65.4134 76.0609C70.5524 77.2289 78.5404 77.2209 80.8824 74.6139C80.8824 74.6139 63.4754 67.6309 54.9424 79.6369Z" fill="#23181A"/>
<path d="M124.385 79.6369C124.385 79.6369 119.053 74.8909 113.914 76.0609C108.775 77.2289 100.787 77.2209 98.4453 74.6139C98.4453 74.6139 115.852 67.6309 124.385 79.6369Z" fill="#23181A"/>
<path d="M82.11 116.592C82.11 116.592 82.0981 116.502 82.0751 116.333C82.0471 116.164 82.0121 115.921 82.0481 115.581C82.0751 115.246 82.1331 114.842 82.3031 114.406C82.4481 113.959 82.695 113.483 83.024 113.005C83.355 112.53 83.7661 112.043 84.2781 111.616C84.7771 111.174 85.361 110.772 86.011 110.439C86.665 110.123 87.3651 109.815 88.1161 109.65C88.8621 109.448 89.647 109.389 90.429 109.361C90.884 109.388 91.1331 109.379 91.5681 109.436C91.9751 109.483 92.3781 109.55 92.7431 109.648C93.4971 109.81 94.1961 110.121 94.8501 110.437C95.4991 110.77 96.0851 111.169 96.5841 111.614C97.0961 112.041 97.5091 112.526 97.8381 113.004C98.1671 113.483 98.4131 113.957 98.5591 114.404C98.7281 114.838 98.7861 115.25 98.8121 115.576C98.8461 115.905 98.8141 116.162 98.7851 116.333C98.7621 116.502 98.75 116.592 98.75 116.592C98.75 116.592 98.725 116.504 98.677 116.34C98.641 116.177 98.5511 115.948 98.4261 115.673C98.3031 115.399 98.1231 115.082 97.8791 114.754C97.6471 114.422 97.3221 114.092 96.9691 113.752C96.6001 113.424 96.1711 113.106 95.6951 112.813C95.2211 112.512 94.6771 112.278 94.1221 112.041C93.5561 111.825 92.9521 111.659 92.3311 111.546C92.0151 111.474 91.7161 111.452 91.4201 111.415C91.1531 111.37 90.6871 111.381 90.4321 111.362C89.1551 111.376 87.8741 111.604 86.7411 112.039C86.1861 112.276 85.6401 112.51 85.1681 112.811C84.6911 113.105 84.2621 113.422 83.8931 113.751C83.5391 114.09 83.215 114.42 82.983 114.754C82.739 115.079 82.5591 115.402 82.4381 115.668C82.3141 115.933 82.2211 116.174 82.1871 116.341C82.1351 116.504 82.11 116.592 82.11 116.592Z" fill="#6A3F2F"/>
<path d="M71.3994 124.633C71.3994 124.633 86.3134 133.133 109.643 124.633C109.643 124.633 91.2234 151.633 71.3994 124.633Z" fill="white"/>
<path d="M71.3994 124.633C71.6294 124.947 71.8584 125.246 72.0884 125.545C77.3324 129.422 90.1784 136.258 108.781 125.779C109.511 124.883 109.642 124.633 109.642 124.633C86.3134 133.133 71.3994 124.633 71.3994 124.633Z" fill="#C5D1DD"/>
<path d="M85.02 141.258C85.02 141.258 90.52 143.883 96.02 141.258C96.02 141.258 91.256 149.793 85.02 141.258Z" fill="#7F513B"/>
<path opacity="0.7" d="M82.1104 117.633C82.1104 117.633 90.1944 122.258 98.7494 117.633C98.7494 117.633 96.6124 112.08 90.5204 112.258C90.5204 112.258 83.7914 111.758 82.1104 117.633Z" fill="#7F513B"/>
<path d="M76.6184 130.582C75.5794 128.984 74.7254 127.268 74.0954 125.828C72.3314 125.164 71.4004 124.633 71.4004 124.633C73.1534 127.024 74.8974 128.983 76.6184 130.582Z" fill="#23181A"/>
<path d="M104.219 130.557C107.629 127.582 109.643 124.633 109.643 124.633C108.836 124.926 108.043 125.196 107.258 125.449C106.508 126.967 105.471 128.846 104.219 130.557Z" fill="#23181A"/>
<path d="M78.02 98.1861C78.02 102.235 76.206 105.518 73.969 105.518C71.731 105.518 69.916 102.235 69.916 98.1861C69.916 94.1351 71.73 90.8521 73.969 90.8521C76.205 90.8521 78.02 94.1351 78.02 98.1861Z" fill="#23181A"/>
<path d="M110.944 98.1861C110.944 102.235 109.13 105.518 106.891 105.518C104.655 105.518 102.84 102.235 102.84 98.1861C102.84 94.1351 104.654 90.8521 106.891 90.8521C109.129 90.8521 110.944 94.1351 110.944 98.1861Z" fill="#23181A"/>
<path d="M91.1941 32.668C55.8171 32.668 41.9711 59.531 44.2021 83.338C45.7531 83.268 50.8291 81.772 54.9421 66.092C54.9421 66.092 56.4891 54.174 58.5591 49.078C58.5591 49.078 91.7211 66.156 120.053 49.078C120.053 49.078 127.053 60.182 127.053 66.092C127.053 71.863 129.459 91.731 136.782 85.031C140.02 60.668 127.442 32.668 91.1941 32.668Z" fill="#23181A"/>
</svg>
