<svg width="101" height="135" viewBox="0 0 101 135" fill="none" xmlns="http://www.w3.org/2000/svg">
<path fill-rule="evenodd" clip-rule="evenodd" d="M54.3443 21.9099C69.5829 23.6655 84.176 30.3729 93.5049 42.5495C101.876 53.4759 100.442 67.9485 100.159 81.71C99.8846 95.039 101.533 110.048 91.9263 119.292C82.4028 128.456 67.4582 124.15 54.3443 125.795C37.6534 127.887 18.206 141.629 5.98856 130.066C-6.18968 118.54 7.9364 98.4768 7.76436 81.71C7.58859 64.5801 -5.5411 45.8664 4.98591 32.3516C15.7289 18.5596 36.9769 19.9091 54.3443 21.9099Z" fill="white"/>
<g clip-path="url(#clip0_2327_548)">
<path d="M69.5191 5.6736C69.9583 5.6736 70.2961 5.33843 70.2961 4.90272C70.2961 4.467 69.9583 4.13184 69.5191 4.13184C69.08 4.13184 68.7422 4.467 68.7422 4.90272C68.7422 5.33843 69.1138 5.6736 69.5191 5.6736Z" fill="#333333"/>
<path d="M76.0719 42.7428V88.694H24.2877V9.76246H76.1057V13.4158C76.7813 13.1476 77.7609 12.7119 78.9432 12.2092V10.6674C78.9432 5.07015 74.3829 0.54541 68.7417 0.54541H31.6517C26.0104 0.54541 21.4502 5.07015 21.4502 10.6674V88.694V90.2022C21.4502 91.1072 21.5853 91.9786 21.788 92.8165C21.8218 92.917 21.8556 93.0511 21.8893 93.1517C21.8893 93.1852 21.9231 93.2187 21.9231 93.2522C21.9569 93.3528 21.9907 93.4868 22.0244 93.5874C22.0582 93.6544 22.0582 93.7215 22.092 93.7885C22.1258 93.889 22.1933 94.0231 22.2271 94.1236C22.2947 94.2577 22.3285 94.3918 22.396 94.4923C22.4298 94.5594 22.4298 94.5929 22.4636 94.6599C22.4974 94.7605 22.5311 94.8275 22.5987 94.8945C22.6663 94.9951 22.7 95.0956 22.7676 95.1962C22.8689 95.3638 22.9703 95.4978 23.0716 95.6654C23.0716 95.6989 23.1054 95.6989 23.1054 95.6989C23.1054 95.6989 23.1054 95.7324 23.1392 95.7324C23.2067 95.833 23.3081 95.9671 23.3756 96.0676C23.4432 96.1682 23.5445 96.3022 23.6459 96.4028C23.6797 96.4363 23.6797 96.4698 23.7134 96.4698C23.8148 96.5704 23.8823 96.7044 23.9837 96.805C24.085 96.9055 24.1863 97.0396 24.2877 97.1401V97.4418H24.5917C24.693 97.5423 24.8282 97.6429 24.9295 97.7434C25.0308 97.844 25.166 97.9445 25.2673 98.0116C25.3011 98.0451 25.3349 98.0451 25.3349 98.0786C25.4362 98.1791 25.5713 98.2462 25.6727 98.3467C25.774 98.4138 25.9091 98.5143 26.0104 98.5813C26.0104 98.5813 26.0442 98.5813 26.0442 98.6149C26.0442 98.6149 26.078 98.6484 26.1118 98.6484C26.2807 98.7489 26.4158 98.8495 26.5847 98.95C26.686 99.0171 26.7874 99.0506 26.8887 99.1176C26.9563 99.1511 27.0576 99.2182 27.1252 99.2517C27.1927 99.2852 27.2265 99.3187 27.2941 99.3187C27.4292 99.3857 27.5643 99.4193 27.6657 99.4863C27.767 99.5533 27.9021 99.5868 28.0034 99.6204C28.071 99.6539 28.1386 99.6539 28.2061 99.6874C28.3075 99.7209 28.4426 99.7544 28.5439 99.7879C28.5777 99.7879 28.6115 99.8215 28.6453 99.8215C28.7466 99.855 28.8817 99.8885 28.9831 99.922C29.8275 100.157 30.7058 100.257 31.6179 100.257H68.7079C69.62 100.257 70.4983 100.123 71.3427 99.922C71.4441 99.8885 71.5792 99.855 71.6805 99.8215C71.7143 99.8215 71.7481 99.7879 71.7819 99.7879C71.8832 99.7544 72.0183 99.7209 72.1197 99.6874C72.1872 99.6539 72.2548 99.6539 72.3224 99.6204C72.4237 99.5868 72.5588 99.5198 72.6602 99.4863C72.7953 99.4193 72.9304 99.3857 73.0317 99.3187C73.0993 99.2852 73.1331 99.2852 73.2006 99.2517C73.302 99.2182 73.3695 99.1846 73.4371 99.1176C73.5384 99.0506 73.6398 99.0171 73.7411 98.95C73.91 98.8495 74.0451 98.7489 74.214 98.6484C74.2478 98.6484 74.2478 98.6149 74.2478 98.6149C74.2478 98.6149 74.2816 98.6149 74.2816 98.5813C74.3829 98.5143 74.518 98.4138 74.6194 98.3467C74.7207 98.2797 74.8558 98.1791 74.9572 98.0786C74.9909 98.0451 75.0247 98.0451 75.0247 98.0116C75.1261 97.911 75.2612 97.844 75.3625 97.7434C75.4639 97.6429 75.599 97.5423 75.7003 97.4418H76.0043V97.1401C76.1057 97.0396 76.207 96.9055 76.3084 96.805C76.4097 96.6709 76.511 96.5704 76.6124 96.4363C76.7813 96.2017 76.984 95.9671 77.1191 95.7324C77.1866 95.6654 77.2204 95.5648 77.288 95.4978C77.4231 95.2632 77.5582 95.0621 77.6595 94.8275C77.7271 94.7269 77.7609 94.6264 77.7947 94.5258C77.896 94.2912 77.9973 94.0566 78.0987 93.8555C78.1325 93.755 78.1662 93.6879 78.2 93.5874C78.2676 93.4533 78.3014 93.3192 78.3351 93.1517C78.3689 93.0511 78.4027 92.9506 78.4365 92.85V92.8165C78.4703 92.7159 78.504 92.5819 78.5378 92.4813C78.5378 92.4478 78.5716 92.3808 78.5716 92.3473C78.6054 92.2467 78.6054 92.1462 78.6392 92.0456C78.6729 91.9116 78.6729 91.7775 78.7067 91.6434C78.7405 91.4758 78.7405 91.3418 78.7743 91.1742C78.8081 90.839 78.8418 90.5039 78.8418 90.1352V88.694V39.9274C77.9636 40.9329 76.6462 42.2065 76.0719 42.7428ZM69.5186 3.72948C70.1942 3.72948 70.7347 4.26575 70.7347 4.93608C70.7347 5.60641 70.1942 6.14268 69.5186 6.14268C68.8431 6.14268 68.3026 5.60641 68.3026 4.93608C68.3026 4.26575 68.8768 3.72948 69.5186 3.72948ZM45.1973 4.60091H56.5135V5.27125H45.1973V4.60091ZM44.1163 92.3137C44.4879 91.9451 44.9946 91.744 45.5351 91.744H55.5676C56.6824 91.744 57.5606 92.6489 57.5606 93.7214C57.5606 94.2577 57.3242 94.7605 56.9864 95.1291C56.6148 95.4978 56.1081 95.7324 55.5676 95.7324H45.5351C44.4204 95.7324 43.5421 94.8275 43.5421 93.755C43.5421 93.1852 43.7448 92.6824 44.1163 92.3137Z" fill="#305087"/>
<path d="M38.4072 77.734C38.4072 78.8735 39.3193 79.7785 40.4678 79.7785C41.6163 79.7785 42.5283 78.8735 42.5283 77.734C42.5283 76.5944 41.6163 75.6895 40.4678 75.6895C39.3193 75.6895 38.4072 76.5944 38.4072 77.734ZM41.5825 77.734C41.5825 78.3373 41.0758 78.84 40.4678 78.84C39.8598 78.84 39.3531 78.3373 39.3531 77.734C39.3531 77.1307 39.8598 76.6279 40.4678 76.6279C41.0758 76.6279 41.5825 77.1307 41.5825 77.734Z" fill="#4F88EB"/>
<path d="M46.8526 75.6895C45.704 75.6895 44.792 76.5944 44.792 77.734C44.792 78.8735 45.704 79.7785 46.8526 79.7785C48.0011 79.7785 48.9131 78.8735 48.9131 77.734C48.9131 76.5944 47.9673 75.6895 46.8526 75.6895ZM46.8526 78.84C46.2445 78.84 45.7378 78.3373 45.7378 77.734C45.7378 77.1307 46.2445 76.6279 46.8526 76.6279C47.4606 76.6279 47.9673 77.1307 47.9673 77.734C47.9673 78.3373 47.4606 78.84 46.8526 78.84Z" fill="#4F88EB"/>
<path d="M51.1768 77.734C51.1768 78.8735 52.0888 79.7785 53.2373 79.7785C54.3858 79.7785 55.2979 78.8735 55.2979 77.734C55.2979 76.5944 54.3858 75.6895 53.2373 75.6895C52.0888 75.6895 51.1768 76.5944 51.1768 77.734ZM53.2373 76.6279C53.8454 76.6279 54.352 77.1307 54.352 77.734C54.352 78.3373 53.8454 78.84 53.2373 78.84C52.6293 78.84 52.1226 78.3373 52.1226 77.734C52.1226 77.1307 52.6293 76.6279 53.2373 76.6279Z" fill="#4F88EB"/>
<path d="M61.6817 77.734C61.6817 76.5944 60.7696 75.6895 59.6211 75.6895C58.4726 75.6895 57.5605 76.5944 57.5605 77.734C57.5605 78.8735 58.4726 79.7785 59.6211 79.7785C60.7358 79.7785 61.6817 78.84 61.6817 77.734ZM58.5064 77.734C58.5064 77.1307 59.0131 76.6279 59.6211 76.6279C60.2291 76.6279 60.7358 77.1307 60.7358 77.734C60.7358 78.3373 60.2291 78.84 59.6211 78.84C58.9793 78.84 58.5064 78.3373 58.5064 77.734Z" fill="#4F88EB"/>
<path d="M62.29 70.1927C62.29 70.796 62.763 71.2652 63.371 71.2988H71.9848C72.728 71.2317 73.3022 70.6284 73.3022 69.8911C73.3022 69.1202 72.6604 68.4834 71.8835 68.4834C71.6808 68.4834 71.5119 68.5169 71.343 68.5839C71.343 68.5169 71.343 68.4834 71.343 68.4163C71.343 66.9081 70.0931 65.668 68.5731 65.668C67.2556 65.668 66.1409 66.5729 65.8707 67.813C65.6342 67.6454 65.364 67.5449 65.0262 67.5449C64.2493 67.5449 63.6412 68.1817 63.6412 68.9191C63.6412 68.9861 63.6412 69.0531 63.675 69.1202C63.5737 69.0867 63.5061 69.0867 63.4048 69.0867C62.7967 69.0867 62.29 69.5894 62.29 70.1927Z" fill="#79AAFF"/>
<path d="M87.8611 12.9131C87.5233 12.5779 87.0504 12.4439 86.5775 12.5109C86.2397 12.5779 81.8821 13.4494 76.072 15.8626C75.768 15.9966 75.464 16.1307 75.1262 16.2648C69.8903 18.5439 63.6411 22.0631 58.135 27.3252C54.1152 26.1521 49.6225 27.1241 46.4472 30.2747C45.5014 31.2131 44.792 32.2186 44.2178 33.3247C46.9539 31.984 50.1292 31.7494 53.0005 32.6544C50.7035 35.2686 48.6091 37.8829 46.8526 40.4302C46.481 41 46.5486 41.7373 47.0215 42.2066L58.2026 53.3005C58.4728 53.5687 58.8444 53.7028 59.2159 53.7028C59.4862 53.7028 59.7902 53.6357 60.0266 53.4681C62.5939 51.7253 65.2625 49.6472 67.8635 47.3681C68.7756 50.2505 68.5729 53.4011 67.1879 56.1159C68.3027 55.5797 69.3498 54.8423 70.2619 53.9038C73.4372 50.7533 74.4168 46.2621 73.2007 42.2736C73.6399 41.8379 74.0452 41.4022 74.4506 40.9665C74.991 40.3632 75.4977 39.7934 76.0044 39.1901C85.3952 27.7609 88.0638 14.723 88.1651 14.1197C88.334 13.684 88.1989 13.2147 87.8611 12.9131ZM72.0522 39.5923C71.6131 40.0615 71.1402 40.5643 70.6672 41.0335C69.3498 42.3406 68.0324 43.5807 66.6812 44.7538C64.2491 46.8989 61.817 48.8428 59.4186 50.5522L49.9265 41.1005C51.6155 38.7544 53.5747 36.3077 55.7366 33.928C56.9527 32.5873 58.2025 31.2802 59.52 29.973C59.9929 29.5038 60.4658 29.0346 60.9725 28.5988C64.9585 24.9791 69.3161 22.2642 73.3021 20.2867C73.9776 20.6889 74.991 21.3593 76.072 22.2977C76.984 23.0686 77.9974 24.0741 78.9095 25.2472C79.4162 25.9175 79.9229 26.6549 80.3958 27.4593C79.9566 28.3642 79.45 29.2692 78.9095 30.1741C78.065 31.6489 77.1192 33.1236 76.072 34.5983C74.8897 36.2741 73.5385 37.95 72.0522 39.5923Z" fill="#4A83E7"/>
<path d="M46.6832 47.5019C42.5283 48.4069 39.4882 52.1607 38.3396 53.7695C38.0694 54.1382 37.833 54.5404 37.5965 54.9426C36.9209 54.6745 36.2115 54.5404 35.4684 54.5404C32.2931 54.5404 29.7258 57.0877 29.7258 60.2382C29.7258 60.3723 29.7258 60.5064 29.7596 60.6069C29.4218 60.4728 29.0502 60.3723 28.6449 60.3723C27.0235 60.3723 25.7061 61.6794 25.7061 63.2882C25.7061 64.83 26.9221 66.0701 28.4422 66.1707V66.2042H46.3454C47.5953 66.1707 48.6087 65.1652 48.6087 63.9251C48.6087 62.9531 48.0006 62.1152 47.1224 61.78C47.6966 61.3778 48.2709 60.9086 48.7776 60.4393C50.2301 59.0987 51.3786 57.5904 52.2231 55.9146C53.6081 53.1998 53.4054 50.5855 51.6826 48.8761C50.399 47.569 48.6087 47.0997 46.6832 47.5019ZM46.8183 58.3278C46.3116 58.797 45.7712 59.2327 45.1969 59.6014C44.3186 60.2382 43.339 60.741 42.3256 61.1432C41.042 61.6794 39.6233 62.0816 38.137 62.3163C38.1032 62.3163 38.0019 62.3498 37.8667 62.3498C38.1032 60.4058 38.7788 58.4283 39.8597 56.5849C40.0962 56.1827 40.3664 55.747 40.6367 55.3783C42.5621 52.6635 45.028 50.7195 47.2575 50.2503C47.4602 50.2168 47.6966 50.1833 47.9668 50.1833C48.5073 50.1833 49.1154 50.3173 49.6221 50.8201C50.8043 51.9932 50.0274 53.8701 49.6221 54.6075C48.9802 55.9816 48.0006 57.2217 46.8183 58.3278Z" fill="#79AAFF"/>
<path d="M75.0586 25.314C73.5047 23.7723 70.9712 23.7723 69.4174 25.314C67.8635 26.8558 67.8635 29.3695 69.4174 30.9113C70.9712 32.4531 73.5047 32.4531 75.0586 30.9113C75.5652 30.4086 75.903 29.8388 76.0719 29.202C76.2746 28.4981 76.2746 27.7607 76.0719 27.0569C75.903 26.4201 75.5652 25.8168 75.0586 25.314Z" fill="#4A83E7"/>
<path d="M46.2104 23.4707V17.6053C46.2104 15.6278 44.589 14.019 42.596 14.019H34.4888C32.5296 14.019 30.9082 15.6278 30.9082 17.6053V23.4707C30.9082 25.4482 32.5296 27.0235 34.4888 27.0235H38.0357L41.8866 30.04C42.0555 30.174 42.2582 30.2411 42.4608 30.2411C42.596 30.2411 42.7311 30.2075 42.8662 30.1405C43.204 29.9729 43.4067 29.6713 43.4067 29.3026V26.9229C45.0281 26.5878 46.2104 25.1465 46.2104 23.4707ZM44.3525 23.4707C44.3525 24.4092 43.5756 25.1801 42.6297 25.1801H42.4946C41.9879 25.1801 41.5488 25.6158 41.5488 26.1185V27.3921L38.9815 25.3812C38.8126 25.2471 38.61 25.1801 38.4073 25.1801H34.4888C33.543 25.1801 32.7661 24.4092 32.7661 23.4707V17.6053C32.7661 16.6669 33.543 15.896 34.4888 15.896H42.596C43.5418 15.896 44.3187 16.6669 44.3187 17.6053V23.4707H44.3525Z" fill="#79AAFF"/>
<path d="M34.9287 19.7837C34.5233 19.7837 34.1855 20.1189 34.1855 20.5211C34.1855 20.9233 34.5233 21.2584 34.9287 21.2584C35.3341 21.2584 35.6719 20.9233 35.6719 20.5211C35.6719 20.1189 35.3341 19.7837 34.9287 19.7837Z" fill="#4F88EB"/>
<path d="M38.5762 19.7837C38.1708 19.7837 37.833 20.1189 37.833 20.5211C37.833 20.9233 38.1708 21.2584 38.5762 21.2584C38.9815 21.2584 39.3193 20.9233 39.3193 20.5211C39.3193 20.1189 38.9815 19.7837 38.5762 19.7837Z" fill="#4F88EB"/>
<path d="M42.1904 19.7837C41.7851 19.7837 41.4473 20.1189 41.4473 20.5211C41.4473 20.9233 41.7851 21.2584 42.1904 21.2584C42.5958 21.2584 42.9336 20.9233 42.9336 20.5211C42.9673 20.1189 42.6296 19.7837 42.1904 19.7837Z" fill="#4F88EB"/>
</g>
<defs>
<clipPath id="clip0_2327_548">
<rect width="66.8162" height="99.7788" fill="white" transform="translate(21.4502 0.54541)"/>
</clipPath>
</defs>
</svg>
