<svg width="11" height="13" viewBox="0 0 11 13" fill="none" xmlns="http://www.w3.org/2000/svg">
<path d="M9.14062 9.20463V5.06878C9.14056 4.91705 9.10005 4.768 9.02316 4.63665C8.94628 4.5053 8.83573 4.39627 8.70265 4.32054L5.07782 2.25281C4.9449 2.17677 4.79403 2.13672 4.64043 2.13672C4.48683 2.13672 4.33596 2.17677 4.20304 2.25281L0.577819 4.32054C0.444829 4.39631 0.334397 4.50537 0.257645 4.63673C0.180892 4.76809 0.14053 4.91711 0.140625 5.06878V9.20463C0.140501 9.35637 0.180848 9.50545 0.2576 9.63687C0.334351 9.7683 0.444798 9.87742 0.577819 9.95326L4.20304 12.021C4.33604 12.0968 4.48688 12.1367 4.64043 12.1367C4.79398 12.1367 4.94482 12.0968 5.07782 12.021L8.70265 9.95326C8.83579 9.87749 8.94637 9.76841 9.02326 9.63698C9.10015 9.50556 9.14063 9.35643 9.14062 9.20463Z" fill="url(#paint0_linear_1544_4236)"/>
<path opacity="0.24" d="M10.1406 7.90864V3.36036C10.1411 3.19324 10.0963 3.02898 10.0109 2.88422C9.92545 2.73947 9.80242 2.61936 9.65423 2.53609L5.62701 0.264428C5.47934 0.180773 5.31171 0.136719 5.14105 0.136719C4.97039 0.136719 4.80275 0.180773 4.65508 0.264428L0.626593 2.53857C0.478485 2.62189 0.355534 2.74201 0.270193 2.88676C0.184851 3.03151 0.140153 3.19575 0.140629 3.36283V7.91112C0.140153 8.0782 0.184851 8.24244 0.270193 8.38719C0.355534 8.53194 0.478485 8.65206 0.626593 8.73538L4.65508 11.0095C4.80286 11.0929 4.97045 11.1367 5.14105 11.1367C5.31164 11.1367 5.47923 11.0929 5.62701 11.0095L9.65507 8.73538C9.8033 8.6516 9.92627 8.53102 10.0115 8.38585C10.0968 8.24067 10.1413 8.07605 10.1406 7.90864Z" fill="#4A83E7"/>
<defs>
<linearGradient id="paint0_linear_1544_4236" x1="4.64062" y1="2.13672" x2="4.64062" y2="12.1367" gradientUnits="userSpaceOnUse">
<stop stop-color="#4A83E7"/>
<stop offset="1" stop-color="#0075CE"/>
</linearGradient>
</defs>
</svg>
