<svg width="365" height="302" viewBox="0 0 365 302" fill="none" xmlns="http://www.w3.org/2000/svg">
<g clip-path="url(#clip0_1544_4817)">
<mask id="mask0_1544_4817" style="mask-type:luminance" maskUnits="userSpaceOnUse" x="246" y="97" width="96" height="119">
<path d="M258.948 208.978C263.421 195.542 275.56 186.218 287.791 179.18C300.113 172.233 313.439 166.566 323.753 156.877C332.15 148.924 338.083 138.504 340.638 127.17C342.829 117.572 341.734 105.781 333.519 100.205C328.499 96.823 321.836 96.6402 316.177 98.5597C310.427 100.479 305.498 104.135 301.025 108.157C274.1 132.197 260.409 167.48 247.722 201.391C246.718 204.134 245.713 206.967 246.079 209.801C246.444 212.634 248.726 215.559 251.646 215.468C254.567 215.468 256.666 211.263 254.476 209.344" fill="white"/>
</mask>
<g mask="url(#mask0_1544_4817)">
<path d="M258.948 208.978C263.421 195.542 275.56 186.218 287.791 179.18C300.113 172.233 313.439 166.566 323.753 156.877C332.15 148.924 338.083 138.504 340.638 127.17C342.829 117.572 341.734 105.781 333.519 100.205C328.499 96.823 321.836 96.6402 316.177 98.5597C310.427 100.479 305.498 104.135 301.025 108.157C274.1 132.197 260.409 167.48 247.722 201.391C246.718 204.134 245.713 206.967 246.079 209.801C246.444 212.634 248.726 215.559 251.646 215.468C254.567 215.468 256.666 211.263 254.476 209.344" fill="#87C5FF"/>
</g>
<mask id="mask1_1544_4817" style="mask-type:luminance" maskUnits="userSpaceOnUse" x="246" y="97" width="96" height="119">
<path d="M258.948 208.978C263.421 195.542 275.56 186.218 287.791 179.18C300.113 172.233 313.439 166.566 323.753 156.877C332.15 148.924 338.083 138.504 340.638 127.17C342.829 117.572 341.734 105.781 333.519 100.205C328.499 96.823 321.836 96.6402 316.177 98.5597C310.427 100.479 305.498 104.135 301.025 108.157C274.1 132.197 260.409 167.48 247.722 201.391C246.718 204.134 245.713 206.967 246.079 209.801C246.444 212.634 248.726 215.559 251.646 215.468C254.567 215.468 256.666 211.263 254.476 209.344" fill="white"/>
</mask>
<g mask="url(#mask1_1544_4817)">
<path d="M344.472 94.9951C344.472 94.9951 293.267 127.444 244.436 225.889" stroke="white" stroke-width="0.5" stroke-miterlimit="10"/>
</g>
<mask id="mask2_1544_4817" style="mask-type:luminance" maskUnits="userSpaceOnUse" x="246" y="97" width="96" height="119">
<path d="M258.948 208.978C263.421 195.542 275.56 186.218 287.791 179.18C300.113 172.233 313.439 166.566 323.753 156.877C332.15 148.924 338.083 138.504 340.638 127.17C342.829 117.572 341.734 105.781 333.519 100.205C328.499 96.823 321.836 96.6402 316.177 98.5597C310.427 100.479 305.498 104.135 301.025 108.157C274.1 132.197 260.409 167.48 247.722 201.391C246.718 204.134 245.713 206.967 246.079 209.801C246.444 212.634 248.726 215.559 251.646 215.468C254.567 215.468 256.666 211.263 254.476 209.344" fill="white"/>
</mask>
<g mask="url(#mask2_1544_4817)">
<path d="M316.086 119.766C316.086 119.766 314.534 97.28 317.82 86.0371" stroke="white" stroke-width="0.5" stroke-miterlimit="10"/>
</g>
<mask id="mask3_1544_4817" style="mask-type:luminance" maskUnits="userSpaceOnUse" x="246" y="97" width="96" height="119">
<path d="M258.948 208.978C263.421 195.542 275.56 186.218 287.791 179.18C300.113 172.233 313.439 166.566 323.753 156.877C332.15 148.924 338.083 138.504 340.638 127.17C342.829 117.572 341.734 105.781 333.519 100.205C328.499 96.823 321.836 96.6402 316.177 98.5597C310.427 100.479 305.498 104.135 301.025 108.157C274.1 132.197 260.409 167.48 247.722 201.391C246.718 204.134 245.713 206.967 246.079 209.801C246.444 212.634 248.726 215.559 251.646 215.468C254.567 215.468 256.666 211.263 254.476 209.344" fill="white"/>
</mask>
<g mask="url(#mask3_1544_4817)">
<path d="M309.788 127.444C309.788 127.444 340 137.041 355.881 130.369" stroke="white" stroke-width="0.5" stroke-miterlimit="10"/>
</g>
<mask id="mask4_1544_4817" style="mask-type:luminance" maskUnits="userSpaceOnUse" x="246" y="97" width="96" height="119">
<path d="M258.948 208.978C263.421 195.542 275.56 186.218 287.791 179.18C300.113 172.233 313.439 166.566 323.753 156.877C332.15 148.924 338.083 138.504 340.638 127.17C342.829 117.572 341.734 105.781 333.519 100.205C328.499 96.823 321.836 96.6402 316.177 98.5597C310.427 100.479 305.498 104.135 301.025 108.157C274.1 132.197 260.409 167.48 247.722 201.391C246.718 204.134 245.713 206.967 246.079 209.801C246.444 212.634 248.726 215.559 251.646 215.468C254.567 215.468 256.666 211.263 254.476 209.344" fill="white"/>
</mask>
<g mask="url(#mask4_1544_4817)">
<path d="M321.562 114.921C321.562 114.921 351.865 118.303 361.54 110.077" stroke="white" stroke-width="0.5" stroke-miterlimit="10"/>
</g>
<mask id="mask5_1544_4817" style="mask-type:luminance" maskUnits="userSpaceOnUse" x="246" y="97" width="96" height="119">
<path d="M258.948 208.978C263.421 195.542 275.56 186.218 287.791 179.18C300.113 172.233 313.439 166.566 323.753 156.877C332.15 148.924 338.083 138.504 340.638 127.17C342.829 117.572 341.734 105.781 333.519 100.205C328.499 96.823 321.836 96.6402 316.177 98.5597C310.427 100.479 305.498 104.135 301.025 108.157C274.1 132.197 260.409 167.48 247.722 201.391C246.718 204.134 245.713 206.967 246.079 209.801C246.444 212.634 248.726 215.559 251.646 215.468C254.567 215.468 256.666 211.263 254.476 209.344" fill="white"/>
</mask>
<g mask="url(#mask5_1544_4817)">
<path d="M303.49 133.294C303.49 133.294 293.724 113.55 293.45 99.9307" stroke="white" stroke-width="0.5" stroke-miterlimit="10"/>
</g>
<mask id="mask6_1544_4817" style="mask-type:luminance" maskUnits="userSpaceOnUse" x="246" y="97" width="96" height="119">
<path d="M258.948 208.978C263.421 195.542 275.56 186.218 287.791 179.18C300.113 172.233 313.439 166.566 323.753 156.877C332.15 148.924 338.083 138.504 340.638 127.17C342.829 117.572 341.734 105.781 333.519 100.205C328.499 96.823 321.836 96.6402 316.177 98.5597C310.427 100.479 305.498 104.135 301.025 108.157C274.1 132.197 260.409 167.48 247.722 201.391C246.718 204.134 245.713 206.967 246.079 209.801C246.444 212.634 248.726 215.559 251.646 215.468C254.567 215.468 256.666 211.263 254.476 209.344" fill="white"/>
</mask>
<g mask="url(#mask6_1544_4817)">
<path d="M295.914 143.074C295.914 143.074 336.075 158.43 350.131 144.994" stroke="white" stroke-width="0.5" stroke-miterlimit="10"/>
</g>
<mask id="mask7_1544_4817" style="mask-type:luminance" maskUnits="userSpaceOnUse" x="246" y="97" width="96" height="119">
<path d="M258.948 208.978C263.421 195.542 275.56 186.218 287.791 179.18C300.113 172.233 313.439 166.566 323.753 156.877C332.15 148.924 338.083 138.504 340.638 127.17C342.829 117.572 341.734 105.781 333.519 100.205C328.499 96.823 321.836 96.6402 316.177 98.5597C310.427 100.479 305.498 104.135 301.025 108.157C274.1 132.197 260.409 167.48 247.722 201.391C246.718 204.134 245.713 206.967 246.079 209.801C246.444 212.634 248.726 215.559 251.646 215.468C254.567 215.468 256.666 211.263 254.476 209.344" fill="white"/>
</mask>
<g mask="url(#mask7_1544_4817)">
<path d="M290.347 150.479C290.347 150.479 272.731 126.165 274.009 111.54" stroke="white" stroke-width="0.5" stroke-miterlimit="10"/>
</g>
<mask id="mask8_1544_4817" style="mask-type:luminance" maskUnits="userSpaceOnUse" x="246" y="97" width="96" height="119">
<path d="M258.948 208.978C263.421 195.542 275.56 186.218 287.791 179.18C300.113 172.233 313.439 166.566 323.753 156.877C332.15 148.924 338.083 138.504 340.638 127.17C342.829 117.572 341.734 105.781 333.519 100.205C328.499 96.823 321.836 96.6402 316.177 98.5597C310.427 100.479 305.498 104.135 301.025 108.157C274.1 132.197 260.409 167.48 247.722 201.391C246.718 204.134 245.713 206.967 246.079 209.801C246.444 212.634 248.726 215.559 251.646 215.468C254.567 215.468 256.666 211.263 254.476 209.344" fill="white"/>
</mask>
<g mask="url(#mask8_1544_4817)">
<path d="M286.239 156.877C286.239 156.877 313.621 171.136 322.931 169.125" stroke="white" stroke-width="0.5" stroke-miterlimit="10"/>
</g>
<mask id="mask9_1544_4817" style="mask-type:luminance" maskUnits="userSpaceOnUse" x="246" y="97" width="96" height="119">
<path d="M258.948 208.978C263.421 195.542 275.56 186.218 287.791 179.18C300.113 172.233 313.439 166.566 323.753 156.877C332.15 148.924 338.083 138.504 340.638 127.17C342.829 117.572 341.734 105.781 333.519 100.205C328.499 96.823 321.836 96.6402 316.177 98.5597C310.427 100.479 305.498 104.135 301.025 108.157C274.1 132.197 260.409 167.48 247.722 201.391C246.718 204.134 245.713 206.967 246.079 209.801C246.444 212.634 248.726 215.559 251.646 215.468C254.567 215.468 256.666 211.263 254.476 209.344" fill="white"/>
</mask>
<g mask="url(#mask9_1544_4817)">
<path d="M280.763 163.093C280.763 163.093 259.313 147.371 256.393 136.219" stroke="white" stroke-width="0.5" stroke-miterlimit="10"/>
</g>
<mask id="mask10_1544_4817" style="mask-type:luminance" maskUnits="userSpaceOnUse" x="246" y="97" width="96" height="119">
<path d="M258.948 208.978C263.421 195.542 275.56 186.218 287.791 179.18C300.113 172.233 313.439 166.566 323.753 156.877C332.15 148.924 338.083 138.504 340.638 127.17C342.829 117.572 341.734 105.781 333.519 100.205C328.499 96.823 321.836 96.6402 316.177 98.5597C310.427 100.479 305.498 104.135 301.025 108.157C274.1 132.197 260.409 167.48 247.722 201.391C246.718 204.134 245.713 206.967 246.079 209.801C246.444 212.634 248.726 215.559 251.646 215.468C254.567 215.468 256.666 211.263 254.476 209.344" fill="white"/>
</mask>
<g mask="url(#mask10_1544_4817)">
<path d="M275.742 171.959C275.742 171.959 300.843 187.132 319.736 184.664" stroke="white" stroke-width="0.5" stroke-miterlimit="10"/>
</g>
<mask id="mask11_1544_4817" style="mask-type:luminance" maskUnits="userSpaceOnUse" x="246" y="97" width="96" height="119">
<path d="M258.948 208.978C263.421 195.542 275.56 186.218 287.791 179.18C300.113 172.233 313.439 166.566 323.753 156.877C332.15 148.924 338.083 138.504 340.638 127.17C342.829 117.572 341.734 105.781 333.519 100.205C328.499 96.823 321.836 96.6402 316.177 98.5597C310.427 100.479 305.498 104.135 301.025 108.157C274.1 132.197 260.409 167.48 247.722 201.391C246.718 204.134 245.713 206.967 246.079 209.801C246.444 212.634 248.726 215.559 251.646 215.468C254.567 215.468 256.666 211.263 254.476 209.344" fill="white"/>
</mask>
<g mask="url(#mask11_1544_4817)">
<path d="M269.353 180.368C269.353 180.368 243.979 163.001 240.967 152.855" stroke="white" stroke-width="0.5" stroke-miterlimit="10"/>
</g>
<path d="M280.762 206.785C283.044 197.918 290.802 191.246 299.29 187.681C307.688 184.024 316.997 182.836 325.942 181.008C334.978 179.18 344.106 176.438 351.043 170.496C354.055 167.846 356.702 164.464 357.432 160.533C358.162 156.603 356.428 152.032 352.777 150.387C347.027 147.736 340.911 153.129 336.53 157.7C325.76 168.942 313.438 178.723 300.021 186.492" fill="#0A3E99"/>
<mask id="mask12_1544_4817" style="mask-type:luminance" maskUnits="userSpaceOnUse" x="28" y="136" width="147" height="143">
<path d="M157.451 271.043C148.689 254.224 130.708 244.352 113.001 237.771C95.2936 231.098 76.4 226.528 60.7009 215.834C47.9225 207.15 37.7911 194.536 32.0409 180.094C27.1121 167.754 26.1081 151.941 35.7831 142.983C41.7159 137.499 50.4782 135.853 58.419 137.133C66.3598 138.413 73.6618 142.252 80.5073 146.639C121.307 172.781 146.772 216.565 170.686 258.703C172.603 262.085 174.611 265.65 174.702 269.489C174.793 273.328 172.42 277.624 168.587 278.172C164.753 278.721 161.011 273.602 163.566 270.677" fill="white"/>
</mask>
<g mask="url(#mask12_1544_4817)">
<path d="M157.451 271.043C148.689 254.224 130.708 244.352 113.001 237.771C95.2936 231.098 76.4 226.528 60.7009 215.834C47.9225 207.15 37.7911 194.536 32.0409 180.094C27.1121 167.754 26.1081 151.941 35.7831 142.983C41.7159 137.499 50.4782 135.853 58.419 137.133C66.3598 138.413 73.6618 142.252 80.5073 146.639C121.307 172.781 146.772 216.565 170.686 258.703C172.603 262.085 174.611 265.65 174.702 269.489C174.793 273.328 172.42 277.624 168.587 278.172C164.753 278.721 161.011 273.602 163.566 270.677" fill="#87C5FF"/>
</g>
<mask id="mask13_1544_4817" style="mask-type:luminance" maskUnits="userSpaceOnUse" x="28" y="136" width="147" height="143">
<path d="M157.451 271.043C148.689 254.224 130.708 244.352 113.001 237.771C95.2936 231.098 76.4 226.528 60.7009 215.834C47.9225 207.15 37.7911 194.536 32.0409 180.094C27.1121 167.754 26.1081 151.941 35.7831 142.983C41.7159 137.499 50.4782 135.853 58.419 137.133C66.3598 138.413 73.6618 142.252 80.5073 146.639C121.307 172.781 146.772 216.565 170.686 258.703C172.603 262.085 174.611 265.65 174.702 269.489C174.793 273.328 172.42 277.624 168.587 278.172C164.753 278.721 161.011 273.602 163.566 270.677" fill="white"/>
</mask>
<g mask="url(#mask13_1544_4817)">
<path d="M20.2666 138.321C20.2666 138.321 94.9286 170.405 180.178 290.421" stroke="white" stroke-width="0.5" stroke-miterlimit="10"/>
</g>
<mask id="mask14_1544_4817" style="mask-type:luminance" maskUnits="userSpaceOnUse" x="28" y="136" width="147" height="143">
<path d="M157.451 271.043C148.689 254.224 130.708 244.352 113.001 237.771C95.2936 231.098 76.4 226.528 60.7009 215.834C47.9225 207.15 37.7911 194.536 32.0409 180.094C27.1121 167.754 26.1081 151.941 35.7831 142.983C41.7159 137.499 50.4782 135.853 58.419 137.133C66.3598 138.413 73.6618 142.252 80.5073 146.639C121.307 172.781 146.772 216.565 170.686 258.703C172.603 262.085 174.611 265.65 174.702 269.489C174.793 273.328 172.42 277.624 168.587 278.172C164.753 278.721 161.011 273.602 163.566 270.677" fill="white"/>
</mask>
<g mask="url(#mask14_1544_4817)">
<path d="M62.9823 165.012C62.9823 165.012 60.244 134.848 53.5811 120.771" stroke="white" stroke-width="0.5" stroke-miterlimit="10"/>
</g>
<mask id="mask15_1544_4817" style="mask-type:luminance" maskUnits="userSpaceOnUse" x="28" y="136" width="147" height="143">
<path d="M157.451 271.043C148.689 254.224 130.708 244.352 113.001 237.771C95.2936 231.098 76.4 226.528 60.7009 215.834C47.9225 207.15 37.7911 194.536 32.0409 180.094C27.1121 167.754 26.1081 151.941 35.7831 142.983C41.7159 137.499 50.4782 135.853 58.419 137.133C66.3598 138.413 73.6618 142.252 80.5073 146.639C121.307 172.781 146.772 216.565 170.686 258.703C172.603 262.085 174.611 265.65 174.702 269.489C174.793 273.328 172.42 277.624 168.587 278.172C164.753 278.721 161.011 273.602 163.566 270.677" fill="white"/>
</mask>
<g mask="url(#mask15_1544_4817)">
<path d="M73.0229 173.787C73.0229 173.787 35.053 192.89 12.5996 187.406" stroke="white" stroke-width="0.5" stroke-miterlimit="10"/>
</g>
<mask id="mask16_1544_4817" style="mask-type:luminance" maskUnits="userSpaceOnUse" x="28" y="136" width="147" height="143">
<path d="M157.451 271.043C148.689 254.224 130.708 244.352 113.001 237.771C95.2936 231.098 76.4 226.528 60.7009 215.834C47.9225 207.15 37.7911 194.536 32.0409 180.094C27.1121 167.754 26.1081 151.941 35.7831 142.983C41.7159 137.499 50.4782 135.853 58.419 137.133C66.3598 138.413 73.6618 142.252 80.5073 146.639C121.307 172.781 146.772 216.565 170.686 258.703C172.603 262.085 174.611 265.65 174.702 269.489C174.793 273.328 172.42 277.624 168.587 278.172C164.753 278.721 161.011 273.602 163.566 270.677" fill="white"/>
</mask>
<g mask="url(#mask16_1544_4817)">
<path d="M54.768 159.802C54.768 159.802 15.429 170.679 0.825195 161.813" stroke="white" stroke-width="0.5" stroke-miterlimit="10"/>
</g>
<mask id="mask17_1544_4817" style="mask-type:luminance" maskUnits="userSpaceOnUse" x="28" y="136" width="147" height="143">
<path d="M157.451 271.043C148.689 254.224 130.708 244.352 113.001 237.771C95.2936 231.098 76.4 226.528 60.7009 215.834C47.9225 207.15 37.7911 194.536 32.0409 180.094C27.1121 167.754 26.1081 151.941 35.7831 142.983C41.7159 137.499 50.4782 135.853 58.419 137.133C66.3598 138.413 73.6618 142.252 80.5073 146.639C121.307 172.781 146.772 216.565 170.686 258.703C172.603 262.085 174.611 265.65 174.702 269.489C174.793 273.328 172.42 277.624 168.587 278.172C164.753 278.721 161.011 273.602 163.566 270.677" fill="white"/>
</mask>
<g mask="url(#mask17_1544_4817)">
<path d="M82.5156 180.277C82.5156 180.277 91.2779 152.124 88.7222 134.025" stroke="white" stroke-width="0.5" stroke-miterlimit="10"/>
</g>
<mask id="mask18_1544_4817" style="mask-type:luminance" maskUnits="userSpaceOnUse" x="28" y="136" width="147" height="143">
<path d="M157.451 271.043C148.689 254.224 130.708 244.352 113.001 237.771C95.2936 231.098 76.4 226.528 60.7009 215.834C47.9225 207.15 37.7911 194.536 32.0409 180.094C27.1121 167.754 26.1081 151.941 35.7831 142.983C41.7159 137.499 50.4782 135.853 58.419 137.133C66.3598 138.413 73.6618 142.252 80.5073 146.639C121.307 172.781 146.772 216.565 170.686 258.703C172.603 262.085 174.611 265.65 174.702 269.489C174.793 273.328 172.42 277.624 168.587 278.172C164.753 278.721 161.011 273.602 163.566 270.677" fill="white"/>
</mask>
<g mask="url(#mask18_1544_4817)">
<path d="M94.6544 191.702C94.6544 191.702 44.7277 220.586 23.2783 205.687" stroke="white" stroke-width="0.5" stroke-miterlimit="10"/>
</g>
<mask id="mask19_1544_4817" style="mask-type:luminance" maskUnits="userSpaceOnUse" x="28" y="136" width="147" height="143">
<path d="M157.451 271.043C148.689 254.224 130.708 244.352 113.001 237.771C95.2936 231.098 76.4 226.528 60.7009 215.834C47.9225 207.15 37.7911 194.536 32.0409 180.094C27.1121 167.754 26.1081 151.941 35.7831 142.983C41.7159 137.499 50.4782 135.853 58.419 137.133C66.3598 138.413 73.6618 142.252 80.5073 146.639C121.307 172.781 146.772 216.565 170.686 258.703C172.603 262.085 174.611 265.65 174.702 269.489C174.793 273.328 172.42 277.624 168.587 278.172C164.753 278.721 161.011 273.602 163.566 270.677" fill="white"/>
</mask>
<g mask="url(#mask19_1544_4817)">
<path d="M103.6 200.203C103.6 200.203 121.763 164.372 116.926 145.268" stroke="white" stroke-width="0.5" stroke-miterlimit="10"/>
</g>
<mask id="mask20_1544_4817" style="mask-type:luminance" maskUnits="userSpaceOnUse" x="28" y="136" width="147" height="143">
<path d="M157.451 271.043C148.689 254.224 130.708 244.352 113.001 237.771C95.2936 231.098 76.4 226.528 60.7009 215.834C47.9225 207.15 37.7911 194.536 32.0409 180.094C27.1121 167.754 26.1081 151.941 35.7831 142.983C41.7159 137.499 50.4782 135.853 58.419 137.133C66.3598 138.413 73.6618 142.252 80.5073 146.639C121.307 172.781 146.772 216.565 170.686 258.703C172.603 262.085 174.611 265.65 174.702 269.489C174.793 273.328 172.42 277.624 168.587 278.172C164.753 278.721 161.011 273.602 163.566 270.677" fill="white"/>
</mask>
<g mask="url(#mask20_1544_4817)">
<path d="M110.354 207.79C110.354 207.79 77.1299 232.378 64.3516 231.738" stroke="white" stroke-width="0.5" stroke-miterlimit="10"/>
</g>
<mask id="mask21_1544_4817" style="mask-type:luminance" maskUnits="userSpaceOnUse" x="28" y="136" width="147" height="143">
<path d="M157.451 271.043C148.689 254.224 130.708 244.352 113.001 237.771C95.2936 231.098 76.4 226.528 60.7009 215.834C47.9225 207.15 37.7911 194.536 32.0409 180.094C27.1121 167.754 26.1081 151.941 35.7831 142.983C41.7159 137.499 50.4782 135.853 58.419 137.133C66.3598 138.413 73.6618 142.252 80.5073 146.639C121.307 172.781 146.772 216.565 170.686 258.703C172.603 262.085 174.611 265.65 174.702 269.489C174.793 273.328 172.42 277.624 168.587 278.172C164.753 278.721 161.011 273.602 163.566 270.677" fill="white"/>
</mask>
<g mask="url(#mask21_1544_4817)">
<path d="M119.024 214.919C119.024 214.919 144.033 189.6 145.676 174.152" stroke="white" stroke-width="0.5" stroke-miterlimit="10"/>
</g>
<mask id="mask22_1544_4817" style="mask-type:luminance" maskUnits="userSpaceOnUse" x="28" y="136" width="147" height="143">
<path d="M157.451 271.043C148.689 254.224 130.708 244.352 113.001 237.771C95.2936 231.098 76.4 226.528 60.7009 215.834C47.9225 207.15 37.7911 194.536 32.0409 180.094C27.1121 167.754 26.1081 151.941 35.7831 142.983C41.7159 137.499 50.4782 135.853 58.419 137.133C66.3598 138.413 73.6618 142.252 80.5073 146.639C121.307 172.781 146.772 216.565 170.686 258.703C172.603 262.085 174.611 265.65 174.702 269.489C174.793 273.328 172.42 277.624 168.587 278.172C164.753 278.721 161.011 273.602 163.566 270.677" fill="white"/>
</mask>
<g mask="url(#mask22_1544_4817)">
<path d="M127.422 225.614C127.422 225.614 97.3926 251.025 71.8359 251.756" stroke="white" stroke-width="0.5" stroke-miterlimit="10"/>
</g>
<mask id="mask23_1544_4817" style="mask-type:luminance" maskUnits="userSpaceOnUse" x="28" y="136" width="147" height="143">
<path d="M157.451 271.043C148.689 254.224 130.708 244.352 113.001 237.771C95.2936 231.098 76.4 226.528 60.7009 215.834C47.9225 207.15 37.7911 194.536 32.0409 180.094C27.1121 167.754 26.1081 151.941 35.7831 142.983C41.7159 137.499 50.4782 135.853 58.419 137.133C66.3598 138.413 73.6618 142.252 80.5073 146.639C121.307 172.781 146.772 216.565 170.686 258.703C172.603 262.085 174.611 265.65 174.702 269.489C174.793 273.328 172.42 277.624 168.587 278.172C164.753 278.721 161.011 273.602 163.566 270.677" fill="white"/>
</mask>
<g mask="url(#mask23_1544_4817)">
<path d="M137.645 235.394C137.645 235.394 167.491 206.967 169.408 192.982" stroke="white" stroke-width="0.5" stroke-miterlimit="10"/>
</g>
<path d="M232.387 218.393C237.407 212.36 246.626 212.817 254.384 213.731C251.463 213.914 248.816 210.898 248.999 207.973C249.272 205.048 252.011 202.58 254.931 202.306C257.852 202.031 260.864 203.768 262.416 206.236C259.769 202.945 257.031 199.472 256.027 195.359C255.114 191.246 256.483 186.218 260.317 184.481C263.511 183.019 267.345 184.116 270.083 186.31C272.821 188.503 274.555 191.611 276.289 194.719C276.289 189.417 273.46 184.573 270.813 180.094C268.075 175.524 265.337 170.679 265.337 165.378C265.337 160.076 269.353 154.409 274.647 154.592C279.849 154.775 283.226 160.167 285.052 165.103C288.52 174.335 290.072 184.299 289.524 194.171C290.802 183.75 294.179 173.604 299.473 164.555C300.112 163.458 300.842 162.361 301.937 161.721C303.854 160.716 306.319 161.63 307.688 163.275C309.057 164.921 309.513 167.114 309.787 169.308C310.882 177.9 308.966 186.767 304.493 194.171C307.596 191.885 309.057 188.046 310.243 184.39C311.43 180.734 312.616 176.803 315.355 174.153C318.184 171.502 323.204 170.771 325.669 173.696C327.403 175.706 327.312 178.723 326.764 181.282C325.577 187.315 322.292 192.982 317.545 197.004C321.744 192.342 326.946 188.503 332.697 185.944C334.887 184.939 337.443 184.116 339.634 185.03C343.832 186.767 343.467 193.165 340.82 196.821C338.082 200.478 333.883 202.945 331.784 206.967C337.169 201.117 346.479 199.289 353.781 202.671C360.992 206.053 365.555 214.371 364.551 222.324C332.605 222.689 300.66 223.055 268.623 223.329C255.753 223.512 242.883 223.603 230.014 222.872" fill="#4A83E7"/>
<path d="M113.64 268.758C110.81 257.789 101.227 249.654 90.8213 245.175C80.4161 240.696 69.0069 239.234 57.9628 236.949C46.8273 234.663 35.6007 231.281 26.9297 223.969C23.1874 220.77 19.9016 216.565 19.0801 211.72C18.2586 206.876 20.3579 201.209 24.8304 199.198C31.9497 195.999 39.4342 202.488 44.8193 208.247C58.054 222.141 73.2968 234.115 89.9086 243.804" fill="#BAD3FF"/>
<path d="M29.9413 274.791C35.7829 267.844 46.3706 268.301 55.3155 269.398C51.8471 269.672 48.835 266.199 49.1088 262.725C49.3827 259.343 52.5772 256.509 55.9544 256.235C59.3315 255.961 62.7999 257.972 64.6254 260.806C61.5221 257.058 58.4188 253.036 57.3235 248.283C56.2282 243.53 57.8711 237.771 62.2523 235.669C65.9032 233.932 70.3756 235.212 73.5702 237.771C76.6735 240.331 78.7728 243.895 80.7809 247.46C80.7809 241.336 77.5863 235.76 74.3917 230.55C71.2884 225.34 68.0938 219.673 68.0938 213.64C68.0938 207.516 72.6575 201.026 78.7728 201.209C84.7969 201.483 88.7217 207.699 90.821 213.366C94.837 224.06 96.5712 235.578 95.9323 247.003C97.3927 235.029 101.317 223.329 107.342 212.817C108.072 211.538 108.893 210.258 110.171 209.527C112.362 208.339 115.282 209.344 116.834 211.264C118.386 213.183 119.025 215.742 119.298 218.21C120.485 228.082 118.386 238.411 113.183 246.912C116.743 244.261 118.386 239.782 119.755 235.578C121.124 231.373 122.493 226.803 125.688 223.786C128.882 220.77 134.724 219.856 137.553 223.329C139.47 225.706 139.47 229.088 138.831 232.104C137.462 239.051 133.628 245.541 128.243 250.202C133.172 244.81 139.105 240.422 145.677 237.406C148.232 236.217 151.153 235.303 153.709 236.309C158.546 238.32 158.181 245.632 155.078 249.837C151.974 254.042 147.137 256.875 144.673 261.537C150.97 254.773 161.649 252.67 170.047 256.601C178.353 260.531 183.646 270.129 182.551 279.27C145.677 279.635 108.711 280.092 71.836 280.458C56.9584 280.641 42.0808 280.823 27.2031 279.909" fill="#4A83E7"/>
<path d="M221.534 296.11C268.281 288.663 305.24 276.725 304.083 269.446C302.927 262.167 264.094 262.303 217.347 269.75C170.599 277.197 133.64 289.135 134.797 296.414C135.953 303.693 174.786 303.557 221.534 296.11Z" fill="#DAE9F5"/>
<path d="M241.332 17.3913L281.766 254.498C282.04 255.87 282.131 257.241 282.04 258.52C282.04 259.16 281.949 259.8 281.857 260.44C281.766 260.805 281.766 261.08 281.675 261.445C281.31 263.365 280.671 265.193 279.849 266.93C279.393 267.752 278.937 268.575 278.389 269.398C277.841 270.22 277.202 270.952 276.563 271.591C276.107 272.048 275.651 272.505 275.194 272.962C274.738 273.419 274.19 273.785 273.734 274.151C272.912 274.699 272.091 275.248 271.27 275.705C270.722 275.979 270.083 276.253 269.444 276.527C268.166 276.984 266.888 277.35 265.519 277.624L168.313 294.169C166.852 294.443 165.483 294.534 164.023 294.443C163.749 294.443 163.566 294.443 163.293 294.443C163.019 294.443 162.745 294.443 162.562 294.352C161.467 294.26 160.463 293.986 159.459 293.712C158.911 293.529 158.455 293.437 157.999 293.255C157.816 293.163 157.542 293.072 157.36 292.98C156.903 292.798 156.447 292.523 155.991 292.341C154.53 291.609 153.252 290.695 152.066 289.69C151.61 289.233 151.153 288.867 150.697 288.41C150.058 287.679 149.419 286.948 148.871 286.216C148.141 285.119 147.502 284.023 146.955 282.834C146.316 281.372 145.768 279.727 145.494 277.99L104.877 40.6998C103.052 29.8225 110.354 19.4936 121.215 17.6655L218.331 1.02958C229.192 -0.798543 239.506 6.51394 241.332 17.3913Z" fill="#020202"/>
<path d="M237.042 18.1227L277.476 255.23C277.659 256.235 277.75 257.332 277.659 258.429C277.659 258.886 277.567 259.343 277.567 259.892L277.385 260.806C277.111 262.177 276.655 263.639 275.924 265.01C275.559 265.65 275.194 266.29 274.738 266.93C274.373 267.478 273.825 268.118 273.277 268.667C273.004 268.941 272.73 269.215 272.365 269.581L272.182 269.672C271.908 269.946 271.543 270.221 271.269 270.403L270.996 270.586C270.448 270.952 269.9 271.317 269.261 271.683L269.079 271.774C268.622 272.049 268.166 272.231 267.71 272.414C266.706 272.78 265.702 273.054 264.606 273.237L167.491 289.873C166.396 290.056 165.301 290.147 164.205 290.056C163.84 290.056 163.475 290.056 163.11 289.964C162.288 289.873 161.467 289.69 160.646 289.507C160.28 289.416 159.824 289.233 159.55 289.142C159.368 289.05 159.185 289.05 159.094 288.959H159.003C158.729 288.867 158.364 288.685 157.907 288.502C156.812 287.953 155.808 287.222 154.804 286.399C154.439 286.034 154.074 285.76 153.709 285.394C153.161 284.845 152.705 284.206 152.248 283.657C151.701 282.926 151.244 282.103 150.788 281.281L150.697 281.098C150.149 279.91 149.784 278.63 149.601 277.35L109.167 39.9687C107.707 31.468 113.457 23.4243 121.945 21.9618L219.061 5.41727C225.541 4.3204 231.748 7.4282 234.942 12.6383C235.946 14.2837 236.677 16.1118 237.042 18.1227Z" fill="#F2F7FF"/>
<path opacity="0.2" d="M270.175 188.869C270.083 187.955 270.083 186.858 270.083 185.67L273.278 204.408C271.726 201.666 270.722 199.564 270.448 198.832C269.81 196.821 269.901 192.617 270.175 188.869Z" fill="#020202"/>
<path d="M251.555 77.4452L246.809 49.4749C248.999 49.1093 251.098 50.5718 251.464 52.7656L254.932 72.8749C255.206 74.9772 253.745 77.0796 251.555 77.4452Z" fill="#020202"/>
<path d="M112.818 86.7686L114.643 86.4944L112.27 72.5093L110.445 72.7835C109.258 72.9663 108.528 74.0632 108.71 75.2515L110.353 85.0319C110.536 86.1288 111.723 86.9514 112.818 86.7686Z" fill="#020202"/>
<path d="M115.739 103.679L117.564 103.405L115.191 89.4194L113.366 89.6937C112.179 89.8765 111.449 90.9733 111.631 92.1616L113.274 101.942C113.457 103.039 114.552 103.862 115.739 103.679Z" fill="#020202"/>
<path d="M185.929 17.117L157.086 22.0529C152.249 22.8755 147.594 19.5849 146.772 14.7404L193.231 6.78809C194.052 11.724 190.766 16.2943 185.929 17.117Z" fill="#020202"/>
<path d="M155.26 82.6554L131.438 86.4031C130.251 86.5859 129.247 85.7632 129.065 84.6664L125.322 60.8094C125.14 59.6211 125.961 58.6156 127.057 58.4328L150.879 54.6852C152.066 54.5024 153.07 55.325 153.252 56.4219L156.994 80.2789C157.268 81.3757 156.447 82.4726 155.26 82.6554Z" fill="#D6E7FE"/>
<path d="M231.383 49.292L161.193 60.2607C160.646 60.3521 160.189 59.9865 160.098 59.4381V59.3467C160.007 58.7982 160.372 58.3412 160.919 58.2498L231.109 47.2811C231.657 47.1897 232.113 47.5553 232.204 48.1037V48.1951C232.296 48.6522 231.93 49.2006 231.383 49.292Z" fill="#BAD3FF"/>
<path d="M225.997 55.1421L162.015 65.1054C161.467 65.1968 161.011 64.8312 160.919 64.2827V64.1913C160.828 63.6429 161.193 63.1858 161.741 63.0944L225.724 53.1312C226.271 53.0398 226.728 53.4054 226.819 53.9538V54.0452C226.91 54.5937 226.545 55.0507 225.997 55.1421Z" fill="#BAD3FF"/>
<path d="M207.377 63.0943L162.836 70.0411C162.288 70.1325 161.832 69.7669 161.741 69.2185V69.1271C161.649 68.5786 162.014 68.1216 162.562 68.0302L207.012 61.0833C207.56 60.9919 208.016 61.3576 208.108 61.906V61.9974C208.199 62.5458 207.834 63.0029 207.377 63.0943Z" fill="#BAD3FF"/>
<path d="M193.138 70.4068L163.474 75.0685C162.927 75.1599 162.47 74.7943 162.379 74.2458V74.1544C162.288 73.606 162.653 73.1489 163.201 73.0575L192.865 68.3958C193.412 68.3044 193.869 68.6701 193.96 69.2185V69.3099C194.051 69.8583 193.686 70.3154 193.138 70.4068Z" fill="#BAD3FF"/>
<path d="M161.467 120.68L137.645 124.428C136.458 124.611 135.454 123.788 135.272 122.691L131.529 98.8343C131.347 97.646 132.168 96.6405 133.264 96.4577L157.086 92.7101C158.273 92.5273 159.277 93.3499 159.459 94.4468L163.201 118.304C163.384 119.492 162.562 120.498 161.467 120.68Z" fill="#D6E7FE"/>
<path d="M237.498 87.3169L167.308 98.2856C166.761 98.377 166.304 98.0114 166.213 97.463V97.3716C166.122 96.8231 166.487 96.3661 167.035 96.2747L237.224 85.306C237.772 85.2146 238.228 85.5802 238.32 86.1286V86.2201C238.411 86.7685 238.046 87.2255 237.498 87.3169Z" fill="#0A3E99"/>
<path d="M232.113 93.2583L168.13 103.222C167.582 103.313 167.126 102.947 167.034 102.399V102.308C166.943 101.759 167.308 101.302 167.856 101.211L231.839 91.2474C232.387 91.156 232.843 91.5216 232.934 92.0701V92.1615C233.025 92.6185 232.66 93.1669 232.113 93.2583Z" fill="#0A3E99"/>
<path d="M213.494 101.119L168.952 108.066C168.404 108.157 167.948 107.792 167.857 107.243V107.152C167.765 106.604 168.131 106.146 168.678 106.055L213.22 99.1082C213.767 99.0168 214.224 99.3825 214.315 99.9309V100.022C214.315 100.571 213.95 101.028 213.494 101.119Z" fill="#0A3E99"/>
<path d="M199.346 108.523L169.682 113.185C169.134 113.276 168.678 112.91 168.586 112.362V112.271C168.495 111.722 168.86 111.265 169.408 111.174L199.072 106.512C199.619 106.421 200.076 106.786 200.167 107.335V107.426C200.167 107.883 199.802 108.432 199.346 108.523Z" fill="#0A3E99"/>
<path d="M167.673 158.979L143.851 162.727C142.664 162.91 141.66 162.087 141.478 160.99L137.735 137.133C137.553 135.945 138.374 134.939 139.47 134.757L163.292 131.009C164.479 130.826 165.483 131.649 165.665 132.746L169.407 156.603C169.681 157.699 168.86 158.796 167.673 158.979Z" stroke="#D6E7FE" stroke-miterlimit="10"/>
<path d="M243.796 125.524L173.606 136.493C173.059 136.585 172.602 136.219 172.511 135.671V135.579C172.42 135.031 172.785 134.574 173.333 134.482L243.522 123.514C244.07 123.422 244.526 123.788 244.617 124.336V124.428C244.709 124.976 244.344 125.433 243.796 125.524Z" fill="#4A83E7"/>
<path d="M238.411 131.466L174.428 141.429C173.88 141.521 173.424 141.155 173.332 140.606V140.515C173.241 139.967 173.606 139.51 174.154 139.418L238.137 129.455C238.684 129.364 239.141 129.729 239.232 130.278V130.369C239.323 130.917 238.958 131.374 238.411 131.466Z" fill="#4A83E7"/>
<path d="M219.7 139.418L175.158 146.365C174.61 146.456 174.154 146.091 174.063 145.542V145.451C173.972 144.902 174.337 144.445 174.884 144.354L219.426 137.407C219.974 137.316 220.43 137.681 220.521 138.23V138.321C220.612 138.778 220.247 139.327 219.7 139.418Z" fill="#4A83E7"/>
<path d="M205.552 146.73L175.888 151.392C175.34 151.484 174.884 151.118 174.792 150.57V150.478C174.701 149.93 175.066 149.473 175.614 149.381L205.278 144.72C205.825 144.628 206.282 144.994 206.373 145.542V145.634C206.464 146.182 206.099 146.639 205.552 146.73Z" fill="#4A83E7"/>
<path d="M238.867 257.332L193.23 265.467C189.579 266.107 186.019 263.639 185.38 259.983L185.198 259.16C184.559 255.504 187.023 251.939 190.674 251.299L236.311 243.164C239.962 242.524 243.522 244.992 244.16 248.648L244.343 249.471C244.891 253.219 242.517 256.692 238.867 257.332Z" fill="#4A83E7"/>
<path d="M247.995 192.617L156.538 207.333C153.161 207.882 150.058 205.597 149.51 202.214L147.867 191.977C147.32 188.595 149.601 185.487 152.979 184.939L244.435 170.222C247.812 169.674 250.915 171.959 251.463 175.341L253.106 185.579C253.654 188.869 251.372 192.068 247.995 192.617Z" fill="#D6E7FE"/>
<path d="M253.289 223.603L161.832 238.32C158.455 238.868 155.352 236.583 154.804 233.201L153.161 222.963C152.614 219.581 154.895 216.473 158.273 215.925L249.729 201.209C253.106 200.66 256.209 202.945 256.757 206.327L258.4 216.565C258.948 219.856 256.666 223.055 253.289 223.603Z" stroke="#D6E7FE" stroke-miterlimit="10"/>
</g>
<defs>
<clipPath id="clip0_1544_4817">
<rect width="364" height="301" fill="white" transform="translate(0.734375 0.755371)"/>
</clipPath>
</defs>
</svg>
