<svg width="466" height="321" viewBox="0 0 466 321" fill="none" xmlns="http://www.w3.org/2000/svg">
<path fill-rule="evenodd" clip-rule="evenodd" d="M65.2013 214.525H50.7912C23.3821 214.525 0.961972 238.323 0.902344 267.425V267.683C0.961972 296.785 23.402 320.582 50.7912 320.582H385.106C429.549 320.582 465.902 281.946 465.902 234.727C465.902 187.509 429.549 148.872 385.106 148.872C366.323 148.872 350.939 132.543 350.939 112.56C350.939 92.5956 366.303 76.247 385.106 76.247C404.644 76.247 420.625 59.2627 420.625 38.5041C420.625 17.7455 404.644 0.76123 385.106 0.76123H271.773C252.692 1.31744 249.731 7.3563 246.093 18.7984C242.277 30.8363 222.461 31.8097 222.461 31.8097H181.456C140.035 31.8097 135.801 45.2978 127.294 72.1549C118.787 98.992 74.5828 101.157 74.5828 101.157H62.1007C47.1539 101.157 34.9103 114.169 34.9103 130.06C34.9103 145.952 47.1539 158.963 62.1007 158.963H65.2212C79.6115 158.963 91.3781 171.478 91.3781 186.754C91.3582 202.03 79.5717 214.525 65.2013 214.525Z" fill="#ECF4FF"/>
<path fill-rule="evenodd" clip-rule="evenodd" d="M66.2155 38.0078H203.082C203.102 38.0078 203.122 38.0277 203.122 38.0475V121.777C203.122 121.797 203.102 121.817 203.082 121.817H66.2155C66.1957 121.817 66.1758 121.797 66.1758 121.777V38.0475C66.1758 38.0277 66.1957 38.0078 66.2155 38.0078Z" fill="#1F3E7A"/>
<path fill-rule="evenodd" clip-rule="evenodd" d="M122.405 115.777H162.296C162.753 115.777 163.111 115.42 163.111 114.963C163.111 114.506 162.753 114.148 162.296 114.148H122.405C121.948 114.148 121.59 114.506 121.59 114.963C121.59 115.4 121.967 115.777 122.405 115.777Z" fill="#EB6502"/>
<path fill-rule="evenodd" clip-rule="evenodd" d="M166.728 115.777H176.527C176.984 115.777 177.342 115.42 177.342 114.963C177.342 114.506 176.984 114.148 176.527 114.148H166.728C166.271 114.148 165.913 114.506 165.913 114.963C165.913 115.4 166.271 115.777 166.728 115.777Z" fill="white"/>
<path fill-rule="evenodd" clip-rule="evenodd" d="M118.091 112.222H127.89C128.347 112.222 128.705 111.864 128.705 111.407C128.705 110.95 128.347 110.593 127.89 110.593H118.091C117.634 110.593 117.276 110.95 117.276 111.407C117.276 111.864 117.654 112.222 118.091 112.222Z" fill="white"/>
<path fill-rule="evenodd" clip-rule="evenodd" d="M122.405 108.666H137.093C137.55 108.666 137.908 108.308 137.908 107.852C137.908 107.395 137.55 107.037 137.093 107.037H122.405C121.948 107.037 121.59 107.395 121.59 107.852C121.59 108.308 121.967 108.666 122.405 108.666Z" fill="white"/>
<path fill-rule="evenodd" clip-rule="evenodd" d="M122.464 105.13H134.509C134.966 105.13 135.324 104.772 135.324 104.315C135.324 103.859 134.966 103.501 134.509 103.501H122.464C122.007 103.501 121.649 103.859 121.649 104.315C121.649 104.752 122.007 105.13 122.464 105.13Z" fill="white"/>
<path fill-rule="evenodd" clip-rule="evenodd" d="M122.464 101.574H159.036C159.493 101.574 159.851 101.217 159.851 100.76C159.851 100.303 159.493 99.9453 159.036 99.9453H122.464C122.007 99.9453 121.649 100.303 121.649 100.76C121.649 101.217 122.007 101.574 122.464 101.574Z" fill="white"/>
<path fill-rule="evenodd" clip-rule="evenodd" d="M141.665 108.666H151.265C151.722 108.666 152.08 108.308 152.08 107.852C152.08 107.395 151.722 107.037 151.265 107.037H141.665C141.207 107.037 140.85 107.395 140.85 107.852C140.85 108.308 141.207 108.666 141.665 108.666Z" fill="white"/>
<path fill-rule="evenodd" clip-rule="evenodd" d="M138.047 105.13H166.589C167.046 105.13 167.404 104.772 167.404 104.315C167.404 103.859 167.046 103.501 166.589 103.501H138.047C137.59 103.501 137.232 103.859 137.232 104.315C137.232 104.752 137.59 105.13 138.047 105.13Z" fill="#EB6502"/>
<path fill-rule="evenodd" clip-rule="evenodd" d="M170.882 105.13H178.535C178.992 105.13 179.349 104.772 179.349 104.315C179.349 103.859 178.992 103.501 178.535 103.501H170.882C170.425 103.501 170.067 103.859 170.067 104.315C170.067 104.752 170.425 105.13 170.882 105.13Z" fill="#6CD6FF"/>
<path fill-rule="evenodd" clip-rule="evenodd" d="M182.549 105.13H190.202C190.659 105.13 191.016 104.772 191.016 104.315C191.016 103.859 190.659 103.501 190.202 103.501H182.549C182.092 103.501 181.734 103.859 181.734 104.315C181.734 104.752 182.092 105.13 182.549 105.13Z" fill="#00D0FF"/>
<path fill-rule="evenodd" clip-rule="evenodd" d="M118.091 97.999H127.89C128.347 97.999 128.705 97.6415 128.705 97.1846C128.705 96.7277 128.347 96.3701 127.89 96.3701H118.091C117.634 96.3701 117.276 96.7277 117.276 97.1846C117.276 97.6415 117.654 97.999 118.091 97.999Z" fill="white"/>
<path fill-rule="evenodd" clip-rule="evenodd" d="M122.405 66.7915H137.093C137.55 66.7915 137.908 66.4339 137.908 65.977C137.908 65.5202 137.55 65.1626 137.093 65.1626H122.405C121.948 65.1626 121.59 65.5202 121.59 65.977C121.59 66.4339 121.967 66.7915 122.405 66.7915Z" fill="white"/>
<path fill-rule="evenodd" clip-rule="evenodd" d="M141.665 66.7915H151.265C151.722 66.7915 152.08 66.4339 152.08 65.977C152.08 65.5202 151.722 65.1626 151.265 65.1626H141.665C141.207 65.1626 140.85 65.5202 140.85 65.977C140.85 66.4339 141.207 66.7915 141.665 66.7915Z" fill="white"/>
<path fill-rule="evenodd" clip-rule="evenodd" d="M122.663 93.251H132.462C132.919 93.251 133.277 92.8934 133.277 92.4365C133.277 91.9796 132.919 91.6221 132.462 91.6221H122.663C122.206 91.6221 121.848 91.9796 121.848 92.4365C121.829 92.8934 122.206 93.251 122.663 93.251Z" fill="white"/>
<path fill-rule="evenodd" clip-rule="evenodd" d="M122.405 89.7153H137.093C137.55 89.7153 137.908 89.3578 137.908 88.9009C137.908 88.444 137.55 88.0864 137.093 88.0864H122.405C121.948 88.0864 121.59 88.444 121.59 88.9009C121.59 89.3379 121.967 89.7153 122.405 89.7153Z" fill="white"/>
<path fill-rule="evenodd" clip-rule="evenodd" d="M122.464 86.1592H134.509C134.966 86.1592 135.324 85.8016 135.324 85.3447C135.324 84.8878 134.966 84.5303 134.509 84.5303H122.464C122.007 84.5303 121.649 84.8878 121.649 85.3447C121.649 85.7817 122.007 86.1592 122.464 86.1592Z" fill="white"/>
<path fill-rule="evenodd" clip-rule="evenodd" d="M122.464 82.6035H138.266C138.723 82.6035 139.081 82.2459 139.081 81.7891C139.081 81.3322 138.723 80.9746 138.266 80.9746H122.464C122.007 80.9746 121.649 81.3322 121.649 81.7891C121.649 82.2459 122.007 82.6035 122.464 82.6035Z" fill="#00D0FF"/>
<path fill-rule="evenodd" clip-rule="evenodd" d="M141.665 89.7153H151.265C151.722 89.7153 152.08 89.3578 152.08 88.9009C152.08 88.444 151.722 88.0864 151.265 88.0864H141.665C141.207 88.0864 140.85 88.444 140.85 88.9009C140.85 89.3379 141.207 89.7153 141.665 89.7153Z" fill="white"/>
<path fill-rule="evenodd" clip-rule="evenodd" d="M138.047 86.1592H166.589C167.046 86.1592 167.404 85.8016 167.404 85.3447C167.404 84.8878 167.046 84.5303 166.589 84.5303H138.047C137.59 84.5303 137.232 84.8878 137.232 85.3447C137.232 85.7817 137.59 86.1592 138.047 86.1592Z" fill="#010249"/>
<path fill-rule="evenodd" clip-rule="evenodd" d="M170.882 86.1592H178.535C178.992 86.1592 179.349 85.8016 179.349 85.3447C179.349 84.8878 178.992 84.5303 178.535 84.5303H170.882C170.425 84.5303 170.067 84.8878 170.067 85.3447C170.067 85.7817 170.425 86.1592 170.882 86.1592Z" fill="white"/>
<path fill-rule="evenodd" clip-rule="evenodd" d="M182.549 86.1592H190.202C190.659 86.1592 191.016 85.8016 191.016 85.3447C191.016 84.8878 190.659 84.5303 190.202 84.5303H182.549C182.092 84.5303 181.734 84.8878 181.734 85.3447C181.734 85.7817 182.092 86.1592 182.549 86.1592Z" fill="white"/>
<path fill-rule="evenodd" clip-rule="evenodd" d="M134.112 79.0679H162.654C163.111 79.0679 163.469 78.7103 163.469 78.2534C163.469 77.7965 163.111 77.439 162.654 77.439H134.112C133.655 77.439 133.297 77.7965 133.297 78.2534C133.297 78.6904 133.655 79.0679 134.112 79.0679Z" fill="white"/>
<path fill-rule="evenodd" clip-rule="evenodd" d="M166.947 79.0679H174.599C175.056 79.0679 175.414 78.7103 175.414 78.2534C175.414 77.7965 175.056 77.439 174.599 77.439H166.947C166.49 77.439 166.132 77.7965 166.132 78.2534C166.132 78.6904 166.49 79.0679 166.947 79.0679Z" fill="white"/>
<path fill-rule="evenodd" clip-rule="evenodd" d="M178.614 79.0679H186.267C186.724 79.0679 187.082 78.7103 187.082 78.2534C187.082 77.7965 186.724 77.439 186.267 77.439H178.614C178.157 77.439 177.8 77.7965 177.8 78.2534C177.78 78.6904 178.157 79.0679 178.614 79.0679Z" fill="white"/>
<path fill-rule="evenodd" clip-rule="evenodd" d="M134.112 75.2935H146.594C147.051 75.2935 147.409 74.9359 147.409 74.479C147.409 74.0221 147.051 73.6646 146.594 73.6646H134.112C133.655 73.6646 133.297 74.0221 133.297 74.479C133.297 74.9359 133.655 75.2935 134.112 75.2935Z" fill="white"/>
<path fill-rule="evenodd" clip-rule="evenodd" d="M150.947 75.2935H170.525C170.982 75.2935 171.34 74.9359 171.34 74.479C171.34 74.0221 170.982 73.6646 170.525 73.6646H150.947C150.49 73.6646 150.132 74.0221 150.132 74.479C150.132 74.9359 150.509 75.2935 150.947 75.2935Z" fill="white"/>
<path fill-rule="evenodd" clip-rule="evenodd" d="M175.553 75.2935H192.05C192.507 75.2935 192.865 74.9359 192.865 74.479C192.865 74.0221 192.507 73.6646 192.05 73.6646H175.553C175.096 73.6646 174.738 74.0221 174.738 74.479C174.718 74.9359 175.096 75.2935 175.553 75.2935Z" fill="white"/>
<path d="M96.407 43.8076H72.1582V118.896H96.407V43.8076Z" fill="#031542"/>
<path fill-rule="evenodd" clip-rule="evenodd" d="M141.685 82.6035H150.192C150.649 82.6035 151.007 82.2459 151.007 81.7891C151.007 81.3322 150.649 80.9746 150.192 80.9746H141.685C141.228 80.9746 140.87 81.3322 140.87 81.7891C140.85 82.2459 141.228 82.6035 141.685 82.6035Z" fill="#010249"/>
<path fill-rule="evenodd" clip-rule="evenodd" d="M153.153 82.6035H161.66C162.117 82.6035 162.475 82.2459 162.475 81.7891C162.475 81.3322 162.117 80.9746 161.66 80.9746H153.153C152.696 80.9746 152.338 81.3322 152.338 81.7891C152.338 82.2459 152.716 82.6035 153.153 82.6035Z" fill="#010249"/>
<path fill-rule="evenodd" clip-rule="evenodd" d="M118.091 71.2607H130.693C131.15 71.2607 131.508 70.9032 131.508 70.4463C131.508 69.9894 131.15 69.6318 130.693 69.6318H118.091C117.634 69.6318 117.276 69.9894 117.276 70.4463C117.276 70.8833 117.654 71.2607 118.091 71.2607Z" fill="white"/>
<path fill-rule="evenodd" clip-rule="evenodd" d="M134.112 71.2607H142.619C143.076 71.2607 143.434 70.9032 143.434 70.4463C143.434 69.9894 143.076 69.6318 142.619 69.6318H134.112C133.655 69.6318 133.297 69.9894 133.297 70.4463C133.297 70.8833 133.655 71.2607 134.112 71.2607Z" fill="white"/>
<path fill-rule="evenodd" clip-rule="evenodd" d="M146.455 71.2607H154.962C155.419 71.2607 155.776 70.9032 155.776 70.4463C155.776 69.9894 155.419 69.6318 154.962 69.6318H146.455C145.997 69.6318 145.64 69.9894 145.64 70.4463C145.64 70.8833 145.997 71.2607 146.455 71.2607Z" fill="white"/>
<path fill-rule="evenodd" clip-rule="evenodd" d="M79.2931 96.7474H84.6994C85.1366 96.7474 85.4944 96.3898 85.4944 95.9528C85.4944 95.5158 85.1366 95.1582 84.6994 95.1582H79.2931C78.8558 95.1582 78.498 95.5158 78.498 95.9528C78.498 96.3898 78.8558 96.7474 79.2931 96.7474Z" fill="#E8F6FD"/>
<path fill-rule="evenodd" clip-rule="evenodd" d="M76.0333 92.8538H90.3242C90.7615 92.8538 91.1192 92.4963 91.1192 92.0592C91.1192 91.6222 90.7615 91.2646 90.3242 91.2646H76.0333C75.596 91.2646 75.2383 91.6222 75.2383 92.0592C75.2383 92.4963 75.596 92.8538 76.0333 92.8538Z" fill="#E8F6FD"/>
<path fill-rule="evenodd" clip-rule="evenodd" d="M76.0333 88.722H86.9254C87.3627 88.722 87.7204 88.3644 87.7204 87.9274C87.7204 87.4904 87.3627 87.1328 86.9254 87.1328H76.0333C75.596 87.1328 75.2383 87.4904 75.2383 87.9274C75.2383 88.3644 75.596 88.722 76.0333 88.722Z" fill="#E8F6FD"/>
<path fill-rule="evenodd" clip-rule="evenodd" d="M79.2931 84.5902H90.1653C90.6026 84.5902 90.9603 84.2326 90.9603 83.7956C90.9603 83.3585 90.6026 83.001 90.1653 83.001H79.2931C78.8558 83.001 78.498 83.3585 78.498 83.7956C78.498 84.2326 78.8558 84.5902 79.2931 84.5902Z" fill="#E8F6FD"/>
<path fill-rule="evenodd" clip-rule="evenodd" d="M79.2931 80.4583H82.7515C83.1888 80.4583 83.5466 80.1008 83.5466 79.6637C83.5466 79.2267 83.1888 78.8691 82.7515 78.8691H79.2931C78.8558 78.8691 78.498 79.2267 78.498 79.6637C78.498 80.1206 78.8558 80.4583 79.2931 80.4583Z" fill="#E8F6FD"/>
<path fill-rule="evenodd" clip-rule="evenodd" d="M76.0333 76.346H86.3689C86.8061 76.346 87.1639 75.9884 87.1639 75.5514C87.1639 75.1144 86.8061 74.7568 86.3689 74.7568H76.0333C75.5961 74.7568 75.2383 75.1144 75.2383 75.5514C75.2383 75.9884 75.5961 76.346 76.0333 76.346Z" fill="#E8F6FD"/>
<path fill-rule="evenodd" clip-rule="evenodd" d="M79.2345 72.2142H82.0569C82.4942 72.2142 82.8519 71.8566 82.8519 71.4196C82.8519 70.9826 82.4942 70.625 82.0569 70.625H79.2345C78.7972 70.625 78.4395 70.9826 78.4395 71.4196C78.4395 71.8566 78.7972 72.2142 79.2345 72.2142Z" fill="#E8F6FD"/>
<path fill-rule="evenodd" clip-rule="evenodd" d="M78.8556 68.0823H90.3241C90.7613 68.0823 91.1191 67.7248 91.1191 67.2878C91.1191 66.8507 90.7613 66.4932 90.3241 66.4932H78.8556C78.4183 66.4932 78.0605 66.8507 78.0605 67.2878C78.0605 67.7248 78.4183 68.0823 78.8556 68.0823Z" fill="#E8F6FD"/>
<path fill-rule="evenodd" clip-rule="evenodd" d="M79.2931 100.403H84.6994C85.1366 100.403 85.4944 100.045 85.4944 99.6081C85.4944 99.171 85.1366 98.8135 84.6994 98.8135H79.2931C78.8558 98.8135 78.498 99.171 78.498 99.6081C78.498 100.045 78.8558 100.403 79.2931 100.403Z" fill="#E8F6FD"/>
<path fill-rule="evenodd" clip-rule="evenodd" d="M76.0333 104.037H89.8472C90.2844 104.037 90.6422 103.68 90.6422 103.243C90.6422 102.806 90.2844 102.448 89.8472 102.448H76.0333C75.596 102.448 75.2383 102.806 75.2383 103.243C75.2383 103.68 75.596 104.037 76.0333 104.037Z" fill="#E8F6FD"/>
<path fill-rule="evenodd" clip-rule="evenodd" d="M79.2931 107.693H84.6994C85.1366 107.693 85.4944 107.335 85.4944 106.898C85.4944 106.461 85.1366 106.104 84.6994 106.104H79.2931C78.8558 106.104 78.498 106.461 78.498 106.898C78.498 107.335 78.8558 107.693 79.2931 107.693Z" fill="#E8F6FD"/>
<path fill-rule="evenodd" clip-rule="evenodd" d="M105.51 66.7915H106.166C106.623 66.7915 106.981 66.4339 106.981 65.977C106.981 65.5202 106.623 65.1626 106.166 65.1626H105.51C105.053 65.1626 104.695 65.5202 104.695 65.977C104.695 66.4339 105.053 66.7915 105.51 66.7915Z" fill="#B1CBEF"/>
<path fill-rule="evenodd" clip-rule="evenodd" d="M105.61 79.0679H106.186C106.643 79.0679 107.001 78.7103 107.001 78.2534C107.001 77.7965 106.643 77.439 106.186 77.439H105.61C105.153 77.439 104.795 77.7965 104.795 78.2534C104.795 78.6904 105.153 79.0679 105.61 79.0679Z" fill="#B1CBEF"/>
<path fill-rule="evenodd" clip-rule="evenodd" d="M105.61 75.2935H106.186C106.643 75.2935 107.001 74.9359 107.001 74.479C107.001 74.0221 106.643 73.6646 106.186 73.6646H105.61C105.153 73.6646 104.795 74.0221 104.795 74.479C104.795 74.9359 105.153 75.2935 105.61 75.2935Z" fill="#B1CBEF"/>
<path fill-rule="evenodd" clip-rule="evenodd" d="M105.61 71.2607H106.186C106.643 71.2607 107.001 70.9032 107.001 70.4463C107.001 69.9894 106.643 69.6318 106.186 69.6318H105.61C105.153 69.6318 104.795 69.9894 104.795 70.4463C104.795 70.8833 105.153 71.2607 105.61 71.2607Z" fill="#B1CBEF"/>
<path fill-rule="evenodd" clip-rule="evenodd" d="M105.848 93.251H106.166C106.623 93.251 106.981 92.8934 106.981 92.4365C106.981 91.9796 106.623 91.6221 106.166 91.6221H105.848C105.391 91.6221 105.033 91.9796 105.033 92.4365C105.033 92.8934 105.411 93.251 105.848 93.251Z" fill="#B1CBEF"/>
<path fill-rule="evenodd" clip-rule="evenodd" d="M105.61 89.7153H106.186C106.643 89.7153 107.001 89.3578 107.001 88.9009C107.001 88.444 106.643 88.0864 106.186 88.0864H105.61C105.153 88.0864 104.795 88.444 104.795 88.9009C104.795 89.3379 105.153 89.7153 105.61 89.7153Z" fill="#B1CBEF"/>
<path fill-rule="evenodd" clip-rule="evenodd" d="M105.649 86.1592H106.166C106.623 86.1592 106.981 85.8016 106.981 85.3447C106.981 84.8878 106.623 84.5303 106.166 84.5303H105.649C105.192 84.5303 104.834 84.8878 104.834 85.3447C104.834 85.7817 105.212 86.1592 105.649 86.1592Z" fill="#B1CBEF"/>
<path fill-rule="evenodd" clip-rule="evenodd" d="M105.649 82.6035H106.166C106.623 82.6035 106.981 82.2459 106.981 81.7891C106.981 81.3322 106.623 80.9746 106.166 80.9746H105.649C105.192 80.9746 104.834 81.3322 104.834 81.7891C104.834 82.2459 105.212 82.6035 105.649 82.6035Z" fill="#B1CBEF"/>
<path fill-rule="evenodd" clip-rule="evenodd" d="M105.927 112.222H106.166C106.623 112.222 106.981 111.864 106.981 111.407C106.981 110.95 106.623 110.593 106.166 110.593H105.927C105.47 110.593 105.112 110.95 105.112 111.407C105.112 111.864 105.49 112.222 105.927 112.222Z" fill="#B1CBEF"/>
<path fill-rule="evenodd" clip-rule="evenodd" d="M105.927 108.666H106.166C106.623 108.666 106.981 108.308 106.981 107.852C106.981 107.395 106.623 107.037 106.166 107.037H105.927C105.47 107.037 105.112 107.395 105.112 107.852C105.112 108.308 105.49 108.666 105.927 108.666Z" fill="#B1CBEF"/>
<path fill-rule="evenodd" clip-rule="evenodd" d="M105.908 105.13H106.186C106.643 105.13 107.001 104.772 107.001 104.315C107.001 103.859 106.643 103.501 106.186 103.501H105.908C105.451 103.501 105.093 103.859 105.093 104.315C105.093 104.752 105.451 105.13 105.908 105.13Z" fill="#B1CBEF"/>
<path fill-rule="evenodd" clip-rule="evenodd" d="M105.848 101.574H106.166C106.623 101.574 106.981 101.217 106.981 100.76C106.981 100.303 106.623 99.9453 106.166 99.9453H105.848C105.391 99.9453 105.033 100.303 105.033 100.76C105.033 101.217 105.411 101.574 105.848 101.574Z" fill="#B1CBEF"/>
<path fill-rule="evenodd" clip-rule="evenodd" d="M105.848 97.999H106.166C106.623 97.999 106.981 97.6415 106.981 97.1846C106.981 96.7277 106.623 96.3701 106.166 96.3701H105.848C105.391 96.3701 105.033 96.7277 105.033 97.1846C105.033 97.6415 105.411 97.999 105.848 97.999Z" fill="#B1CBEF"/>
<path fill-rule="evenodd" clip-rule="evenodd" d="M231.842 16.355H356.346C367.755 16.355 377.096 25.8503 377.096 37.4513V299.486C377.096 311.087 367.755 320.582 356.346 320.582H231.842C220.434 320.582 211.092 311.087 211.092 299.486V37.4513C211.092 25.8503 220.434 16.355 231.842 16.355Z" fill="#4A83E7"/>
<path fill-rule="evenodd" clip-rule="evenodd" d="M222.798 16.355H347.302C358.711 16.355 368.053 25.8503 368.053 37.4513V299.486C368.053 311.087 358.711 320.582 347.302 320.582H222.798C211.39 320.582 202.048 311.087 202.048 299.486V37.4513C202.048 25.8503 211.39 16.355 222.798 16.355Z" fill="#90B5FF"/>
<path fill-rule="evenodd" clip-rule="evenodd" d="M221.824 25.9497C215.782 25.9497 210.793 30.9357 210.793 36.9746V298.135C210.793 304.174 215.782 309.16 221.824 309.16H348.276C354.318 309.16 359.307 304.174 359.307 298.135V36.9746C359.307 30.9357 354.318 25.9497 348.276 25.9497H321.582C321.582 29.6048 318.601 32.5845 314.943 32.5845H252.652C248.995 32.5845 246.013 29.6048 246.013 25.9497H221.824Z" fill="white"/>
<path d="M350.303 242.097H290.437V290.03H350.303V242.097Z" fill="#E7EFF9"/>
<path d="M281.076 242.097H221.209V290.03H281.076V242.097Z" fill="#E7EFF9"/>
<path d="M221.407 242.097L251.142 265.895L280.876 242.097L281.274 242.593L251.639 266.312L281.274 290.01L280.876 290.507L251.142 266.709L221.407 290.507L221.01 290.01L250.625 266.312L221.01 242.593L221.407 242.097Z" fill="white"/>
<path fill-rule="evenodd" clip-rule="evenodd" d="M69.812 186.138C45.7421 251.493 54.3683 319.232 143.93 320.543C159.751 320.781 162.077 320.741 187.26 319.172C202.326 318.238 223.613 309.041 229.436 296.288C239.295 274.675 231.623 244.421 192.109 233.675C180.243 230.456 166.946 219.968 163.388 212.856C151.86 189.793 154.365 146.985 118.369 144.005C95.631 142.158 78.8953 161.506 69.812 186.138Z" fill="#4A83E7"/>
<path fill-rule="evenodd" clip-rule="evenodd" d="M69.8126 186.139C45.7427 251.493 50.5726 321.516 135.225 320.583C144.209 320.483 155.935 320.126 167.165 320.583C193.163 321.636 218.366 318.457 228.741 297.719C206.321 318.874 161.362 321.417 126.102 306.876C98.1161 295.335 76.65 272.232 74.3642 245.037C71.3431 209.003 82.3544 170.684 86.6079 157.514C79.5717 165.003 73.9071 175.034 69.8126 186.139Z" fill="#90B5FF"/>
<path fill-rule="evenodd" clip-rule="evenodd" d="M128.01 200.818C128.01 200.818 128.348 228.49 121.59 239.415C114.832 250.341 109.764 258.048 109.764 258.048C109.764 258.048 118.867 257.075 139.995 260.452C161.123 263.829 176.686 255.565 177.938 254.215C179.191 252.864 173.645 242.514 173.645 242.514L152.895 213.194L128.01 200.818Z" fill="#90B5FF"/>
<path fill-rule="evenodd" clip-rule="evenodd" d="M173.546 136.934C170.206 136.934 167.483 139.655 167.483 142.992C167.483 146.33 170.206 149.051 173.546 149.051C176.885 149.051 179.608 146.33 179.608 142.992C179.608 139.655 176.905 136.934 173.546 136.934Z" fill="#355298"/>
<path fill-rule="evenodd" clip-rule="evenodd" d="M173.982 196.09C175.652 199.904 179.11 211.406 183.125 220.166C185.829 226.086 190.579 230.536 194.316 231.271C229.556 238.223 192.427 213.035 191.016 212.717C190.857 212.677 188.273 193.607 188.035 193.091L173.982 196.09Z" fill="#F8B9BE"/>
<path fill-rule="evenodd" clip-rule="evenodd" d="M241.382 311.822L231.325 289.415L222.182 291.56L231.941 312.716L241.382 311.822Z" fill="#F8A98E"/>
<path fill-rule="evenodd" clip-rule="evenodd" d="M145.063 222.411L172.095 220.782C172.095 220.782 205.487 224.497 215.822 240.15C226.158 255.824 238.66 302.962 238.66 302.962C235.082 306.081 231.862 306.419 228.702 306.896C225.243 303.082 200.577 259.161 200.538 259.161L154.167 230.516L145.063 222.411Z" fill="#355298"/>
<path fill-rule="evenodd" clip-rule="evenodd" d="M151.961 220.782L164.145 231.132C169.352 231.231 182.709 229.106 186.406 230.238C201.114 234.807 202.168 243.408 198.769 258.048L193.084 254.532L154.187 230.496L151.961 220.782Z" fill="#1D3975"/>
<path fill-rule="evenodd" clip-rule="evenodd" d="M132.065 225.212C124.253 256.717 147.707 258.048 173.566 254.691C170.147 273.265 173.645 286.276 173.407 305.425C175.414 306.339 178.535 307.988 182.45 305.882C182.45 305.882 192.07 273.225 195.012 252.943C196.503 242.713 195.827 237.468 183.842 231.787C180.483 230.198 152.716 227.198 152.716 227.198L132.065 225.212Z" fill="#355298"/>
<path fill-rule="evenodd" clip-rule="evenodd" d="M136.735 164.406C131.23 170.048 127.036 181.351 126.102 191.899L134.151 192.555C133.118 201.931 131.806 212.956 130.594 228.47C142.817 232.363 177.759 232.185 179.33 226.622C179.727 215.637 178.495 203.56 178.872 193.25L188.572 191.164C186.028 183.655 185.273 167.922 177.64 164.684C177.62 164.665 177.6 164.665 177.581 164.645C170.544 160.433 161.56 158.069 152.875 158.387C145.997 158.646 141.744 160.334 138.286 163.056C137.769 163.453 137.252 163.89 136.735 164.406Z" fill="#010249"/>
<path fill-rule="evenodd" clip-rule="evenodd" d="M168.318 160.553C163.408 158.805 159.016 158.388 153.729 158.388C152.417 159.897 152.456 165.301 157.863 168.241C160.526 169.671 164.72 170.207 167.284 168.28C169.888 166.294 170.027 163.056 168.318 160.553Z" fill="white"/>
<path fill-rule="evenodd" clip-rule="evenodd" d="M152.875 227.457C147.309 218.001 143.573 205.963 141.545 194.263L140.929 185.046C140.591 187.767 140.233 190.469 139.896 193.031L132.462 192.416C133.217 195.336 134.549 200.143 134.37 200.143C134.131 200.163 143.732 223.643 145.043 223.961C146.375 224.298 152.875 227.457 152.875 227.457Z" fill="#4A83E7"/>
<path fill-rule="evenodd" clip-rule="evenodd" d="M194.097 229.741H151.682V230.734C151.682 231.291 152.139 231.728 152.675 231.728H193.103C193.66 231.728 194.097 231.271 194.097 230.734V229.741Z" fill="#2168C5"/>
<path fill-rule="evenodd" clip-rule="evenodd" d="M211.29 203.321H177.898C176.587 203.321 175.752 204.434 175.513 205.745L170.922 230.238H208.786L213.377 205.407C213.576 204.295 212.423 203.321 211.29 203.321Z" fill="#2168C5"/>
<path fill-rule="evenodd" clip-rule="evenodd" d="M212.443 203.321H179.032C177.72 203.321 176.885 204.434 176.627 205.745L172.353 228.391H172.294L172.015 230.059C171.876 230.953 172.771 231.728 173.685 231.728H208.289C209.203 231.728 209.82 230.973 209.959 230.059L210.157 228.688L214.49 205.407C214.709 204.295 213.576 203.321 212.443 203.321Z" fill="#B2D2FF"/>
<path fill-rule="evenodd" clip-rule="evenodd" d="M194.833 216.074C194.038 215.876 193.203 216.492 192.984 217.425C192.766 218.359 193.223 219.273 194.018 219.471C194.813 219.67 195.648 219.054 195.866 218.12C196.105 217.187 195.628 216.273 194.833 216.074Z" fill="#EDF8FD"/>
<path fill-rule="evenodd" clip-rule="evenodd" d="M126.697 194.382C126.439 196.845 126.558 201.474 127.274 203.659C127.492 204.314 127.989 204.731 128.208 205.367C134.091 222.212 145.043 231.251 158.201 231.171C159.195 230.436 159.691 230.059 159.751 229.642L167.682 229.741C167.224 228.072 166.35 225.649 164.124 224.914C162.653 224.417 159.89 224.954 154.464 225.331C144.109 221.537 137.947 200.5 137.967 200.004L138.583 195.335L126.697 194.382Z" fill="#F8B9BE"/>
<path fill-rule="evenodd" clip-rule="evenodd" d="M168.1 159.003L167.524 161.685C169.909 171.657 151.225 166.492 155.916 157.791L157.228 153.103C156.552 152.905 154.008 149.27 153.769 147.8C150.848 130.299 175.534 126.445 177.342 142.595C178.058 149.091 175.315 157.434 168.1 159.003Z" fill="#F7AAAC"/>
<path fill-rule="evenodd" clip-rule="evenodd" d="M160.447 155.13C160.885 158.368 163.965 161.308 167.662 160.93L168.119 159.023C166.132 158.864 163.409 158.348 160.447 155.13Z" fill="#E16E73"/>
<path fill-rule="evenodd" clip-rule="evenodd" d="M160.308 148.912C160.347 150.084 159.751 150.938 158.36 149.468C157.326 148.395 155.498 148.654 155.796 150.421C156.034 151.891 157.744 153.361 156.988 152.944C143.811 145.892 154.623 119.87 173.088 131.093C173.545 130.994 174.022 130.954 174.499 130.954C178.276 130.954 181.337 134.013 181.337 137.788C181.337 140.31 179.965 142.535 177.918 143.707C177.322 144.144 176.586 144.462 175.652 144.621C172.969 145.058 170.206 144.025 168.377 143.429C163.567 141.86 160.129 143.35 160.308 148.912Z" fill="#355298"/>
<path fill-rule="evenodd" clip-rule="evenodd" d="M125.942 191.899L139.994 193.052L139.736 196.091L125.684 194.939L125.942 191.899Z" fill="#4A83E7"/>
<path fill-rule="evenodd" clip-rule="evenodd" d="M178.812 193.25L181.059 192.694C180.363 190.151 179.647 187.45 179.051 185.046L178.812 193.25Z" fill="#4A83E7"/>
<path fill-rule="evenodd" clip-rule="evenodd" d="M178.833 193.111L188.91 190.787L189.566 193.627L178.733 196.11L178.833 193.111Z" fill="#4A83E7"/>
<path d="M281.076 66.9502H221.209V114.884H281.076V66.9502Z" fill="#F7AAAC"/>
<path fill-rule="evenodd" clip-rule="evenodd" d="M244.146 83.0205L261.219 91.5623L244.146 100.104V83.0205Z" fill="white"/>
<path d="M350.303 66.9502H290.437V114.884H350.303V66.9502Z" fill="#B7D5FF"/>
<path fill-rule="evenodd" clip-rule="evenodd" d="M312.638 99.6677V85.0871L327.227 76.9028L330.705 74.8965V93.2117C331.162 95.0393 329.353 97.5223 326.193 99.0718C323.053 100.621 320.668 100.065 319.833 98.2375C319.018 96.4099 320.906 93.5693 323.212 92.437C325.537 91.3047 325.994 91.404 327.207 91.3643V81.0347L316.096 87.2722V101.634C316.454 103.442 314.685 105.846 311.564 107.375C308.444 108.905 306.238 108.428 305.403 106.6C304.588 104.773 306.257 101.893 308.583 100.74C310.928 99.6081 311.425 99.7075 312.638 99.6677Z" fill="white"/>
<path d="M281.076 125.094H221.209V173.028H281.076V125.094Z" fill="#B7D5FF"/>
<path d="M281.076 183.258H221.209V231.191H281.076V183.258Z" fill="#E7EFF9"/>
<path d="M350.303 125.094H290.437V173.028H350.303V125.094Z" fill="#B7D5FF"/>
<path d="M350.303 183.258H290.437V231.191H350.303V183.258Z" fill="#B7D5FF"/>
<path fill-rule="evenodd" clip-rule="evenodd" d="M331.818 215.459L330.944 214.585C330.586 214.207 330.506 213.651 330.765 213.194C331.262 212.32 331.639 211.406 331.917 210.473C332.057 209.976 332.514 209.638 333.03 209.638H334.263C334.899 209.638 335.435 209.122 335.435 208.486L335.455 206.122C335.455 205.487 334.939 204.95 334.303 204.95H333.07C332.553 204.95 332.096 204.593 331.957 204.096C331.699 203.143 331.341 202.229 330.844 201.355C330.586 200.898 330.685 200.342 331.043 199.984L331.917 199.11C332.375 198.653 332.375 197.918 331.937 197.461L330.268 195.773C329.811 195.316 329.075 195.316 328.618 195.753L327.743 196.627C327.366 196.985 326.809 197.064 326.352 196.806C325.478 196.309 324.563 195.932 323.629 195.654C323.132 195.515 322.794 195.058 322.794 194.541V193.31C322.794 192.674 322.278 192.138 321.642 192.138L319.276 192.118C318.64 192.118 318.104 192.634 318.104 193.27V194.501C318.104 195.018 317.746 195.475 317.249 195.614C316.295 195.872 315.381 196.23 314.506 196.726C314.049 196.985 313.492 196.885 313.135 196.528L312.26 195.654C311.803 195.197 311.067 195.197 310.61 195.634L308.921 197.302C308.464 197.759 308.464 198.494 308.901 198.951L309.776 199.825C310.133 200.203 310.213 200.759 309.954 201.216C309.458 202.07 309.08 202.984 308.802 203.937C308.662 204.434 308.205 204.771 307.689 204.771H306.456C305.82 204.771 305.284 205.288 305.284 205.924L305.264 208.288C305.264 208.923 305.78 209.46 306.416 209.46H307.649C308.166 209.46 308.623 209.817 308.762 210.314C309.02 211.247 309.378 212.181 309.875 213.055C310.133 213.512 310.034 214.068 309.676 214.446L308.802 215.32C308.344 215.776 308.344 216.511 308.782 216.968L310.451 218.657C310.908 219.114 311.644 219.114 312.101 218.657L312.976 217.783C313.353 217.425 313.91 217.346 314.367 217.604C315.222 218.101 316.136 218.478 317.09 218.756C317.587 218.895 317.925 219.352 317.925 219.869V221.1C317.925 221.736 318.441 222.272 319.078 222.272L321.443 222.292C322.079 222.292 322.615 221.776 322.615 221.14V219.908C322.615 219.392 322.973 218.935 323.47 218.796C324.424 218.538 325.338 218.18 326.213 217.684C326.67 217.425 327.227 217.525 327.584 217.882L328.459 218.756C328.916 219.213 329.652 219.213 330.109 218.776L331.798 217.107C332.255 216.651 332.255 215.916 331.818 215.459ZM324.047 212.499C321.84 214.068 318.799 214.048 316.613 212.459C312.995 209.837 313.035 204.533 316.673 201.951C318.879 200.381 321.92 200.401 324.106 201.99C327.724 204.613 327.684 209.916 324.047 212.499Z" fill="white"/>
<path fill-rule="evenodd" clip-rule="evenodd" d="M248.876 197.282L247.564 192.992H234.506V197.282V221.438H267.898V197.282H248.876Z" fill="#4A83E7"/>
<path fill-rule="evenodd" clip-rule="evenodd" d="M235.201 198.514H267.241L266.824 221.438H235.579L235.201 198.514Z" fill="white"/>
<path fill-rule="evenodd" clip-rule="evenodd" d="M233.412 200.838H268.871L267.897 221.438H234.505L233.412 200.838Z" fill="#4A83E7"/>
<path fill-rule="evenodd" clip-rule="evenodd" d="M326.114 143.846L338.059 162.082H329.731H314.188H297.949L313.85 137.808L321.979 150.203L326.114 143.846ZM329.572 132.603C332.037 132.603 334.044 134.609 334.044 137.073C334.044 139.536 332.037 141.542 329.572 141.542C327.107 141.542 325.1 139.536 325.1 137.073C325.1 134.609 327.087 132.603 329.572 132.603Z" fill="white"/>
<path d="M221.407 124.855L251.142 148.653L280.876 124.855L281.274 125.352L251.639 149.07L281.274 172.769L280.876 173.266L251.142 149.468L221.407 173.266L221.01 172.769L250.625 149.07L221.01 125.352L221.407 124.855Z" fill="white"/>
<path d="M399.795 253.857H316.455V320.583H399.795V253.857Z" fill="#B7D5FF"/>
<path fill-rule="evenodd" clip-rule="evenodd" d="M374.075 298.692L372.863 297.46C372.366 296.944 372.247 296.149 372.604 295.533C373.3 294.321 373.837 293.05 374.194 291.739C374.393 291.044 375.029 290.567 375.745 290.587H377.474C378.368 290.587 379.104 289.872 379.104 288.978L379.124 285.68C379.124 284.786 378.408 284.051 377.514 284.051L375.785 284.031C375.069 284.031 374.433 283.555 374.234 282.859C373.876 281.548 373.36 280.257 372.684 279.045C372.326 278.41 372.445 277.635 372.962 277.119L374.194 275.907C374.831 275.271 374.831 274.258 374.214 273.622L371.889 271.278C371.253 270.643 370.239 270.643 369.603 271.258L368.371 272.47C367.854 272.967 367.059 273.086 366.443 272.728C365.23 272.033 363.958 271.497 362.647 271.139C361.951 270.941 361.474 270.305 361.474 269.59L361.494 267.862C361.494 266.968 360.778 266.233 359.884 266.233L356.584 266.213C355.69 266.213 354.955 266.928 354.955 267.822L354.935 269.55C354.935 270.265 354.458 270.901 353.742 271.1C352.43 271.457 351.138 271.974 349.926 272.649C349.29 273.007 348.515 272.887 347.998 272.371L346.785 271.139C346.149 270.504 345.136 270.504 344.5 271.119L342.154 273.444C341.518 274.079 341.518 275.092 342.134 275.728L343.347 276.96C343.844 277.476 343.963 278.251 343.605 278.887C342.91 280.098 342.373 281.37 342.015 282.661C341.816 283.356 341.18 283.833 340.465 283.833L338.736 283.813C337.841 283.813 337.106 284.528 337.106 285.422L337.086 288.72C337.086 289.613 337.801 290.348 338.696 290.348H340.425C341.141 290.348 341.777 290.825 341.975 291.54C342.333 292.851 342.85 294.143 343.526 295.354C343.884 295.99 343.764 296.765 343.248 297.281L342.015 298.493C341.379 299.129 341.379 300.142 341.995 300.777L344.321 303.121C344.957 303.757 345.971 303.757 346.607 303.141L347.839 301.93C348.356 301.433 349.131 301.314 349.767 301.671C350.979 302.367 352.251 302.903 353.543 303.261C354.239 303.459 354.716 304.095 354.716 304.81L354.696 306.538C354.696 307.432 355.412 308.167 356.306 308.167L359.605 308.187C360.5 308.187 361.235 307.472 361.235 306.578L361.255 304.85C361.255 304.135 361.732 303.499 362.428 303.3C363.74 302.943 365.032 302.426 366.244 301.751C366.88 301.393 367.655 301.512 368.172 302.029L369.385 303.261C370.021 303.896 371.034 303.896 371.67 303.28L374.016 300.956C374.691 300.36 374.691 299.327 374.075 298.692ZM363.263 294.56C360.202 296.725 355.968 296.705 352.907 294.5C347.879 290.845 347.938 283.455 353.007 279.88C356.068 277.715 360.301 277.734 363.342 279.939C368.371 283.594 368.331 290.984 363.263 294.56Z" fill="white"/>
<path fill-rule="evenodd" clip-rule="evenodd" d="M240.151 308.624C240.151 308.624 250.963 313.054 254.561 314.822C257.363 316.192 258.953 319.073 256.648 320.543H228.662C228.642 320.483 228.622 320.404 228.583 320.324C228.165 318.934 227.072 309.061 229.994 309.28C231.803 309.419 236.096 310.71 240.151 308.624Z" fill="#355298"/>
<path fill-rule="evenodd" clip-rule="evenodd" d="M181.258 310.253L182.033 302.089L173.824 302.288L173.904 311.644L181.258 310.253Z" fill="#F8A98E"/>
<path fill-rule="evenodd" clip-rule="evenodd" d="M181.536 308.882C183.782 313.034 187.459 317.026 184.597 320.562H170.008C169.988 320.503 169.968 320.423 169.928 320.344C169.789 319.867 169.113 319.648 169.571 317.881C170.425 314.583 172.91 309.537 173.764 309.279C175.454 308.743 177.859 310.193 181.536 308.882Z" fill="#355298"/>
</svg>
