<svg width="492" height="389" viewBox="0 0 492 389" fill="none" xmlns="http://www.w3.org/2000/svg">
<rect x="0.138672" y="0.29248" width="491.616" height="353.691" rx="29" fill="url(#paint0_linear_2326_532)"/>
<rect x="25.0176" y="34.978" width="441.86" height="353.691" rx="29" fill="url(#paint1_linear_2326_532)"/>
<path d="M339.868 303.455L344.251 303.489L344.302 297.618L339.918 297.584C339.689 296.734 339.359 295.922 338.94 295.167L342.065 292.089L337.95 287.903L334.825 290.981C334.075 290.55 333.27 290.209 332.426 289.962L332.459 285.575L326.594 285.524L326.561 289.912C325.711 290.141 324.9 290.472 324.145 290.891L321.07 287.763L316.888 291.882L319.963 295.01C319.533 295.76 319.192 296.566 318.946 297.411L314.562 297.377L314.512 303.248L318.895 303.282C319.124 304.132 319.454 304.944 319.874 305.699L316.748 308.777L320.863 312.963L323.989 309.885C324.738 310.316 325.543 310.657 326.387 310.904L326.354 315.291L332.219 315.342L332.253 310.954C333.102 310.725 333.913 310.394 334.668 309.975L337.743 313.103L341.925 308.984L338.85 305.856C339.281 305.112 339.627 304.306 339.868 303.455ZM329.368 305.246C326.712 305.223 324.576 303.052 324.598 300.394C324.621 297.736 326.79 295.598 329.446 295.62C332.102 295.643 334.237 297.814 334.215 300.472C334.193 303.13 332.023 305.268 329.368 305.246Z" fill="url(#paint2_linear_2326_532)"/>
<path d="M197.528 131.659L197.936 138.336L206.865 137.793L206.457 131.116C207.727 130.674 208.923 130.087 210.03 129.376L215.034 133.808L220.961 127.104L215.957 122.672C216.533 121.485 216.969 120.226 217.254 118.911L223.924 118.502L223.382 109.565L216.712 109.974C216.27 108.703 215.683 107.506 214.973 106.398L219.401 101.389L212.703 95.4568L208.274 100.465C207.089 99.889 205.831 99.4525 204.517 99.1671L204.109 92.4907L195.18 93.0336L195.588 99.71C194.319 100.152 193.122 100.74 192.015 101.45L187.011 97.0181L181.084 103.723L186.089 108.155C185.513 109.341 185.077 110.6 184.791 111.916L178.121 112.324L178.663 121.261L185.334 120.853C185.775 122.123 186.363 123.321 187.073 124.429L182.644 129.438L189.343 135.37L193.771 130.361C194.956 130.943 196.214 131.379 197.528 131.659ZM193.704 115.861C193.458 111.815 196.533 108.339 200.575 108.093C204.618 107.847 208.09 110.925 208.336 114.971C208.582 119.017 205.507 122.493 201.464 122.739C197.428 122.985 193.95 119.907 193.704 115.861Z" fill="url(#paint3_linear_2326_532)"/>
<g opacity="0.4">
<path d="M365.74 110.175H314.609C311.88 110.175 309.672 112.391 309.672 115.117V188.311C309.672 191.042 311.886 193.253 314.609 193.253H365.74C368.469 193.253 370.677 191.036 370.677 188.311V115.122C370.677 112.391 368.469 110.175 365.74 110.175Z" fill="white"/>
</g>
<path d="M296.552 298.614C296.552 307.009 289.754 313.814 281.367 313.814H214.043C205.656 313.814 198.857 307.009 198.857 298.614V135.168C198.857 126.774 205.656 119.969 214.043 119.969H281.372C289.759 119.969 296.558 126.774 296.558 135.168V298.614H296.552Z" fill="url(#paint4_linear_2326_532)"/>
<path d="M280.44 115.346H214.972C203.879 115.346 194.889 124.345 194.889 135.448V298.334C194.889 309.438 203.879 318.436 214.972 318.436H280.44C291.533 318.436 300.523 309.438 300.523 298.334V135.448C300.523 124.345 291.533 115.346 280.44 115.346ZM296.554 298.614C296.554 307.009 289.755 313.814 281.368 313.814H214.044C205.657 313.814 198.858 307.009 198.858 298.614V135.168C198.858 126.774 205.657 119.969 214.044 119.969H281.373C289.76 119.969 296.559 126.774 296.559 135.168V298.614H296.554Z" fill="url(#paint5_linear_2326_532)"/>
<path d="M258.801 126.802H236.609C232.014 126.802 228.284 123.075 228.284 118.469H267.126C267.126 123.069 263.397 126.802 258.801 126.802Z" fill="#1F1F1F"/>
<path d="M252.539 120.937H236.464V122.247H252.539V120.937Z" fill="url(#paint6_linear_2326_532)"/>
<path d="M258.947 121.592C258.947 122.101 258.533 122.515 258.024 122.515C257.515 122.515 257.102 122.101 257.102 121.592C257.102 121.083 257.515 120.669 258.024 120.669C258.533 120.663 258.947 121.077 258.947 121.592Z" fill="url(#paint7_linear_2326_532)"/>
<path d="M239.438 149.691H210.671C208.468 149.691 206.685 151.476 206.685 153.681V182.474C206.685 184.679 208.468 186.464 210.671 186.464H239.438C241.641 186.464 243.424 184.679 243.424 182.474V153.681C243.419 151.476 241.635 149.691 239.438 149.691Z" fill="url(#paint8_linear_2326_532)"/>
<path opacity="0.92" d="M284.739 149.691H255.972C253.769 149.691 251.985 151.476 251.985 153.681V182.474C251.985 184.679 253.769 186.464 255.972 186.464H284.739C286.942 186.464 288.725 184.679 288.725 182.474V153.681C288.72 151.476 286.936 149.691 284.739 149.691Z" stroke="white" stroke-width="0.892" stroke-miterlimit="10" stroke-dasharray="1.78 1.78"/>
<path opacity="0.92" d="M239.438 201.048H210.671C208.468 201.048 206.685 202.833 206.685 205.038V233.831C206.685 236.036 208.468 237.821 210.671 237.821H239.438C241.641 237.821 243.424 236.036 243.424 233.831V205.038C243.419 202.833 241.635 201.048 239.438 201.048Z" stroke="white" stroke-width="0.892" stroke-miterlimit="10" stroke-dasharray="1.78 1.78"/>
<path d="M284.74 201.048H255.973C253.77 201.048 251.986 202.833 251.986 205.038V233.831C251.986 236.036 253.77 237.821 255.973 237.821H284.74C286.943 237.821 288.726 236.036 288.726 233.831V205.038C288.721 202.833 286.937 201.048 284.74 201.048Z" fill="url(#paint9_linear_2326_532)"/>
<path d="M239.438 252.405H210.671C208.468 252.405 206.685 254.191 206.685 256.395V285.188C206.685 287.393 208.468 289.179 210.671 289.179H239.438C241.641 289.179 243.424 287.393 243.424 285.188V256.39C243.419 254.19 241.635 252.405 239.438 252.405Z" fill="url(#paint10_linear_2326_532)"/>
<path opacity="0.92" d="M284.739 252.405H255.972C253.769 252.405 251.985 254.191 251.985 256.395V285.188C251.985 287.393 253.769 289.179 255.972 289.179H284.739C286.942 289.179 288.725 287.393 288.725 285.188V256.39C288.72 254.19 286.936 252.405 284.739 252.405Z" stroke="white" stroke-width="0.892" stroke-miterlimit="10" stroke-dasharray="1.78 1.78"/>
<path d="M239.674 163.475L225.774 157.481L211.88 163.475H215.598V178.663H223.18V170.342H228.374V178.663H235.95V163.475H239.674Z" fill="#F3F3F3"/>
<path d="M263.878 221.078H258.852V231.761H263.878V221.078Z" fill="#F3F3F3"/>
<path d="M272.706 214.109H267.68V231.76H272.706V214.109Z" fill="#F3F3F3"/>
<path d="M281.854 207.584H276.827V231.761H281.854V207.584Z" fill="#F3F3F3"/>
<path d="M233.545 262.082H216.564C214.518 262.082 212.857 263.744 212.857 265.792V274.321C212.857 275.888 213.83 277.225 215.206 277.768H215.2L217.364 282.094L219.701 278.025H233.545C235.591 278.025 237.252 276.363 237.252 274.315V265.792C237.252 263.744 235.591 262.082 233.545 262.082ZM218.432 272.429C217.096 272.429 216.011 271.343 216.011 270.006C216.011 268.668 217.096 267.583 218.432 267.583C219.768 267.583 220.853 268.668 220.853 270.006C220.847 271.343 219.768 272.429 218.432 272.429ZM225.052 272.429C223.716 272.429 222.631 271.343 222.631 270.006C222.631 268.668 223.716 267.583 225.052 267.583C226.388 267.583 227.473 268.668 227.473 270.006C227.473 271.343 226.388 272.429 225.052 272.429ZM231.677 272.429C230.341 272.429 229.256 271.343 229.256 270.006C229.256 268.668 230.341 267.583 231.677 267.583C233.014 267.583 234.098 268.668 234.098 270.006C234.098 271.343 233.014 272.429 231.677 272.429Z" fill="#F3F3F3"/>
<path d="M365.226 185.591H315.117V185.971H365.226V185.591Z" fill="url(#paint11_linear_2326_532)"/>
<path d="M365.226 168.562H315.117V168.942H365.226V168.562Z" fill="url(#paint12_linear_2326_532)"/>
<path d="M365.226 151.526H315.117V151.907H365.226V151.526Z" fill="url(#paint13_linear_2326_532)"/>
<path d="M365.226 134.491H315.117V134.872H365.226V134.491Z" fill="url(#paint14_linear_2326_532)"/>
<path d="M365.226 117.462H315.117V117.842H365.226V117.462Z" fill="url(#paint15_linear_2326_532)"/>
<path d="M326.036 117.652H322.676V185.541H326.036V117.652Z" fill="url(#paint16_linear_2326_532)"/>
<path d="M334.849 117.652H331.488V185.541H334.849V117.652Z" fill="url(#paint17_linear_2326_532)"/>
<path d="M343.66 117.652H340.3V185.541H343.66V117.652Z" fill="url(#paint18_linear_2326_532)"/>
<path d="M352.473 117.652H349.112V185.541H352.473V117.652Z" fill="url(#paint19_linear_2326_532)"/>
<path d="M361.289 117.652H357.929V185.541H361.289V117.652Z" fill="url(#paint20_linear_2326_532)"/>
<path d="M326.036 154.37H322.676V185.536H326.036V154.37Z" fill="url(#paint21_linear_2326_532)"/>
<path d="M334.848 163.117H331.488V185.535H334.848V163.117Z" fill="url(#paint22_linear_2326_532)"/>
<path d="M343.659 138.303H340.299V185.536H343.659V138.303Z" fill="url(#paint23_linear_2326_532)"/>
<path d="M352.472 147.162H349.111V185.535H352.472V147.162Z" fill="url(#paint24_linear_2326_532)"/>
<path d="M361.289 167.325H357.929V185.541H361.289V167.325Z" fill="url(#paint25_linear_2326_532)"/>
<path d="M326.036 117.652H322.676V128.806H326.036V117.652Z" fill="url(#paint26_linear_2326_532)"/>
<path d="M334.849 117.652H331.488V136.652H334.849V117.652Z" fill="#00FFFF"/>
<path d="M343.66 117.652H340.3V126.612H343.66V117.652Z" fill="#00FFFF"/>
<path d="M352.473 117.652H349.112V128.806H352.473V117.652Z" fill="#00FFFF"/>
<path d="M361.289 117.652H357.929V136.652H361.289V117.652Z" fill="#00FFFF"/>
<g opacity="0.4">
<path d="M203.594 126.802H110.081C106.71 126.802 103.981 129.538 103.981 132.907V190.27C103.981 193.644 106.716 196.375 110.081 196.375H203.594C206.966 196.375 209.694 193.639 209.694 190.27V132.907C209.694 129.533 206.96 126.802 203.594 126.802Z" fill="white"/>
</g>
<path d="M108.37 191.311C108.985 190.538 140.424 159.227 140.424 159.227L163.231 183.286L178.797 165.859L204.684 191.305H108.37V191.311Z" fill="url(#paint27_linear_2326_532)"/>
<path d="M163.488 160.469C169.436 160.469 174.257 155.643 174.257 149.691C174.257 143.738 169.436 138.912 163.488 138.912C157.541 138.912 152.72 143.738 152.72 149.691C152.72 155.643 157.541 160.469 163.488 160.469Z" fill="url(#paint28_linear_2326_532)"/>
<g opacity="0.4">
<path d="M388.858 203.561H299.125C296.396 203.561 294.188 205.777 294.188 208.503V248.953C294.188 251.684 296.402 253.894 299.125 253.894H388.858C391.586 253.894 393.795 251.678 393.795 248.953V208.503C393.795 205.772 391.586 203.561 388.858 203.561Z" fill="white"/>
</g>
<path d="M343.987 238.778C351.868 238.778 358.256 232.384 358.256 224.497C358.256 216.609 351.868 210.215 343.987 210.215C336.107 210.215 329.719 216.609 329.719 224.497C329.719 232.384 336.107 238.778 343.987 238.778Z" fill="url(#paint29_linear_2326_532)"/>
<path d="M339.286 217.277L351.782 224.497L339.286 231.721V217.277Z" fill="white"/>
<path d="M383.982 246.126H303.994C303.39 246.126 302.898 245.634 302.898 245.029C302.898 244.425 303.39 243.933 303.994 243.933H383.982C384.586 243.933 385.078 244.425 385.078 245.029C385.078 245.634 384.586 246.126 383.982 246.126Z" fill="#00FFFF"/>
<path d="M321.205 245.03C321.205 246.412 320.087 247.537 318.7 247.537C317.319 247.537 316.195 246.418 316.195 245.03C316.195 243.648 317.314 242.523 318.7 242.523C320.087 242.529 321.205 243.648 321.205 245.03Z" fill="white"/>
<g opacity="0.4">
<path d="M171.087 211.211H119.956C117.227 211.211 115.019 213.427 115.019 216.152V263.15C115.019 265.881 117.233 268.092 119.956 268.092H171.087C173.816 268.092 176.024 265.876 176.024 263.15V216.152C176.024 213.427 173.816 211.211 171.087 211.211Z" fill="white"/>
</g>
<path d="M137.109 235.443H126.989C126.989 225.213 135.303 216.896 145.519 216.896V227.026C140.883 227.02 137.109 230.798 137.109 235.443Z" fill="url(#paint30_linear_2326_532)"/>
<path d="M153.927 235.443C153.927 240.082 150.153 243.86 145.518 243.86L142.946 248.924L145.518 253.989C155.739 253.989 164.047 245.667 164.047 235.443H153.927Z" fill="url(#paint31_linear_2326_532)"/>
<path d="M137.109 235.443L132.049 232.869L126.989 235.443C126.989 245.674 135.303 253.99 145.519 253.99V243.86C140.883 243.86 137.109 240.083 137.109 235.443Z" fill="url(#paint32_linear_2326_532)"/>
<path d="M164.054 235.443C164.054 225.213 155.74 216.896 145.524 216.896V227.026C150.16 227.026 153.934 230.803 153.934 235.443L158.994 238.017L164.054 235.443Z" fill="#F3F3F3"/>
<path d="M147.771 258.371H120.357V260.223H147.771V258.371Z" fill="#F3F3F3"/>
<path d="M147.771 262.641H120.357V264.493H147.771V262.641Z" fill="#F3F3F3"/>
<path d="M158.176 258.371H152.518V260.223H158.176V258.371Z" fill="url(#paint33_linear_2326_532)"/>
<path d="M166.334 258.371H160.676V260.223H166.334V258.371Z" fill="#F3F3F3"/>
<path d="M158.176 262.641H152.518V264.493H158.176V262.641Z" fill="url(#paint34_linear_2326_532)"/>
<path d="M166.334 262.641H160.676V264.493H166.334V262.641Z" fill="url(#paint35_linear_2326_532)"/>
<path d="M111.026 192.826H82.2648C80.0619 192.826 78.2783 194.611 78.2783 196.816V225.609C78.2783 227.814 80.0619 229.6 82.2648 229.6H111.032C113.235 229.6 115.018 227.814 115.018 225.609V196.816C115.013 194.611 113.229 192.826 111.026 192.826Z" fill="url(#paint36_linear_2326_532)"/>
<path d="M100.055 203.074C96.3145 199.76 90.5836 200.113 87.2736 203.857C83.9636 207.601 84.3158 213.337 88.0563 216.65C91.3719 219.583 96.2475 219.639 99.6189 217.008L107.066 223.601L109.269 221.11L101.822 214.518C104.019 210.847 103.371 206.006 100.055 203.074ZM99.3618 214.563C96.773 217.49 92.2833 217.764 89.3591 215.173C86.4349 212.582 86.1609 208.093 88.7497 205.161C91.3384 202.234 95.8281 201.96 98.7523 204.551C101.677 207.142 101.956 211.63 99.3618 214.563Z" fill="#F3F3F3"/>
<path d="M403.294 236.999H374.528C372.325 236.999 370.541 238.784 370.541 240.989V269.782C370.541 271.987 372.325 273.772 374.528 273.772H403.294C405.497 273.772 407.281 271.987 407.281 269.782V240.989C407.281 238.784 405.497 236.999 403.294 236.999Z" fill="url(#paint37_linear_2326_532)"/>
<path d="M394.561 250.162C394.561 253.189 392.034 255.646 388.914 255.646C385.794 255.646 383.267 253.189 383.267 250.162C383.267 247.134 385.794 244.677 388.914 244.677C392.034 244.677 394.561 247.134 394.561 250.162Z" fill="white"/>
<path d="M380.32 265.512C380.32 265.708 380.365 265.898 380.382 266.088H397.446C397.463 265.892 397.508 265.708 397.508 265.512C397.508 261.012 393.829 257.369 389.238 257.201H388.595C383.999 257.369 380.32 261.012 380.32 265.512Z" fill="white"/>
<path d="M370.229 265.73H341.462C339.259 265.73 337.476 267.516 337.476 269.721V298.514C337.476 300.719 339.259 302.504 341.462 302.504H370.229C372.432 302.504 374.215 300.719 374.215 298.514V269.721C374.21 267.516 372.426 265.73 370.229 265.73Z" fill="url(#paint38_linear_2326_532)"/>
<path d="M355.85 270.924C350.382 270.924 345.942 275.362 345.942 280.84C345.942 286.314 355.85 297.305 355.85 297.305C355.85 297.305 365.758 286.319 365.758 280.84C365.752 275.367 361.318 270.924 355.85 270.924ZM355.85 285.53C353.295 285.53 351.226 283.46 351.226 280.902C351.226 278.345 353.295 276.274 355.85 276.274C358.405 276.274 360.474 278.345 360.474 280.902C360.468 283.454 358.4 285.53 355.85 285.53Z" fill="white"/>
<path d="M115.237 256.933H84.0999C82.4393 256.933 81.0918 258.281 81.0918 259.943V288.563C81.0918 290.225 82.4393 291.574 84.0999 291.574H115.237C116.898 291.574 118.245 290.225 118.245 288.563V259.943C118.245 258.281 116.903 256.933 115.237 256.933Z" fill="url(#paint39_linear_2326_532)"/>
<path d="M104.149 284.92H95.4268V288.283H104.149V284.92Z" fill="#F3F3F3"/>
<path d="M106.341 276.61L100.235 264.063C100.179 263.945 100.006 263.99 100.006 264.119V273.828C100.56 273.979 100.951 274.528 100.845 275.155C100.761 275.619 100.381 276.005 99.9166 276.089C99.1785 276.218 98.5411 275.658 98.5411 274.948C98.5411 274.41 98.9045 273.968 99.3966 273.828V264.13C99.3966 264.001 99.2232 263.962 99.1673 264.08L93.0617 276.626C92.771 277.225 92.7598 277.925 93.0282 278.535L95.4716 284.036L99.7432 283.969V283.958L103.942 284.025L106.386 278.524C106.648 277.908 106.637 277.209 106.341 276.61Z" fill="#F3F3F3"/>
<path d="M86.6763 262.048C86.6763 262.675 86.1675 263.184 85.5413 263.184C84.915 263.184 84.4062 262.675 84.4062 262.048C84.4062 261.421 84.915 260.912 85.5413 260.912C86.1675 260.912 86.6763 261.421 86.6763 262.048Z" fill="#F3F3F3"/>
<path d="M115.129 262.048C115.129 262.675 114.621 263.184 113.994 263.184C113.368 263.184 112.859 262.675 112.859 262.048C112.859 261.421 113.368 260.912 113.994 260.912C114.621 260.912 115.129 261.421 115.129 262.048Z" fill="#F3F3F3"/>
<path d="M100.626 261.091H98.7812V262.938H100.626V261.091Z" fill="#F3F3F3"/>
<path d="M113.996 262.205C113.722 262.205 86.3758 262.16 85.5539 262.205L85.5371 261.897C86.3702 261.853 112.867 261.897 113.996 261.897V262.205Z" fill="#F3F3F3"/>
<path d="M111.195 270.656C109.612 265.602 104.994 262.211 99.6991 262.211C94.4042 262.211 89.7859 265.608 88.2036 270.656L87.9072 270.561C89.5287 265.378 94.27 261.897 99.6991 261.897C105.128 261.897 109.869 265.378 111.491 270.561L111.195 270.656Z" fill="#F3F3F3"/>
<path d="M111.977 269.586H110.132V271.433H111.977V269.586Z" fill="#F3F3F3"/>
<path d="M89.1371 269.586H87.292V271.433H89.1371V269.586Z" fill="#F3F3F3"/>
<path d="M115.002 204.221H185.686V219.88H226.591" stroke="white" stroke-width="2" stroke-miterlimit="10"/>
<path d="M225.925 222.135C227.104 222.135 228.061 221.178 228.061 219.998C228.061 218.817 227.104 217.86 225.925 217.86C224.745 217.86 223.789 218.817 223.789 219.998C223.789 221.178 224.745 222.135 225.925 222.135Z" fill="white"/>
<path d="M116.858 206.594C118.038 206.594 118.994 205.637 118.994 204.456C118.994 203.275 118.038 202.318 116.858 202.318C115.679 202.318 114.723 203.275 114.723 204.456C114.723 205.637 115.679 206.594 116.858 206.594Z" fill="white"/>
<path d="M272.757 167.694C272.757 168.875 271.801 169.826 270.627 169.826C269.447 169.826 268.491 168.869 268.491 167.694C268.491 166.513 269.447 165.562 270.627 165.562C271.801 165.562 272.757 166.519 272.757 167.694Z" fill="white"/>
<path d="M412.313 256.86C412.313 258.041 411.357 258.998 410.183 258.998C409.003 258.998 408.047 258.041 408.047 256.86C408.047 255.679 409.003 254.722 410.183 254.722C411.357 254.722 412.313 255.679 412.313 256.86Z" fill="white"/>
<path d="M270.627 167.694V197.573H428.679V257.19H410.016" stroke="white" stroke-width="2" stroke-miterlimit="10"/>
<path d="M425.509 168.455C423.614 168.455 421.864 169.059 420.427 170.084C420.438 169.899 420.455 169.714 420.455 169.53C420.455 164.672 416.518 160.732 411.665 160.732C408.411 160.732 405.576 162.506 404.056 165.136C402.932 161.572 399.605 158.992 395.674 158.992C390.821 158.992 386.885 162.932 386.885 167.789C386.885 168.03 386.902 168.265 386.918 168.494C386.689 168.477 386.466 168.461 386.231 168.461C381.378 168.461 377.441 172.4 377.441 177.258C377.441 182.116 381.378 186.055 386.231 186.055H425.509C430.362 186.055 434.298 182.116 434.298 177.258C434.298 172.4 430.368 168.455 425.509 168.455Z" fill="url(#paint40_linear_2326_532)"/>
<path d="M401.562 186.056L396.653 199.705H404.509L400.584 212.918L415.255 196.61L407.344 196.649L413.125 186.056H401.562Z" fill="url(#paint41_linear_2326_532)"/>
<path d="M270.051 272.731C271.23 272.731 272.187 271.774 272.187 270.593C272.187 269.413 271.23 268.456 270.051 268.456C268.871 268.456 267.915 269.413 267.915 270.593C267.915 271.774 268.871 272.731 270.051 272.731Z" fill="white"/>
<path d="M332.857 276.011C333.55 275.054 334.881 274.841 335.837 275.535C336.793 276.229 337.006 277.561 336.313 278.518C335.619 279.475 334.289 279.688 333.332 278.994C332.382 278.3 332.164 276.968 332.857 276.011Z" fill="white"/>
<path d="M270.051 270.594H320.187V277.209H334.758" stroke="white" stroke-width="2" stroke-miterlimit="10"/>
<path d="M181.498 277.466H141.431C140.213 277.466 139.229 278.456 139.229 279.671V297.73C139.229 298.95 140.218 299.935 141.431 299.935H181.498C182.717 299.935 183.701 298.944 183.701 297.73V279.671C183.707 278.451 182.717 277.466 181.498 277.466Z" fill="url(#paint42_linear_2326_532)"/>
<path d="M154.789 295.324C154.582 295.324 154.369 295.251 154.201 295.1L147.526 289.241C147.33 289.073 147.224 288.826 147.224 288.569C147.224 288.312 147.335 288.065 147.526 287.898L154.201 282.038C154.57 281.714 155.135 281.753 155.459 282.122C155.784 282.491 155.745 283.057 155.376 283.381L149.466 288.569L155.376 293.757C155.745 294.081 155.784 294.647 155.459 295.016C155.281 295.223 155.035 295.324 154.789 295.324Z" fill="#EBEBEB"/>
<path d="M168.146 295.324C167.9 295.324 167.654 295.223 167.475 295.021C167.151 294.652 167.19 294.087 167.559 293.762L173.469 288.574L167.559 283.387C167.19 283.062 167.151 282.497 167.475 282.127C167.799 281.758 168.364 281.719 168.733 282.044L175.409 287.903C175.605 288.071 175.711 288.317 175.711 288.574C175.711 288.832 175.599 289.078 175.409 289.246L168.733 295.105C168.565 295.251 168.358 295.324 168.146 295.324Z" fill="#EBEBEB"/>
<path d="M159.497 297.512C159.419 297.512 159.346 297.501 159.268 297.484C158.793 297.355 158.508 296.868 158.636 296.392L162.852 280.566C162.981 280.09 163.467 279.805 163.942 279.934C164.418 280.062 164.703 280.549 164.574 281.025L160.358 296.851C160.252 297.243 159.894 297.512 159.497 297.512Z" fill="#EBEBEB"/>
<defs>
<linearGradient id="paint0_linear_2326_532" x1="245.947" y1="-36.94" x2="260.826" y2="662.714" gradientUnits="userSpaceOnUse">
<stop offset="0.0572917" stop-color="#AAC9FF"/>
<stop offset="1" stop-color="#DBBBF0"/>
</linearGradient>
<linearGradient id="paint1_linear_2326_532" x1="245.948" y1="34.978" x2="245.948" y2="388.67" gradientUnits="userSpaceOnUse">
<stop stop-color="white"/>
<stop offset="1" stop-color="#EBF2FF"/>
</linearGradient>
<linearGradient id="paint2_linear_2326_532" x1="318.877" y1="310.976" x2="339.959" y2="289.914" gradientUnits="userSpaceOnUse">
<stop stop-color="#9ABFFF"/>
<stop offset="1" stop-color="#4A83E7"/>
</linearGradient>
<linearGradient id="paint3_linear_2326_532" x1="199.458" y1="92.7452" x2="202.601" y2="138.087" gradientUnits="userSpaceOnUse">
<stop stop-color="#4A83E7"/>
<stop offset="0.9736" stop-color="#E0BBFF"/>
</linearGradient>
<linearGradient id="paint4_linear_2326_532" x1="179.309" y1="285.349" x2="316.223" y2="148.561" gradientUnits="userSpaceOnUse">
<stop stop-color="#B9D2FF"/>
<stop offset="0.432292" stop-color="#83B0FF"/>
<stop offset="1" stop-color="#ACCAFF"/>
</linearGradient>
<linearGradient id="paint5_linear_2326_532" x1="194.886" y1="216.893" x2="300.524" y2="216.893" gradientUnits="userSpaceOnUse">
<stop stop-color="#29004C"/>
<stop offset="0.3089" stop-color="#45008D"/>
<stop offset="1" stop-color="#29004C"/>
</linearGradient>
<linearGradient id="paint6_linear_2326_532" x1="236.464" y1="121.59" x2="252.54" y2="121.59" gradientUnits="userSpaceOnUse">
<stop stop-color="#CED5F5"/>
<stop offset="1" stop-color="#FCF9FE"/>
</linearGradient>
<linearGradient id="paint7_linear_2326_532" x1="257.095" y1="121.59" x2="258.944" y2="121.59" gradientUnits="userSpaceOnUse">
<stop stop-color="#CED5F5"/>
<stop offset="1" stop-color="#FCF9FE"/>
</linearGradient>
<linearGradient id="paint8_linear_2326_532" x1="207.854" y1="185.289" x2="242.286" y2="150.889" gradientUnits="userSpaceOnUse">
<stop stop-color="#4A83E7"/>
<stop offset="1" stop-color="#70A4FF"/>
</linearGradient>
<linearGradient id="paint9_linear_2326_532" x1="253.154" y1="236.646" x2="287.586" y2="202.246" gradientUnits="userSpaceOnUse">
<stop stop-color="#659DFF"/>
<stop offset="0.999" stop-color="#5291FF"/>
</linearGradient>
<linearGradient id="paint10_linear_2326_532" x1="207.855" y1="288.003" x2="242.286" y2="253.604" gradientUnits="userSpaceOnUse">
<stop stop-color="#4A83E7"/>
<stop offset="0.999" stop-color="#8BB5FF"/>
</linearGradient>
<linearGradient id="paint11_linear_2326_532" x1="315.117" y1="185.783" x2="365.227" y2="185.783" gradientUnits="userSpaceOnUse">
<stop stop-color="#A01EB8"/>
<stop offset="0.999" stop-color="#5A20BD"/>
</linearGradient>
<linearGradient id="paint12_linear_2326_532" x1="315.117" y1="168.75" x2="365.227" y2="168.75" gradientUnits="userSpaceOnUse">
<stop stop-color="#A01EB8"/>
<stop offset="0.999" stop-color="#5A20BD"/>
</linearGradient>
<linearGradient id="paint13_linear_2326_532" x1="315.117" y1="151.717" x2="365.227" y2="151.717" gradientUnits="userSpaceOnUse">
<stop stop-color="#A01EB8"/>
<stop offset="0.999" stop-color="#5A20BD"/>
</linearGradient>
<linearGradient id="paint14_linear_2326_532" x1="315.117" y1="134.684" x2="365.227" y2="134.684" gradientUnits="userSpaceOnUse">
<stop stop-color="#A01EB8"/>
<stop offset="0.999" stop-color="#5A20BD"/>
</linearGradient>
<linearGradient id="paint15_linear_2326_532" x1="315.117" y1="117.651" x2="365.227" y2="117.651" gradientUnits="userSpaceOnUse">
<stop stop-color="#A01EB8"/>
<stop offset="0.999" stop-color="#5A20BD"/>
</linearGradient>
<linearGradient id="paint16_linear_2326_532" x1="324.356" y1="185.537" x2="324.356" y2="117.651" gradientUnits="userSpaceOnUse">
<stop stop-color="#CED5F5"/>
<stop offset="1" stop-color="#FCF9FE"/>
</linearGradient>
<linearGradient id="paint17_linear_2326_532" x1="333.169" y1="185.537" x2="333.169" y2="117.651" gradientUnits="userSpaceOnUse">
<stop stop-color="#CED5F5"/>
<stop offset="1" stop-color="#FCF9FE"/>
</linearGradient>
<linearGradient id="paint18_linear_2326_532" x1="341.981" y1="185.537" x2="341.981" y2="117.651" gradientUnits="userSpaceOnUse">
<stop stop-color="#CED5F5"/>
<stop offset="1" stop-color="#FCF9FE"/>
</linearGradient>
<linearGradient id="paint19_linear_2326_532" x1="350.794" y1="185.537" x2="350.794" y2="117.651" gradientUnits="userSpaceOnUse">
<stop stop-color="#CED5F5"/>
<stop offset="1" stop-color="#FCF9FE"/>
</linearGradient>
<linearGradient id="paint20_linear_2326_532" x1="359.605" y1="185.537" x2="359.605" y2="117.651" gradientUnits="userSpaceOnUse">
<stop stop-color="#CED5F5"/>
<stop offset="1" stop-color="#FCF9FE"/>
</linearGradient>
<linearGradient id="paint21_linear_2326_532" x1="337.572" y1="185.538" x2="337.572" y2="138.301" gradientUnits="userSpaceOnUse">
<stop offset="0.000965" stop-color="#4A83E7"/>
<stop offset="1" stop-color="#4A83E7"/>
</linearGradient>
<linearGradient id="paint22_linear_2326_532" x1="337.576" y1="185.539" x2="337.576" y2="138.302" gradientUnits="userSpaceOnUse">
<stop offset="0.000965" stop-color="#4A83E7"/>
<stop offset="1" stop-color="#4A83E7"/>
</linearGradient>
<linearGradient id="paint23_linear_2326_532" x1="337.581" y1="185.537" x2="337.581" y2="138.302" gradientUnits="userSpaceOnUse">
<stop offset="0.000965" stop-color="#4A83E7"/>
<stop offset="1" stop-color="#4A83E7"/>
</linearGradient>
<linearGradient id="paint24_linear_2326_532" x1="350.793" y1="185.537" x2="350.793" y2="147.164" gradientUnits="userSpaceOnUse">
<stop offset="0.000965" stop-color="#4A83E7"/>
<stop offset="1" stop-color="#4A83E7"/>
</linearGradient>
<linearGradient id="paint25_linear_2326_532" x1="359.605" y1="185.537" x2="359.605" y2="167.322" gradientUnits="userSpaceOnUse">
<stop offset="0.000965" stop-color="#4A83E7"/>
<stop offset="1" stop-color="#4A83E7"/>
</linearGradient>
<linearGradient id="paint26_linear_2326_532" x1="324.356" y1="128.804" x2="324.356" y2="117.651" gradientUnits="userSpaceOnUse">
<stop stop-color="#00FFFF"/>
<stop offset="1" stop-color="#00FFFF"/>
</linearGradient>
<linearGradient id="paint27_linear_2326_532" x1="108.372" y1="175.273" x2="204.681" y2="175.273" gradientUnits="userSpaceOnUse">
<stop stop-color="#4A83E7"/>
<stop offset="0.999" stop-color="#A4C5FF"/>
</linearGradient>
<linearGradient id="paint28_linear_2326_532" x1="163.489" y1="160.466" x2="163.489" y2="138.912" gradientUnits="userSpaceOnUse">
<stop stop-color="#4A83E7"/>
</linearGradient>
<linearGradient id="paint29_linear_2326_532" x1="329.717" y1="224.499" x2="358.26" y2="224.499" gradientUnits="userSpaceOnUse">
<stop stop-color="#4A83E7"/>
<stop offset="1" stop-color="#86B2FF"/>
</linearGradient>
<linearGradient id="paint30_linear_2326_532" x1="126.989" y1="226.166" x2="145.52" y2="226.166" gradientUnits="userSpaceOnUse">
<stop stop-color="#4A83E7"/>
<stop offset="1" stop-color="#CFE1FF"/>
</linearGradient>
<linearGradient id="paint31_linear_2326_532" x1="142.949" y1="244.714" x2="164.051" y2="244.714" gradientUnits="userSpaceOnUse">
<stop stop-color="#3C82FF"/>
<stop offset="1" stop-color="#9DC1FF"/>
</linearGradient>
<linearGradient id="paint32_linear_2326_532" x1="126.989" y1="243.429" x2="145.52" y2="243.429" gradientUnits="userSpaceOnUse">
<stop stop-color="#4A83E7"/>
<stop offset="0.999" stop-color="#4A83E7"/>
</linearGradient>
<linearGradient id="paint33_linear_2326_532" x1="152.519" y1="259.297" x2="158.176" y2="259.297" gradientUnits="userSpaceOnUse">
<stop stop-color="#00FFFF"/>
<stop offset="1" stop-color="#00FFFF"/>
</linearGradient>
<linearGradient id="paint34_linear_2326_532" x1="152.519" y1="263.566" x2="158.176" y2="263.566" gradientUnits="userSpaceOnUse">
<stop stop-color="#A01EB8"/>
<stop offset="0.999" stop-color="#5A20BD"/>
</linearGradient>
<linearGradient id="paint35_linear_2326_532" x1="160.678" y1="263.566" x2="166.335" y2="263.566" gradientUnits="userSpaceOnUse">
<stop stop-color="#4AA6EB"/>
<stop offset="1" stop-color="#00FFFF"/>
</linearGradient>
<linearGradient id="paint36_linear_2326_532" x1="79.4464" y1="228.428" x2="113.878" y2="194.028" gradientUnits="userSpaceOnUse">
<stop stop-color="#00A3FF"/>
<stop offset="1" stop-color="#4AA6EB"/>
</linearGradient>
<linearGradient id="paint37_linear_2326_532" x1="371.714" y1="272.6" x2="406.146" y2="238.201" gradientUnits="userSpaceOnUse">
<stop stop-color="#4A83E7"/>
<stop offset="0.9991" stop-color="#AECCFF"/>
</linearGradient>
<linearGradient id="paint38_linear_2326_532" x1="327.116" y1="317.429" x2="374.448" y2="266.116" gradientUnits="userSpaceOnUse">
<stop stop-color="#A5C5FF"/>
<stop offset="1" stop-color="#4AA6EB"/>
</linearGradient>
<linearGradient id="paint39_linear_2326_532" x1="82.6094" y1="291.329" x2="116.762" y2="257.207" gradientUnits="userSpaceOnUse">
<stop stop-color="#ACCAFE"/>
<stop offset="1" stop-color="#6899EE"/>
</linearGradient>
<linearGradient id="paint40_linear_2326_532" x1="377.442" y1="172.52" x2="434.303" y2="172.52" gradientUnits="userSpaceOnUse">
<stop stop-color="#CED5F5"/>
<stop offset="1" stop-color="#FCF9FE"/>
</linearGradient>
<linearGradient id="paint41_linear_2326_532" x1="405.956" y1="212.916" x2="405.956" y2="186.055" gradientUnits="userSpaceOnUse">
<stop stop-color="#00FFFF"/>
<stop offset="1" stop-color="#00FFFF"/>
</linearGradient>
<linearGradient id="paint42_linear_2326_532" x1="139.228" y1="288.703" x2="183.706" y2="288.703" gradientUnits="userSpaceOnUse">
<stop stop-color="#8EB7FF"/>
<stop offset="1" stop-color="#4AA6EB"/>
</linearGradient>
</defs>
</svg>
