<svg width="178" height="216" viewBox="0 0 178 216" fill="none" xmlns="http://www.w3.org/2000/svg">
<path d="M154.218 28.9754L154.881 28.2263L154.218 28.9754ZM154.219 116.79L153.53 116.064L154.219 116.79ZM147.374 158.991L146.387 158.828L147.374 158.991ZM106.282 215.298L117.671 213.396L110.329 204.484L106.282 215.298ZM1.03635 11.6763C1.35839 12.6231 1.35836 12.6231 1.35834 12.6231C1.35834 12.6231 1.35832 12.6231 1.35831 12.6231C1.3583 12.6231 1.35831 12.6231 1.35833 12.6231C1.35838 12.6231 1.35847 12.623 1.35864 12.623C1.35897 12.6229 1.35955 12.6227 1.36038 12.6224C1.36203 12.6218 1.36467 12.6209 1.36829 12.6197C1.37553 12.6173 1.3867 12.6135 1.40176 12.6085C1.43189 12.5983 1.47758 12.5831 1.53855 12.5629C1.6605 12.5226 1.84358 12.4626 2.08548 12.385C2.56928 12.2297 3.28836 12.0036 4.22431 11.7225L3.64896 9.80703C2.70046 10.0919 1.9694 10.3217 1.47417 10.4807C1.22656 10.5602 1.0379 10.622 0.910489 10.6641C0.846786 10.6852 0.798392 10.7013 0.765603 10.7123C0.749206 10.7178 0.736711 10.722 0.728151 10.7249C0.723869 10.7264 0.720576 10.7275 0.718268 10.7283C0.717111 10.7287 0.716208 10.729 0.715549 10.7292C0.715219 10.7293 0.714953 10.7294 0.714745 10.7295C0.714641 10.7295 0.714553 10.7295 0.714481 10.7296C0.714448 10.7296 0.714407 10.7296 0.714385 10.7296C0.714351 10.7296 0.714312 10.7296 1.03635 11.6763ZM10.1656 10.0512C11.9245 9.58592 13.9187 9.0824 16.1225 8.56246L15.6633 6.6159C13.4411 7.14017 11.4294 7.64808 9.65414 8.11765L10.1656 10.0512ZM22.14 7.223C24.0498 6.82285 26.0658 6.42388 28.1769 6.0354L27.8149 4.06843C25.687 4.46 23.655 4.86214 21.7298 5.2655L22.14 7.223ZM34.2674 4.99216C36.2369 4.67987 38.2698 4.38186 40.3591 4.10413L40.0956 2.12157C37.989 2.4016 35.9395 2.70203 33.9542 3.01684L34.2674 4.99216ZM46.463 3.37237C48.4655 3.15863 50.5094 2.96663 52.5893 2.80094L52.4305 0.807259C50.332 0.974426 48.2703 1.1681 46.2508 1.38366L46.463 3.37237ZM58.7302 2.39767C60.7541 2.29347 62.8054 2.21665 64.8795 2.17107L64.8356 0.171556C62.7411 0.217584 60.6702 0.29514 58.6273 0.400316L58.7302 2.39767ZM71.0314 2.13061C73.0653 2.14912 75.116 2.20002 77.1796 2.2867L77.2635 0.288469C75.1773 0.200824 73.1046 0.149397 71.0496 0.130689L71.0314 2.13061ZM83.3168 2.65075C85.349 2.80727 87.3895 3.00097 89.4346 3.23501L89.662 1.24798C87.5915 1.01103 85.5263 0.815 83.4704 0.656657L83.3168 2.65075ZM95.5229 4.05247C97.5391 4.36422 99.556 4.71796 101.57 5.11668L101.959 3.15475C99.9159 2.7504 97.8714 2.39184 95.8286 2.07596L95.5229 4.05247ZM107.563 6.4414C109.544 6.92662 111.519 7.45863 113.485 8.0403L114.052 6.12251C112.055 5.53156 110.049 4.99131 108.038 4.4988L107.563 6.4414ZM119.319 9.9264C121.241 10.6025 123.151 11.3299 125.045 12.1115L125.808 10.2628C123.88 9.46722 121.937 8.72715 119.982 8.03966L119.319 9.9264ZM130.639 14.6044C132.471 15.4838 134.285 16.4186 136.077 17.4114L137.047 15.6619C135.22 14.6498 133.371 13.6972 131.504 12.8013L130.639 14.6044ZM141.336 20.5356C143.046 21.6231 144.732 22.7689 146.392 23.9754L147.568 22.3578C145.874 21.1265 144.154 19.9574 142.41 18.848L141.336 20.5356ZM151.22 27.7248C152.006 28.3761 152.785 29.0426 153.556 29.7246L154.881 28.2263C154.093 27.53 153.298 26.8497 152.496 26.1848L151.22 27.7248ZM153.556 29.7246C154.333 30.4117 155.099 31.1163 155.852 31.8377L157.236 30.3936C156.463 29.6535 155.678 28.9309 154.881 28.2263L153.556 29.7246ZM160.175 36.3345C161.551 37.8907 162.863 39.5073 164.096 41.1795L165.706 39.992C164.436 38.2708 163.087 36.6084 161.674 35.0098L160.175 36.3345ZM167.552 46.3569C168.62 48.1379 169.596 49.9689 170.469 51.8452L172.282 51.0019C171.379 49.0595 170.369 47.1667 169.267 45.3287L167.552 46.3569ZM172.763 57.6097C173.413 59.5669 173.947 61.5641 174.351 63.5963L176.313 63.2058C175.891 61.0893 175.336 59.0121 174.661 56.9794L172.763 57.6097ZM175.161 69.7292C175.294 71.7625 175.293 73.8252 175.148 75.9132L177.143 76.0521C177.295 73.8732 177.295 71.7205 177.157 69.5991L175.161 69.7292ZM174.307 82.043C173.903 84.0167 173.364 86.0097 172.681 88.0187L174.575 88.6623C175.284 86.575 175.845 84.5012 176.266 82.4446L174.307 82.043ZM170.348 93.7622C169.489 95.5743 168.51 97.397 167.401 99.2279L169.111 100.264C170.255 98.3765 171.267 96.4938 172.155 94.6182L170.348 93.7622ZM163.931 104.404C162.737 106.026 161.438 107.653 160.029 109.282L161.542 110.59C162.984 108.923 164.316 107.255 165.542 105.589L163.931 104.404ZM155.783 113.861C155.056 114.596 154.305 115.33 153.53 116.064L154.907 117.516C155.696 116.767 156.461 116.018 157.204 115.269L155.783 113.861ZM153.53 116.064C152.867 116.694 152.187 117.311 151.492 117.915L152.804 119.424C153.52 118.802 154.222 118.165 154.907 117.516L153.53 116.064ZM147.186 121.35C145.707 122.434 144.179 123.461 142.612 124.427L143.661 126.13C145.273 125.136 146.845 124.079 148.368 122.964L147.186 121.35ZM137.807 127.135C136.168 127.976 134.498 128.752 132.807 129.458L133.577 131.303C135.317 130.577 137.034 129.779 138.72 128.914L137.807 127.135ZM127.64 131.374C125.88 131.945 124.109 132.439 122.335 132.852L122.787 134.8C124.619 134.374 126.445 133.865 128.258 133.276L127.64 131.374ZM116.926 133.85C115.091 134.099 113.264 134.256 111.457 134.314L111.522 136.313C113.4 136.252 115.295 136.09 117.195 135.831L116.926 133.85ZM105.986 134.18C104.148 134.025 102.344 133.758 100.586 133.373L100.158 135.327C102.006 135.732 103.898 136.011 105.819 136.173L105.986 134.18ZM95.3723 131.825C93.6766 131.178 92.0414 130.4 90.4793 129.487L89.4701 131.214C91.1305 132.185 92.8651 133.009 94.6592 133.693L95.3723 131.825ZM86.0581 126.363C85.3736 125.785 84.7089 125.172 84.0655 124.524L82.6466 125.933C83.3308 126.622 84.038 127.274 84.7666 127.891L86.0581 126.363ZM84.0655 124.524C83.4097 123.864 82.7806 123.17 82.179 122.445L80.6399 123.722C81.2783 124.491 81.9475 125.23 82.6466 125.933L84.0655 124.524ZM78.9537 117.829C78.008 116.217 77.175 114.518 76.4625 112.758L74.6086 113.508C75.3565 115.355 76.2321 117.142 77.2288 118.841L78.9537 117.829ZM74.7084 107.38C74.2471 105.547 73.9112 103.682 73.7074 101.812L71.7192 102.028C71.933 103.991 72.2854 105.947 72.7689 107.868L74.7084 107.38ZM73.5005 96.1674C73.5713 94.2696 73.7871 92.3953 74.1542 90.5721L72.1936 90.1773C71.8041 92.1115 71.5765 94.0932 71.5019 96.093L73.5005 96.1674ZM75.7493 85.198C76.449 83.4602 77.3145 81.8061 78.3526 80.264L76.6935 79.1472C75.5729 80.8119 74.6429 82.5909 73.894 84.451L75.7493 85.198ZM81.9575 76.0327C83.2793 74.8007 84.7671 73.6924 86.429 72.7334L85.4294 71.0011C83.6364 72.0358 82.0265 73.2344 80.5939 74.5696L81.9575 76.0327ZM91.5253 70.4653C93.2131 69.9071 95.0342 69.4722 96.9938 69.1779L96.6968 67.2001C94.6307 67.5104 92.6986 67.9708 90.8973 68.5665L91.5253 70.4653ZM102.64 68.7371C103.567 68.726 104.519 68.7422 105.496 68.7871L105.588 66.7892C104.573 66.7426 103.583 66.7257 102.616 66.7373L102.64 68.7371ZM105.496 68.7871C106.533 68.8347 107.547 68.9203 108.539 69.0425L108.784 67.0574C107.74 66.9289 106.675 66.8391 105.588 66.7892L105.496 68.7871ZM114.489 70.2773C116.465 70.866 118.341 71.616 120.121 72.5127L121.021 70.7265C119.136 69.777 117.15 68.9833 115.06 68.3605L114.489 70.2773ZM125.278 75.7035C126.894 76.9067 128.417 78.2485 129.849 79.7149L131.28 78.3178C129.779 76.7804 128.177 75.3685 126.472 74.0991L125.278 75.7035ZM133.797 84.3711C134.992 85.9867 136.107 87.7023 137.143 89.5054L138.877 88.5089C137.805 86.6439 136.649 84.8634 135.405 83.1817L133.797 84.3711ZM139.936 94.9838C140.77 96.8295 141.536 98.7409 142.235 100.707L144.12 100.037C143.403 98.0222 142.617 96.0595 141.759 94.1604L139.936 94.9838ZM144.09 106.594C144.635 108.561 145.122 110.567 145.551 112.602L147.508 112.19C147.07 110.115 146.574 108.068 146.017 106.06L144.09 106.594ZM146.655 118.697C146.965 120.73 147.222 122.781 147.429 124.843L149.419 124.644C149.209 122.549 148.947 120.463 148.632 118.395L146.655 118.697ZM147.896 131.025C148.002 133.094 148.059 135.162 148.068 137.223L150.068 137.214C150.059 135.123 150.001 133.023 149.893 130.923L147.896 131.025ZM147.954 143.425C147.867 145.51 147.732 147.577 147.551 149.614L149.543 149.791C149.727 147.722 149.864 145.625 149.952 143.508L147.954 143.425ZM146.852 155.77C146.709 156.8 146.554 157.82 146.387 158.828L148.36 159.155C148.53 158.13 148.688 157.092 148.833 156.045L146.852 155.77ZM146.387 158.828C146.232 159.766 146.038 160.707 145.808 161.65L147.752 162.123C147.992 161.134 148.196 160.145 148.36 159.155L146.387 158.828ZM144.079 167.171C143.403 168.954 142.618 170.733 141.743 172.498L143.535 173.386C144.435 171.569 145.247 169.731 145.949 167.881L144.079 167.171ZM138.944 177.622C137.951 179.289 136.893 180.935 135.788 182.551L137.438 183.681C138.566 182.033 139.646 180.352 140.663 178.645L138.944 177.622ZM132.348 187.301C131.149 188.871 129.92 190.402 128.678 191.886L130.212 193.169C131.471 191.665 132.719 190.111 133.937 188.515L132.348 187.301ZM124.818 196.318C123.462 197.815 122.115 199.247 120.8 200.602L122.235 201.995C123.565 200.624 124.928 199.176 126.301 197.66L124.818 196.318ZM116.624 204.767C115.083 206.256 113.635 207.603 112.327 208.789L113.671 210.27C114.992 209.072 116.456 207.71 118.013 206.206L116.624 204.767Z" fill="#5089EC"/>
</svg>
