<svg xmlns="http://www.w3.org/2000/svg" width="564" height="618" viewBox="0 0 564 618" fill="none">
<mask id="mask0_1782_2551" style="mask-type:alpha" maskUnits="userSpaceOnUse" x="0" y="0" width="565" height="618">
<rect x="0.464844" y="0.428711" width="564.438" height="617.283" fill="#D9D9D9"/>
</mask>
<g mask="url(#mask0_1782_2551)">
<path d="M623.591 50.6037C624.936 79.539 637.645 364.732 644.98 529.43C647.383 583.379 587.918 623.721 533.848 604.973L94.2536 452.547C33.5349 431.494 28.1031 354.681 85.3745 322.155C282.909 209.971 622.243 21.5916 623.591 50.6037Z" fill="url(#paint0_linear_1782_2551)" fill-opacity="0.33"/>
<path d="M590.243 24.2878C767.976 -54.3507 729.292 343.04 702.19 529.506C695.304 576.887 641.752 605.849 594.372 589.14L92.5268 412.16C31.5807 390.667 27.2083 313.174 85.4642 281.478C227.578 204.155 445.442 88.3555 590.243 24.2878Z" fill="url(#paint1_linear_1782_2551)"/>
<path d="M329.491 360.877C352.879 360.877 371.838 359.848 371.838 358.578C371.838 357.309 352.879 356.279 329.491 356.279C306.104 356.279 287.145 357.309 287.145 358.578C287.145 359.848 306.104 360.877 329.491 360.877Z" fill="#F5F9FF"/>
<path d="M329.491 357.716C329.491 357.716 290.457 313.75 314.655 298.808C338.71 284.009 329.491 341.624 329.491 341.624C329.491 341.624 334.1 245.647 362.764 252.974C391.427 260.446 341.59 341.049 341.59 341.049C341.59 341.049 385.666 280.417 412.024 303.262C438.383 326.25 329.491 357.716 329.491 357.716Z" fill="#8B94EA"/>
<path d="M358.298 269.929C333.956 307.285 329.635 357.716 329.635 357.716C329.635 357.716 361.035 323.952 395.604 313.751" stroke="#F5F9FF" stroke-width="0.3197" stroke-miterlimit="10"/>
<path d="M329.491 357.716C329.491 357.716 325.602 328.693 318.256 310.015" stroke="#F5F9FF" stroke-width="0.3197" stroke-miterlimit="10"/>
<path d="M325.459 358.865C325.459 358.865 280.807 355.129 284.12 346.365C287.433 337.457 323.01 354.555 323.01 354.555C323.01 354.555 291.034 337.888 297.515 328.549C303.997 319.21 327.043 351.537 327.043 351.537C327.043 351.537 317.392 313.463 337.414 315.187C357.291 316.911 331.22 352.543 331.22 352.543C331.22 352.543 349.225 327.543 358.587 330.417C367.949 333.29 333.957 355.56 333.957 355.56C333.957 355.56 369.246 346.078 372.559 351.537C375.871 356.853 325.459 358.865 325.459 358.865Z" fill="#BBBBFC"/>
<path d="M153.046 357.716C153.046 359.009 132.305 360.015 106.81 360.015C81.3155 360.015 60.5742 359.009 60.5742 357.716C60.5742 356.423 81.3155 355.417 106.81 355.417C132.305 355.417 153.046 356.423 153.046 357.716Z" fill="#F5F9FF"/>
<path d="M129.136 328.405C130.144 319.928 117.181 320.072 121.79 302.687C126.399 285.302 116.317 280.273 107.962 286.595C99.6084 292.917 92.8386 284.727 97.7359 276.25C102.633 267.773 99.8964 252.687 90.9661 249.67C82.0358 246.652 83.6203 269.066 75.9863 269.066C68.3523 269.066 66.3358 258.003 60.2863 243.779C54.2367 229.555 43.0018 233.865 42.7138 246.796C42.4257 259.871 64.1753 268.492 60.4303 279.555C56.8294 290.618 55.5331 298.52 61.4386 298.52C67.3441 298.52 78.723 289.181 75.6982 302.4C72.6735 315.618 97.7359 310.446 93.5588 325.963C89.3817 341.48 96.1515 353.549 106.954 358.29C107.098 358.147 127.263 346.078 129.136 328.405Z" fill="#8B94EA"/>
<path d="M60.1426 258.29C60.1426 258.29 65.4719 271.508 87.9417 291.336C116.317 316.48 107.243 342.916 107.099 358.146" stroke="#F5F9FF" stroke-width="0.3489" stroke-miterlimit="10"/>
<path d="M108.539 339.612C108.539 339.612 112.716 331.135 120.782 326.106" stroke="#F5F9FF" stroke-width="0.3489" stroke-miterlimit="10"/>
<path d="M102.489 309.439C102.489 309.439 107.531 295.359 113.724 291.336" stroke="#F5F9FF" stroke-width="0.3489" stroke-miterlimit="10"/>
<path d="M82.7568 286.594C82.7568 286.594 84.1972 270.215 88.5183 262.169" stroke="#F5F9FF" stroke-width="0.3489" stroke-miterlimit="10"/>
<path d="M85.6373 289.324C85.6373 289.324 75.5547 285.589 65.04 289.324" stroke="#F5F9FF" stroke-width="0.3489" stroke-miterlimit="10"/>
<path d="M104.506 313.462C104.506 313.462 95.7198 304.554 85.7812 303.979" stroke="#F5F9FF" stroke-width="0.3489" stroke-miterlimit="10"/>
<path d="M108.107 344.066C108.107 344.066 105.514 337.601 99.4648 332.859" stroke="#F5F9FF" stroke-width="0.3489" stroke-miterlimit="10"/>
<path d="M99.4644 344.067C101.769 338.032 105.226 338.463 110.843 335.446C116.461 332.572 114.444 327.544 113.868 321.078C113.292 314.613 118.909 312.026 125.103 313.032C131.153 314.038 133.313 306.998 134.897 301.251C136.482 295.503 141.379 289.613 147.573 292.486C153.766 295.216 149.589 302.256 149.589 306.71C149.445 311.021 152.902 315.618 157.799 317.055C162.553 318.348 161.544 328.837 152.038 329.411C142.675 329.986 130.864 329.555 130.864 335.59C130.864 341.624 126.831 354.842 108.251 358.291C103.641 359.009 96.7277 351.107 99.4644 344.067Z" fill="#A3A8FC"/>
<path d="M107.242 357.716C107.242 357.716 113.148 335.446 127.119 327.112C145.988 315.905 142.531 302.112 142.531 302.112" stroke="#F5F9FF" stroke-width="0.438" stroke-miterlimit="10"/>
<path d="M110.699 348.233C110.699 348.233 118.189 341.337 122.366 339.469" stroke="#F5F9FF" stroke-width="0.438" stroke-miterlimit="10"/>
<path d="M119.485 333.721C119.485 333.721 122.942 327.112 120.494 319.641" stroke="#F5F9FF" stroke-width="0.438" stroke-miterlimit="10"/>
<path d="M134.465 321.797C134.465 321.797 142.531 319.498 151.173 320.504" stroke="#F5F9FF" stroke-width="0.438" stroke-miterlimit="10"/>
<path d="M106.81 358.147C106.81 358.147 109.835 336.739 97.7361 321.509C84.7728 304.986 71.3773 309.009 64.1755 298.377C56.9737 287.745 46.8911 298.377 45.4507 306.567C44.0103 314.9 65.3278 306.279 65.1838 314.756C65.0397 323.377 60.8627 334.584 76.8507 331.135C92.8388 327.831 87.3654 337.314 85.493 344.067C82.3242 355.417 99.7526 352.4 106.81 358.147Z" fill="#BBBBFC"/>
<path d="M57.9814 303.262C57.9814 303.262 97.5916 320.216 106.81 358.147" stroke="#F5F9FF" stroke-width="0.3489" stroke-miterlimit="10"/>
<path d="M229.241 369.498C237.276 369.498 243.789 369.048 243.789 368.492C243.789 367.937 237.276 367.486 229.241 367.486C221.207 367.486 214.693 367.937 214.693 368.492C214.693 369.048 221.207 369.498 229.241 369.498Z" fill="#F5F9FF"/>
<path d="M229.674 368.636C229.674 368.636 246.67 354.986 238.748 348.09C230.826 341.193 230.682 362.888 230.682 362.888C230.682 362.888 234.859 327.544 223.912 328.549C212.965 329.555 226.217 362.026 226.217 362.026C226.217 362.026 213.83 337.17 202.739 343.923C191.792 350.532 229.674 368.636 229.674 368.636Z" fill="#F5F9FF"/>
<path d="M237.164 350.532C237.164 350.532 235.867 356.566 229.818 367.198C229.386 363.032 227.513 341.911 224.344 334.009L223.912 334.152C226.937 341.767 228.954 362.17 229.386 366.911C222.184 354.842 206.772 345.503 206.628 345.359L206.34 345.79C206.484 345.934 222.616 355.704 229.386 368.061V368.779L229.674 368.204C236.011 357.141 237.308 350.819 237.308 350.675L237.164 350.532Z" fill="#F5F9FF"/>
<path d="M258.049 254.842C258.049 248.376 252.72 243.06 246.238 243.06C245.086 243.06 244.078 242.055 244.078 240.905V219.641C244.078 216.624 241.629 214.037 238.46 214.037H217.143C215.99 214.037 214.982 213.032 214.982 211.882C214.982 205.417 209.653 200.101 203.171 200.101C196.689 200.101 191.36 205.417 191.36 211.882C191.36 213.032 190.352 214.037 189.2 214.037H167.882C164.857 214.037 162.265 216.48 162.265 219.641V289.899C162.265 292.917 164.713 295.503 167.882 295.503H238.316C241.341 295.503 243.934 293.06 243.934 289.899V268.635C243.934 267.486 244.942 266.48 246.094 266.48C252.72 266.48 258.049 261.307 258.049 254.842Z" fill="#1460E6"/>
<path d="M254.015 295.503H324.449C327.474 295.503 330.067 293.06 330.067 289.899V219.641C330.067 216.623 327.618 214.037 324.449 214.037H305.004C303.996 221.939 297.226 227.83 289.16 227.83C281.094 227.83 274.325 221.796 273.316 214.037H253.871C250.847 214.037 248.254 216.48 248.254 219.641V239.037C256.176 240.043 262.081 246.796 262.081 254.842C262.081 262.888 256.032 269.641 248.254 270.646V290.043C248.398 293.06 250.847 295.503 254.015 295.503Z" fill="#F5F9FF"/>
<path d="M442.128 388.176C442.128 390.618 418.506 392.486 389.267 392.486C360.027 392.486 336.405 390.618 336.405 388.176C336.405 385.733 360.027 383.865 389.267 383.865C418.506 383.865 442.128 385.877 442.128 388.176Z" fill="#F5F9FF"/>
<path d="M410.728 372.227C410.728 372.227 411.304 375.387 413.752 377.974C416.201 380.416 416.201 381.853 416.201 381.853L397.908 388.175C397.908 388.175 396.9 384.439 399.781 383.433C402.806 382.428 406.262 379.698 405.974 376.681C405.686 373.663 405.974 373.52 405.974 373.52L410.728 372.227Z" fill="#16125B"/>
<path d="M389.266 273.951C389.266 273.951 383.073 305.848 388.114 326.825C393.155 347.658 404.966 377.687 404.966 377.687L412.744 375.101C412.744 375.101 401.221 315.762 403.814 308.865C406.407 301.968 415.049 277.687 410.584 271.652C406.695 266.193 395.028 261.739 389.266 273.951Z" fill="#2B1A76"/>
<path d="M380.337 377.4C380.337 377.4 379.905 380.705 381.345 383.866C382.785 387.027 382.353 388.32 382.353 388.32H362.908C362.908 388.32 363.052 384.44 366.221 384.44C369.39 384.44 374.287 382.429 375.007 379.412C375.727 376.395 376.016 376.395 376.016 376.395L380.337 377.4Z" fill="#16125B"/>
<path d="M372.415 271.653C372.415 271.653 362.332 303.837 364.061 319.21C365.789 334.584 374.143 380.273 374.143 380.273H381.057V316.624C381.057 316.624 394.741 286.308 396.181 276.825C397.765 267.199 378.032 257.716 372.415 271.653Z" fill="#352480"/>
<path d="M348.36 188.894C348.792 187.17 348.072 185.59 347.784 185.877C347.352 186.308 347.208 187.745 346.776 188.607C346.776 188.607 344.327 184.871 342.311 185.446C340.726 185.877 339.286 189.325 340.294 191.48C341.302 193.779 345.335 195.934 347.352 198.521L350.953 195.36C351.097 195.36 347.64 192.486 348.36 188.894Z" fill="#FEC9C5"/>
<path d="M400.214 206.566C397.621 206.71 371.694 209.727 371.694 209.727C371.694 209.727 350.233 192.773 349.801 192.342C349.368 191.911 345.479 197.227 345.479 197.227C345.479 197.227 364.06 217.917 369.39 220.359C374.719 222.802 385.234 220.503 397.045 218.779C408.856 217.342 407.127 206.423 400.214 206.566Z" fill="#F5F9FF"/>
<path d="M395.893 206.711C391.571 207.429 377.168 204.843 375.583 222.228C374.431 234.728 377.168 251.825 371.982 273.521C371.982 273.521 401.51 287.601 411.449 276.825C419.659 267.917 417.354 232.142 414.473 223.234C411.593 214.325 409 204.412 395.893 206.711Z" fill="#F5F9FF"/>
<path d="M382.208 191.049C382.208 197.658 387.393 203.693 392.435 203.693C397.476 203.693 399.781 198.233 399.781 191.624C399.781 185.015 395.747 179.555 390.706 179.555C385.521 179.411 382.208 184.296 382.208 191.049Z" fill="#FEC9C5"/>
<path d="M397.765 201.25C397.765 201.25 399.061 206.423 398.773 207.285C398.197 209.009 391.139 209.153 389.843 208.434C388.547 207.716 390.419 200.676 390.419 200.676L397.765 201.25Z" fill="#FEC9C5"/>
<path d="M378.463 177.112C378.463 177.112 378.031 188.176 385.665 187.457C385.665 187.457 386.674 192.055 389.554 192.055C389.554 192.055 391.283 189.469 392.579 190.475C394.019 191.337 392.003 194.929 390.419 195.072C390.419 195.072 389.122 202.4 396.036 202.256C396.036 202.256 400.645 203.549 404.534 196.078C408.423 188.607 404.822 183.003 402.806 183.003C402.806 183.003 400.213 175.963 395.604 175.819C390.995 175.819 381.776 180.704 378.463 177.112Z" fill="#352480"/>
<path d="M351.385 208.291L359.739 138.463C360.171 135.446 357.866 132.572 354.842 132.285L284.84 123.951C281.815 123.52 278.934 125.819 278.646 128.837L276.053 149.957C275.909 151.107 274.901 151.969 273.749 151.825C267.267 151.107 261.506 155.704 260.642 162.026C259.921 168.492 264.531 174.239 270.868 175.101C272.02 175.245 272.885 176.25 272.741 177.4L270.148 198.52C269.716 201.538 272.02 204.411 275.045 204.699L296.219 207.285C297.371 207.429 298.235 208.434 298.091 209.584C297.371 216.049 301.98 221.796 308.318 222.658C314.799 223.377 320.561 218.779 321.425 212.457C321.569 211.308 322.577 210.446 323.73 210.589L344.903 213.176C348.216 213.607 350.953 211.308 351.385 208.291Z" fill="#1460E6"/>
<path d="M331.22 202.544C331.652 200.819 330.932 199.239 330.643 199.526C330.211 199.957 330.067 201.394 329.635 202.256C329.635 202.256 327.187 198.521 325.17 199.095C323.586 199.526 322.145 202.975 323.154 205.13C324.162 207.429 328.195 209.584 330.211 212.17L333.812 209.009C333.812 209.009 330.355 206.135 331.22 202.544Z" fill="#FEC9C5"/>
<path d="M385.377 211.451C381.056 207.86 377.455 210.446 357.29 226.107L332.371 206.566L328.482 210.589C328.482 210.589 348.36 242.917 358.154 242.917C367.949 242.917 390.418 215.905 385.377 211.451Z" fill="#F5F9FF"/>
<path d="M168.026 170.072C167.162 168.492 167.162 166.624 167.594 166.911C168.17 167.198 169.178 168.348 169.754 168.923C169.754 168.923 170.474 168.635 170.763 167.198C171.051 165.762 170.763 163.606 171.771 163.606C173.499 163.606 176.956 167.629 176.524 170.072C176.236 172.658 172.923 175.963 171.771 179.267L167.306 177.256C167.306 177.256 169.754 173.377 168.026 170.072Z" fill="#FEC9C5"/>
<path d="M123.951 207.572C126.399 206.71 152.614 200.101 152.614 200.101C152.614 200.101 167.018 175.676 167.306 175.245C167.594 174.67 173.211 178.406 173.211 178.406C173.211 178.406 162.985 205.273 158.808 209.584C154.631 213.894 143.54 215.618 131.585 218.348C119.63 221.078 117.181 209.871 123.951 207.572Z" fill="#2B1A76"/>
<path d="M220.888 183.722L213.83 165.618C212.678 165.906 211.382 166.049 210.085 166.049C203.46 166.049 197.554 161.883 195.25 155.848C193.665 151.825 193.809 147.515 195.538 143.635C196.978 140.474 199.427 137.745 202.451 136.164L195.394 118.061C194.529 115.906 192.513 114.469 190.208 114.469C189.488 114.469 188.912 114.612 188.192 114.9L122.367 140.187C120.927 140.762 119.918 141.768 119.198 143.204C118.622 144.497 118.622 146.078 119.054 147.515L144.405 213.032C145.269 215.187 147.285 216.624 149.59 216.624C150.31 216.624 151.03 216.48 151.606 216.193L169.755 209.153C167.883 201.394 171.916 193.492 179.55 190.618C181.422 189.9 183.295 189.612 185.311 189.612C191.217 189.612 196.546 192.773 199.283 197.946L217.431 190.906C220.456 189.756 221.896 186.595 220.888 183.722Z" fill="#4A83E7"/>
<path d="M141.524 380.849C141.524 380.849 141.956 384.153 140.515 387.458C139.075 390.762 139.507 392.055 139.507 392.055H159.528C159.528 392.055 159.384 388.176 156.071 388.176C152.758 388.176 147.717 386.165 146.997 383.004C146.277 379.986 145.845 379.843 145.845 379.843L141.524 380.849Z" fill="#16125B"/>
<path d="M149.734 271.653C149.734 271.653 160.105 304.986 158.376 320.934C156.648 336.883 147.861 384.009 147.861 384.009H140.66V318.204C140.66 318.204 126.544 286.883 124.96 276.969C123.519 267.055 143.828 257.285 149.734 271.653Z" fill="#F5F9FF"/>
<path d="M91.3986 371.222C91.3986 371.222 90.1023 374.383 87.0775 376.394C84.0527 378.406 83.7646 379.842 83.7646 379.842L100.905 390.187C100.905 390.187 102.778 386.739 100.041 385.015C97.3041 383.291 94.2793 379.842 95.2876 376.969C96.2959 373.952 96.0078 373.664 96.0078 373.664L91.3986 371.222Z" fill="#16125B"/>
<path d="M137.634 276.968C137.634 276.968 133.457 309.871 123.951 329.986C114.444 350.101 96.1516 377.974 96.1516 377.974L88.8057 373.664C88.8057 373.664 105.082 326.25 110.699 315.474C109.547 307.859 107.098 274.67 112.86 269.353C118.045 264.756 134.321 263.319 137.634 276.968Z" fill="#F5F9FF"/>
<path d="M125.392 204.555C129.857 205.417 147.429 202.543 146.421 220.646C143.972 260.445 154.775 271.221 147.573 274.813C147.573 274.813 119.63 288.319 109.404 277.112C100.905 267.917 103.354 230.848 106.379 221.652C109.26 212.457 111.852 202.112 125.392 204.555Z" fill="#352480"/>
<path d="M156.647 172.514C155.495 171.078 155.495 169.21 155.927 169.354C156.503 169.497 157.655 170.503 158.376 171.078C158.376 171.078 158.952 170.647 159.096 169.21C159.24 167.773 158.664 165.618 159.672 165.474C161.4 165.187 165.289 168.779 165.289 171.365C165.289 173.951 162.409 177.687 161.689 180.991L156.935 179.555C156.935 179.698 158.808 175.532 156.647 172.514Z" fill="#FEC9C5"/>
<path d="M115.741 215.474C117.037 209.871 121.646 209.727 148.149 210.302L156.647 178.692L162.409 179.698C162.409 179.698 166.01 218.635 157.944 224.813C149.733 230.704 114.156 222.227 115.741 215.474Z" fill="#43328E"/>
<path d="M123.375 198.952C123.375 198.952 122.079 204.268 122.367 205.273C122.943 207.141 130.289 207.285 131.585 206.566C132.882 205.848 131.009 198.521 131.009 198.521L123.375 198.952Z" fill="#EC9A8E"/>
<path d="M117.181 185.015C117.181 185.015 114.156 196.941 123.231 199.958C123.231 199.958 126.256 181.998 117.181 185.015Z" fill="#2B2B99"/>
<path d="M139.363 191.049C139.363 197.946 134.034 204.412 128.848 203.98C124.527 203.693 121.358 198.377 121.358 191.48C121.358 184.584 125.535 178.98 130.721 178.98C135.906 179.124 139.363 184.153 139.363 191.049Z" fill="#FEC9C5"/>
<path d="M141.092 177.688C141.092 177.688 147.718 183.147 140.804 188.751C137.203 191.624 132.738 183.866 126.688 187.027C126.688 187.027 126.688 192.486 123.951 193.061C123.951 193.061 119.054 194.211 116.75 190.619C115.597 188.895 115.021 183.578 117.47 183.004C117.47 183.004 120.495 175.82 126.4 177.544C135.907 180.13 137.491 174.67 141.092 177.688Z" fill="#352480"/>
<path d="M123.231 192.343C123.231 193.636 122.367 194.785 121.215 194.785C120.062 194.785 119.198 193.78 119.198 192.343C119.198 191.05 120.062 189.9 121.215 189.9C122.367 189.9 123.231 191.05 123.231 192.343Z" fill="#FEC9C5"/>
<g opacity="0.78">
<path d="M483.658 102.134L475.848 105.473C474.955 105.918 473.839 105.473 473.393 104.805C470.938 101.466 468.037 98.5725 464.69 96.3465C463.797 95.9013 463.574 94.7883 463.797 93.8978L466.921 86.1067C467.368 84.9937 466.921 83.8807 465.806 83.4355L457.326 80.0964C456.21 79.6512 455.094 80.0964 454.648 81.2094L451.523 89.0006C451.077 89.891 450.184 90.3362 449.292 90.3362C445.275 89.6684 441.258 89.6684 437.018 90.5588C436.125 90.7814 435.01 90.3362 434.786 89.4458L431.439 81.6546C430.993 80.5416 429.877 80.0964 428.761 80.5416L420.281 84.1033C419.165 84.5485 418.719 85.6615 419.165 86.7745L422.513 94.5657C422.959 95.4561 422.513 96.5691 421.843 97.0143C418.496 99.463 415.595 102.357 413.363 105.696C412.917 106.586 411.801 106.809 410.908 106.586L403.098 103.47C401.982 103.025 400.866 103.47 400.42 104.583L397.072 113.042C396.626 114.155 397.072 115.268 398.188 115.713L405.999 118.83C406.891 119.275 407.338 120.165 407.338 121.056C406.668 125.062 406.668 129.069 407.561 133.299C407.784 134.189 407.338 135.302 406.445 135.525L398.635 138.864C397.519 139.309 397.072 140.422 397.519 141.535L401.089 149.994C401.536 151.107 402.651 151.552 403.767 151.107L411.578 147.768C412.47 147.323 413.586 147.768 414.033 148.436C416.487 151.775 419.388 154.669 422.736 156.895C423.628 157.34 423.852 158.453 423.628 159.343L420.504 167.135C420.058 168.248 420.504 169.361 421.62 169.806L430.1 173.145C431.216 173.59 432.332 173.145 432.778 172.032L435.902 164.241C436.349 163.35 437.241 162.905 438.134 162.905C442.151 163.573 446.168 163.573 450.408 162.683C451.3 162.46 452.416 162.905 452.639 163.796L455.987 171.587C456.433 172.7 457.549 173.145 458.665 172.7L467.145 169.138C468.26 168.693 468.707 167.58 468.26 166.467L464.913 158.676C464.467 157.785 464.913 156.672 465.583 156.227C468.93 153.778 471.831 150.885 474.063 147.545C474.509 146.655 475.625 146.432 476.517 146.655L484.328 149.772C485.444 150.217 486.56 149.772 487.006 148.658L490.353 140.2C490.8 139.087 490.353 137.973 489.237 137.528L481.427 134.412C480.534 133.967 480.088 133.076 480.088 132.186C480.757 128.179 480.757 124.172 479.865 119.943C479.642 119.052 480.088 117.939 480.981 117.717L488.791 114.377C489.907 113.932 490.353 112.819 489.907 111.706L486.336 103.247C485.89 102.134 484.774 101.689 483.658 102.134ZM453.309 148.658C441.035 154.001 426.753 148.213 421.62 135.97C416.264 123.727 422.066 109.48 434.34 104.36C446.614 99.0177 460.896 104.805 466.029 117.049C471.385 129.292 465.583 143.539 453.309 148.658Z" fill="white"/>
<path opacity="0.5" d="M65.1388 189.982L60.8987 191.54C60.4524 191.762 59.7829 191.54 59.5598 191.095C58.444 189.314 56.8818 187.533 55.0966 186.197C54.6502 185.975 54.6502 185.307 54.8734 184.862L56.8818 180.855C57.105 180.41 56.8818 179.742 56.4355 179.297L51.9723 177.071C51.526 176.848 50.8565 177.071 50.4102 177.516L48.4018 181.523C48.1786 181.968 47.7323 182.19 47.0628 182.19C45.0544 181.745 42.8228 181.523 40.5912 181.745C40.1448 181.745 39.4754 181.523 39.4754 181.077L37.9132 176.848C37.6901 176.18 37.0206 175.958 36.5743 176.18L31.8879 177.738C31.2184 177.961 30.9953 178.629 31.2184 179.074L32.7806 183.303C33.0037 183.749 32.7806 184.417 32.3342 184.639C30.549 185.752 28.7637 187.31 27.4247 189.091C27.2016 189.536 26.5321 189.536 26.0858 189.314L22.0689 187.31C21.6226 187.088 20.9531 187.31 20.5068 187.756L18.2752 192.208C18.052 192.653 18.2752 193.321 18.7215 193.766L22.7384 195.769C23.1847 195.992 23.4078 196.437 23.4078 197.105C22.9615 199.108 22.7384 201.334 22.9615 203.56C22.9615 204.006 22.7384 204.673 22.292 204.673L18.052 206.232C17.3825 206.454 17.1594 207.122 17.3825 207.567L18.9446 212.242C19.1678 212.91 19.8373 213.132 20.2836 212.91L24.5236 211.352C24.97 211.129 25.6394 211.352 25.8626 211.797C26.9784 213.578 28.5405 215.358 30.3258 216.694C30.7721 216.917 30.7721 217.585 30.549 218.03L28.5405 222.037C28.3174 222.482 28.5405 223.15 28.9868 223.595L33.45 225.821C33.8964 226.043 34.5658 225.821 35.0122 225.376L37.0206 221.369C37.2438 220.924 37.6901 220.701 38.3596 220.701C40.368 221.146 42.5996 221.369 44.8312 221.146C45.2775 221.146 45.947 221.369 45.947 221.814L47.5091 226.043C47.7323 226.711 48.4018 226.934 48.8481 226.711L53.5344 225.153C54.2039 224.93 54.4271 224.263 54.2039 223.817L52.6418 219.588C52.4186 219.143 52.6418 218.475 53.0881 218.252C54.8734 217.139 56.6587 215.581 57.9976 213.8C58.2208 213.355 58.8903 213.355 59.3366 213.578L63.3535 215.581C63.7998 215.804 64.4693 215.581 64.9156 215.136L67.1472 210.684C67.3704 210.239 67.1472 209.571 66.7009 209.126L62.684 207.122C62.2377 206.9 62.0145 206.454 62.0145 205.787C62.4608 203.783 62.684 201.557 62.4608 199.331C62.4608 198.886 62.684 198.218 63.1303 198.218L67.3704 196.66C68.0398 196.437 68.263 195.769 68.0398 195.324L66.4777 190.649C66.2546 189.982 65.8082 189.759 65.1388 189.982ZM47.0628 213.8C40.368 216.249 32.7806 212.687 30.549 205.787C28.0942 199.108 31.6648 191.54 38.5827 189.314C45.2775 186.865 52.865 190.427 55.0966 197.328C57.3282 204.006 53.7576 211.352 47.0628 213.8Z" fill="#4A83E7"/>
</g>
<g opacity="0.17">
<path d="M78.7227 93.4912V100.244" stroke="#F5F9FF" stroke-width="1.433" stroke-miterlimit="10" stroke-linecap="round" stroke-linejoin="round"/>
<path d="M82.1799 96.9395H75.4102" stroke="#F5F9FF" stroke-width="1.433" stroke-miterlimit="10" stroke-linecap="round" stroke-linejoin="round"/>
<path d="M229.386 130.129V134.727" stroke="#F5F9FF" stroke-width="0.9789" stroke-miterlimit="10" stroke-linecap="round" stroke-linejoin="round"/>
<path d="M231.69 132.428H227.081" stroke="#F5F9FF" stroke-width="0.9789" stroke-miterlimit="10" stroke-linecap="round" stroke-linejoin="round"/>
<path d="M408.424 172.945V177.399" stroke="#F5F9FF" stroke-width="0.9789" stroke-miterlimit="10" stroke-linecap="round" stroke-linejoin="round"/>
<path d="M410.728 175.244H406.119" stroke="#F5F9FF" stroke-width="0.9789" stroke-miterlimit="10" stroke-linecap="round" stroke-linejoin="round"/>
<path d="M193.952 310.158V316.767" stroke="#F5F9FF" stroke-width="1.433" stroke-miterlimit="10" stroke-linecap="round" stroke-linejoin="round"/>
<path d="M197.265 313.463H190.64" stroke="#F5F9FF" stroke-width="1.433" stroke-miterlimit="10" stroke-linecap="round" stroke-linejoin="round"/>
<path d="M133.889 112.026C133.889 114.037 132.305 115.618 130.288 115.618C128.272 115.618 126.688 114.037 126.688 112.026C126.688 110.014 128.272 108.434 130.288 108.434C132.305 108.434 133.889 110.014 133.889 112.026Z" stroke="#F5F9FF" stroke-width="1.1286" stroke-miterlimit="10" stroke-linecap="round" stroke-linejoin="round"/>
<path d="M450.915 330.704C450.915 332.716 449.33 334.296 447.314 334.296C445.297 334.296 443.713 332.716 443.713 330.704C443.713 328.693 445.297 327.112 447.314 327.112C449.33 327.112 450.915 328.836 450.915 330.704Z" stroke="#F5F9FF" stroke-width="1.1286" stroke-miterlimit="10" stroke-linecap="round" stroke-linejoin="round"/>
<path d="M305.437 104.555C305.437 106.566 303.853 108.147 301.836 108.147C299.82 108.147 298.235 106.566 298.235 104.555C298.235 102.543 299.82 100.963 301.836 100.963C303.853 101.107 305.437 102.687 305.437 104.555Z" stroke="#F5F9FF" stroke-width="1.1286" stroke-miterlimit="10" stroke-linecap="round" stroke-linejoin="round"/>
<path d="M14.1943 119.641L17.3631 122.658L20.3879 119.641L23.5567 122.658L26.5815 119.641L29.7503 122.658L32.7751 119.641L35.9439 122.658" stroke="#F5F9FF" stroke-width="1.433" stroke-miterlimit="10" stroke-linecap="round" stroke-linejoin="round"/>
<path d="M432.909 231.997L436.078 234.871L439.103 231.997L442.272 234.871L445.296 231.997L448.465 234.871L451.49 231.997L454.659 234.871" stroke="#F5F9FF" stroke-width="1.433" stroke-miterlimit="10" stroke-linecap="round" stroke-linejoin="round"/>
</g>
</g>
<defs>
<linearGradient id="paint0_linear_1782_2551" x1="616.374" y1="37.3368" x2="283.244" y2="633.211" gradientUnits="userSpaceOnUse">
<stop stop-color="#4A83E7"/>
<stop offset="0.84375" stop-color="#4A83E7"/>
</linearGradient>
<linearGradient id="paint1_linear_1782_2551" x1="-56.4136" y1="349.403" x2="802.538" y2="318.209" gradientUnits="userSpaceOnUse">
<stop stop-color="#4A83E7"/>
<stop offset="1" stop-color="#6BA1FF"/>
</linearGradient>
</defs>
</svg>