<svg width="59" height="66" viewBox="0 0 59 66" fill="none" xmlns="http://www.w3.org/2000/svg">
<path fill-rule="evenodd" clip-rule="evenodd" d="M15.5264 29.5007V14.4641C15.5264 14.4641 24.4643 14.6318 29.3801 14.4641C34.2957 14.2964 43.178 16.1969 45.2447 23.6873C47.3113 31.1774 42.2279 39.6739 30.7764 39.618H23.6821V48.5431L15.5264 48.6454V33.1339C15.5264 33.1339 27.3693 33.1339 29.6593 33.1339C31.9498 33.1339 37.7033 32.4908 37.4244 27.2088C37.1448 21.9264 33.4021 21.0878 30.7764 21.1159C28.1512 21.1439 23.7657 21.1159 23.7657 21.1159V29.4724L15.5264 29.5007Z" fill="#4A83E7"/>
<path fill-rule="evenodd" clip-rule="evenodd" d="M35.4521 42.759C35.4521 42.759 40.8587 42.1645 42.7721 41.1035L48.0224 48.632L39.5457 48.6455L35.4521 42.759Z" fill="#4A83E7"/>
<path fill-rule="evenodd" clip-rule="evenodd" d="M0.442383 47.4983C0.442383 48.8564 1.17603 50.1122 2.3666 50.7915L27.6815 65.2317C28.872 65.9104 30.3391 65.9104 31.53 65.2317L56.8447 50.7915C58.0352 50.1122 58.7686 48.8564 58.7686 47.4983V18.6175C58.7686 17.2592 58.0352 16.0039 56.8447 15.3248L31.53 0.884411C30.3391 0.205196 28.872 0.205196 27.6815 0.884411L2.3666 15.3248C1.17603 16.0039 0.442383 17.2591 0.442383 18.6175V47.4983ZM27.8613 62.2253L4.9116 49.1342C3.83216 48.5184 3.16711 47.3802 3.16711 46.1493V19.9669C3.16711 18.7354 3.83216 17.5974 4.9116 16.9817L27.8613 3.89071C28.9406 3.27499 30.2705 3.27499 31.3498 3.89071L54.2995 16.9817C55.3787 17.5974 56.0439 18.7354 56.0439 19.9669V46.1493C56.0439 47.3802 55.3787 48.5184 54.2995 49.1342L31.3498 62.2253C30.2705 62.8411 28.9406 62.8411 27.8613 62.2253Z" fill="#4A83E7"/>
</svg>
